<svg width="329" height="81" viewBox="0 0 329 81" fill="none" xmlns="http://www.w3.org/2000/svg">
<rect x="0.5" y="0.114258" width="328" height="80" rx="8" fill="#FAFAFA"/>
<path d="M27.7723 32.6023C27.7323 32.6023 27.6963 32.5903 27.6643 32.5663C27.6403 32.5343 27.6283 32.4983 27.6283 32.4583V29.2423C27.6283 29.2103 27.6243 29.1863 27.6163 29.1703L25.1443 24.3823C25.1283 24.3503 25.1203 24.3263 25.1203 24.3103C25.1203 24.2463 25.1643 24.2143 25.2523 24.2143H26.4403C26.5203 24.2143 26.5763 24.2503 26.6083 24.3223L28.2883 27.6703C28.3123 27.7023 28.3363 27.7023 28.3603 27.6703L30.0523 24.3223C30.0923 24.2503 30.1483 24.2143 30.2203 24.2143H31.4203C31.4763 24.2143 31.5123 24.2303 31.5283 24.2623C31.5523 24.2943 31.5523 24.3343 31.5283 24.3823L29.0443 29.1703C29.0283 29.2023 29.0203 29.2263 29.0203 29.2423V32.4583C29.0203 32.4983 29.0043 32.5343 28.9723 32.5663C28.9483 32.5903 28.9163 32.6023 28.8763 32.6023H27.7723ZM34.889 32.7103C34.257 32.7103 33.713 32.5503 33.257 32.2303C32.809 31.9103 32.493 31.4663 32.309 30.8983C32.173 30.4663 32.105 30.0103 32.105 29.5303C32.105 29.0183 32.169 28.5623 32.297 28.1623C32.481 27.6023 32.801 27.1663 33.257 26.8543C33.713 26.5423 34.261 26.3863 34.901 26.3863C35.509 26.3863 36.033 26.5423 36.473 26.8543C36.921 27.1663 37.237 27.5983 37.421 28.1503C37.565 28.5343 37.637 28.9903 37.637 29.5183C37.637 30.0223 37.569 30.4783 37.433 30.8863C37.249 31.4543 36.933 31.9023 36.485 32.2303C36.037 32.5503 35.505 32.7103 34.889 32.7103ZM34.889 31.5103C35.185 31.5103 35.437 31.4263 35.645 31.2583C35.861 31.0903 36.017 30.8543 36.113 30.5503C36.193 30.2863 36.233 29.9503 36.233 29.5423C36.233 29.1103 36.193 28.7743 36.113 28.5343C36.025 28.2303 35.873 27.9983 35.657 27.8383C35.441 27.6703 35.177 27.5863 34.865 27.5863C34.569 27.5863 34.313 27.6703 34.097 27.8383C33.881 27.9983 33.725 28.2303 33.629 28.5343C33.549 28.8143 33.509 29.1503 33.509 29.5423C33.509 29.9343 33.549 30.2703 33.629 30.5503C33.717 30.8543 33.869 31.0903 34.085 31.2583C34.309 31.4263 34.577 31.5103 34.889 31.5103ZM43.077 26.6263C43.077 26.5863 43.089 26.5543 43.113 26.5303C43.145 26.4983 43.181 26.4823 43.221 26.4823H44.313C44.353 26.4823 44.385 26.4983 44.409 26.5303C44.441 26.5543 44.457 26.5863 44.457 26.6263V32.4703C44.457 32.5103 44.441 32.5463 44.409 32.5783C44.385 32.6023 44.353 32.6143 44.313 32.6143H43.221C43.181 32.6143 43.145 32.6023 43.113 32.5783C43.089 32.5463 43.077 32.5103 43.077 32.4703V32.0863C43.077 32.0623 43.069 32.0463 43.053 32.0383C43.037 32.0303 43.021 32.0383 43.005 32.0623C42.677 32.4863 42.185 32.6983 41.529 32.6983C40.921 32.6983 40.409 32.5223 39.993 32.1703C39.585 31.8183 39.381 31.3183 39.381 30.6703V26.6263C39.381 26.5863 39.393 26.5543 39.417 26.5303C39.449 26.4983 39.485 26.4823 39.525 26.4823H40.629C40.669 26.4823 40.701 26.4983 40.725 26.5303C40.757 26.5543 40.773 26.5863 40.773 26.6263V30.2743C40.773 30.6503 40.869 30.9503 41.061 31.1743C41.261 31.3983 41.537 31.5103 41.889 31.5103C42.249 31.5103 42.537 31.3983 42.753 31.1743C42.969 30.9503 43.077 30.6503 43.077 30.2743V26.6263ZM51.6875 26.3863C52.1915 26.3863 52.6355 26.4743 53.0195 26.6503C53.4035 26.8263 53.6995 27.0703 53.9075 27.3823C54.1155 27.6863 54.2195 28.0343 54.2195 28.4263V32.4703C54.2195 32.5103 54.2035 32.5463 54.1715 32.5783C54.1475 32.6023 54.1155 32.6143 54.0755 32.6143H52.9715C52.9315 32.6143 52.8955 32.6023 52.8635 32.5783C52.8395 32.5463 52.8275 32.5103 52.8275 32.4703V32.0863C52.8275 32.0623 52.8195 32.0503 52.8035 32.0503C52.7875 32.0423 52.7715 32.0463 52.7555 32.0623C52.3635 32.4943 51.7955 32.7103 51.0515 32.7103C50.4515 32.7103 49.9555 32.5583 49.5635 32.2543C49.1795 31.9503 48.9875 31.4983 48.9875 30.8983C48.9875 30.2743 49.2035 29.7903 49.6355 29.4463C50.0755 29.0943 50.6915 28.9183 51.4835 28.9183H52.7675C52.8075 28.9183 52.8275 28.8983 52.8275 28.8583V28.5703C52.8275 28.2583 52.7355 28.0183 52.5515 27.8503C52.3675 27.6743 52.0915 27.5863 51.7235 27.5863C51.4195 27.5863 51.1715 27.6423 50.9795 27.7543C50.7955 27.8583 50.6795 28.0063 50.6315 28.1983C50.6075 28.2943 50.5515 28.3343 50.4635 28.3183L49.2995 28.1743C49.2595 28.1663 49.2235 28.1543 49.1915 28.1383C49.1675 28.1143 49.1595 28.0863 49.1675 28.0543C49.2315 27.5663 49.4915 27.1663 49.9475 26.8543C50.4115 26.5423 50.9915 26.3863 51.6875 26.3863ZM51.3995 31.6063C51.7915 31.6063 52.1275 31.5023 52.4075 31.2943C52.6875 31.0863 52.8275 30.8223 52.8275 30.5023V29.9383C52.8275 29.8983 52.8075 29.8783 52.7675 29.8783H51.7595C51.3355 29.8783 50.9995 29.9583 50.7515 30.1183C50.5115 30.2783 50.3915 30.5063 50.3915 30.8023C50.3915 31.0583 50.4835 31.2583 50.6675 31.4023C50.8595 31.5383 51.1035 31.6063 51.3995 31.6063ZM58.973 26.4103C59.229 26.4103 59.453 26.4623 59.645 26.5663C59.709 26.5983 59.733 26.6583 59.717 26.7463L59.513 27.8263C59.505 27.9223 59.449 27.9503 59.345 27.9103C59.225 27.8703 59.085 27.8503 58.925 27.8503C58.821 27.8503 58.741 27.8543 58.685 27.8623C58.349 27.8783 58.069 27.9983 57.845 28.2223C57.621 28.4383 57.509 28.7223 57.509 29.0743V32.4703C57.509 32.5103 57.493 32.5463 57.461 32.5783C57.437 32.6023 57.405 32.6143 57.365 32.6143H56.261C56.221 32.6143 56.185 32.6023 56.153 32.5783C56.129 32.5463 56.117 32.5103 56.117 32.4703V26.6263C56.117 26.5863 56.129 26.5543 56.153 26.5303C56.185 26.4983 56.221 26.4823 56.261 26.4823H57.365C57.405 26.4823 57.437 26.4983 57.461 26.5303C57.493 26.5543 57.509 26.5863 57.509 26.6263V27.1663C57.509 27.1983 57.513 27.2183 57.521 27.2263C57.537 27.2263 57.553 27.2143 57.569 27.1903C57.905 26.6703 58.373 26.4103 58.973 26.4103ZM66.1836 28.8583C66.2156 29.0583 66.2316 29.2823 66.2316 29.5303L66.2196 29.9023C66.2196 29.9983 66.1716 30.0463 66.0756 30.0463H62.3196C62.2796 30.0463 62.2596 30.0663 62.2596 30.1063C62.2836 30.3703 62.3196 30.5503 62.3676 30.6463C62.5596 31.2223 63.0276 31.5143 63.7716 31.5223C64.3156 31.5223 64.7476 31.2983 65.0676 30.8503C65.0996 30.8023 65.1396 30.7783 65.1876 30.7783C65.2196 30.7783 65.2476 30.7903 65.2716 30.8143L66.0156 31.4263C66.0876 31.4823 66.0996 31.5463 66.0516 31.6183C65.8036 31.9703 65.4716 32.2423 65.0556 32.4343C64.6476 32.6263 64.1916 32.7223 63.6876 32.7223C63.0636 32.7223 62.5316 32.5823 62.0916 32.3023C61.6596 32.0223 61.3436 31.6303 61.1436 31.1263C60.9596 30.6943 60.8676 30.0943 60.8676 29.3263C60.8676 28.8623 60.9156 28.4863 61.0116 28.1983C61.1716 27.6383 61.4716 27.1983 61.9116 26.8783C62.3596 26.5503 62.8956 26.3863 63.5196 26.3863C65.0956 26.3863 65.9836 27.2103 66.1836 28.8583ZM63.5196 27.5863C63.2236 27.5863 62.9756 27.6623 62.7756 27.8143C62.5836 27.9583 62.4476 28.1623 62.3676 28.4263C62.3196 28.5623 62.2876 28.7383 62.2716 28.9543C62.2556 28.9943 62.2716 29.0143 62.3196 29.0143H64.7556C64.7956 29.0143 64.8156 28.9943 64.8156 28.9543C64.7996 28.7543 64.7756 28.6023 64.7436 28.4983C64.6716 28.2103 64.5276 27.9863 64.3116 27.8263C64.1036 27.6663 63.8396 27.5863 63.5196 27.5863ZM73.4621 32.7103C72.8461 32.7103 72.3141 32.5543 71.8661 32.2423C71.4181 31.9223 71.1061 31.4943 70.9301 30.9583C70.8021 30.5983 70.7381 30.1183 70.7381 29.5183C70.7381 28.9423 70.8021 28.4703 70.9301 28.1023C71.0981 27.5743 71.4061 27.1583 71.8541 26.8543C72.3101 26.5423 72.8461 26.3863 73.4621 26.3863C74.0861 26.3863 74.6301 26.5423 75.0941 26.8543C75.5581 27.1663 75.8661 27.5583 76.0181 28.0303C76.0581 28.1583 76.0861 28.2863 76.1021 28.4143V28.4383C76.1021 28.5183 76.0581 28.5663 75.9701 28.5823L74.8901 28.7383H74.8661C74.7941 28.7383 74.7461 28.6983 74.7221 28.6183C74.7221 28.5783 74.7181 28.5463 74.7101 28.5223C74.6941 28.4583 74.6781 28.4023 74.6621 28.3543C74.5901 28.1303 74.4461 27.9463 74.2301 27.8023C74.0141 27.6583 73.7581 27.5863 73.4621 27.5863C73.1581 27.5863 72.8981 27.6663 72.6821 27.8263C72.4741 27.9783 72.3341 28.1903 72.2621 28.4623C72.1821 28.7183 72.1421 29.0743 72.1421 29.5303C72.1421 29.9703 72.1781 30.3263 72.2501 30.5983C72.3301 30.8783 72.4741 31.1023 72.6821 31.2703C72.8901 31.4303 73.1501 31.5103 73.4621 31.5103C73.7661 31.5103 74.0261 31.4343 74.2421 31.2823C74.4661 31.1223 74.6101 30.9103 74.6741 30.6463C74.6821 30.6303 74.6861 30.6103 74.6861 30.5863C74.6941 30.5783 74.6981 30.5663 74.6981 30.5503C74.7221 30.4543 74.7781 30.4143 74.8661 30.4303L75.9461 30.5983C75.9861 30.6063 76.0181 30.6263 76.0421 30.6583C76.0741 30.6823 76.0861 30.7183 76.0781 30.7663C76.0541 30.8943 76.0341 30.9863 76.0181 31.0423C75.8661 31.5543 75.5581 31.9623 75.0941 32.2663C74.6301 32.5623 74.0861 32.7103 73.4621 32.7103ZM80.3265 32.7103C79.6945 32.7103 79.1505 32.5503 78.6945 32.2303C78.2465 31.9103 77.9305 31.4663 77.7465 30.8983C77.6105 30.4663 77.5425 30.0103 77.5425 29.5303C77.5425 29.0183 77.6065 28.5623 77.7345 28.1623C77.9185 27.6023 78.2385 27.1663 78.6945 26.8543C79.1505 26.5423 79.6985 26.3863 80.3385 26.3863C80.9465 26.3863 81.4705 26.5423 81.9105 26.8543C82.3585 27.1663 82.6745 27.5983 82.8585 28.1503C83.0025 28.5343 83.0745 28.9903 83.0745 29.5183C83.0745 30.0223 83.0065 30.4783 82.8705 30.8863C82.6865 31.4543 82.3705 31.9023 81.9225 32.2303C81.4745 32.5503 80.9425 32.7103 80.3265 32.7103ZM80.3265 31.5103C80.6225 31.5103 80.8745 31.4263 81.0825 31.2583C81.2985 31.0903 81.4545 30.8543 81.5505 30.5503C81.6305 30.2863 81.6705 29.9503 81.6705 29.5423C81.6705 29.1103 81.6305 28.7743 81.5505 28.5343C81.4625 28.2303 81.3105 27.9983 81.0945 27.8383C80.8785 27.6703 80.6145 27.5863 80.3025 27.5863C80.0065 27.5863 79.7505 27.6703 79.5345 27.8383C79.3185 27.9983 79.1625 28.2303 79.0665 28.5343C78.9865 28.8143 78.9465 29.1503 78.9465 29.5423C78.9465 29.9343 78.9865 30.2703 79.0665 30.5503C79.1545 30.8543 79.3065 31.0903 79.5225 31.2583C79.7465 31.4263 80.0145 31.5103 80.3265 31.5103ZM91.4545 26.3863C92.0705 26.3863 92.5505 26.5743 92.8945 26.9503C93.2465 27.3183 93.4225 27.8343 93.4225 28.4983V32.4703C93.4225 32.5103 93.4065 32.5463 93.3745 32.5783C93.3505 32.6023 93.3185 32.6143 93.2785 32.6143H92.1865C92.1465 32.6143 92.1105 32.6023 92.0785 32.5783C92.0545 32.5463 92.0425 32.5103 92.0425 32.4703V28.7863C92.0425 28.4183 91.9425 28.1263 91.7425 27.9103C91.5505 27.6943 91.2905 27.5863 90.9625 27.5863C90.6345 27.5863 90.3665 27.6943 90.1585 27.9103C89.9505 28.1263 89.8465 28.4143 89.8465 28.7743V32.4703C89.8465 32.5103 89.8305 32.5463 89.7985 32.5783C89.7745 32.6023 89.7425 32.6143 89.7025 32.6143H88.6105C88.5705 32.6143 88.5345 32.6023 88.5025 32.5783C88.4785 32.5463 88.4665 32.5103 88.4665 32.4703V28.7863C88.4665 28.4183 88.3665 28.1263 88.1665 27.9103C87.9665 27.6943 87.7025 27.5863 87.3745 27.5863C87.0705 27.5863 86.8185 27.6743 86.6185 27.8503C86.4265 28.0263 86.3145 28.2663 86.2825 28.5703V32.4703C86.2825 32.5103 86.2665 32.5463 86.2345 32.5783C86.2105 32.6023 86.1785 32.6143 86.1385 32.6143H85.0345C84.9945 32.6143 84.9585 32.6023 84.9265 32.5783C84.9025 32.5463 84.8905 32.5103 84.8905 32.4703V26.6263C84.8905 26.5863 84.9025 26.5543 84.9265 26.5303C84.9585 26.4983 84.9945 26.4823 85.0345 26.4823H86.1385C86.1785 26.4823 86.2105 26.4983 86.2345 26.5303C86.2665 26.5543 86.2825 26.5863 86.2825 26.6263V27.0223C86.2825 27.0463 86.2905 27.0623 86.3065 27.0703C86.3225 27.0783 86.3385 27.0703 86.3545 27.0463C86.5305 26.8223 86.7465 26.6583 87.0025 26.5543C87.2665 26.4423 87.5585 26.3863 87.8785 26.3863C88.2705 26.3863 88.6145 26.4663 88.9105 26.6263C89.2065 26.7863 89.4345 27.0183 89.5945 27.3223C89.6185 27.3543 89.6465 27.3543 89.6785 27.3223C89.8545 27.0023 90.0985 26.7663 90.4105 26.6143C90.7225 26.4623 91.0705 26.3863 91.4545 26.3863ZM100.536 28.0663C100.68 28.4743 100.752 28.9743 100.752 29.5663C100.752 30.1343 100.684 30.6223 100.548 31.0303C100.372 31.5583 100.088 31.9703 99.6957 32.2663C99.3117 32.5623 98.8237 32.7103 98.2317 32.7103C97.6637 32.7103 97.2077 32.5063 96.8637 32.0983C96.8477 32.0823 96.8317 32.0783 96.8157 32.0863C96.7997 32.0943 96.7917 32.1103 96.7917 32.1343V34.7383C96.7917 34.7783 96.7757 34.8103 96.7437 34.8343C96.7197 34.8663 96.6877 34.8823 96.6477 34.8823H95.5437C95.5037 34.8823 95.4677 34.8663 95.4357 34.8343C95.4117 34.8103 95.3997 34.7783 95.3997 34.7383V26.6263C95.3997 26.5863 95.4117 26.5543 95.4357 26.5303C95.4677 26.4983 95.5037 26.4823 95.5437 26.4823H96.6477C96.6877 26.4823 96.7197 26.4983 96.7437 26.5303C96.7757 26.5543 96.7917 26.5863 96.7917 26.6263V26.9863C96.7917 27.0103 96.7997 27.0263 96.8157 27.0343C96.8317 27.0423 96.8477 27.0343 96.8637 27.0103C97.2157 26.5943 97.6757 26.3863 98.2437 26.3863C98.8117 26.3863 99.2917 26.5343 99.6837 26.8303C100.076 27.1263 100.36 27.5383 100.536 28.0663ZM98.9757 31.0063C99.2157 30.6383 99.3357 30.1503 99.3357 29.5423C99.3357 28.9583 99.2397 28.4983 99.0477 28.1623C98.8237 27.7703 98.4837 27.5743 98.0277 27.5743C97.6117 27.5743 97.2997 27.7663 97.0917 28.1503C96.9077 28.4623 96.8157 28.9263 96.8157 29.5423C96.8157 30.1743 96.9157 30.6543 97.1157 30.9823C97.3237 31.3343 97.6237 31.5103 98.0157 31.5103C98.4397 31.5103 98.7597 31.3423 98.9757 31.0063ZM102.745 32.6143C102.705 32.6143 102.669 32.6023 102.637 32.5783C102.613 32.5463 102.601 32.5103 102.601 32.4703V24.3583C102.601 24.3183 102.613 24.2863 102.637 24.2623C102.669 24.2303 102.705 24.2143 102.745 24.2143H103.849C103.889 24.2143 103.921 24.2303 103.945 24.2623C103.977 24.2863 103.993 24.3183 103.993 24.3583V32.4703C103.993 32.5103 103.977 32.5463 103.945 32.5783C103.921 32.6023 103.889 32.6143 103.849 32.6143H102.745ZM111.145 28.8583C111.177 29.0583 111.193 29.2823 111.193 29.5303L111.181 29.9023C111.181 29.9983 111.133 30.0463 111.037 30.0463H107.281C107.241 30.0463 107.221 30.0663 107.221 30.1063C107.245 30.3703 107.281 30.5503 107.329 30.6463C107.521 31.2223 107.989 31.5143 108.733 31.5223C109.277 31.5223 109.709 31.2983 110.029 30.8503C110.061 30.8023 110.101 30.7783 110.149 30.7783C110.181 30.7783 110.209 30.7903 110.233 30.8143L110.977 31.4263C111.049 31.4823 111.061 31.5463 111.013 31.6183C110.765 31.9703 110.433 32.2423 110.017 32.4343C109.609 32.6263 109.153 32.7223 108.649 32.7223C108.025 32.7223 107.493 32.5823 107.053 32.3023C106.621 32.0223 106.305 31.6303 106.105 31.1263C105.921 30.6943 105.829 30.0943 105.829 29.3263C105.829 28.8623 105.877 28.4863 105.973 28.1983C106.133 27.6383 106.433 27.1983 106.873 26.8783C107.321 26.5503 107.857 26.3863 108.481 26.3863C110.057 26.3863 110.945 27.2103 111.145 28.8583ZM108.481 27.5863C108.185 27.5863 107.937 27.6623 107.737 27.8143C107.545 27.9583 107.409 28.1623 107.329 28.4263C107.281 28.5623 107.249 28.7383 107.233 28.9543C107.217 28.9943 107.233 29.0143 107.281 29.0143H109.717C109.757 29.0143 109.777 28.9943 109.777 28.9543C109.761 28.7543 109.737 28.6023 109.705 28.4983C109.633 28.2103 109.489 27.9863 109.273 27.8263C109.065 27.6663 108.801 27.5863 108.481 27.5863ZM116.1 27.4663C116.1 27.5063 116.084 27.5423 116.052 27.5743C116.028 27.5983 115.996 27.6103 115.956 27.6103H114.732C114.692 27.6103 114.672 27.6303 114.672 27.6703V30.5623C114.672 30.8663 114.736 31.0863 114.864 31.2223C115 31.3583 115.212 31.4263 115.5 31.4263H115.86C115.9 31.4263 115.932 31.4423 115.956 31.4743C115.988 31.4983 116.004 31.5303 116.004 31.5703V32.4703C116.004 32.5583 115.956 32.6103 115.86 32.6263L115.236 32.6383C114.604 32.6383 114.132 32.5303 113.82 32.3143C113.508 32.0983 113.348 31.6903 113.34 31.0903V27.6703C113.34 27.6303 113.32 27.6103 113.28 27.6103H112.596C112.556 27.6103 112.52 27.5983 112.488 27.5743C112.464 27.5423 112.452 27.5063 112.452 27.4663V26.6263C112.452 26.5863 112.464 26.5543 112.488 26.5303C112.52 26.4983 112.556 26.4823 112.596 26.4823H113.28C113.32 26.4823 113.34 26.4623 113.34 26.4223V25.0183C113.34 24.9783 113.352 24.9463 113.376 24.9223C113.408 24.8903 113.444 24.8743 113.484 24.8743H114.528C114.568 24.8743 114.6 24.8903 114.624 24.9223C114.656 24.9463 114.672 24.9783 114.672 25.0183V26.4223C114.672 26.4623 114.692 26.4823 114.732 26.4823H115.956C115.996 26.4823 116.028 26.4983 116.052 26.5303C116.084 26.5543 116.1 26.5863 116.1 26.6263V27.4663ZM118.628 25.6423C118.38 25.6423 118.176 25.5623 118.016 25.4023C117.856 25.2423 117.776 25.0383 117.776 24.7903C117.776 24.5423 117.856 24.3383 118.016 24.1783C118.176 24.0183 118.38 23.9383 118.628 23.9383C118.876 23.9383 119.08 24.0183 119.24 24.1783C119.4 24.3383 119.48 24.5423 119.48 24.7903C119.48 25.0383 119.4 25.2423 119.24 25.4023C119.08 25.5623 118.876 25.6423 118.628 25.6423ZM118.052 32.6143C118.012 32.6143 117.976 32.6023 117.944 32.5783C117.92 32.5463 117.908 32.5103 117.908 32.4703V26.6143C117.908 26.5743 117.92 26.5423 117.944 26.5183C117.976 26.4863 118.012 26.4703 118.052 26.4703H119.156C119.196 26.4703 119.228 26.4863 119.252 26.5183C119.284 26.5423 119.3 26.5743 119.3 26.6143V32.4703C119.3 32.5103 119.284 32.5463 119.252 32.5783C119.228 32.6023 119.196 32.6143 119.156 32.6143H118.052ZM124.334 26.3863C124.982 26.3863 125.498 26.5783 125.882 26.9623C126.274 27.3463 126.47 27.8703 126.47 28.5343V32.4703C126.47 32.5103 126.454 32.5463 126.422 32.5783C126.398 32.6023 126.366 32.6143 126.326 32.6143H125.222C125.182 32.6143 125.146 32.6023 125.114 32.5783C125.09 32.5463 125.078 32.5103 125.078 32.4703V28.8223C125.078 28.4543 124.974 28.1583 124.766 27.9343C124.558 27.7023 124.282 27.5863 123.938 27.5863C123.594 27.5863 123.314 27.6983 123.098 27.9223C122.89 28.1463 122.786 28.4423 122.786 28.8103V32.4703C122.786 32.5103 122.77 32.5463 122.738 32.5783C122.714 32.6023 122.682 32.6143 122.642 32.6143H121.538C121.498 32.6143 121.462 32.6023 121.43 32.5783C121.406 32.5463 121.394 32.5103 121.394 32.4703V26.6263C121.394 26.5863 121.406 26.5543 121.43 26.5303C121.462 26.4983 121.498 26.4823 121.538 26.4823H122.642C122.682 26.4823 122.714 26.4983 122.738 26.5303C122.77 26.5543 122.786 26.5863 122.786 26.6263V27.0103C122.786 27.0343 122.794 27.0503 122.81 27.0583C122.826 27.0663 122.838 27.0583 122.846 27.0343C123.174 26.6023 123.67 26.3863 124.334 26.3863ZM132.178 26.6263C132.178 26.5863 132.19 26.5543 132.214 26.5303C132.246 26.4983 132.282 26.4823 132.322 26.4823H133.426C133.466 26.4823 133.498 26.4983 133.522 26.5303C133.554 26.5543 133.57 26.5863 133.57 26.6263V32.2063C133.57 33.2063 133.282 33.9183 132.706 34.3423C132.138 34.7743 131.39 34.9903 130.462 34.9903C130.214 34.9903 129.97 34.9783 129.73 34.9543C129.642 34.9463 129.598 34.8943 129.598 34.7983L129.634 33.8143C129.634 33.7263 129.69 33.6823 129.802 33.6823C130.034 33.7063 130.242 33.7183 130.426 33.7183C131.026 33.7183 131.466 33.5983 131.746 33.3583C132.034 33.1263 132.178 32.7303 132.178 32.1703V32.0743C132.178 32.0503 132.17 32.0383 132.154 32.0383C132.138 32.0303 132.122 32.0343 132.106 32.0503C131.778 32.4023 131.314 32.5783 130.714 32.5783C130.194 32.5783 129.718 32.4463 129.286 32.1823C128.854 31.9183 128.554 31.5143 128.386 30.9703C128.282 30.5943 128.23 30.1103 128.23 29.5183C128.23 28.8543 128.294 28.3463 128.422 27.9943C128.582 27.5063 128.858 27.1183 129.25 26.8303C129.642 26.5343 130.102 26.3863 130.63 26.3863C131.262 26.3863 131.754 26.5703 132.106 26.9383C132.122 26.9623 132.138 26.9703 132.154 26.9623C132.17 26.9543 132.178 26.9383 132.178 26.9143V26.6263ZM132.094 30.5743C132.126 30.4543 132.146 30.3263 132.154 30.1903C132.17 30.0463 132.178 29.8183 132.178 29.5063C132.178 29.2023 132.17 28.9863 132.154 28.8583C132.146 28.7223 132.122 28.5903 132.082 28.4623C132.018 28.1983 131.886 27.9863 131.686 27.8263C131.494 27.6663 131.246 27.5863 130.942 27.5863C130.654 27.5863 130.41 27.6663 130.21 27.8263C130.01 27.9863 129.866 28.1983 129.778 28.4623C129.682 28.6863 129.634 29.0383 129.634 29.5183C129.634 30.0143 129.674 30.3623 129.754 30.5623C129.834 30.8183 129.978 31.0303 130.186 31.1983C130.402 31.3583 130.658 31.4383 130.954 31.4383C131.266 31.4383 131.518 31.3583 131.71 31.1983C131.902 31.0383 132.03 30.8303 132.094 30.5743Z" fill="#6D6D6D"/>
<path d="M146.963 28.0943C147.251 28.6383 147.395 29.2996 147.395 30.0783C147.395 30.7289 147.288 31.2996 147.075 31.7903C146.819 32.4089 146.413 32.8889 145.859 33.2303C145.315 33.5609 144.659 33.7263 143.891 33.7263C143.091 33.7263 142.408 33.5449 141.843 33.1823C141.277 32.8089 140.872 32.2916 140.627 31.6303C140.456 31.1823 140.371 30.6596 140.371 30.0623V25.1823C140.371 24.6063 140.515 24.0996 140.803 23.6623C141.091 23.2249 141.491 22.8889 142.003 22.6543C142.525 22.4089 143.123 22.2863 143.795 22.2863C144.445 22.2863 145.021 22.4036 145.523 22.6383C146.035 22.8729 146.429 23.2036 146.707 23.6303C146.995 24.0569 147.139 24.5476 147.139 25.1023V25.4543C147.139 25.5076 147.117 25.5556 147.075 25.5983C147.043 25.6303 147 25.6463 146.947 25.6463H145.475C145.421 25.6463 145.373 25.6303 145.331 25.5983C145.299 25.5556 145.283 25.5076 145.283 25.4543V25.3423C145.283 24.9156 145.139 24.5689 144.851 24.3023C144.573 24.0249 144.216 23.8863 143.779 23.8863C143.331 23.8863 142.957 24.0303 142.659 24.3183C142.371 24.5956 142.227 24.9583 142.227 25.4063V27.1503C142.227 27.1823 142.237 27.2036 142.259 27.2143C142.28 27.2249 142.301 27.2196 142.323 27.1983C142.771 26.7609 143.389 26.5423 144.179 26.5423C144.808 26.5423 145.357 26.6756 145.827 26.9423C146.307 27.2089 146.685 27.5929 146.963 28.0943ZM145.299 31.2463C145.459 30.9263 145.539 30.5476 145.539 30.1103C145.539 29.6303 145.448 29.2196 145.267 28.8783C144.968 28.3663 144.504 28.1103 143.875 28.1103C143.213 28.1103 142.744 28.3769 142.467 28.9103C142.307 29.2303 142.227 29.6463 142.227 30.1583C142.227 30.5956 142.296 30.9529 142.435 31.2303C142.691 31.8169 143.171 32.1103 143.875 32.1103C144.547 32.1103 145.021 31.8223 145.299 31.2463ZM153.051 33.7903C151.931 33.7903 151.041 33.4756 150.379 32.8463C149.729 32.2063 149.403 31.3476 149.403 30.2703V25.7583C149.403 24.6916 149.729 23.8489 150.379 23.2303C151.041 22.6009 151.931 22.2863 153.051 22.2863C154.171 22.2863 155.062 22.6009 155.723 23.2303C156.395 23.8489 156.731 24.6916 156.731 25.7583V30.2703C156.731 31.3476 156.395 32.2063 155.723 32.8463C155.062 33.4756 154.171 33.7903 153.051 33.7903ZM153.051 32.1743C153.606 32.1743 154.049 32.0143 154.379 31.6943C154.71 31.3636 154.875 30.9209 154.875 30.3663V25.6943C154.875 25.1396 154.71 24.7023 154.379 24.3823C154.049 24.0516 153.606 23.8863 153.051 23.8863C152.507 23.8863 152.07 24.0516 151.739 24.3823C151.419 24.7023 151.259 25.1396 151.259 25.6943V30.3663C151.259 30.9209 151.419 31.3636 151.739 31.6943C152.07 32.0143 152.507 32.1743 153.051 32.1743ZM161.749 27.1503C161.301 27.1503 160.885 27.0436 160.501 26.8303C160.128 26.6063 159.829 26.3076 159.605 25.9343C159.392 25.5609 159.285 25.1503 159.285 24.7023C159.285 24.2649 159.392 23.8596 159.605 23.4863C159.829 23.1129 160.128 22.8196 160.501 22.6063C160.885 22.3823 161.301 22.2703 161.749 22.2703C162.187 22.2703 162.592 22.3823 162.965 22.6063C163.349 22.8196 163.648 23.1129 163.861 23.4863C164.085 23.8596 164.197 24.2649 164.197 24.7023C164.197 25.1503 164.085 25.5609 163.861 25.9343C163.648 26.3076 163.355 26.6063 162.981 26.8303C162.608 27.0436 162.197 27.1503 161.749 27.1503ZM161.221 33.6143C161.147 33.6143 161.099 33.5929 161.077 33.5503C161.056 33.5076 161.061 33.4543 161.093 33.3903L167.125 22.5423C167.179 22.4569 167.259 22.4143 167.365 22.4143H168.293C168.368 22.4143 168.416 22.4356 168.437 22.4783C168.459 22.5209 168.453 22.5743 168.421 22.6383L162.405 33.4863C162.352 33.5716 162.272 33.6143 162.165 33.6143H161.221ZM161.749 26.0303C162.112 26.0303 162.416 25.9023 162.661 25.6463C162.917 25.3903 163.045 25.0756 163.045 24.7023C163.045 24.3396 162.917 24.0303 162.661 23.7743C162.416 23.5183 162.112 23.3903 161.749 23.3903C161.376 23.3903 161.061 23.5183 160.805 23.7743C160.549 24.0303 160.421 24.3396 160.421 24.7023C160.421 25.0756 160.549 25.3903 160.805 25.6463C161.061 25.9023 161.376 26.0303 161.749 26.0303ZM167.909 33.7583C167.461 33.7583 167.045 33.6516 166.661 33.4383C166.288 33.2143 165.989 32.9156 165.765 32.5423C165.552 32.1689 165.445 31.7583 165.445 31.3103C165.445 30.8729 165.552 30.4676 165.765 30.0943C165.989 29.7209 166.288 29.4276 166.661 29.2143C167.045 28.9903 167.461 28.8783 167.909 28.8783C168.347 28.8783 168.752 28.9903 169.125 29.2143C169.509 29.4276 169.808 29.7209 170.021 30.0943C170.245 30.4676 170.357 30.8729 170.357 31.3103C170.357 31.7583 170.245 32.1689 170.021 32.5423C169.808 32.9156 169.515 33.2143 169.141 33.4383C168.768 33.6516 168.357 33.7583 167.909 33.7583ZM167.909 32.6383C168.272 32.6383 168.581 32.5103 168.837 32.2543C169.093 31.9983 169.221 31.6836 169.221 31.3103C169.221 30.9476 169.093 30.6383 168.837 30.3823C168.581 30.1263 168.272 29.9983 167.909 29.9983C167.536 29.9983 167.221 30.1263 166.965 30.3823C166.709 30.6383 166.581 30.9476 166.581 31.3103C166.581 31.6836 166.709 31.9983 166.965 32.2543C167.221 32.5103 167.536 32.6383 167.909 32.6383Z" fill="#F8901F"/>
<path d="M180.229 32.7103C179.597 32.7103 179.053 32.5503 178.597 32.2303C178.149 31.9103 177.833 31.4663 177.649 30.8983C177.513 30.4663 177.445 30.0103 177.445 29.5303C177.445 29.0183 177.509 28.5623 177.637 28.1623C177.821 27.6023 178.141 27.1663 178.597 26.8543C179.053 26.5423 179.601 26.3863 180.241 26.3863C180.849 26.3863 181.373 26.5423 181.813 26.8543C182.261 27.1663 182.577 27.5983 182.761 28.1503C182.905 28.5343 182.977 28.9903 182.977 29.5183C182.977 30.0223 182.909 30.4783 182.773 30.8863C182.589 31.4543 182.273 31.9023 181.825 32.2303C181.377 32.5503 180.845 32.7103 180.229 32.7103ZM180.229 31.5103C180.525 31.5103 180.777 31.4263 180.985 31.2583C181.201 31.0903 181.357 30.8543 181.453 30.5503C181.533 30.2863 181.573 29.9503 181.573 29.5423C181.573 29.1103 181.533 28.7743 181.453 28.5343C181.365 28.2303 181.213 27.9983 180.997 27.8383C180.781 27.6703 180.517 27.5863 180.205 27.5863C179.909 27.5863 179.653 27.6703 179.437 27.8383C179.221 27.9983 179.065 28.2303 178.969 28.5343C178.889 28.8143 178.849 29.1503 178.849 29.5423C178.849 29.9343 178.889 30.2703 178.969 30.5503C179.057 30.8543 179.209 31.0903 179.425 31.2583C179.649 31.4263 179.917 31.5103 180.229 31.5103ZM187.856 26.4703C187.896 26.4703 187.928 26.4863 187.952 26.5183C187.984 26.5423 188 26.5743 188 26.6143V27.5623C188 27.6023 187.984 27.6383 187.952 27.6703C187.928 27.6943 187.896 27.7063 187.856 27.7063H186.668C186.628 27.7063 186.608 27.7263 186.608 27.7663V32.4703C186.608 32.5103 186.592 32.5463 186.56 32.5783C186.536 32.6023 186.504 32.6143 186.464 32.6143H185.36C185.32 32.6143 185.284 32.6023 185.252 32.5783C185.228 32.5463 185.216 32.5103 185.216 32.4703V27.7663C185.216 27.7263 185.196 27.7063 185.156 27.7063H184.412C184.372 27.7063 184.336 27.6943 184.304 27.6703C184.28 27.6383 184.268 27.6023 184.268 27.5623V26.6143C184.268 26.5743 184.28 26.5423 184.304 26.5183C184.336 26.4863 184.372 26.4703 184.412 26.4703H185.156C185.196 26.4703 185.216 26.4503 185.216 26.4103V26.1943C185.216 25.6743 185.284 25.2743 185.42 24.9943C185.556 24.7063 185.78 24.5023 186.092 24.3823C186.404 24.2623 186.844 24.2063 187.412 24.2143H187.832C187.872 24.2143 187.904 24.2303 187.928 24.2623C187.96 24.2863 187.976 24.3183 187.976 24.3583V25.1983C187.976 25.2383 187.96 25.2743 187.928 25.3063C187.904 25.3303 187.872 25.3423 187.832 25.3423H187.52C187.176 25.3423 186.936 25.4103 186.8 25.5463C186.672 25.6823 186.608 25.9303 186.608 26.2903V26.4103C186.608 26.4503 186.628 26.4703 186.668 26.4703H187.856ZM195.83 27.4663C195.83 27.5063 195.814 27.5423 195.782 27.5743C195.758 27.5983 195.726 27.6103 195.686 27.6103H194.462C194.422 27.6103 194.402 27.6303 194.402 27.6703V30.5623C194.402 30.8663 194.466 31.0863 194.594 31.2223C194.73 31.3583 194.942 31.4263 195.23 31.4263H195.59C195.63 31.4263 195.662 31.4423 195.686 31.4743C195.718 31.4983 195.734 31.5303 195.734 31.5703V32.4703C195.734 32.5583 195.686 32.6103 195.59 32.6263L194.966 32.6383C194.334 32.6383 193.862 32.5303 193.55 32.3143C193.238 32.0983 193.078 31.6903 193.07 31.0903V27.6703C193.07 27.6303 193.05 27.6103 193.01 27.6103H192.326C192.286 27.6103 192.25 27.5983 192.218 27.5743C192.194 27.5423 192.182 27.5063 192.182 27.4663V26.6263C192.182 26.5863 192.194 26.5543 192.218 26.5303C192.25 26.4983 192.286 26.4823 192.326 26.4823H193.01C193.05 26.4823 193.07 26.4623 193.07 26.4223V25.0183C193.07 24.9783 193.082 24.9463 193.106 24.9223C193.138 24.8903 193.174 24.8743 193.214 24.8743H194.258C194.298 24.8743 194.33 24.8903 194.354 24.9223C194.386 24.9463 194.402 24.9783 194.402 25.0183V26.4223C194.402 26.4623 194.422 26.4823 194.462 26.4823H195.686C195.726 26.4823 195.758 26.4983 195.782 26.5303C195.814 26.5543 195.83 26.5863 195.83 26.6263V27.4663ZM200.506 26.3863C201.154 26.3863 201.67 26.5783 202.054 26.9623C202.446 27.3463 202.642 27.8703 202.642 28.5343V32.4703C202.642 32.5103 202.626 32.5463 202.594 32.5783C202.57 32.6023 202.538 32.6143 202.498 32.6143H201.394C201.354 32.6143 201.318 32.6023 201.286 32.5783C201.262 32.5463 201.25 32.5103 201.25 32.4703V28.8223C201.25 28.4543 201.146 28.1583 200.938 27.9343C200.73 27.7023 200.454 27.5863 200.11 27.5863C199.766 27.5863 199.486 27.6983 199.27 27.9223C199.062 28.1463 198.958 28.4423 198.958 28.8103V32.4703C198.958 32.5103 198.942 32.5463 198.91 32.5783C198.886 32.6023 198.854 32.6143 198.814 32.6143H197.71C197.67 32.6143 197.634 32.6023 197.602 32.5783C197.578 32.5463 197.566 32.5103 197.566 32.4703V24.3583C197.566 24.3183 197.578 24.2863 197.602 24.2623C197.634 24.2303 197.67 24.2143 197.71 24.2143H198.814C198.854 24.2143 198.886 24.2303 198.91 24.2623C198.942 24.2863 198.958 24.3183 198.958 24.3583V27.0103C198.958 27.0343 198.966 27.0503 198.982 27.0583C198.998 27.0663 199.01 27.0583 199.018 27.0343C199.346 26.6023 199.842 26.3863 200.506 26.3863ZM209.719 28.8583C209.751 29.0583 209.767 29.2823 209.767 29.5303L209.755 29.9023C209.755 29.9983 209.707 30.0463 209.611 30.0463H205.855C205.815 30.0463 205.795 30.0663 205.795 30.1063C205.819 30.3703 205.855 30.5503 205.903 30.6463C206.095 31.2223 206.563 31.5143 207.307 31.5223C207.851 31.5223 208.283 31.2983 208.603 30.8503C208.635 30.8023 208.675 30.7783 208.723 30.7783C208.755 30.7783 208.783 30.7903 208.807 30.8143L209.551 31.4263C209.623 31.4823 209.635 31.5463 209.587 31.6183C209.339 31.9703 209.007 32.2423 208.591 32.4343C208.183 32.6263 207.727 32.7223 207.223 32.7223C206.599 32.7223 206.067 32.5823 205.627 32.3023C205.195 32.0223 204.879 31.6303 204.679 31.1263C204.495 30.6943 204.403 30.0943 204.403 29.3263C204.403 28.8623 204.451 28.4863 204.547 28.1983C204.707 27.6383 205.007 27.1983 205.447 26.8783C205.895 26.5503 206.431 26.3863 207.055 26.3863C208.631 26.3863 209.519 27.2103 209.719 28.8583ZM207.055 27.5863C206.759 27.5863 206.511 27.6623 206.311 27.8143C206.119 27.9583 205.983 28.1623 205.903 28.4263C205.855 28.5623 205.823 28.7383 205.807 28.9543C205.791 28.9943 205.807 29.0143 205.855 29.0143H208.291C208.331 29.0143 208.351 28.9943 208.351 28.9543C208.335 28.7543 208.311 28.6023 208.279 28.4983C208.207 28.2103 208.063 27.9863 207.847 27.8263C207.639 27.6663 207.375 27.5863 207.055 27.5863ZM219.637 28.0663C219.781 28.4743 219.853 28.9743 219.853 29.5663C219.853 30.1343 219.785 30.6223 219.649 31.0303C219.473 31.5583 219.189 31.9703 218.797 32.2663C218.413 32.5623 217.925 32.7103 217.333 32.7103C216.765 32.7103 216.309 32.5063 215.965 32.0983C215.949 32.0823 215.933 32.0783 215.917 32.0863C215.901 32.0943 215.893 32.1103 215.893 32.1343V34.7383C215.893 34.7783 215.877 34.8103 215.845 34.8343C215.821 34.8663 215.789 34.8823 215.749 34.8823H214.645C214.605 34.8823 214.569 34.8663 214.537 34.8343C214.513 34.8103 214.501 34.7783 214.501 34.7383V26.6263C214.501 26.5863 214.513 26.5543 214.537 26.5303C214.569 26.4983 214.605 26.4823 214.645 26.4823H215.749C215.789 26.4823 215.821 26.4983 215.845 26.5303C215.877 26.5543 215.893 26.5863 215.893 26.6263V26.9863C215.893 27.0103 215.901 27.0263 215.917 27.0343C215.933 27.0423 215.949 27.0343 215.965 27.0103C216.317 26.5943 216.777 26.3863 217.345 26.3863C217.913 26.3863 218.393 26.5343 218.785 26.8303C219.177 27.1263 219.461 27.5383 219.637 28.0663ZM218.077 31.0063C218.317 30.6383 218.437 30.1503 218.437 29.5423C218.437 28.9583 218.341 28.4983 218.149 28.1623C217.925 27.7703 217.585 27.5743 217.129 27.5743C216.713 27.5743 216.401 27.7663 216.193 28.1503C216.009 28.4623 215.917 28.9263 215.917 29.5423C215.917 30.1743 216.017 30.6543 216.217 30.9823C216.425 31.3343 216.725 31.5103 217.117 31.5103C217.541 31.5103 217.861 31.3423 218.077 31.0063ZM224.559 26.4103C224.815 26.4103 225.039 26.4623 225.231 26.5663C225.295 26.5983 225.319 26.6583 225.303 26.7463L225.099 27.8263C225.091 27.9223 225.035 27.9503 224.931 27.9103C224.811 27.8703 224.671 27.8503 224.511 27.8503C224.407 27.8503 224.327 27.8543 224.271 27.8623C223.935 27.8783 223.655 27.9983 223.431 28.2223C223.207 28.4383 223.095 28.7223 223.095 29.0743V32.4703C223.095 32.5103 223.079 32.5463 223.047 32.5783C223.023 32.6023 222.991 32.6143 222.951 32.6143H221.847C221.807 32.6143 221.771 32.6023 221.739 32.5783C221.715 32.5463 221.703 32.5103 221.703 32.4703V26.6263C221.703 26.5863 221.715 26.5543 221.739 26.5303C221.771 26.4983 221.807 26.4823 221.847 26.4823H222.951C222.991 26.4823 223.023 26.4983 223.047 26.5303C223.079 26.5543 223.095 26.5863 223.095 26.6263V27.1663C223.095 27.1983 223.099 27.2183 223.107 27.2263C223.123 27.2263 223.139 27.2143 223.155 27.1903C223.491 26.6703 223.959 26.4103 224.559 26.4103ZM229.202 32.7103C228.57 32.7103 228.026 32.5503 227.57 32.2303C227.122 31.9103 226.806 31.4663 226.622 30.8983C226.486 30.4663 226.418 30.0103 226.418 29.5303C226.418 29.0183 226.482 28.5623 226.61 28.1623C226.794 27.6023 227.114 27.1663 227.57 26.8543C228.026 26.5423 228.574 26.3863 229.214 26.3863C229.822 26.3863 230.346 26.5423 230.786 26.8543C231.234 27.1663 231.55 27.5983 231.734 28.1503C231.878 28.5343 231.95 28.9903 231.95 29.5183C231.95 30.0223 231.882 30.4783 231.746 30.8863C231.562 31.4543 231.246 31.9023 230.798 32.2303C230.35 32.5503 229.818 32.7103 229.202 32.7103ZM229.202 31.5103C229.498 31.5103 229.75 31.4263 229.958 31.2583C230.174 31.0903 230.33 30.8543 230.426 30.5503C230.506 30.2863 230.546 29.9503 230.546 29.5423C230.546 29.1103 230.506 28.7743 230.426 28.5343C230.338 28.2303 230.186 27.9983 229.97 27.8383C229.754 27.6703 229.49 27.5863 229.178 27.5863C228.882 27.5863 228.626 27.6703 228.41 27.8383C228.194 27.9983 228.038 28.2303 227.942 28.5343C227.862 28.8143 227.822 29.1503 227.822 29.5423C227.822 29.9343 227.862 30.2703 227.942 30.5503C228.03 30.8543 228.182 31.0903 228.398 31.2583C228.622 31.4263 228.89 31.5103 229.202 31.5103ZM237.521 26.6263C237.521 26.5863 237.533 26.5543 237.557 26.5303C237.589 26.4983 237.625 26.4823 237.665 26.4823H238.769C238.809 26.4823 238.841 26.4983 238.865 26.5303C238.897 26.5543 238.913 26.5863 238.913 26.6263V32.2063C238.913 33.2063 238.625 33.9183 238.049 34.3423C237.481 34.7743 236.733 34.9903 235.805 34.9903C235.557 34.9903 235.313 34.9783 235.073 34.9543C234.985 34.9463 234.941 34.8943 234.941 34.7983L234.977 33.8143C234.977 33.7263 235.033 33.6823 235.145 33.6823C235.377 33.7063 235.585 33.7183 235.769 33.7183C236.369 33.7183 236.809 33.5983 237.089 33.3583C237.377 33.1263 237.521 32.7303 237.521 32.1703V32.0743C237.521 32.0503 237.513 32.0383 237.497 32.0383C237.481 32.0303 237.465 32.0343 237.449 32.0503C237.121 32.4023 236.657 32.5783 236.057 32.5783C235.537 32.5783 235.061 32.4463 234.629 32.1823C234.197 31.9183 233.897 31.5143 233.729 30.9703C233.625 30.5943 233.573 30.1103 233.573 29.5183C233.573 28.8543 233.637 28.3463 233.765 27.9943C233.925 27.5063 234.201 27.1183 234.593 26.8303C234.985 26.5343 235.445 26.3863 235.973 26.3863C236.605 26.3863 237.097 26.5703 237.449 26.9383C237.465 26.9623 237.481 26.9703 237.497 26.9623C237.513 26.9543 237.521 26.9383 237.521 26.9143V26.6263ZM237.437 30.5743C237.469 30.4543 237.489 30.3263 237.497 30.1903C237.513 30.0463 237.521 29.8183 237.521 29.5063C237.521 29.2023 237.513 28.9863 237.497 28.8583C237.489 28.7223 237.465 28.5903 237.425 28.4623C237.361 28.1983 237.229 27.9863 237.029 27.8263C236.837 27.6663 236.589 27.5863 236.285 27.5863C235.997 27.5863 235.753 27.6663 235.553 27.8263C235.353 27.9863 235.209 28.1983 235.121 28.4623C235.025 28.6863 234.977 29.0383 234.977 29.5183C234.977 30.0143 235.017 30.3623 235.097 30.5623C235.177 30.8183 235.321 31.0303 235.529 31.1983C235.745 31.3583 236.001 31.4383 236.297 31.4383C236.609 31.4383 236.861 31.3583 237.053 31.1983C237.245 31.0383 237.373 30.8303 237.437 30.5743ZM243.707 26.4103C243.963 26.4103 244.187 26.4623 244.379 26.5663C244.443 26.5983 244.467 26.6583 244.451 26.7463L244.247 27.8263C244.239 27.9223 244.183 27.9503 244.079 27.9103C243.959 27.8703 243.819 27.8503 243.659 27.8503C243.555 27.8503 243.475 27.8543 243.419 27.8623C243.083 27.8783 242.803 27.9983 242.579 28.2223C242.355 28.4383 242.243 28.7223 242.243 29.0743V32.4703C242.243 32.5103 242.227 32.5463 242.195 32.5783C242.171 32.6023 242.139 32.6143 242.099 32.6143H240.995C240.955 32.6143 240.919 32.6023 240.887 32.5783C240.863 32.5463 240.851 32.5103 240.851 32.4703V26.6263C240.851 26.5863 240.863 26.5543 240.887 26.5303C240.919 26.4983 240.955 26.4823 240.995 26.4823H242.099C242.139 26.4823 242.171 26.4983 242.195 26.5303C242.227 26.5543 242.243 26.5863 242.243 26.6263V27.1663C242.243 27.1983 242.247 27.2183 242.255 27.2263C242.271 27.2263 242.287 27.2143 242.303 27.1903C242.639 26.6703 243.107 26.4103 243.707 26.4103ZM250.918 28.8583C250.95 29.0583 250.966 29.2823 250.966 29.5303L250.954 29.9023C250.954 29.9983 250.906 30.0463 250.81 30.0463H247.054C247.014 30.0463 246.994 30.0663 246.994 30.1063C247.018 30.3703 247.054 30.5503 247.102 30.6463C247.294 31.2223 247.762 31.5143 248.506 31.5223C249.05 31.5223 249.482 31.2983 249.802 30.8503C249.834 30.8023 249.874 30.7783 249.922 30.7783C249.954 30.7783 249.982 30.7903 250.006 30.8143L250.75 31.4263C250.822 31.4823 250.834 31.5463 250.786 31.6183C250.538 31.9703 250.206 32.2423 249.79 32.4343C249.382 32.6263 248.926 32.7223 248.422 32.7223C247.798 32.7223 247.266 32.5823 246.826 32.3023C246.394 32.0223 246.078 31.6303 245.878 31.1263C245.694 30.6943 245.602 30.0943 245.602 29.3263C245.602 28.8623 245.65 28.4863 245.746 28.1983C245.906 27.6383 246.206 27.1983 246.646 26.8783C247.094 26.5503 247.63 26.3863 248.254 26.3863C249.83 26.3863 250.718 27.2103 250.918 28.8583ZM248.254 27.5863C247.958 27.5863 247.71 27.6623 247.51 27.8143C247.318 27.9583 247.182 28.1623 247.102 28.4263C247.054 28.5623 247.022 28.7383 247.006 28.9543C246.99 28.9943 247.006 29.0143 247.054 29.0143H249.49C249.53 29.0143 249.55 28.9943 249.55 28.9543C249.534 28.7543 249.51 28.6023 249.478 28.4983C249.406 28.2103 249.262 27.9863 249.046 27.8263C248.838 27.6663 248.574 27.5863 248.254 27.5863ZM254.924 32.6863C254.42 32.6863 253.976 32.6143 253.592 32.4703C253.216 32.3183 252.924 32.1143 252.716 31.8583C252.508 31.5943 252.404 31.3023 252.404 30.9823V30.8743C252.404 30.8343 252.416 30.8023 252.44 30.7783C252.472 30.7463 252.508 30.7303 252.548 30.7303H253.604C253.644 30.7303 253.676 30.7463 253.7 30.7783C253.732 30.8023 253.748 30.8343 253.748 30.8743V30.8983C253.748 31.0983 253.856 31.2743 254.072 31.4263C254.296 31.5703 254.576 31.6423 254.912 31.6423C255.232 31.6423 255.492 31.5783 255.692 31.4503C255.892 31.3143 255.992 31.1463 255.992 30.9463C255.992 30.7623 255.908 30.6263 255.74 30.5383C255.58 30.4423 255.316 30.3423 254.948 30.2383L254.492 30.0943C254.084 29.9743 253.74 29.8463 253.46 29.7103C253.18 29.5743 252.944 29.3903 252.752 29.1583C252.56 28.9183 252.464 28.6143 252.464 28.2463C252.464 27.6863 252.684 27.2423 253.124 26.9143C253.564 26.5783 254.144 26.4103 254.864 26.4103C255.352 26.4103 255.78 26.4903 256.148 26.6503C256.516 26.8023 256.8 27.0183 257 27.2983C257.2 27.5703 257.3 27.8823 257.3 28.2343C257.3 28.2743 257.284 28.3103 257.252 28.3423C257.228 28.3663 257.196 28.3783 257.156 28.3783H256.136C256.096 28.3783 256.06 28.3663 256.028 28.3423C256.004 28.3103 255.992 28.2743 255.992 28.2343C255.992 28.0263 255.888 27.8543 255.68 27.7183C255.48 27.5743 255.204 27.5023 254.852 27.5023C254.54 27.5023 254.284 27.5623 254.084 27.6823C253.892 27.7943 253.796 27.9543 253.796 28.1623C253.796 28.3543 253.888 28.5023 254.072 28.6063C254.264 28.7023 254.58 28.8103 255.02 28.9303L255.284 29.0023C255.708 29.1303 256.064 29.2623 256.352 29.3983C256.64 29.5263 256.884 29.7103 257.084 29.9503C257.284 30.1823 257.384 30.4863 257.384 30.8623C257.384 31.4303 257.16 31.8783 256.712 32.2063C256.264 32.5263 255.668 32.6863 254.924 32.6863ZM261.225 32.6863C260.721 32.6863 260.277 32.6143 259.893 32.4703C259.517 32.3183 259.225 32.1143 259.017 31.8583C258.809 31.5943 258.705 31.3023 258.705 30.9823V30.8743C258.705 30.8343 258.717 30.8023 258.741 30.7783C258.773 30.7463 258.809 30.7303 258.849 30.7303H259.905C259.945 30.7303 259.977 30.7463 260.001 30.7783C260.033 30.8023 260.049 30.8343 260.049 30.8743V30.8983C260.049 31.0983 260.157 31.2743 260.373 31.4263C260.597 31.5703 260.877 31.6423 261.213 31.6423C261.533 31.6423 261.793 31.5783 261.993 31.4503C262.193 31.3143 262.293 31.1463 262.293 30.9463C262.293 30.7623 262.209 30.6263 262.041 30.5383C261.881 30.4423 261.617 30.3423 261.249 30.2383L260.793 30.0943C260.385 29.9743 260.041 29.8463 259.761 29.7103C259.481 29.5743 259.245 29.3903 259.053 29.1583C258.861 28.9183 258.765 28.6143 258.765 28.2463C258.765 27.6863 258.985 27.2423 259.425 26.9143C259.865 26.5783 260.445 26.4103 261.165 26.4103C261.653 26.4103 262.081 26.4903 262.449 26.6503C262.817 26.8023 263.101 27.0183 263.301 27.2983C263.501 27.5703 263.601 27.8823 263.601 28.2343C263.601 28.2743 263.585 28.3103 263.553 28.3423C263.529 28.3663 263.497 28.3783 263.457 28.3783H262.437C262.397 28.3783 262.361 28.3663 262.329 28.3423C262.305 28.3103 262.293 28.2743 262.293 28.2343C262.293 28.0263 262.189 27.8543 261.981 27.7183C261.781 27.5743 261.505 27.5023 261.153 27.5023C260.841 27.5023 260.585 27.5623 260.385 27.6823C260.193 27.7943 260.097 27.9543 260.097 28.1623C260.097 28.3543 260.189 28.5023 260.373 28.6063C260.565 28.7023 260.881 28.8103 261.321 28.9303L261.585 29.0023C262.009 29.1303 262.365 29.2623 262.653 29.3983C262.941 29.5263 263.185 29.7103 263.385 29.9503C263.585 30.1823 263.685 30.4863 263.685 30.8623C263.685 31.4303 263.461 31.8783 263.013 32.2063C262.565 32.5263 261.969 32.6863 261.225 32.6863Z" fill="#6D6D6D"/>
<rect x="24.5" y="45.6143" width="162" height="15" rx="7.5" fill="#F8901F"/>
<path d="M75.4696 50.749C75.4696 50.7757 75.4589 50.7997 75.4376 50.821C75.4216 50.837 75.4002 50.845 75.3736 50.845H72.6536C72.6269 50.845 72.6136 50.8584 72.6136 50.885V52.381C72.6136 52.4077 72.6269 52.421 72.6536 52.421H74.4856C74.5122 52.421 74.5336 52.4317 74.5496 52.453C74.5709 52.469 74.5816 52.4904 74.5816 52.517V53.125C74.5816 53.1517 74.5709 53.1757 74.5496 53.197C74.5336 53.213 74.5122 53.221 74.4856 53.221H72.6536C72.6269 53.221 72.6136 53.2344 72.6136 53.261V55.549C72.6136 55.5757 72.6029 55.5997 72.5816 55.621C72.5656 55.637 72.5442 55.645 72.5176 55.645H71.7816C71.7549 55.645 71.7309 55.637 71.7096 55.621C71.6936 55.5997 71.6856 55.5757 71.6856 55.549V50.141C71.6856 50.1144 71.6936 50.093 71.7096 50.077C71.7309 50.0557 71.7549 50.045 71.7816 50.045H75.3736C75.4002 50.045 75.4216 50.0557 75.4376 50.077C75.4589 50.093 75.4696 50.1144 75.4696 50.141V50.749ZM77.1334 50.997C76.968 50.997 76.832 50.9437 76.7254 50.837C76.6187 50.7304 76.5654 50.5944 76.5654 50.429C76.5654 50.2637 76.6187 50.1277 76.7254 50.021C76.832 49.9144 76.968 49.861 77.1334 49.861C77.2987 49.861 77.4347 49.9144 77.5414 50.021C77.648 50.1277 77.7014 50.2637 77.7014 50.429C77.7014 50.5944 77.648 50.7304 77.5414 50.837C77.4347 50.9437 77.2987 50.997 77.1334 50.997ZM76.7494 55.645C76.7227 55.645 76.6987 55.637 76.6774 55.621C76.6614 55.5997 76.6534 55.5757 76.6534 55.549V51.645C76.6534 51.6184 76.6614 51.597 76.6774 51.581C76.6987 51.5597 76.7227 51.549 76.7494 51.549H77.4854C77.512 51.549 77.5334 51.5597 77.5494 51.581C77.5707 51.597 77.5814 51.6184 77.5814 51.645V55.549C77.5814 55.5757 77.5707 55.5997 77.5494 55.621C77.5334 55.637 77.512 55.645 77.4854 55.645H76.7494ZM79.2404 55.645C79.2138 55.645 79.1898 55.637 79.1684 55.621C79.1524 55.5997 79.1444 55.5757 79.1444 55.549V50.141C79.1444 50.1144 79.1524 50.093 79.1684 50.077C79.1898 50.0557 79.2138 50.045 79.2404 50.045H79.9764C80.0031 50.045 80.0244 50.0557 80.0404 50.077C80.0618 50.093 80.0724 50.1144 80.0724 50.141V55.549C80.0724 55.5757 80.0618 55.5997 80.0404 55.621C80.0244 55.637 80.0031 55.645 79.9764 55.645H79.2404ZM81.6545 55.645C81.6278 55.645 81.6038 55.637 81.5825 55.621C81.5665 55.5997 81.5585 55.5757 81.5585 55.549V50.141C81.5585 50.1144 81.5665 50.093 81.5825 50.077C81.6038 50.0557 81.6278 50.045 81.6545 50.045H82.3905C82.4172 50.045 82.4385 50.0557 82.4545 50.077C82.4758 50.093 82.4865 50.1144 82.4865 50.141V55.549C82.4865 55.5757 82.4758 55.5997 82.4545 55.621C82.4385 55.637 82.4172 55.645 82.3905 55.645H81.6545ZM84.5006 50.997C84.3352 50.997 84.1992 50.9437 84.0926 50.837C83.9859 50.7304 83.9326 50.5944 83.9326 50.429C83.9326 50.2637 83.9859 50.1277 84.0926 50.021C84.1992 49.9144 84.3352 49.861 84.5006 49.861C84.6659 49.861 84.8019 49.9144 84.9086 50.021C85.0152 50.1277 85.0686 50.2637 85.0686 50.429C85.0686 50.5944 85.0152 50.7304 84.9086 50.837C84.8019 50.9437 84.6659 50.997 84.5006 50.997ZM84.1166 55.645C84.0899 55.645 84.0659 55.637 84.0446 55.621C84.0286 55.5997 84.0206 55.5757 84.0206 55.549V51.645C84.0206 51.6184 84.0286 51.597 84.0446 51.581C84.0659 51.5597 84.0899 51.549 84.1166 51.549H84.8526C84.8792 51.549 84.9006 51.5597 84.9166 51.581C84.9379 51.597 84.9486 51.6184 84.9486 51.645V55.549C84.9486 55.5757 84.9379 55.5997 84.9166 55.621C84.9006 55.637 84.8792 55.645 84.8526 55.645H84.1166ZM88.4716 51.493C88.9036 51.493 89.2476 51.621 89.5036 51.877C89.765 52.133 89.8956 52.4824 89.8956 52.925V55.549C89.8956 55.5757 89.885 55.5997 89.8636 55.621C89.8476 55.637 89.8263 55.645 89.7996 55.645H89.0636C89.037 55.645 89.013 55.637 88.9916 55.621C88.9756 55.5997 88.9676 55.5757 88.9676 55.549V53.117C88.9676 52.8717 88.8983 52.6744 88.7596 52.525C88.621 52.3704 88.437 52.293 88.2076 52.293C87.9783 52.293 87.7916 52.3677 87.6476 52.517C87.509 52.6664 87.4396 52.8637 87.4396 53.109V55.549C87.4396 55.5757 87.429 55.5997 87.4076 55.621C87.3916 55.637 87.3703 55.645 87.3436 55.645H86.6076C86.581 55.645 86.557 55.637 86.5356 55.621C86.5196 55.5997 86.5116 55.5757 86.5116 55.549V51.653C86.5116 51.6264 86.5196 51.605 86.5356 51.589C86.557 51.5677 86.581 51.557 86.6076 51.557H87.3436C87.3703 51.557 87.3916 51.5677 87.4076 51.589C87.429 51.605 87.4396 51.6264 87.4396 51.653V51.909C87.4396 51.925 87.445 51.9357 87.4556 51.941C87.4663 51.9464 87.4743 51.941 87.4796 51.925C87.6983 51.637 88.029 51.493 88.4716 51.493ZM93.8672 51.653C93.8672 51.6264 93.8752 51.605 93.8912 51.589C93.9125 51.5677 93.9365 51.557 93.9632 51.557H94.6992C94.7259 51.557 94.7472 51.5677 94.7632 51.589C94.7845 51.605 94.7952 51.6264 94.7952 51.653V55.373C94.7952 56.0397 94.6032 56.5144 94.2192 56.797C93.8405 57.085 93.3419 57.229 92.7232 57.229C92.5579 57.229 92.3952 57.221 92.2352 57.205C92.1765 57.1997 92.1472 57.165 92.1472 57.101L92.1712 56.445C92.1712 56.3864 92.2085 56.357 92.2832 56.357C92.4379 56.373 92.5765 56.381 92.6992 56.381C93.0992 56.381 93.3925 56.301 93.5792 56.141C93.7712 55.9864 93.8672 55.7224 93.8672 55.349V55.285C93.8672 55.269 93.8619 55.261 93.8512 55.261C93.8405 55.2557 93.8299 55.2584 93.8192 55.269C93.6005 55.5037 93.2912 55.621 92.8912 55.621C92.5445 55.621 92.2272 55.533 91.9392 55.357C91.6512 55.181 91.4512 54.9117 91.3392 54.549C91.2699 54.2984 91.2352 53.9757 91.2352 53.581C91.2352 53.1384 91.2779 52.7997 91.3632 52.565C91.4699 52.2397 91.6539 51.981 91.9152 51.789C92.1765 51.5917 92.4832 51.493 92.8352 51.493C93.2565 51.493 93.5845 51.6157 93.8192 51.861C93.8299 51.877 93.8405 51.8824 93.8512 51.877C93.8619 51.8717 93.8672 51.861 93.8672 51.845V51.653ZM93.8112 54.285C93.8325 54.205 93.8459 54.1197 93.8512 54.029C93.8619 53.933 93.8672 53.781 93.8672 53.573C93.8672 53.3704 93.8619 53.2264 93.8512 53.141C93.8459 53.0504 93.8299 52.9624 93.8032 52.877C93.7605 52.701 93.6725 52.5597 93.5392 52.453C93.4112 52.3464 93.2459 52.293 93.0432 52.293C92.8512 52.293 92.6885 52.3464 92.5552 52.453C92.4219 52.5597 92.3259 52.701 92.2672 52.877C92.2032 53.0264 92.1712 53.261 92.1712 53.581C92.1712 53.9117 92.1979 54.1437 92.2512 54.277C92.3045 54.4477 92.4005 54.589 92.5392 54.701C92.6832 54.8077 92.8539 54.861 93.0512 54.861C93.2592 54.861 93.4272 54.8077 93.5552 54.701C93.6832 54.5944 93.7685 54.4557 93.8112 54.285ZM98.8834 50.997C98.718 50.997 98.582 50.9437 98.4754 50.837C98.3687 50.7304 98.3154 50.5944 98.3154 50.429C98.3154 50.2637 98.3687 50.1277 98.4754 50.021C98.582 49.9144 98.718 49.861 98.8834 49.861C99.0487 49.861 99.1847 49.9144 99.2914 50.021C99.398 50.1277 99.4514 50.2637 99.4514 50.429C99.4514 50.5944 99.398 50.7304 99.2914 50.837C99.1847 50.9437 99.0487 50.997 98.8834 50.997ZM98.4994 55.645C98.4727 55.645 98.4487 55.637 98.4274 55.621C98.4114 55.5997 98.4034 55.5757 98.4034 55.549V51.645C98.4034 51.6184 98.4114 51.597 98.4274 51.581C98.4487 51.5597 98.4727 51.549 98.4994 51.549H99.2354C99.262 51.549 99.2834 51.5597 99.2994 51.581C99.3207 51.597 99.3314 51.6184 99.3314 51.645V55.549C99.3314 55.5757 99.3207 55.5997 99.2994 55.621C99.2834 55.637 99.262 55.645 99.2354 55.645H98.4994ZM102.854 51.493C103.286 51.493 103.63 51.621 103.886 51.877C104.148 52.133 104.278 52.4824 104.278 52.925V55.549C104.278 55.5757 104.268 55.5997 104.246 55.621C104.23 55.637 104.209 55.645 104.182 55.645H103.446C103.42 55.645 103.396 55.637 103.374 55.621C103.358 55.5997 103.35 55.5757 103.35 55.549V53.117C103.35 52.8717 103.281 52.6744 103.142 52.525C103.004 52.3704 102.82 52.293 102.59 52.293C102.361 52.293 102.174 52.3677 102.03 52.517C101.892 52.6664 101.822 52.8637 101.822 53.109V55.549C101.822 55.5757 101.812 55.5997 101.79 55.621C101.774 55.637 101.753 55.645 101.726 55.645H100.99C100.964 55.645 100.94 55.637 100.918 55.621C100.902 55.5997 100.894 55.5757 100.894 55.549V51.653C100.894 51.6264 100.902 51.605 100.918 51.589C100.94 51.5677 100.964 51.557 100.99 51.557H101.726C101.753 51.557 101.774 51.5677 101.79 51.589C101.812 51.605 101.822 51.6264 101.822 51.653V51.909C101.822 51.925 101.828 51.9357 101.838 51.941C101.849 51.9464 101.857 51.941 101.862 51.925C102.081 51.637 102.412 51.493 102.854 51.493ZM110.016 52.213C110.016 52.2397 110.005 52.2637 109.984 52.285C109.968 52.301 109.946 52.309 109.92 52.309H109.104C109.077 52.309 109.064 52.3224 109.064 52.349V54.277C109.064 54.4797 109.106 54.6264 109.192 54.717C109.282 54.8077 109.424 54.853 109.616 54.853H109.856C109.882 54.853 109.904 54.8637 109.92 54.885C109.941 54.901 109.952 54.9224 109.952 54.949V55.549C109.952 55.6077 109.92 55.6424 109.856 55.653L109.44 55.661C109.018 55.661 108.704 55.589 108.496 55.445C108.288 55.301 108.181 55.029 108.176 54.629V52.349C108.176 52.3224 108.162 52.309 108.136 52.309H107.68C107.653 52.309 107.629 52.301 107.608 52.285C107.592 52.2637 107.584 52.2397 107.584 52.213V51.653C107.584 51.6264 107.592 51.605 107.608 51.589C107.629 51.5677 107.653 51.557 107.68 51.557H108.136C108.162 51.557 108.176 51.5437 108.176 51.517V50.581C108.176 50.5544 108.184 50.533 108.2 50.517C108.221 50.4957 108.245 50.485 108.272 50.485H108.968C108.994 50.485 109.016 50.4957 109.032 50.517C109.053 50.533 109.064 50.5544 109.064 50.581V51.517C109.064 51.5437 109.077 51.557 109.104 51.557H109.92C109.946 51.557 109.968 51.5677 109.984 51.589C110.005 51.605 110.016 51.6264 110.016 51.653V52.213ZM113.3 51.493C113.732 51.493 114.076 51.621 114.332 51.877C114.593 52.133 114.724 52.4824 114.724 52.925V55.549C114.724 55.5757 114.713 55.5997 114.692 55.621C114.676 55.637 114.654 55.645 114.628 55.645H113.892C113.865 55.645 113.841 55.637 113.82 55.621C113.804 55.5997 113.796 55.5757 113.796 55.549V53.117C113.796 52.8717 113.726 52.6744 113.588 52.525C113.449 52.3704 113.265 52.293 113.036 52.293C112.806 52.293 112.62 52.3677 112.476 52.517C112.337 52.6664 112.268 52.8637 112.268 53.109V55.549C112.268 55.5757 112.257 55.5997 112.236 55.621C112.22 55.637 112.198 55.645 112.172 55.645H111.436C111.409 55.645 111.385 55.637 111.364 55.621C111.348 55.5997 111.34 55.5757 111.34 55.549V50.141C111.34 50.1144 111.348 50.093 111.364 50.077C111.385 50.0557 111.409 50.045 111.436 50.045H112.172C112.198 50.045 112.22 50.0557 112.236 50.077C112.257 50.093 112.268 50.1144 112.268 50.141V51.909C112.268 51.925 112.273 51.9357 112.284 51.941C112.294 51.9464 112.302 51.941 112.308 51.925C112.526 51.637 112.857 51.493 113.3 51.493ZM119.608 53.141C119.629 53.2744 119.64 53.4237 119.64 53.589L119.632 53.837C119.632 53.901 119.6 53.933 119.536 53.933H117.032C117.005 53.933 116.992 53.9464 116.992 53.973C117.008 54.149 117.032 54.269 117.064 54.333C117.192 54.717 117.504 54.9117 118 54.917C118.363 54.917 118.651 54.7677 118.864 54.469C118.885 54.437 118.912 54.421 118.944 54.421C118.965 54.421 118.984 54.429 119 54.445L119.496 54.853C119.544 54.8904 119.552 54.933 119.52 54.981C119.355 55.2157 119.133 55.397 118.856 55.525C118.584 55.653 118.28 55.717 117.944 55.717C117.528 55.717 117.173 55.6237 116.88 55.437C116.592 55.2504 116.381 54.989 116.248 54.653C116.125 54.365 116.064 53.965 116.064 53.453C116.064 53.1437 116.096 52.893 116.16 52.701C116.267 52.3277 116.467 52.0344 116.76 51.821C117.059 51.6024 117.416 51.493 117.832 51.493C118.883 51.493 119.475 52.0424 119.608 53.141ZM117.832 52.293C117.635 52.293 117.469 52.3437 117.336 52.445C117.208 52.541 117.117 52.677 117.064 52.853C117.032 52.9437 117.011 53.061 117 53.205C116.989 53.2317 117 53.245 117.032 53.245H118.656C118.683 53.245 118.696 53.2317 118.696 53.205C118.685 53.0717 118.669 52.9704 118.648 52.901C118.6 52.709 118.504 52.5597 118.36 52.453C118.221 52.3464 118.045 52.293 117.832 52.293ZM125.218 51.549C125.244 51.549 125.266 51.5597 125.282 51.581C125.303 51.597 125.314 51.6184 125.314 51.645V52.277C125.314 52.3037 125.303 52.3277 125.282 52.349C125.266 52.365 125.244 52.373 125.218 52.373H124.426C124.399 52.373 124.386 52.3864 124.386 52.413V55.549C124.386 55.5757 124.375 55.5997 124.354 55.621C124.338 55.637 124.316 55.645 124.29 55.645H123.554C123.527 55.645 123.503 55.637 123.482 55.621C123.466 55.5997 123.458 55.5757 123.458 55.549V52.413C123.458 52.3864 123.444 52.373 123.418 52.373H122.922C122.895 52.373 122.871 52.365 122.85 52.349C122.834 52.3277 122.826 52.3037 122.826 52.277V51.645C122.826 51.6184 122.834 51.597 122.85 51.581C122.871 51.5597 122.895 51.549 122.922 51.549H123.418C123.444 51.549 123.458 51.5357 123.458 51.509V51.365C123.458 51.0184 123.503 50.7517 123.594 50.565C123.684 50.373 123.834 50.237 124.042 50.157C124.25 50.077 124.543 50.0397 124.922 50.045H125.202C125.228 50.045 125.25 50.0557 125.266 50.077C125.287 50.093 125.298 50.1144 125.298 50.141V50.701C125.298 50.7277 125.287 50.7517 125.266 50.773C125.25 50.789 125.228 50.797 125.202 50.797H124.994C124.764 50.797 124.604 50.8424 124.514 50.933C124.428 51.0237 124.386 51.189 124.386 51.429V51.509C124.386 51.5357 124.399 51.549 124.426 51.549H125.218ZM128.045 55.709C127.623 55.709 127.261 55.6024 126.957 55.389C126.658 55.1757 126.447 54.8797 126.325 54.501C126.234 54.213 126.189 53.909 126.189 53.589C126.189 53.2477 126.231 52.9437 126.317 52.677C126.439 52.3037 126.653 52.013 126.957 51.805C127.261 51.597 127.626 51.493 128.053 51.493C128.458 51.493 128.807 51.597 129.101 51.805C129.399 52.013 129.61 52.301 129.733 52.669C129.829 52.925 129.877 53.229 129.877 53.581C129.877 53.917 129.831 54.221 129.741 54.493C129.618 54.8717 129.407 55.1704 129.109 55.389C128.81 55.6024 128.455 55.709 128.045 55.709ZM128.045 54.909C128.242 54.909 128.41 54.853 128.549 54.741C128.693 54.629 128.797 54.4717 128.861 54.269C128.914 54.093 128.941 53.869 128.941 53.597C128.941 53.309 128.914 53.085 128.861 52.925C128.802 52.7224 128.701 52.5677 128.557 52.461C128.413 52.349 128.237 52.293 128.029 52.293C127.831 52.293 127.661 52.349 127.517 52.461C127.373 52.5677 127.269 52.7224 127.205 52.925C127.151 53.1117 127.125 53.3357 127.125 53.597C127.125 53.8584 127.151 54.0824 127.205 54.269C127.263 54.4717 127.365 54.629 127.509 54.741C127.658 54.853 127.837 54.909 128.045 54.909ZM133.158 51.509C133.328 51.509 133.478 51.5437 133.606 51.613C133.648 51.6344 133.664 51.6744 133.654 51.733L133.518 52.453C133.512 52.517 133.475 52.5357 133.406 52.509C133.326 52.4824 133.232 52.469 133.126 52.469C133.056 52.469 133.003 52.4717 132.966 52.477C132.742 52.4877 132.555 52.5677 132.406 52.717C132.256 52.861 132.182 53.0504 132.182 53.285V55.549C132.182 55.5757 132.171 55.5997 132.15 55.621C132.134 55.637 132.112 55.645 132.086 55.645H131.35C131.323 55.645 131.299 55.637 131.278 55.621C131.262 55.5997 131.254 55.5757 131.254 55.549V51.653C131.254 51.6264 131.262 51.605 131.278 51.589C131.299 51.5677 131.323 51.557 131.35 51.557H132.086C132.112 51.557 132.134 51.5677 132.15 51.589C132.171 51.605 132.182 51.6264 132.182 51.653V52.013C132.182 52.0344 132.184 52.0477 132.19 52.053C132.2 52.053 132.211 52.045 132.222 52.029C132.446 51.6824 132.758 51.509 133.158 51.509ZM139.138 51.493C139.548 51.493 139.868 51.6184 140.098 51.869C140.332 52.1144 140.45 52.4584 140.45 52.901V55.549C140.45 55.5757 140.439 55.5997 140.418 55.621C140.402 55.637 140.38 55.645 140.354 55.645H139.626C139.599 55.645 139.575 55.637 139.554 55.621C139.538 55.5997 139.53 55.5757 139.53 55.549V53.093C139.53 52.8477 139.463 52.653 139.33 52.509C139.202 52.365 139.028 52.293 138.81 52.293C138.591 52.293 138.412 52.365 138.274 52.509C138.135 52.653 138.066 52.845 138.066 53.085V55.549C138.066 55.5757 138.055 55.5997 138.034 55.621C138.018 55.637 137.996 55.645 137.97 55.645H137.242C137.215 55.645 137.191 55.637 137.17 55.621C137.154 55.5997 137.146 55.5757 137.146 55.549V53.093C137.146 52.8477 137.079 52.653 136.946 52.509C136.812 52.365 136.636 52.293 136.418 52.293C136.215 52.293 136.047 52.3517 135.914 52.469C135.786 52.5864 135.711 52.7464 135.69 52.949V55.549C135.69 55.5757 135.679 55.5997 135.658 55.621C135.642 55.637 135.62 55.645 135.594 55.645H134.858C134.831 55.645 134.807 55.637 134.786 55.621C134.77 55.5997 134.762 55.5757 134.762 55.549V51.653C134.762 51.6264 134.77 51.605 134.786 51.589C134.807 51.5677 134.831 51.557 134.858 51.557H135.594C135.62 51.557 135.642 51.5677 135.658 51.589C135.679 51.605 135.69 51.6264 135.69 51.653V51.917C135.69 51.933 135.695 51.9437 135.706 51.949C135.716 51.9544 135.727 51.949 135.738 51.933C135.855 51.7837 135.999 51.6744 136.17 51.605C136.346 51.5304 136.54 51.493 136.754 51.493C137.015 51.493 137.244 51.5464 137.442 51.653C137.639 51.7597 137.791 51.9144 137.898 52.117C137.914 52.1384 137.932 52.1384 137.954 52.117C138.071 51.9037 138.234 51.7464 138.442 51.645C138.65 51.5437 138.882 51.493 139.138 51.493Z" fill="#FAFAFA"/>
<rect x="191.5" y="45.6143" width="54" height="15" rx="7.5" fill="#DBDBDB"/>
<rect x="250.5" y="45.6143" width="54" height="15" rx="7.5" fill="#DBDBDB"/>
</svg>
