<svg width="336" height="81" viewBox="0 0 336 81" fill="none" xmlns="http://www.w3.org/2000/svg">
<rect x="0.5" y="0.114258" width="335" height="80" rx="8" fill="white"/>
<rect width="59.75" height="1" transform="translate(48.5 31.1143)" fill="#F8901F"/>
<rect width="59.75" height="1" transform="translate(108.25 31.1143)" fill="#F8901F"/>
<rect width="59.75" height="1" transform="translate(168 31.1143)" fill="#DCDBDB"/>
<rect width="59.75" height="1" transform="translate(227.75 31.1143)" fill="#DCDBDB"/>
<rect x="39" y="21.6143" width="19" height="19" rx="9.5" fill="white"/>
<rect x="39" y="21.6143" width="19" height="19" rx="9.5" stroke="#F8901F"/>
<circle cx="48.5" cy="31.1143" r="2" fill="#F8901F"/>
<path d="M16.625 48.9943C16.625 49.0276 16.6117 49.0576 16.585 49.0843C16.565 49.1043 16.5384 49.1143 16.505 49.1143H13.105C13.0717 49.1143 13.055 49.1309 13.055 49.1643V51.0343C13.055 51.0676 13.0717 51.0843 13.105 51.0843H15.395C15.4284 51.0843 15.455 51.0976 15.475 51.1243C15.5017 51.1443 15.515 51.1709 15.515 51.2043V51.9643C15.515 51.9976 15.5017 52.0276 15.475 52.0543C15.455 52.0743 15.4284 52.0843 15.395 52.0843H13.105C13.0717 52.0843 13.055 52.1009 13.055 52.1343V54.9943C13.055 55.0276 13.0417 55.0576 13.015 55.0843C12.995 55.1043 12.9684 55.1143 12.935 55.1143H12.015C11.9817 55.1143 11.9517 55.1043 11.925 55.0843C11.905 55.0576 11.895 55.0276 11.895 54.9943V48.2343C11.895 48.2009 11.905 48.1743 11.925 48.1543C11.9517 48.1276 11.9817 48.1143 12.015 48.1143H16.505C16.5384 48.1143 16.565 48.1276 16.585 48.1543C16.6117 48.1743 16.625 48.2009 16.625 48.2343V48.9943ZM18.5798 49.3043C18.3731 49.3043 18.2031 49.2376 18.0698 49.1043C17.9365 48.9709 17.8698 48.8009 17.8698 48.5943C17.8698 48.3876 17.9365 48.2176 18.0698 48.0843C18.2031 47.9509 18.3731 47.8843 18.5798 47.8843C18.7865 47.8843 18.9565 47.9509 19.0898 48.0843C19.2231 48.2176 19.2898 48.3876 19.2898 48.5943C19.2898 48.8009 19.2231 48.9709 19.0898 49.1043C18.9565 49.2376 18.7865 49.3043 18.5798 49.3043ZM18.0998 55.1143C18.0665 55.1143 18.0365 55.1043 18.0098 55.0843C17.9898 55.0576 17.9798 55.0276 17.9798 54.9943V50.1143C17.9798 50.0809 17.9898 50.0543 18.0098 50.0343C18.0365 50.0076 18.0665 49.9943 18.0998 49.9943H19.0198C19.0531 49.9943 19.0798 50.0076 19.0998 50.0343C19.1265 50.0543 19.1398 50.0809 19.1398 50.1143V54.9943C19.1398 55.0276 19.1265 55.0576 19.0998 55.0843C19.0798 55.1043 19.0531 55.1143 19.0198 55.1143H18.0998ZM21.0886 55.1143C21.0553 55.1143 21.0253 55.1043 20.9986 55.0843C20.9786 55.0576 20.9686 55.0276 20.9686 54.9943V48.2343C20.9686 48.2009 20.9786 48.1743 20.9986 48.1543C21.0253 48.1276 21.0553 48.1143 21.0886 48.1143H22.0086C22.042 48.1143 22.0686 48.1276 22.0886 48.1543C22.1153 48.1743 22.1286 48.2009 22.1286 48.2343V54.9943C22.1286 55.0276 22.1153 55.0576 22.0886 55.0843C22.0686 55.1043 22.042 55.1143 22.0086 55.1143H21.0886ZM23.9812 55.1143C23.9479 55.1143 23.9179 55.1043 23.8912 55.0843C23.8712 55.0576 23.8612 55.0276 23.8612 54.9943V48.2343C23.8612 48.2009 23.8712 48.1743 23.8912 48.1543C23.9179 48.1276 23.9479 48.1143 23.9812 48.1143H24.9012C24.9345 48.1143 24.9612 48.1276 24.9812 48.1543C25.0079 48.1743 25.0212 48.2009 25.0212 48.2343V54.9943C25.0212 55.0276 25.0079 55.0576 24.9812 55.0843C24.9612 55.1043 24.9345 55.1143 24.9012 55.1143H23.9812ZM27.4138 49.3043C27.2071 49.3043 27.0371 49.2376 26.9038 49.1043C26.7705 48.9709 26.7038 48.8009 26.7038 48.5943C26.7038 48.3876 26.7705 48.2176 26.9038 48.0843C27.0371 47.9509 27.2071 47.8843 27.4138 47.8843C27.6205 47.8843 27.7905 47.9509 27.9238 48.0843C28.0571 48.2176 28.1238 48.3876 28.1238 48.5943C28.1238 48.8009 28.0571 48.9709 27.9238 49.1043C27.7905 49.2376 27.6205 49.3043 27.4138 49.3043ZM26.9338 55.1143C26.9005 55.1143 26.8705 55.1043 26.8438 55.0843C26.8238 55.0576 26.8138 55.0276 26.8138 54.9943V50.1143C26.8138 50.0809 26.8238 50.0543 26.8438 50.0343C26.8705 50.0076 26.9005 49.9943 26.9338 49.9943H27.8538C27.8871 49.9943 27.9138 50.0076 27.9338 50.0343C27.9605 50.0543 27.9738 50.0809 27.9738 50.1143V54.9943C27.9738 55.0276 27.9605 55.0576 27.9338 55.0843C27.9138 55.1043 27.8871 55.1143 27.8538 55.1143H26.9338ZM32.2526 49.9243C32.7926 49.9243 33.2226 50.0843 33.5426 50.4043C33.8693 50.7243 34.0326 51.1609 34.0326 51.7143V54.9943C34.0326 55.0276 34.0193 55.0576 33.9926 55.0843C33.9726 55.1043 33.946 55.1143 33.9126 55.1143H32.9926C32.9593 55.1143 32.9293 55.1043 32.9026 55.0843C32.8826 55.0576 32.8726 55.0276 32.8726 54.9943V51.9543C32.8726 51.6476 32.786 51.4009 32.6126 51.2143C32.4393 51.0209 32.2093 50.9243 31.9226 50.9243C31.636 50.9243 31.4026 51.0176 31.2226 51.2043C31.0493 51.3909 30.9626 51.6376 30.9626 51.9443V54.9943C30.9626 55.0276 30.9493 55.0576 30.9226 55.0843C30.9026 55.1043 30.876 55.1143 30.8426 55.1143H29.9226C29.8893 55.1143 29.8593 55.1043 29.8326 55.0843C29.8126 55.0576 29.8026 55.0276 29.8026 54.9943V50.1243C29.8026 50.0909 29.8126 50.0643 29.8326 50.0443C29.8593 50.0176 29.8893 50.0043 29.9226 50.0043H30.8426C30.876 50.0043 30.9026 50.0176 30.9226 50.0443C30.9493 50.0643 30.9626 50.0909 30.9626 50.1243V50.4443C30.9626 50.4643 30.9693 50.4776 30.9826 50.4843C30.996 50.4909 31.006 50.4843 31.0126 50.4643C31.286 50.1043 31.6993 49.9243 32.2526 49.9243ZM38.8721 50.1243C38.8721 50.0909 38.8821 50.0643 38.9021 50.0443C38.9287 50.0176 38.9587 50.0043 38.9921 50.0043H39.9121C39.9454 50.0043 39.9721 50.0176 39.9921 50.0443C40.0187 50.0643 40.0321 50.0909 40.0321 50.1243V54.7743C40.0321 55.6076 39.7921 56.2009 39.3121 56.5543C38.8387 56.9143 38.2154 57.0943 37.4421 57.0943C37.2354 57.0943 37.0321 57.0843 36.8321 57.0643C36.7587 57.0576 36.7221 57.0143 36.7221 56.9343L36.7521 56.1143C36.7521 56.0409 36.7987 56.0043 36.8921 56.0043C37.0854 56.0243 37.2587 56.0343 37.4121 56.0343C37.9121 56.0343 38.2787 55.9343 38.5121 55.7343C38.7521 55.5409 38.8721 55.2109 38.8721 54.7443V54.6643C38.8721 54.6443 38.8654 54.6343 38.8521 54.6343C38.8387 54.6276 38.8254 54.6309 38.8121 54.6443C38.5387 54.9376 38.1521 55.0843 37.6521 55.0843C37.2187 55.0843 36.8221 54.9743 36.4621 54.7543C36.1021 54.5343 35.8521 54.1976 35.7121 53.7443C35.6254 53.4309 35.5821 53.0276 35.5821 52.5343C35.5821 51.9809 35.6354 51.5576 35.7421 51.2643C35.8754 50.8576 36.1054 50.5343 36.4321 50.2943C36.7587 50.0476 37.1421 49.9243 37.5821 49.9243C38.1087 49.9243 38.5187 50.0776 38.8121 50.3843C38.8254 50.4043 38.8387 50.4109 38.8521 50.4043C38.8654 50.3976 38.8721 50.3843 38.8721 50.3643V50.1243ZM38.8021 53.4143C38.8287 53.3143 38.8454 53.2076 38.8521 53.0943C38.8654 52.9743 38.8721 52.7843 38.8721 52.5243C38.8721 52.2709 38.8654 52.0909 38.8521 51.9843C38.8454 51.8709 38.8254 51.7609 38.7921 51.6543C38.7387 51.4343 38.6287 51.2576 38.4621 51.1243C38.3021 50.9909 38.0954 50.9243 37.8421 50.9243C37.6021 50.9243 37.3987 50.9909 37.2321 51.1243C37.0654 51.2576 36.9454 51.4343 36.8721 51.6543C36.7921 51.8409 36.7521 52.1343 36.7521 52.5343C36.7521 52.9476 36.7854 53.2376 36.8521 53.4043C36.9187 53.6176 37.0387 53.7943 37.2121 53.9343C37.3921 54.0676 37.6054 54.1343 37.8521 54.1343C38.1121 54.1343 38.3221 54.0676 38.4821 53.9343C38.6421 53.8009 38.7487 53.6276 38.8021 53.4143ZM44.8923 49.3043C44.6856 49.3043 44.5156 49.2376 44.3823 49.1043C44.249 48.9709 44.1823 48.8009 44.1823 48.5943C44.1823 48.3876 44.249 48.2176 44.3823 48.0843C44.5156 47.9509 44.6856 47.8843 44.8923 47.8843C45.099 47.8843 45.269 47.9509 45.4023 48.0843C45.5356 48.2176 45.6023 48.3876 45.6023 48.5943C45.6023 48.8009 45.5356 48.9709 45.4023 49.1043C45.269 49.2376 45.099 49.3043 44.8923 49.3043ZM44.4123 55.1143C44.379 55.1143 44.349 55.1043 44.3223 55.0843C44.3023 55.0576 44.2923 55.0276 44.2923 54.9943V50.1143C44.2923 50.0809 44.3023 50.0543 44.3223 50.0343C44.349 50.0076 44.379 49.9943 44.4123 49.9943H45.3323C45.3656 49.9943 45.3923 50.0076 45.4123 50.0343C45.439 50.0543 45.4523 50.0809 45.4523 50.1143V54.9943C45.4523 55.0276 45.439 55.0576 45.4123 55.0843C45.3923 55.1043 45.3656 55.1143 45.3323 55.1143H44.4123ZM49.7311 49.9243C50.2711 49.9243 50.7011 50.0843 51.0211 50.4043C51.3478 50.7243 51.5111 51.1609 51.5111 51.7143V54.9943C51.5111 55.0276 51.4978 55.0576 51.4711 55.0843C51.4511 55.1043 51.4245 55.1143 51.3911 55.1143H50.4711C50.4378 55.1143 50.4078 55.1043 50.3811 55.0843C50.3611 55.0576 50.3511 55.0276 50.3511 54.9943V51.9543C50.3511 51.6476 50.2645 51.4009 50.0911 51.2143C49.9178 51.0209 49.6878 50.9243 49.4011 50.9243C49.1145 50.9243 48.8811 51.0176 48.7011 51.2043C48.5278 51.3909 48.4411 51.6376 48.4411 51.9443V54.9943C48.4411 55.0276 48.4278 55.0576 48.4011 55.0843C48.3811 55.1043 48.3545 55.1143 48.3211 55.1143H47.4011C47.3678 55.1143 47.3378 55.1043 47.3111 55.0843C47.2911 55.0576 47.2811 55.0276 47.2811 54.9943V50.1243C47.2811 50.0909 47.2911 50.0643 47.3111 50.0443C47.3378 50.0176 47.3678 50.0043 47.4011 50.0043H48.3211C48.3545 50.0043 48.3811 50.0176 48.4011 50.0443C48.4278 50.0643 48.4411 50.0909 48.4411 50.1243V50.4443C48.4411 50.4643 48.4478 50.4776 48.4611 50.4843C48.4745 50.4909 48.4845 50.4843 48.4911 50.4643C48.7645 50.1043 49.1778 49.9243 49.7311 49.9243ZM57.6725 49.9243C58.0925 49.9243 58.4625 49.9976 58.7825 50.1443C59.1025 50.2909 59.3492 50.4943 59.5225 50.7543C59.6959 51.0076 59.7825 51.2976 59.7825 51.6243V54.9943C59.7825 55.0276 59.7692 55.0576 59.7425 55.0843C59.7225 55.1043 59.6959 55.1143 59.6625 55.1143H58.7425C58.7092 55.1143 58.6792 55.1043 58.6525 55.0843C58.6325 55.0576 58.6225 55.0276 58.6225 54.9943V54.6743C58.6225 54.6543 58.6159 54.6443 58.6025 54.6443C58.5892 54.6376 58.5759 54.6409 58.5625 54.6543C58.2359 55.0143 57.7625 55.1943 57.1425 55.1943C56.6425 55.1943 56.2292 55.0676 55.9025 54.8143C55.5825 54.5609 55.4225 54.1843 55.4225 53.6843C55.4225 53.1643 55.6025 52.7609 55.9625 52.4743C56.3292 52.1809 56.8425 52.0343 57.5025 52.0343H58.5725C58.6059 52.0343 58.6225 52.0176 58.6225 51.9843V51.7443C58.6225 51.4843 58.5459 51.2843 58.3925 51.1443C58.2392 50.9976 58.0092 50.9243 57.7025 50.9243C57.4492 50.9243 57.2425 50.9709 57.0825 51.0643C56.9292 51.1509 56.8325 51.2743 56.7925 51.4343C56.7725 51.5143 56.7259 51.5476 56.6525 51.5343L55.6825 51.4143C55.6492 51.4076 55.6192 51.3976 55.5925 51.3843C55.5725 51.3643 55.5659 51.3409 55.5725 51.3143C55.6259 50.9076 55.8425 50.5743 56.2225 50.3143C56.6092 50.0543 57.0925 49.9243 57.6725 49.9243ZM57.4325 54.2743C57.7592 54.2743 58.0392 54.1876 58.2725 54.0143C58.5059 53.8409 58.6225 53.6209 58.6225 53.3543V52.8843C58.6225 52.8509 58.6059 52.8343 58.5725 52.8343H57.7325C57.3792 52.8343 57.0992 52.9009 56.8925 53.0343C56.6925 53.1676 56.5925 53.3576 56.5925 53.6043C56.5925 53.8176 56.6692 53.9843 56.8225 54.1043C56.9825 54.2176 57.1859 54.2743 57.4325 54.2743ZM66.6091 49.9943C66.6424 49.9943 66.6691 50.0076 66.6891 50.0343C66.7158 50.0543 66.7291 50.0809 66.7291 50.1143V50.9043C66.7291 50.9376 66.7158 50.9676 66.6891 50.9943C66.6691 51.0143 66.6424 51.0243 66.6091 51.0243H65.6191C65.5858 51.0243 65.5691 51.0409 65.5691 51.0743V54.9943C65.5691 55.0276 65.5558 55.0576 65.5291 55.0843C65.5091 55.1043 65.4824 55.1143 65.4491 55.1143H64.5291C64.4958 55.1143 64.4658 55.1043 64.4391 55.0843C64.4191 55.0576 64.4091 55.0276 64.4091 54.9943V51.0743C64.4091 51.0409 64.3924 51.0243 64.3591 51.0243H63.7391C63.7058 51.0243 63.6758 51.0143 63.6491 50.9943C63.6291 50.9676 63.6191 50.9376 63.6191 50.9043V50.1143C63.6191 50.0809 63.6291 50.0543 63.6491 50.0343C63.6758 50.0076 63.7058 49.9943 63.7391 49.9943H64.3591C64.3924 49.9943 64.4091 49.9776 64.4091 49.9443V49.7643C64.4091 49.3309 64.4658 48.9976 64.5791 48.7643C64.6924 48.5243 64.8791 48.3543 65.1391 48.2543C65.3991 48.1543 65.7658 48.1076 66.2391 48.1143H66.5891C66.6224 48.1143 66.6491 48.1276 66.6691 48.1543C66.6958 48.1743 66.7091 48.2009 66.7091 48.2343V48.9343C66.7091 48.9676 66.6958 48.9976 66.6691 49.0243C66.6491 49.0443 66.6224 49.0543 66.5891 49.0543H66.3291C66.0424 49.0543 65.8424 49.1109 65.7291 49.2243C65.6224 49.3376 65.5691 49.5443 65.5691 49.8443V49.9443C65.5691 49.9776 65.5858 49.9943 65.6191 49.9943H66.6091ZM70.0175 55.1943C69.4909 55.1943 69.0375 55.0609 68.6575 54.7943C68.2842 54.5276 68.0209 54.1576 67.8675 53.6843C67.7542 53.3243 67.6975 52.9443 67.6975 52.5443C67.6975 52.1176 67.7509 51.7376 67.8575 51.4043C68.0109 50.9376 68.2775 50.5743 68.6575 50.3143C69.0375 50.0543 69.4942 49.9243 70.0275 49.9243C70.5342 49.9243 70.9709 50.0543 71.3375 50.3143C71.7109 50.5743 71.9742 50.9343 72.1275 51.3943C72.2475 51.7143 72.3075 52.0943 72.3075 52.5343C72.3075 52.9543 72.2509 53.3343 72.1375 53.6743C71.9842 54.1476 71.7209 54.5209 71.3475 54.7943C70.9742 55.0609 70.5309 55.1943 70.0175 55.1943ZM70.0175 54.1943C70.2642 54.1943 70.4742 54.1243 70.6475 53.9843C70.8275 53.8443 70.9575 53.6476 71.0375 53.3943C71.1042 53.1743 71.1375 52.8943 71.1375 52.5543C71.1375 52.1943 71.1042 51.9143 71.0375 51.7143C70.9642 51.4609 70.8375 51.2676 70.6575 51.1343C70.4775 50.9943 70.2575 50.9243 69.9975 50.9243C69.7509 50.9243 69.5375 50.9943 69.3575 51.1343C69.1775 51.2676 69.0475 51.4609 68.9675 51.7143C68.9009 51.9476 68.8675 52.2276 68.8675 52.5543C68.8675 52.8809 68.9009 53.1609 68.9675 53.3943C69.0409 53.6476 69.1675 53.8443 69.3475 53.9843C69.5342 54.1243 69.7575 54.1943 70.0175 54.1943ZM76.2842 49.9443C76.4975 49.9443 76.6842 49.9876 76.8442 50.0743C76.8975 50.1009 76.9175 50.1509 76.9042 50.2243L76.7342 51.1243C76.7275 51.2043 76.6808 51.2276 76.5942 51.1943C76.4942 51.1609 76.3775 51.1443 76.2442 51.1443C76.1575 51.1443 76.0908 51.1476 76.0442 51.1543C75.7642 51.1676 75.5308 51.2676 75.3442 51.4543C75.1575 51.6343 75.0642 51.8709 75.0642 52.1643V54.9943C75.0642 55.0276 75.0508 55.0576 75.0242 55.0843C75.0042 55.1043 74.9775 55.1143 74.9442 55.1143H74.0242C73.9908 55.1143 73.9608 55.1043 73.9342 55.0843C73.9142 55.0576 73.9042 55.0276 73.9042 54.9943V50.1243C73.9042 50.0909 73.9142 50.0643 73.9342 50.0443C73.9608 50.0176 73.9908 50.0043 74.0242 50.0043H74.9442C74.9775 50.0043 75.0042 50.0176 75.0242 50.0443C75.0508 50.0643 75.0642 50.0909 75.0642 50.1243V50.5743C75.0642 50.6009 75.0675 50.6176 75.0742 50.6243C75.0875 50.6243 75.1008 50.6143 75.1142 50.5943C75.3942 50.1609 75.7842 49.9443 76.2842 49.9443ZM83.6339 49.9243C84.1473 49.9243 84.5473 50.0809 84.8339 50.3943C85.1273 50.7009 85.2739 51.1309 85.2739 51.6843V54.9943C85.2739 55.0276 85.2606 55.0576 85.2339 55.0843C85.2139 55.1043 85.1873 55.1143 85.1539 55.1143H84.2439C84.2106 55.1143 84.1806 55.1043 84.1539 55.0843C84.1339 55.0576 84.1239 55.0276 84.1239 54.9943V51.9243C84.1239 51.6176 84.0406 51.3743 83.8739 51.1943C83.7139 51.0143 83.4973 50.9243 83.2239 50.9243C82.9506 50.9243 82.7273 51.0143 82.5539 51.1943C82.3806 51.3743 82.2939 51.6143 82.2939 51.9143V54.9943C82.2939 55.0276 82.2806 55.0576 82.2539 55.0843C82.2339 55.1043 82.2073 55.1143 82.1739 55.1143H81.2639C81.2306 55.1143 81.2006 55.1043 81.1739 55.0843C81.1539 55.0576 81.1439 55.0276 81.1439 54.9943V51.9243C81.1439 51.6176 81.0606 51.3743 80.8939 51.1943C80.7273 51.0143 80.5073 50.9243 80.2339 50.9243C79.9806 50.9243 79.7706 50.9976 79.6039 51.1443C79.4439 51.2909 79.3506 51.4909 79.3239 51.7443V54.9943C79.3239 55.0276 79.3106 55.0576 79.2839 55.0843C79.2639 55.1043 79.2373 55.1143 79.2039 55.1143H78.2839C78.2506 55.1143 78.2206 55.1043 78.1939 55.0843C78.1739 55.0576 78.1639 55.0276 78.1639 54.9943V50.1243C78.1639 50.0909 78.1739 50.0643 78.1939 50.0443C78.2206 50.0176 78.2506 50.0043 78.2839 50.0043H79.2039C79.2373 50.0043 79.2639 50.0176 79.2839 50.0443C79.3106 50.0643 79.3239 50.0909 79.3239 50.1243V50.4543C79.3239 50.4743 79.3306 50.4876 79.3439 50.4943C79.3573 50.5009 79.3706 50.4943 79.3839 50.4743C79.5306 50.2876 79.7106 50.1509 79.9239 50.0643C80.1439 49.9709 80.3873 49.9243 80.6539 49.9243C80.9806 49.9243 81.2673 49.9909 81.5139 50.1243C81.7606 50.2576 81.9506 50.4509 82.0839 50.7043C82.1039 50.7309 82.1273 50.7309 82.1539 50.7043C82.3006 50.4376 82.5039 50.2409 82.7639 50.1143C83.0239 49.9876 83.3139 49.9243 83.6339 49.9243Z" fill="#F8901F"/>
<rect x="158.5" y="21.6143" width="19" height="19" rx="9.5" fill="white"/>
<rect x="158.5" y="21.6143" width="19" height="19" rx="9.5" stroke="#DCDBDB"/>
<path d="M152.208 55.2043C151.728 55.2043 151.301 55.1109 150.928 54.9243C150.561 54.7309 150.274 54.4609 150.068 54.1143C149.868 53.7609 149.768 53.3576 149.768 52.9043V50.3143C149.768 49.8609 149.868 49.4643 150.068 49.1243C150.274 48.7776 150.561 48.5109 150.928 48.3243C151.301 48.1309 151.728 48.0343 152.208 48.0343C152.688 48.0343 153.111 48.1276 153.478 48.3143C153.844 48.4943 154.128 48.7509 154.328 49.0843C154.534 49.4176 154.638 49.8043 154.638 50.2443V50.2543C154.638 50.2876 154.628 50.3143 154.608 50.3343C154.588 50.3543 154.564 50.3643 154.538 50.3643L153.778 50.4043C153.711 50.4043 153.678 50.3743 153.678 50.3143V50.2843C153.678 49.8576 153.544 49.5143 153.278 49.2543C153.011 48.9943 152.654 48.8643 152.208 48.8643C151.761 48.8643 151.401 48.9943 151.128 49.2543C150.861 49.5143 150.728 49.8576 150.728 50.2843V52.9443C150.728 53.3709 150.861 53.7143 151.128 53.9743C151.401 54.2343 151.761 54.3643 152.208 54.3643C152.654 54.3643 153.011 54.2343 153.278 53.9743C153.544 53.7143 153.678 53.3709 153.678 52.9443V52.9243C153.678 52.8643 153.711 52.8343 153.778 52.8343L154.538 52.8743C154.604 52.8743 154.638 52.9076 154.638 52.9743C154.638 53.4143 154.534 53.8043 154.328 54.1443C154.128 54.4776 153.844 54.7376 153.478 54.9243C153.111 55.1109 152.688 55.2043 152.208 55.2043ZM158.482 55.1943C157.989 55.1943 157.559 55.0709 157.192 54.8243C156.825 54.5709 156.569 54.2209 156.422 53.7743C156.302 53.4143 156.242 53.0076 156.242 52.5543C156.242 52.0809 156.299 51.6809 156.412 51.3543C156.559 50.9143 156.815 50.5709 157.182 50.3243C157.549 50.0709 157.985 49.9443 158.492 49.9443C158.972 49.9443 159.389 50.0709 159.742 50.3243C160.102 50.5709 160.359 50.9109 160.512 51.3443C160.632 51.6843 160.692 52.0843 160.692 52.5443C160.692 53.0109 160.632 53.4209 160.512 53.7743C160.365 54.2209 160.112 54.5709 159.752 54.8243C159.392 55.0709 158.969 55.1943 158.482 55.1943ZM158.482 54.3643C158.749 54.3643 158.982 54.2909 159.182 54.1443C159.382 53.9909 159.525 53.7776 159.612 53.5043C159.685 53.2509 159.722 52.9376 159.722 52.5643C159.722 52.1909 159.689 51.8809 159.622 51.6343C159.535 51.3609 159.392 51.1509 159.192 51.0043C158.992 50.8509 158.749 50.7743 158.462 50.7743C158.189 50.7743 157.952 50.8509 157.752 51.0043C157.552 51.1509 157.409 51.3609 157.322 51.6343C157.249 51.8676 157.212 52.1776 157.212 52.5643C157.212 52.9509 157.249 53.2643 157.322 53.5043C157.402 53.7776 157.542 53.9909 157.742 54.1443C157.949 54.2909 158.195 54.3643 158.482 54.3643ZM164.719 49.9543C165.266 49.9543 165.699 50.1143 166.019 50.4343C166.339 50.7476 166.499 51.1743 166.499 51.7143V55.0143C166.499 55.0809 166.466 55.1143 166.399 55.1143H165.639C165.572 55.1143 165.539 55.0809 165.539 55.0143V51.9043C165.539 51.5709 165.442 51.3009 165.249 51.0943C165.056 50.8876 164.799 50.7843 164.479 50.7843C164.166 50.7843 163.909 50.8876 163.709 51.0943C163.509 51.3009 163.409 51.5676 163.409 51.8943V55.0143C163.409 55.0809 163.376 55.1143 163.309 55.1143H162.549C162.482 55.1143 162.449 55.0809 162.449 55.0143V50.1243C162.449 50.0576 162.482 50.0243 162.549 50.0243H163.309C163.376 50.0243 163.409 50.0576 163.409 50.1243V50.4843C163.409 50.4976 163.412 50.5076 163.419 50.5143C163.432 50.5209 163.442 50.5176 163.449 50.5043C163.736 50.1376 164.159 49.9543 164.719 49.9543ZM170.609 48.9543C170.276 48.9543 170.049 49.0176 169.929 49.1443C169.809 49.2709 169.749 49.5109 169.749 49.8643V49.9843C169.749 50.0109 169.762 50.0243 169.789 50.0243H170.839C170.906 50.0243 170.939 50.0576 170.939 50.1243V50.8043C170.939 50.8709 170.906 50.9043 170.839 50.9043H169.789C169.762 50.9043 169.749 50.9176 169.749 50.9443V55.0143C169.749 55.0809 169.716 55.1143 169.649 55.1143H168.889C168.822 55.1143 168.789 55.0809 168.789 55.0143V50.9443C168.789 50.9176 168.776 50.9043 168.749 50.9043H168.079C168.012 50.9043 167.979 50.8709 167.979 50.8043V50.1243C167.979 50.0576 168.012 50.0243 168.079 50.0243H168.749C168.776 50.0243 168.789 50.0109 168.789 49.9843V49.8043C168.789 49.3643 168.839 49.0243 168.939 48.7843C169.046 48.5443 169.222 48.3743 169.469 48.2743C169.716 48.1676 170.062 48.1143 170.509 48.1143H170.849C170.916 48.1143 170.949 48.1476 170.949 48.2143V48.8543C170.949 48.9209 170.916 48.9543 170.849 48.9543H170.609ZM172.619 49.2243C172.432 49.2243 172.279 49.1643 172.159 49.0443C172.039 48.9243 171.979 48.7709 171.979 48.5843C171.979 48.3976 172.039 48.2443 172.159 48.1243C172.279 48.0043 172.432 47.9443 172.619 47.9443C172.806 47.9443 172.959 48.0043 173.079 48.1243C173.199 48.2443 173.259 48.3976 173.259 48.5843C173.259 48.7709 173.199 48.9243 173.079 49.0443C172.959 49.1643 172.806 49.2243 172.619 49.2243ZM172.219 55.1043C172.152 55.1043 172.119 55.0709 172.119 55.0043V50.1243C172.119 50.0576 172.152 50.0243 172.219 50.0243H172.979C173.046 50.0243 173.079 50.0576 173.079 50.1243V55.0043C173.079 55.0709 173.046 55.1043 172.979 55.1043H172.219ZM177.32 49.9743C177.533 49.9743 177.726 50.0176 177.9 50.1043C177.946 50.1243 177.963 50.1643 177.95 50.2243L177.79 50.9743C177.783 51.0343 177.743 51.0543 177.67 51.0343C177.556 50.9876 177.423 50.9643 177.27 50.9643L177.13 50.9743C176.816 50.9876 176.556 51.0976 176.35 51.3043C176.15 51.5043 176.05 51.7676 176.05 52.0943V55.0143C176.05 55.0809 176.016 55.1143 175.95 55.1143H175.19C175.123 55.1143 175.09 55.0809 175.09 55.0143V50.1243C175.09 50.0576 175.123 50.0243 175.19 50.0243H175.95C176.016 50.0243 176.05 50.0576 176.05 50.1243V50.6543C176.05 50.6743 176.053 50.6876 176.06 50.6943C176.073 50.6943 176.083 50.6876 176.09 50.6743C176.39 50.2076 176.8 49.9743 177.32 49.9743ZM184.591 49.9543C185.097 49.9543 185.497 50.1076 185.791 50.4143C186.084 50.7143 186.231 51.1343 186.231 51.6743V55.0143C186.231 55.0809 186.197 55.1143 186.131 55.1143H185.381C185.314 55.1143 185.281 55.0809 185.281 55.0143V51.8743C185.281 51.5409 185.187 51.2776 185.001 51.0843C184.821 50.8843 184.577 50.7843 184.271 50.7843C183.964 50.7843 183.714 50.8809 183.521 51.0743C183.327 51.2676 183.231 51.5276 183.231 51.8543V55.0143C183.231 55.0809 183.197 55.1143 183.131 55.1143H182.381C182.314 55.1143 182.281 55.0809 182.281 55.0143V51.8743C182.281 51.5409 182.187 51.2776 182.001 51.0843C181.821 50.8843 181.577 50.7843 181.271 50.7843C180.964 50.7843 180.717 50.8809 180.531 51.0743C180.351 51.2676 180.261 51.5276 180.261 51.8543V55.0143C180.261 55.0809 180.227 55.1143 180.161 55.1143H179.401C179.334 55.1143 179.301 55.0809 179.301 55.0143V50.1243C179.301 50.0576 179.334 50.0243 179.401 50.0243H180.161C180.227 50.0243 180.261 50.0576 180.261 50.1243V50.4643C180.261 50.4776 180.264 50.4876 180.271 50.4943C180.284 50.5009 180.297 50.4976 180.311 50.4843C180.604 50.1309 181.031 49.9543 181.591 49.9543C181.931 49.9543 182.221 50.0209 182.461 50.1543C182.701 50.2809 182.887 50.4709 183.021 50.7243C183.041 50.7509 183.061 50.7509 183.081 50.7243C183.241 50.4643 183.451 50.2709 183.711 50.1443C183.977 50.0176 184.271 49.9543 184.591 49.9543Z" fill="#6D6D6D"/>
<rect x="278" y="21.6143" width="19" height="19" rx="9.5" fill="white"/>
<rect x="278" y="21.6143" width="19" height="19" rx="9.5" stroke="#DCDBDB"/>
<path d="M270.361 48.1043C270.767 48.1043 271.124 48.1909 271.431 48.3643C271.744 48.5309 271.984 48.7676 272.151 49.0743C272.324 49.3809 272.411 49.7343 272.411 50.1343C272.411 50.5343 272.324 50.8843 272.151 51.1843C271.977 51.4843 271.731 51.7176 271.411 51.8843C271.097 52.0509 270.734 52.1343 270.321 52.1343H268.561C268.534 52.1343 268.521 52.1476 268.521 52.1743V55.0143C268.521 55.0809 268.487 55.1143 268.421 55.1143H267.661C267.594 55.1143 267.561 55.0809 267.561 55.0143V48.2043C267.561 48.1376 267.594 48.1043 267.661 48.1043H270.361ZM270.231 51.3543C270.597 51.3543 270.891 51.2443 271.111 51.0243C271.337 50.8043 271.451 50.5143 271.451 50.1543C271.451 49.7876 271.337 49.4943 271.111 49.2743C270.891 49.0476 270.597 48.9343 270.231 48.9343H268.561C268.534 48.9343 268.521 48.9476 268.521 48.9743V51.3143C268.521 51.3409 268.534 51.3543 268.561 51.3543H270.231ZM275.749 49.9443C276.156 49.9443 276.509 50.0176 276.809 50.1643C277.116 50.3043 277.349 50.5043 277.509 50.7643C277.676 51.0176 277.759 51.3076 277.759 51.6343V55.0143C277.759 55.0809 277.726 55.1143 277.659 55.1143H276.899C276.833 55.1143 276.799 55.0809 276.799 55.0143V54.6543C276.799 54.6209 276.783 54.6143 276.749 54.6343C276.576 54.8143 276.363 54.9543 276.109 55.0543C275.863 55.1476 275.586 55.1943 275.279 55.1943C274.786 55.1943 274.376 55.0709 274.049 54.8243C273.729 54.5709 273.569 54.1909 273.569 53.6843C273.569 53.1643 273.749 52.7576 274.109 52.4643C274.476 52.1643 274.986 52.0143 275.639 52.0143H276.759C276.786 52.0143 276.799 52.0009 276.799 51.9743V51.7043C276.799 51.4109 276.713 51.1843 276.539 51.0243C276.373 50.8576 276.116 50.7743 275.769 50.7743C275.489 50.7743 275.259 50.8309 275.079 50.9443C274.906 51.0509 274.799 51.1976 274.759 51.3843C274.739 51.4509 274.699 51.4809 274.639 51.4743L273.829 51.3643C273.763 51.3509 273.733 51.3243 273.739 51.2843C273.793 50.8909 274.003 50.5709 274.369 50.3243C274.736 50.0709 275.196 49.9443 275.749 49.9443ZM275.489 54.3843C275.843 54.3843 276.149 54.2909 276.409 54.1043C276.669 53.9176 276.799 53.6809 276.799 53.3943V52.8043C276.799 52.7776 276.786 52.7643 276.759 52.7643H275.819C275.426 52.7643 275.113 52.8409 274.879 52.9943C274.646 53.1476 274.529 53.3609 274.529 53.6343C274.529 53.8809 274.616 54.0676 274.789 54.1943C274.969 54.3209 275.203 54.3843 275.489 54.3843ZM279.318 57.1043C279.271 57.1043 279.248 57.0709 279.248 57.0043V56.4143C279.248 56.3476 279.281 56.3143 279.348 56.3143H279.368C279.634 56.3076 279.844 56.2743 279.998 56.2143C280.151 56.1543 280.278 56.0409 280.378 55.8743C280.478 55.7143 280.574 55.4709 280.668 55.1443C280.674 55.1376 280.674 55.1276 280.668 55.1143C280.668 55.0943 280.668 55.0843 280.668 55.0843L278.998 50.1343L278.988 50.0943C278.988 50.0476 279.018 50.0243 279.078 50.0243H279.888C279.948 50.0243 279.988 50.0509 280.008 50.1043L281.138 53.8743C281.144 53.8876 281.154 53.8943 281.168 53.8943C281.181 53.8943 281.191 53.8876 281.198 53.8743L282.318 50.1043C282.338 50.0509 282.378 50.0243 282.438 50.0243H283.228C283.301 50.0243 283.328 50.0609 283.308 50.1343L281.488 55.4643C281.334 55.9243 281.181 56.2643 281.028 56.4843C280.874 56.7109 280.674 56.8709 280.428 56.9643C280.181 57.0576 279.834 57.1043 279.388 57.1043H279.318ZM290.013 49.9543C290.52 49.9543 290.92 50.1076 291.213 50.4143C291.507 50.7143 291.653 51.1343 291.653 51.6743V55.0143C291.653 55.0809 291.62 55.1143 291.553 55.1143H290.803C290.737 55.1143 290.703 55.0809 290.703 55.0143V51.8743C290.703 51.5409 290.61 51.2776 290.423 51.0843C290.243 50.8843 290 50.7843 289.693 50.7843C289.387 50.7843 289.137 50.8809 288.943 51.0743C288.75 51.2676 288.653 51.5276 288.653 51.8543V55.0143C288.653 55.0809 288.62 55.1143 288.553 55.1143H287.803C287.737 55.1143 287.703 55.0809 287.703 55.0143V51.8743C287.703 51.5409 287.61 51.2776 287.423 51.0843C287.243 50.8843 287 50.7843 286.693 50.7843C286.387 50.7843 286.14 50.8809 285.953 51.0743C285.773 51.2676 285.683 51.5276 285.683 51.8543V55.0143C285.683 55.0809 285.65 55.1143 285.583 55.1143H284.823C284.757 55.1143 284.723 55.0809 284.723 55.0143V50.1243C284.723 50.0576 284.757 50.0243 284.823 50.0243H285.583C285.65 50.0243 285.683 50.0576 285.683 50.1243V50.4643C285.683 50.4776 285.687 50.4876 285.693 50.4943C285.707 50.5009 285.72 50.4976 285.733 50.4843C286.027 50.1309 286.453 49.9543 287.013 49.9543C287.353 49.9543 287.643 50.0209 287.883 50.1543C288.123 50.2809 288.31 50.4709 288.443 50.7243C288.463 50.7509 288.483 50.7509 288.503 50.7243C288.663 50.4643 288.873 50.2709 289.133 50.1443C289.4 50.0176 289.693 49.9543 290.013 49.9543ZM297.547 51.9343C297.573 52.2076 297.583 52.5143 297.577 52.8543C297.577 52.9209 297.543 52.9543 297.477 52.9543H294.287C294.26 52.9543 294.247 52.9676 294.247 52.9943C294.247 53.2209 294.267 53.3943 294.307 53.5143C294.38 53.7809 294.527 53.9909 294.747 54.1443C294.973 54.2909 295.257 54.3643 295.597 54.3643C296.09 54.3643 296.47 54.1609 296.737 53.7543C296.77 53.6876 296.813 53.6776 296.867 53.7243L297.437 54.1043C297.483 54.1443 297.493 54.1876 297.467 54.2343C297.28 54.5343 297.013 54.7709 296.667 54.9443C296.327 55.1176 295.94 55.2043 295.507 55.2043C295.02 55.2043 294.61 55.0976 294.277 54.8843C293.943 54.6709 293.693 54.3676 293.527 53.9743C293.367 53.5809 293.287 53.1043 293.287 52.5443C293.287 52.0576 293.323 51.6876 293.397 51.4343C293.517 50.9743 293.757 50.6109 294.117 50.3443C294.477 50.0776 294.913 49.9443 295.427 49.9443C296.1 49.9443 296.603 50.1143 296.937 50.4543C297.27 50.7876 297.473 51.2809 297.547 51.9343ZM295.427 50.7743C295.14 50.7743 294.903 50.8476 294.717 50.9943C294.53 51.1343 294.403 51.3243 294.337 51.5643C294.29 51.7109 294.26 51.8976 294.247 52.1243C294.247 52.1509 294.26 52.1643 294.287 52.1643H296.577C296.603 52.1643 296.617 52.1509 296.617 52.1243C296.603 51.9043 296.583 51.7409 296.557 51.6343C296.49 51.3743 296.357 51.1676 296.157 51.0143C295.963 50.8543 295.72 50.7743 295.427 50.7743ZM301.558 49.9543C302.105 49.9543 302.538 50.1143 302.858 50.4343C303.178 50.7476 303.338 51.1743 303.338 51.7143V55.0143C303.338 55.0809 303.305 55.1143 303.238 55.1143H302.478C302.411 55.1143 302.378 55.0809 302.378 55.0143V51.9043C302.378 51.5709 302.281 51.3009 302.088 51.0943C301.895 50.8876 301.638 50.7843 301.318 50.7843C301.005 50.7843 300.748 50.8876 300.548 51.0943C300.348 51.3009 300.248 51.5676 300.248 51.8943V55.0143C300.248 55.0809 300.215 55.1143 300.148 55.1143H299.388C299.321 55.1143 299.288 55.0809 299.288 55.0143V50.1243C299.288 50.0576 299.321 50.0243 299.388 50.0243H300.148C300.215 50.0243 300.248 50.0576 300.248 50.1243V50.4843C300.248 50.4976 300.251 50.5076 300.258 50.5143C300.271 50.5209 300.281 50.5176 300.288 50.5043C300.575 50.1376 300.998 49.9543 301.558 49.9543ZM307.718 50.7143C307.718 50.7809 307.684 50.8143 307.618 50.8143H306.538C306.511 50.8143 306.498 50.8276 306.498 50.8543V53.5043C306.498 53.7843 306.561 53.9876 306.688 54.1143C306.814 54.2343 307.011 54.2943 307.278 54.2943H307.568C307.634 54.2943 307.668 54.3276 307.668 54.3943V55.0143C307.668 55.0809 307.634 55.1143 307.568 55.1143C307.354 55.1276 307.201 55.1343 307.108 55.1343C306.601 55.1343 306.218 55.0443 305.958 54.8643C305.704 54.6776 305.578 54.3376 305.578 53.8443V50.8543C305.578 50.8276 305.564 50.8143 305.538 50.8143H304.928C304.861 50.8143 304.828 50.7809 304.828 50.7143V50.1243C304.828 50.0576 304.861 50.0243 304.928 50.0243H305.538C305.564 50.0243 305.578 50.0109 305.578 49.9843V48.8043C305.578 48.7376 305.611 48.7043 305.678 48.7043H306.398C306.464 48.7043 306.498 48.7376 306.498 48.8043V49.9843C306.498 50.0109 306.511 50.0243 306.538 50.0243H307.618C307.684 50.0243 307.718 50.0576 307.718 50.1243V50.7143Z" fill="#6D6D6D"/>
</svg>
