<svg width="33" height="29" viewBox="0 0 33 29" fill="none" xmlns="http://www.w3.org/2000/svg">
<path d="M16.8206 22.0995H7.86872L6.04736 27.9026C5.99678 28.1182 5.79825 28.2709 5.58229 28.2603H1.04821C0.789648 28.2603 0.699223 28.1145 0.776943 27.8231L8.52748 4.929C8.60505 4.69057 8.68258 4.41896 8.76007 4.11419C8.86144 3.58389 8.91335 3.0449 8.91508 2.50451C8.89287 2.34486 9.03319 2.20385 9.18635 2.22623H15.348C15.5285 2.22623 15.6319 2.29249 15.658 2.42501L24.455 27.8628C24.5325 28.128 24.455 28.2605 24.2224 28.2603H19.1845C19.0078 28.2804 18.8391 28.1592 18.797 27.9821L16.8206 22.0995ZM9.26381 17.0915H15.3868C14.3808 13.6539 13.2455 10.2615 12.3254 6.79712C11.3326 10.2673 10.2494 13.7236 9.26381 17.0915Z" fill="#F7F7F8"/>
<path d="M29.6862 6.43927C29.2909 6.45555 28.8967 6.38608 28.5295 6.2354C28.1622 6.08472 27.83 5.85622 27.5548 5.56485C27.2802 5.26085 27.067 4.90419 26.9273 4.51539C26.7877 4.12659 26.7243 3.7133 26.7409 3.29929C26.7268 2.88938 26.7972 2.48104 26.9474 2.10092C27.0977 1.72081 27.3244 1.37747 27.6128 1.09334C27.8984 0.812158 28.2356 0.591853 28.6048 0.445175C28.974 0.298496 29.3678 0.228356 29.7636 0.238811C30.6937 0.238811 31.4236 0.523655 31.9532 1.09334C32.2205 1.38941 32.4283 1.73664 32.5646 2.11517C32.7009 2.4937 32.7631 2.89609 32.7476 3.29929C32.7638 3.71492 32.6984 4.12964 32.5553 4.51883C32.4121 4.90802 32.1942 5.26373 31.9144 5.56485C31.622 5.8605 31.273 6.09082 30.8895 6.24132C30.506 6.39181 30.0963 6.45921 29.6862 6.43927ZM27.0121 27.8627V8.86377C27.0121 8.62534 27.1151 8.50605 27.3222 8.50605H32.0888C32.2953 8.50605 32.3987 8.62529 32.3989 8.86377V27.8627C32.3989 28.1278 32.2955 28.2603 32.0888 28.2601H27.361C27.1285 28.2601 27.0122 28.1276 27.0121 27.8627Z" fill="#F7F7F8"/>
</svg>
