<svg width="38" height="38" viewBox="0 0 38 38" fill="none" xmlns="http://www.w3.org/2000/svg">
<g filter="url(#filter0_d_1134_199900)">
<path fill-rule="evenodd" clip-rule="evenodd" d="M17.7871 8.19998C17.1691 8.19969 16.7136 8.19947 16.3172 8.29608C15.091 8.5949 14.1335 9.55233 13.8347 10.7786C13.7772 11.0146 13.754 11.2717 13.7447 11.5715C13.5039 11.5855 13.2762 11.6036 13.0607 11.6269C12.0775 11.7334 11.2566 11.9562 10.5386 12.467C9.96407 12.8756 9.4708 13.4007 9.08693 14.0123C8.60715 14.7766 8.39782 15.6504 8.2978 16.6971C8.25569 17.1378 8.23174 17.6264 8.21813 18.1692L18.1694 18.1692V17.8922C18.1694 17.4334 18.5414 17.0614 19.0002 17.0614C19.459 17.0614 19.831 17.4334 19.831 17.8922V18.1692L29.7823 18.1692C29.7686 17.6264 29.7447 17.1378 29.7026 16.6971C29.6026 15.6504 29.3932 14.7766 28.9135 14.0123C28.5296 13.4007 28.0363 12.8756 27.4618 12.467C26.7438 11.9562 25.9229 11.7334 24.9397 11.6269C24.7242 11.6036 24.4964 11.5855 24.2557 11.5715C24.2464 11.2717 24.2232 11.0146 24.1657 10.7786C23.8668 9.55233 22.9094 8.5949 21.6832 8.29608C21.2868 8.19947 20.8313 8.19969 20.2132 8.19998H17.7871ZM22.5913 11.5262C22.5844 11.3575 22.5722 11.2576 22.5514 11.172C22.3995 10.5488 21.913 10.0622 21.2898 9.91037C21.1139 9.86751 20.8775 9.86155 20.1079 9.86155H17.8925C17.1229 9.86155 16.8865 9.86751 16.7106 9.91037C16.0874 10.0622 15.6009 10.5488 15.449 11.172C15.4282 11.2576 15.416 11.3575 15.4091 11.5262C15.8231 11.523 16.2656 11.523 16.7387 11.523H21.2616C21.7348 11.523 22.1773 11.523 22.5913 11.5262Z" fill="#F7F7F8"/>
<path d="M8.2002 20.6073C8.2002 20.3394 8.2002 20.0806 8.20065 19.8308H18.1694V20.1076C18.1694 20.5664 18.5414 20.9383 19.0002 20.9383C19.459 20.9383 19.831 20.5664 19.831 20.1076V19.8308H29.7997C29.8002 20.081 29.8002 20.3401 29.8002 20.6084V20.7105C29.8002 22.325 29.8002 23.6043 29.7026 24.6259C29.6026 25.6726 29.3932 26.5464 28.9135 27.3107C28.5296 27.9223 28.0363 28.4474 27.4618 28.856C26.7438 29.3667 25.9229 29.5896 24.9397 29.6961C23.9801 29.8 22.7784 29.8 21.2617 29.8H16.7387C15.2221 29.8 14.0203 29.8 13.0607 29.6961C12.0775 29.5896 11.2566 29.3667 10.5386 28.856C9.96407 28.4474 9.4708 27.9223 9.08693 27.3107C8.60715 26.5464 8.39782 25.6726 8.2978 24.6259C8.20018 23.6043 8.20019 22.325 8.2002 20.7105V20.6073Z" fill="#F7F7F8"/>
</g>
<defs>
<filter id="filter0_d_1134_199900" x="0.200195" y="0.199951" width="37.5996" height="37.6001" filterUnits="userSpaceOnUse" color-interpolation-filters="sRGB">
<feFlood flood-opacity="0" result="BackgroundImageFix"/>
<feColorMatrix in="SourceAlpha" type="matrix" values="0 0 0 0 0 0 0 0 0 0 0 0 0 0 0 0 0 0 127 0" result="hardAlpha"/>
<feOffset/>
<feGaussianBlur stdDeviation="4"/>
<feComposite in2="hardAlpha" operator="out"/>
<feColorMatrix type="matrix" values="0 0 0 0 1 0 0 0 0 1 0 0 0 0 1 0 0 0 0.5 0"/>
<feBlend mode="normal" in2="BackgroundImageFix" result="effect1_dropShadow_1134_199900"/>
<feBlend mode="normal" in="SourceGraphic" in2="effect1_dropShadow_1134_199900" result="shape"/>
</filter>
</defs>
</svg>
