<svg width="44" height="44" viewBox="0 0 44 44" fill="none" xmlns="http://www.w3.org/2000/svg">
<g filter="url(#filter0_d_1134_199899)">
<path fill-rule="evenodd" clip-rule="evenodd" d="M20.7871 11.2002C20.1691 11.1999 19.7136 11.1997 19.3172 11.2963C18.091 11.5951 17.1335 12.5526 16.8347 13.7788C16.7772 14.0149 16.754 14.2719 16.7447 14.5717C16.5039 14.5857 16.2762 14.6038 16.0607 14.6272C15.0775 14.7337 14.2566 14.9565 13.5386 15.4672C12.9641 15.8759 12.4708 16.4009 12.0869 17.0125C11.6072 17.7769 11.3978 18.6507 11.2978 19.6973C11.2557 20.138 11.2317 20.6267 11.2181 21.1695L21.1694 21.1695V20.8924C21.1694 20.4336 21.5414 20.0617 22.0002 20.0617C22.459 20.0617 22.831 20.4336 22.831 20.8924V21.1695L32.7823 21.1695C32.7686 20.6267 32.7447 20.138 32.7026 19.6973C32.6026 18.6507 32.3932 17.7769 31.9135 17.0125C31.5296 16.4009 31.0363 15.8759 30.4618 15.4672C29.7438 14.9565 28.9229 14.7337 27.9397 14.6272C27.7242 14.6038 27.4965 14.5857 27.2557 14.5717C27.2464 14.2719 27.2232 14.0149 27.1657 13.7788C26.8668 12.5526 25.9094 11.5951 24.6832 11.2963C24.2868 11.1997 23.8313 11.1999 23.2132 11.2002H20.7871ZM25.5913 14.5264C25.5844 14.3577 25.5722 14.2578 25.5514 14.1722C25.3995 13.549 24.913 13.0625 24.2898 12.9106C24.1139 12.8678 23.8775 12.8618 23.1079 12.8618H20.8925C20.1229 12.8618 19.8865 12.8678 19.7106 12.9106C19.0874 13.0625 18.6009 13.549 18.449 14.1722C18.4282 14.2578 18.416 14.3577 18.4091 14.5264C18.8231 14.5233 19.2656 14.5233 19.7387 14.5233H24.2616C24.7348 14.5233 25.1773 14.5233 25.5913 14.5264Z" fill="#F7F7F8"/>
<path d="M11.2002 23.6076C11.2002 23.3396 11.2002 23.0809 11.2006 22.831H21.1694V23.1078C21.1694 23.5666 21.5414 23.9386 22.0002 23.9386C22.459 23.9386 22.831 23.5666 22.831 23.1078V22.831H32.7997C32.8002 23.0812 32.8002 23.3403 32.8002 23.6087V23.7107C32.8002 25.3253 32.8002 26.6045 32.7026 27.6261C32.6026 28.6728 32.3932 29.5466 31.9135 30.3109C31.5296 30.9225 31.0363 31.4476 30.4618 31.8563C29.7438 32.367 28.9229 32.5898 27.9397 32.6963C26.9801 32.8002 25.7784 32.8002 24.2617 32.8002H19.7387C18.2221 32.8002 17.0203 32.8002 16.0607 32.6963C15.0775 32.5898 14.2566 32.367 13.5386 31.8563C12.9641 31.4476 12.4708 30.9225 12.0869 30.3109C11.6072 29.5466 11.3978 28.6728 11.2978 27.6261C11.2002 26.6046 11.2002 25.3253 11.2002 23.7108V23.6076Z" fill="#F7F7F8"/>
</g>
<defs>
<filter id="filter0_d_1134_199899" x="3.2002" y="3.2002" width="37.5996" height="37.6001" filterUnits="userSpaceOnUse" color-interpolation-filters="sRGB">
<feFlood flood-opacity="0" result="BackgroundImageFix"/>
<feColorMatrix in="SourceAlpha" type="matrix" values="0 0 0 0 0 0 0 0 0 0 0 0 0 0 0 0 0 0 127 0" result="hardAlpha"/>
<feOffset/>
<feGaussianBlur stdDeviation="4"/>
<feComposite in2="hardAlpha" operator="out"/>
<feColorMatrix type="matrix" values="0 0 0 0 1 0 0 0 0 1 0 0 0 0 1 0 0 0 0.5 0"/>
<feBlend mode="normal" in2="BackgroundImageFix" result="effect1_dropShadow_1134_199899"/>
<feBlend mode="normal" in="SourceGraphic" in2="effect1_dropShadow_1134_199899" result="shape"/>
</filter>
</defs>
</svg>
