<svg width="44" height="44" viewBox="0 0 44 44" fill="none" xmlns="http://www.w3.org/2000/svg">
<path fill-rule="evenodd" clip-rule="evenodd" d="M20.9891 13C20.4741 12.9998 20.0945 12.9996 19.7642 13.0801C18.7423 13.3291 17.9445 14.127 17.6954 15.1489C17.6475 15.3456 17.6282 15.5598 17.6204 15.8096C17.4198 15.8213 17.23 15.8364 17.0504 15.8558C16.231 15.9445 15.547 16.1302 14.9487 16.5558C14.4699 16.8964 14.0588 17.334 13.7389 17.8436C13.3391 18.4806 13.1647 19.2087 13.0813 20.081C13.0462 20.4482 13.0263 20.8554 13.0149 21.3077L21.3077 21.3077V21.0769C21.3077 20.6945 21.6176 20.3846 22 20.3846C22.3824 20.3846 22.6923 20.6945 22.6923 21.0769V21.3077L30.9851 21.3077C30.9737 20.8554 30.9538 20.4482 30.9187 20.081C30.8353 19.2087 30.6609 18.4806 30.2611 17.8436C29.9412 17.334 29.5301 16.8964 29.0513 16.5558C28.453 16.1302 27.769 15.9445 26.9496 15.8558C26.77 15.8364 26.5802 15.8213 26.3796 15.8096C26.3718 15.5598 26.3525 15.3456 26.3046 15.1489C26.0555 14.127 25.2577 13.3291 24.2358 13.0801C23.9055 12.9996 23.5259 12.9998 23.0109 13H20.9891ZM24.9926 15.7719C24.9868 15.6313 24.9767 15.548 24.9593 15.4767C24.8328 14.9574 24.4273 14.5519 23.908 14.4254C23.7614 14.3896 23.5644 14.3847 22.9231 14.3847H21.0769C20.4356 14.3847 20.2386 14.3896 20.092 14.4254C19.5727 14.5519 19.1672 14.9574 19.0407 15.4767C19.0233 15.548 19.0132 15.6313 19.0074 15.7719C19.3525 15.7692 19.7212 15.7692 20.1155 15.7692H23.8845C24.2788 15.7692 24.6475 15.7692 24.9926 15.7719Z" fill="url(#paint0_linear_1134_199938)"/>
<path d="M13 23.3395C13 23.1162 13 22.9006 13.0004 22.6923H21.3077V22.923C21.3077 23.3054 21.6176 23.6153 22 23.6153C22.3824 23.6153 22.6923 23.3054 22.6923 22.923V22.6923H30.9996C31 22.9008 31 23.1168 31 23.3404V23.4255C31 24.7709 31 25.837 30.9187 26.6883C30.8353 27.5605 30.6609 28.2887 30.2611 28.9256C29.9412 29.4353 29.5301 29.8729 29.0513 30.2134C28.453 30.639 27.769 30.8247 26.9496 30.9134C26.1499 31 25.1485 31 23.8846 31H20.1154C18.8516 31 17.8501 31 17.0504 30.9134C16.231 30.8247 15.547 30.639 14.9487 30.2134C14.4699 29.8729 14.0588 29.4353 13.7389 28.9256C13.3391 28.2887 13.1647 27.5605 13.0813 26.6883C13 25.837 13 24.7709 13 23.4255V23.3395Z" fill="url(#paint1_linear_1134_199938)"/>
<defs>
<linearGradient id="paint0_linear_1134_199938" x1="13" y1="22" x2="31" y2="22" gradientUnits="userSpaceOnUse">
<stop stop-color="#CE80FF"/>
<stop offset="0.504032" stop-color="#80F0FF"/>
<stop offset="1" stop-color="#B1FF80"/>
</linearGradient>
<linearGradient id="paint1_linear_1134_199938" x1="13" y1="22" x2="31" y2="22" gradientUnits="userSpaceOnUse">
<stop stop-color="#CE80FF"/>
<stop offset="0.504032" stop-color="#80F0FF"/>
<stop offset="1" stop-color="#B1FF80"/>
</linearGradient>
</defs>
</svg>
