<svg width="56" height="56" viewBox="0 0 56 56" fill="none" xmlns="http://www.w3.org/2000/svg">
<rect width="56" height="56" rx="8" fill="#FB743E"/>
<path d="M28 44C23.726 44 19.7085 42.3353 16.686 39.314C13.6647 36.2915 12 32.274 12 28C12 23.726 13.6647 19.7085 16.686 16.686C19.7085 13.6647 23.726 12 28 12C29.0071 12 29.8247 12.8164 29.8247 13.8247C29.8247 14.8329 29.0082 15.6493 28 15.6493C21.189 15.6493 15.6493 21.1901 15.6493 28C15.6493 34.8099 21.1901 40.3507 28 40.3507C34.8099 40.3507 40.149 35.0093 40.3452 28.3693C40.3485 28.2466 40.3507 26.8427 40.3507 26.7189C40.3507 25.7118 41.1671 24.8942 42.1753 24.8942C43.1836 24.8942 44 25.7107 44 26.7189C44 26.8427 43.9989 28.2466 43.9956 28.3693C43.9025 32.5041 42.2488 36.3781 39.314 39.3129C36.2915 42.3353 32.274 43.9989 28 43.9989V44Z" fill="white"/>
<path d="M39.005 19.4921C38.308 19.4921 37.7063 19.24 37.2033 18.737C36.7003 18.234 36.4482 17.6335 36.4482 16.9354C36.4482 16.2373 36.7003 15.6378 37.2033 15.1337C37.7063 14.6307 38.3069 14.3787 39.005 14.3787C39.703 14.3787 40.3025 14.6307 40.8066 15.1337C41.3096 15.6378 41.5617 16.2373 41.5617 16.9354C41.5617 17.6335 41.3096 18.234 40.8066 18.737C40.3025 19.2411 39.703 19.4921 39.005 19.4921Z" fill="#4BFA7A"/>
</svg>
