<svg width="40" height="36" viewBox="0 0 40 36" fill="none" xmlns="http://www.w3.org/2000/svg">
<g filter="url(#filter0_d_1134_199907)">
<path d="M18.056 15.1303C18.056 15.7524 17.4828 16.4615 16.5163 16.4615C15.5499 16.4615 14.9766 15.7524 14.9766 15.1303C14.9766 14.5081 15.5499 13.799 16.5163 13.799C17.4828 13.799 18.056 14.5081 18.056 15.1303Z" fill="#F7F7F8"/>
<path fill-rule="evenodd" clip-rule="evenodd" d="M17.4792 8.3999H22.5208C24.2804 8.39989 25.6746 8.39988 26.7835 8.52157C27.9206 8.64634 28.8644 8.90783 29.6746 9.50519C30.1444 9.85158 30.5585 10.2686 30.9025 10.7417C31.4956 11.5576 31.7553 12.5081 31.8792 13.6532C32 14.77 32 16.174 32 17.946V18.0539C32 19.8259 32 21.2298 31.8792 22.3466C31.7553 23.4917 31.4956 24.4422 30.9025 25.2581C30.5585 25.7312 30.1444 26.1482 29.6746 26.4946C28.8644 27.092 27.9206 27.3535 26.7835 27.4782C25.6746 27.5999 24.2804 27.5999 22.5209 27.5999H17.4791C15.7196 27.5999 14.3254 27.5999 13.2165 27.4782C12.0794 27.3535 11.1356 27.092 10.3254 26.4946C9.85563 26.1482 9.4415 25.7312 9.09754 25.2581C8.50436 24.4422 8.24471 23.4917 8.12081 22.3466C7.99998 21.2298 7.99999 19.8258 8 18.0538V17.946C7.99999 16.174 7.99998 14.77 8.12081 13.6532C8.24471 12.5081 8.50436 11.5576 9.09754 10.7417C9.4415 10.2686 9.85563 9.85158 10.3254 9.50519C11.1356 8.90783 12.0794 8.64634 13.2165 8.52157C14.3254 8.39988 15.7196 8.39989 17.4792 8.3999ZM19.8504 15.1303C19.8504 16.8635 18.3577 18.2685 16.5163 18.2685C14.675 18.2685 13.1822 16.8635 13.1822 15.1303C13.1822 13.397 14.675 11.992 16.5163 11.992C18.3577 11.992 19.8504 13.397 19.8504 15.1303ZM23.4322 12.4814C22.9367 12.4814 22.535 12.8859 22.535 13.3849C22.535 13.8839 22.9367 14.2884 23.4322 14.2884H27.3949C27.8904 14.2884 28.2921 13.8839 28.2921 13.3849C28.2921 12.8859 27.8904 12.4814 27.3949 12.4814H23.4322ZM22.535 16.5849C22.535 16.0859 22.9367 15.6814 23.4322 15.6814H27.3949C27.8904 15.6814 28.2921 16.0859 28.2921 16.5849C28.2921 17.0839 27.8904 17.4884 27.3949 17.4884H23.4322C22.9367 17.4884 22.535 17.0839 22.535 16.5849ZM12.4578 23.9953C12.9442 24.077 13.4043 23.7481 13.489 23.2599L13.4904 23.2529C13.4925 23.2429 13.4966 23.2236 13.5034 23.1963C13.517 23.1414 13.5409 23.0557 13.579 22.9494C13.656 22.7347 13.786 22.4502 13.9953 22.1692C14.3899 21.6393 15.1104 21.0536 16.5164 21.0536C17.9225 21.0536 18.6429 21.6393 19.0376 22.1692C19.2468 22.4502 19.3768 22.7347 19.4538 22.9494C19.4919 23.0557 19.5158 23.1414 19.5294 23.1963C19.5362 23.2236 19.5404 23.2429 19.5424 23.2529L19.5438 23.2599C19.6285 23.7481 20.0887 24.077 20.575 23.9953C21.0638 23.9133 21.394 23.4478 21.3125 22.9556L21.3122 22.9534L21.3118 22.9511L21.3108 22.9454L21.3082 22.9309C21.3061 22.9197 21.3034 22.9057 21.3 22.889C21.2932 22.8557 21.2835 22.8115 21.2703 22.758C21.2438 22.6514 21.2028 22.5063 21.1415 22.3357C21.0199 21.9965 20.8138 21.5425 20.4731 21.085C19.7677 20.1378 18.5326 19.2465 16.5164 19.2465C14.5002 19.2465 13.2651 20.1378 12.5597 21.085C12.219 21.5425 12.0129 21.9965 11.8913 22.3357C11.8301 22.5063 11.789 22.6514 11.7626 22.758C11.7493 22.8115 11.7396 22.8557 11.7328 22.889C11.7294 22.9057 11.7267 22.9197 11.7246 22.9309L11.722 22.9454L11.721 22.9511L11.7206 22.9534L11.7203 22.9556C11.6388 23.4478 11.969 23.9133 12.4578 23.9953Z" fill="#F7F7F8"/>
</g>
<defs>
<filter id="filter0_d_1134_199907" x="0" y="0.399902" width="40" height="35.2" filterUnits="userSpaceOnUse" color-interpolation-filters="sRGB">
<feFlood flood-opacity="0" result="BackgroundImageFix"/>
<feColorMatrix in="SourceAlpha" type="matrix" values="0 0 0 0 0 0 0 0 0 0 0 0 0 0 0 0 0 0 127 0" result="hardAlpha"/>
<feOffset/>
<feGaussianBlur stdDeviation="4"/>
<feComposite in2="hardAlpha" operator="out"/>
<feColorMatrix type="matrix" values="0 0 0 0 1 0 0 0 0 1 0 0 0 0 1 0 0 0 0.5 0"/>
<feBlend mode="normal" in2="BackgroundImageFix" result="effect1_dropShadow_1134_199907"/>
<feBlend mode="normal" in="SourceGraphic" in2="effect1_dropShadow_1134_199907" result="shape"/>
</filter>
</defs>
</svg>
