<svg width="44" height="44" viewBox="0 0 44 44" fill="none" xmlns="http://www.w3.org/2000/svg">
<g filter="url(#filter0_d_1134_199906)">
<path d="M20.056 19.1303C20.056 19.7524 19.4828 20.4615 18.5163 20.4615C17.5499 20.4615 16.9766 19.7524 16.9766 19.1303C16.9766 18.5081 17.5499 17.799 18.5163 17.799C19.4828 17.799 20.056 18.5081 20.056 19.1303Z" fill="#F7F7F8"/>
<path fill-rule="evenodd" clip-rule="evenodd" d="M19.4792 12.3999H24.5208C26.2804 12.3999 27.6746 12.3999 28.7835 12.5216C29.9206 12.6463 30.8644 12.9078 31.6746 13.5052C32.1444 13.8516 32.5585 14.2686 32.9025 14.7417C33.4956 15.5576 33.7553 16.5081 33.8792 17.6532C34 18.77 34 20.174 34 21.946V22.0539C34 23.8259 34 25.2298 33.8792 26.3466C33.7553 27.4917 33.4956 28.4422 32.9025 29.2581C32.5585 29.7312 32.1444 30.1482 31.6746 30.4946C30.8644 31.092 29.9206 31.3535 28.7835 31.4782C27.6746 31.5999 26.2804 31.5999 24.5209 31.5999H19.4791C17.7196 31.5999 16.3254 31.5999 15.2165 31.4782C14.0794 31.3535 13.1356 31.092 12.3254 30.4946C11.8556 30.1482 11.4415 29.7312 11.0975 29.2581C10.5044 28.4422 10.2447 27.4917 10.1208 26.3466C9.99998 25.2298 9.99999 23.8258 10 22.0538V21.946C9.99999 20.174 9.99998 18.77 10.1208 17.6532C10.2447 16.5081 10.5044 15.5576 11.0975 14.7417C11.4415 14.2686 11.8556 13.8516 12.3254 13.5052C13.1356 12.9078 14.0794 12.6463 15.2165 12.5216C16.3254 12.3999 17.7196 12.3999 19.4792 12.3999ZM21.8504 19.1303C21.8504 20.8635 20.3577 22.2685 18.5163 22.2685C16.675 22.2685 15.1822 20.8635 15.1822 19.1303C15.1822 17.397 16.675 15.992 18.5163 15.992C20.3577 15.992 21.8504 17.397 21.8504 19.1303ZM25.4322 16.4814C24.9367 16.4814 24.535 16.8859 24.535 17.3849C24.535 17.8839 24.9367 18.2884 25.4322 18.2884H29.3949C29.8904 18.2884 30.2921 17.8839 30.2921 17.3849C30.2921 16.8859 29.8904 16.4814 29.3949 16.4814H25.4322ZM24.535 20.5849C24.535 20.0859 24.9367 19.6814 25.4322 19.6814H29.3949C29.8904 19.6814 30.2921 20.0859 30.2921 20.5849C30.2921 21.0839 29.8904 21.4884 29.3949 21.4884H25.4322C24.9367 21.4884 24.535 21.0839 24.535 20.5849ZM14.4578 27.9953C14.9442 28.077 15.4043 27.7481 15.489 27.2599L15.4904 27.2529C15.4925 27.2429 15.4966 27.2236 15.5034 27.1963C15.517 27.1414 15.5409 27.0557 15.579 26.9494C15.656 26.7347 15.786 26.4502 15.9953 26.1692C16.3899 25.6393 17.1104 25.0536 18.5164 25.0536C19.9225 25.0536 20.6429 25.6393 21.0376 26.1692C21.2468 26.4502 21.3768 26.7347 21.4538 26.9494C21.4919 27.0557 21.5158 27.1414 21.5294 27.1963C21.5362 27.2236 21.5404 27.2429 21.5424 27.2529L21.5438 27.2599C21.6285 27.7481 22.0887 28.077 22.575 27.9953C23.0638 27.9133 23.394 27.4478 23.3125 26.9556L23.3122 26.9535L23.3118 26.9511L23.3108 26.9454L23.3082 26.9309C23.3061 26.9197 23.3034 26.9057 23.3 26.889C23.2932 26.8557 23.2835 26.8115 23.2703 26.758C23.2438 26.6514 23.2028 26.5063 23.1415 26.3357C23.0199 25.9965 22.8138 25.5425 22.4731 25.085C21.7677 24.1378 20.5326 23.2465 18.5164 23.2465C16.5002 23.2465 15.2651 24.1378 14.5597 25.085C14.219 25.5425 14.0129 25.9965 13.8913 26.3357C13.8301 26.5063 13.789 26.6514 13.7626 26.758C13.7493 26.8115 13.7396 26.8557 13.7328 26.889C13.7294 26.9057 13.7267 26.9197 13.7246 26.9309L13.722 26.9454L13.721 26.9511L13.7206 26.9535L13.7203 26.9556C13.6388 27.4478 13.969 27.9133 14.4578 27.9953Z" fill="#F7F7F8"/>
</g>
<defs>
<filter id="filter0_d_1134_199906" x="2" y="4.3999" width="40" height="35.2002" filterUnits="userSpaceOnUse" color-interpolation-filters="sRGB">
<feFlood flood-opacity="0" result="BackgroundImageFix"/>
<feColorMatrix in="SourceAlpha" type="matrix" values="0 0 0 0 0 0 0 0 0 0 0 0 0 0 0 0 0 0 127 0" result="hardAlpha"/>
<feOffset/>
<feGaussianBlur stdDeviation="4"/>
<feComposite in2="hardAlpha" operator="out"/>
<feColorMatrix type="matrix" values="0 0 0 0 1 0 0 0 0 1 0 0 0 0 1 0 0 0 0.5 0"/>
<feBlend mode="normal" in2="BackgroundImageFix" result="effect1_dropShadow_1134_199906"/>
<feBlend mode="normal" in="SourceGraphic" in2="effect1_dropShadow_1134_199906" result="shape"/>
</filter>
</defs>
</svg>
