<svg width="20" height="20" viewBox="0 0 20 20" fill="none" xmlns="http://www.w3.org/2000/svg">
<path d="M8.38001 7.60863C8.38001 8.12711 7.90231 8.71799 7.09694 8.71799C6.29156 8.71799 5.81386 8.12711 5.81386 7.60863C5.81386 7.09014 6.29156 6.49927 7.09694 6.49927C7.90231 6.49927 8.38001 7.09014 8.38001 7.60863Z" fill="#4E4D57"/>
<path fill-rule="evenodd" clip-rule="evenodd" d="M7.89929 2H12.1007C13.567 1.99999 14.7288 1.99998 15.6529 2.10139C16.6005 2.20537 17.387 2.42327 18.0622 2.92107C18.4536 3.20973 18.7987 3.55727 19.0854 3.95152C19.5797 4.6314 19.7961 5.42348 19.8993 6.37778C20 7.3084 20 8.47843 20 9.95505V10.045C20 11.5217 20 12.6916 19.8993 13.6222C19.7961 14.5765 19.5797 15.3686 19.0854 16.0485C18.7987 16.4427 18.4536 16.7903 18.0622 17.0789C17.387 17.5767 16.6005 17.7946 15.6529 17.8986C14.7288 18 13.567 18 12.1007 18H7.89928C6.43297 18 5.2712 18 4.34709 17.8986C3.39948 17.7946 2.61296 17.5767 1.93784 17.0789C1.54636 16.7903 1.20125 16.4427 0.914617 16.0485C0.420303 15.3686 0.203929 14.5765 0.100675 13.6222C-1.7588e-05 12.6916 -9.66078e-06 11.5216 1.94427e-07 10.0449V9.95504C-9.6608e-06 8.47838 -1.74692e-05 7.30841 0.100675 6.37778C0.203929 5.42348 0.420303 4.6314 0.914617 3.95152C1.20125 3.55727 1.54636 3.20973 1.93784 2.92107C2.61296 2.42327 3.39948 2.20537 4.34709 2.10139C5.2712 1.99998 6.43298 1.99999 7.89929 2ZM9.87534 7.60863C9.87534 9.05299 8.6314 10.2239 7.09694 10.2239C5.56247 10.2239 4.31854 9.05299 4.31854 7.60863C4.31854 6.16427 5.56247 4.99338 7.09694 4.99338C8.6314 4.99338 9.87534 6.16427 9.87534 7.60863ZM12.8602 5.40123C12.4473 5.40123 12.1125 5.73833 12.1125 6.15417C12.1125 6.57 12.4473 6.90711 12.8602 6.90711H16.1624C16.5753 6.90711 16.91 6.57 16.91 6.15417C16.91 5.73833 16.5753 5.40123 16.1624 5.40123H12.8602ZM12.1125 8.82083C12.1125 8.405 12.4473 8.06789 12.8602 8.06789H16.1624C16.5753 8.06789 16.91 8.405 16.91 8.82083C16.91 9.23667 16.5753 9.57377 16.1624 9.57377H12.8602C12.4473 9.57377 12.1125 9.23667 12.1125 8.82083ZM3.71482 14.9962C4.12013 15.0642 4.50358 14.7902 4.57421 14.3833L4.57536 14.3775C4.57704 14.3692 4.5805 14.3531 4.58615 14.3303C4.5975 14.2846 4.61742 14.2131 4.64917 14.1246C4.71332 13.9457 4.82167 13.7086 4.99605 13.4744C5.32492 13.0328 5.92529 12.5447 7.09701 12.5447C8.26873 12.5447 8.86911 13.0328 9.19797 13.4744C9.37235 13.7086 9.4807 13.9457 9.54485 14.1246C9.57661 14.2131 9.59652 14.2846 9.60787 14.3303C9.61353 14.3531 9.61698 14.3692 9.61867 14.3775L9.61982 14.3833C9.69046 14.7902 10.0739 15.0642 10.4792 14.9962C10.8865 14.9278 11.1617 14.5399 11.0938 14.1297L11.0935 14.128L11.0931 14.126L11.0923 14.1213L11.0902 14.1091C11.0884 14.0998 11.0862 14.0882 11.0834 14.0743C11.0777 14.0465 11.0696 14.0097 11.0586 13.9651C11.0365 13.8762 11.0023 13.7554 10.9513 13.6131C10.8499 13.3305 10.6782 12.9522 10.3942 12.5709C9.80642 11.7816 8.77716 11.0388 7.09701 11.0388C5.41686 11.0388 4.3876 11.7816 3.79979 12.5709C3.51584 12.9522 3.34409 13.3305 3.24273 13.6131C3.19173 13.7554 3.15754 13.8762 3.13547 13.9651C3.12441 14.0097 3.11633 14.0465 3.11065 14.0743C3.10782 14.0882 3.10558 14.0998 3.10386 14.1091L3.10168 14.1213L3.10087 14.126L3.10054 14.128L3.10024 14.1297C3.03236 14.5399 3.30751 14.9278 3.71482 14.9962Z" fill="#4E4D57"/>
</svg>
