<svg width="44" height="44" viewBox="0 0 44 44" fill="none" xmlns="http://www.w3.org/2000/svg">
<path d="M20.38 19.6086C20.38 20.1271 19.9023 20.718 19.0969 20.718C18.2916 20.718 17.8139 20.1271 17.8139 19.6086C17.8139 19.0901 18.2916 18.4993 19.0969 18.4993C19.9023 18.4993 20.38 19.0901 20.38 19.6086Z" fill="#4E4D57"/>
<path fill-rule="evenodd" clip-rule="evenodd" d="M19.8993 14H24.1007C25.567 14 26.7288 14 27.6529 14.1014C28.6005 14.2054 29.387 14.4233 30.0622 14.9211C30.4536 15.2097 30.7987 15.5573 31.0854 15.9515C31.5797 16.6314 31.7961 17.4235 31.8993 18.3778C32 19.3084 32 20.4784 32 21.9551V22.045C32 23.5217 32 24.6916 31.8993 25.6222C31.7961 26.5765 31.5797 27.3686 31.0854 28.0485C30.7987 28.4427 30.4536 28.7903 30.0622 29.0789C29.387 29.5767 28.6005 29.7946 27.6529 29.8986C26.7288 30 25.567 30 24.1007 30H19.8993C18.433 30 17.2712 30 16.3471 29.8986C15.3995 29.7946 14.613 29.5767 13.9378 29.0789C13.5464 28.7903 13.2013 28.4427 12.9146 28.0485C12.4203 27.3686 12.2039 26.5765 12.1007 25.6222C12 24.6916 12 23.5216 12 22.0449V21.955C12 20.4784 12 19.3084 12.1007 18.3778C12.2039 17.4235 12.4203 16.6314 12.9146 15.9515C13.2013 15.5573 13.5464 15.2097 13.9378 14.9211C14.613 14.4233 15.3995 14.2054 16.3471 14.1014C17.2712 14 18.433 14 19.8993 14ZM21.8753 19.6086C21.8753 21.053 20.6314 22.2239 19.0969 22.2239C17.5625 22.2239 16.3185 21.053 16.3185 19.6086C16.3185 18.1643 17.5625 16.9934 19.0969 16.9934C20.6314 16.9934 21.8753 18.1643 21.8753 19.6086ZM24.8602 17.4012C24.4473 17.4012 24.1125 17.7383 24.1125 18.1542C24.1125 18.57 24.4473 18.9071 24.8602 18.9071H28.1624C28.5753 18.9071 28.91 18.57 28.91 18.1542C28.91 17.7383 28.5753 17.4012 28.1624 17.4012H24.8602ZM24.1125 20.8208C24.1125 20.405 24.4473 20.0679 24.8602 20.0679H28.1624C28.5753 20.0679 28.91 20.405 28.91 20.8208C28.91 21.2367 28.5753 21.5738 28.1624 21.5738H24.8602C24.4473 21.5738 24.1125 21.2367 24.1125 20.8208ZM15.7148 26.9962C16.1201 27.0642 16.5036 26.7902 16.5742 26.3833L16.5754 26.3775C16.577 26.3692 16.5805 26.3531 16.5861 26.3303C16.5975 26.2846 16.6174 26.2131 16.6492 26.1246C16.7133 25.9457 16.8217 25.7086 16.9961 25.4744C17.3249 25.0328 17.9253 24.5447 19.097 24.5447C20.2687 24.5447 20.8691 25.0328 21.198 25.4744C21.3724 25.7086 21.4807 25.9457 21.5449 26.1246C21.5766 26.2131 21.5965 26.2846 21.6079 26.3303C21.6135 26.3531 21.617 26.3692 21.6187 26.3775L21.6198 26.3833C21.6905 26.7902 22.0739 27.0642 22.4792 26.9962C22.8865 26.9278 23.1617 26.5399 23.0938 26.1297L23.0935 26.128L23.0931 26.126L23.0923 26.1213L23.0902 26.1091C23.0884 26.0998 23.0862 26.0882 23.0834 26.0743C23.0777 26.0465 23.0696 26.0097 23.0586 25.9651C23.0365 25.8762 23.0023 25.7554 22.9513 25.6131C22.8499 25.3305 22.6782 24.9522 22.3942 24.5709C21.8064 23.7816 20.7772 23.0388 19.097 23.0388C17.4169 23.0388 16.3876 23.7816 15.7998 24.5709C15.5158 24.9522 15.3441 25.3305 15.2427 25.6131C15.1917 25.7554 15.1575 25.8762 15.1355 25.9651C15.1244 26.0097 15.1163 26.0465 15.1107 26.0743C15.1078 26.0882 15.1056 26.0998 15.1039 26.1091L15.1017 26.1213L15.1009 26.126L15.1005 26.128L15.1002 26.1297C15.0324 26.5399 15.3075 26.9278 15.7148 26.9962Z" fill="#4E4D57"/>
</svg>
