<svg width="24" height="24" viewBox="0 0 24 24" fill="none" xmlns="http://www.w3.org/2000/svg">
<path fill-rule="evenodd" clip-rule="evenodd" d="M12 2C6.47584 2 2 6.47909 2 11.9982C2 17.2445 6.04747 21.5507 11.1888 21.9639V22H12C17.5242 22 22 17.5209 22 12.0018C22 6.48312 17.5246 2 12 2ZM14.2097 20.0835C13.5823 20.2546 12.9256 20.3546 12.2487 20.3744H12C10.8713 20.3744 9.79448 20.1508 8.81146 19.7456C9.76324 16.3162 12.3434 13.8598 15.2966 12.7622C15.8062 15.2321 15.4363 17.8789 14.2097 20.0835ZM14.8469 11.2C11.4763 12.414 8.53261 15.1486 7.3498 18.9652C5.10282 17.4623 3.62229 14.902 3.62229 11.9982C3.62229 10.9684 3.80828 9.98192 4.14855 9.07044C5.16277 9.57578 6.24726 9.93325 7.36253 10.132C8.78321 10.3925 10.2388 10.3838 11.6554 10.1284C12.4617 9.98286 13.2489 9.751 14.0036 9.44203C14.3396 10.0005 14.6222 10.589 14.8469 11.2ZM16.8603 12.3157C17.3473 14.5639 17.1996 16.9464 16.4223 19.117C18.7285 17.6808 20.2855 15.1551 20.3738 12.2616C19.2273 12.0537 18.0323 12.0791 16.8603 12.3157ZM20.261 10.601C18.9914 10.4226 17.6858 10.4806 16.4104 10.753C16.1592 10.0484 15.8422 9.36951 15.4644 8.72493C16.5123 8.11975 17.4692 7.35807 18.2917 6.46992C19.2978 7.61378 19.9971 9.03386 20.261 10.601ZM7.64915 8.53553C6.6803 8.36304 5.73925 8.05209 4.86105 7.6132C5.61634 6.38677 6.67893 5.3695 7.94163 4.66894L7.95137 4.672L7.95173 4.67212L7.95178 4.67213L7.9518 4.67214C8.08936 4.71543 8.22069 4.75676 8.34715 4.80215C8.39381 4.81997 8.43949 4.83729 8.48415 4.85422L8.48485 4.85448L8.48489 4.8545L8.48491 4.85451C8.68998 4.93226 8.87309 5.00169 9.02606 5.0726L9.06971 5.09443L9.08012 5.09926C9.17671 5.14419 9.3159 5.21053 9.44134 5.27034C9.50799 5.30216 9.57081 5.33209 9.62128 5.35597L9.62315 5.357C9.66534 5.37966 9.70078 5.39869 9.73381 5.41838C9.76068 5.43581 9.78468 5.44994 9.79756 5.45747C9.82109 5.47125 9.84528 5.48488 9.86521 5.49597C9.88224 5.50544 9.89896 5.51466 9.91149 5.52153L9.91781 5.525L9.93115 5.53238L9.93284 5.53334C9.95143 5.54406 9.97399 5.55694 9.99971 5.57163C10.0549 5.60309 10.1246 5.64288 10.2011 5.68769C10.2551 5.71931 10.3056 5.74947 10.3468 5.775C10.3774 5.79402 10.3941 5.80505 10.4004 5.80925L10.4008 5.8095C10.4034 5.81123 10.404 5.81163 10.4029 5.81083L10.4385 5.83778L10.478 5.86125C10.5382 5.89701 10.5976 5.93809 10.6717 5.98935L10.6717 5.98936L10.6717 5.98938L10.6721 5.98959C10.7059 6.013 10.7428 6.03853 10.7842 6.06666L10.8124 6.08575L10.8363 6.09925C10.8363 6.09928 10.8367 6.09957 10.8376 6.10015C10.8381 6.10053 10.8389 6.10103 10.8398 6.10166C10.8462 6.10599 10.8619 6.11652 10.8891 6.13603C10.931 6.16603 10.9816 6.20369 11.0373 6.24556L11.1032 6.29525C11.1371 6.32084 11.1715 6.34678 11.2007 6.36866C11.2394 6.39756 11.2866 6.43266 11.3293 6.46222C11.9518 6.93829 12.5208 7.4819 13.0273 8.08108C12.4884 8.27828 11.9329 8.4301 11.3673 8.53222C10.1343 8.7545 8.875 8.7605 7.6534 8.53631L7.65128 8.53591L7.64915 8.53553ZM12 3.622C13.9229 3.622 15.6944 4.27055 17.1082 5.36048C16.367 6.16246 15.4989 6.84547 14.5485 7.37997C13.895 6.5494 13.139 5.80161 12.2961 5.15953L12.2757 5.14403L12.2546 5.12994L12.2488 5.12594C12.2443 5.12276 12.2383 5.11847 12.2306 5.11288C12.2151 5.10158 12.1958 5.0873 12.1727 5.06999C12.1465 5.05036 12.1201 5.03051 12.0919 5.00918L12.0918 5.00914L12.086 5.00477C12.0631 4.98746 12.0389 4.96916 12.0123 4.9492C11.9549 4.90601 11.8919 4.85904 11.834 4.81757C11.7936 4.78858 11.7354 4.74759 11.6761 4.71144L11.6384 4.68539L11.6382 4.68524L11.6382 4.68523C11.561 4.63175 11.4451 4.55151 11.3397 4.48679C11.2412 4.41776 11.1082 4.33913 11.021 4.28807C10.9366 4.23864 10.8457 4.18676 10.7892 4.15455L10.7888 4.1543L10.7461 4.12986C10.7357 4.12379 10.7266 4.11875 10.7229 4.11667L10.7229 4.11667L10.7227 4.11655L10.7222 4.11628L10.7003 4.10416L10.6929 4.10008C10.6803 4.09315 10.6677 4.08621 10.6546 4.07892C10.6396 4.07058 10.6275 4.0637 10.6186 4.05855L10.6125 4.05428L10.591 4.04113C10.5131 3.99352 10.4319 3.95005 10.3878 3.92645L10.3869 3.92594L10.3716 3.91772L10.3527 3.90758L10.3334 3.89844C10.2947 3.88017 10.2374 3.85291 10.1725 3.82193C10.7607 3.69104 11.3723 3.622 12 3.622Z" fill="#F7F7F8"/>
</svg>
