<svg width="44" height="44" viewBox="0 0 44 44" fill="none" xmlns="http://www.w3.org/2000/svg">
<path d="M13.3335 18.4758C13 19.3372 13 20.3114 13 22.2598C13 25.6243 13 27.3066 13.7861 28.5297C14.177 29.1379 14.6966 29.6541 15.3087 30.0426C16.0399 30.5067 16.9343 30.695 18.25 30.7715V26.6374C18.25 24.5664 19.9289 22.8874 22 22.8874C24.0711 22.8874 25.75 24.5664 25.75 26.6374V30.7715C27.0657 30.695 27.9601 30.5067 28.6913 30.0426C29.3034 29.6541 29.823 29.1379 30.2139 28.5297C31 27.3066 31 25.6243 31 22.2598C31 20.3114 31 19.3372 30.6665 18.4758C30.4983 18.0416 30.2696 17.6329 29.987 17.2619C29.4265 16.526 28.5936 16.0121 26.9278 14.9843L26.7475 14.873C24.7009 13.6103 23.6775 12.9789 22.5545 12.8544C22.186 12.8135 21.814 12.8135 21.4455 12.8544C20.3225 12.9789 19.2991 13.6103 17.2525 14.873L17.0722 14.9843C15.4064 16.0121 14.5735 16.526 14.013 17.2619C13.7304 17.6329 13.5017 18.0416 13.3335 18.4758Z" fill="#4E4D57"/>
<path d="M24.25 30.8171V26.6374C24.25 25.3948 23.2426 24.3874 22 24.3874C20.7574 24.3874 19.75 25.3948 19.75 26.6374V30.8171C20.3095 30.8237 20.9289 30.8237 21.6184 30.8237H22.3816C23.0711 30.8237 23.6905 30.8237 24.25 30.8171Z" fill="#4E4D57"/>
</svg>
