<svg width="38" height="39" viewBox="0 0 38 39" fill="none" xmlns="http://www.w3.org/2000/svg">
<g filter="url(#filter0_d_1134_199897)">
<path d="M8.60044 15.7711C8.2002 16.8046 8.2002 17.9737 8.2002 20.3118C8.2002 24.3493 8.2002 26.368 9.14356 27.8357C9.61265 28.5655 10.2361 29.185 10.9706 29.6511C11.8481 30.2081 12.9214 30.4341 14.5002 30.5259V25.565C14.5002 23.0797 16.5149 21.065 19.0002 21.065C21.4855 21.065 23.5002 23.0797 23.5002 25.565V30.5259C25.079 30.4341 26.1523 30.2081 27.0298 29.6511C27.7643 29.185 28.3877 28.5655 28.8568 27.8357C29.8002 26.368 29.8002 24.3493 29.8002 20.3118C29.8002 17.9737 29.8002 16.8046 29.4 15.7711C29.1982 15.2499 28.9237 14.7596 28.5846 14.3143C27.9121 13.4312 26.9126 12.8145 24.9136 11.5812L24.6972 11.4477C22.2412 9.93239 21.0132 9.17473 19.6656 9.0253C19.2234 8.97627 18.777 8.97627 18.3348 9.0253C16.9872 9.17473 15.7592 9.93239 13.3032 11.4477L13.0868 11.5812C11.0878 12.8145 10.0883 13.4312 9.41578 14.3143C9.0767 14.7596 8.80223 15.2499 8.60044 15.7711Z" fill="#F7F7F8"/>
<path d="M21.7002 30.5806V25.565C21.7002 24.0738 20.4914 22.865 19.0002 22.865C17.509 22.865 16.3002 24.0738 16.3002 25.565V30.5806C16.9716 30.5885 17.7148 30.5885 18.5423 30.5885H19.4581C20.2856 30.5885 21.0288 30.5885 21.7002 30.5806Z" fill="#F7F7F8"/>
</g>
<defs>
<filter id="filter0_d_1134_199897" x="0.200195" y="0.988525" width="37.5996" height="37.6001" filterUnits="userSpaceOnUse" color-interpolation-filters="sRGB">
<feFlood flood-opacity="0" result="BackgroundImageFix"/>
<feColorMatrix in="SourceAlpha" type="matrix" values="0 0 0 0 0 0 0 0 0 0 0 0 0 0 0 0 0 0 127 0" result="hardAlpha"/>
<feOffset/>
<feGaussianBlur stdDeviation="4"/>
<feComposite in2="hardAlpha" operator="out"/>
<feColorMatrix type="matrix" values="0 0 0 0 1 0 0 0 0 1 0 0 0 0 1 0 0 0 0.5 0"/>
<feBlend mode="normal" in2="BackgroundImageFix" result="effect1_dropShadow_1134_199897"/>
<feBlend mode="normal" in="SourceGraphic" in2="effect1_dropShadow_1134_199897" result="shape"/>
</filter>
</defs>
</svg>
