<svg width="44" height="44" viewBox="0 0 44 44" fill="none" xmlns="http://www.w3.org/2000/svg">
<g filter="url(#filter0_d_1134_199896)">
<path d="M11.6004 17.7708C11.2002 18.8044 11.2002 19.9735 11.2002 22.3116C11.2002 26.349 11.2002 28.3677 12.1436 29.8354C12.6127 30.5652 13.2361 31.1848 13.9706 31.6509C14.8481 32.2078 15.9214 32.4339 17.5002 32.5256V27.5647C17.5002 25.0794 19.5149 23.0647 22.0002 23.0647C24.4855 23.0647 26.5002 25.0794 26.5002 27.5647V32.5256C28.079 32.4339 29.1523 32.2078 30.0298 31.6509C30.7643 31.1848 31.3877 30.5652 31.8568 29.8354C32.8002 28.3677 32.8002 26.349 32.8002 22.3116C32.8002 19.9735 32.8002 18.8044 32.4 17.7708C32.1982 17.2497 31.9237 16.7593 31.5846 16.3141C30.9121 15.431 29.9126 14.8143 27.9136 13.5809L27.6972 13.4475C25.2412 11.9321 24.0132 11.1745 22.6656 11.0251C22.2234 10.976 21.777 10.976 21.3348 11.0251C19.9872 11.1745 18.7592 11.9321 16.3032 13.4475L16.0868 13.5809C14.0878 14.8143 13.0883 15.431 12.4158 16.3141C12.0767 16.7593 11.8022 17.2497 11.6004 17.7708Z" fill="#F7F7F8"/>
<path d="M24.7002 32.5804V27.5647C24.7002 26.0735 23.4914 24.8647 22.0002 24.8647C20.509 24.8647 19.3002 26.0735 19.3002 27.5647V32.5804C19.9716 32.5883 20.7148 32.5883 21.5423 32.5883H22.4581C23.2856 32.5883 24.0288 32.5883 24.7002 32.5804Z" fill="#F7F7F8"/>
</g>
<defs>
<filter id="filter0_d_1134_199896" x="3.2002" y="2.98828" width="37.5996" height="37.6001" filterUnits="userSpaceOnUse" color-interpolation-filters="sRGB">
<feFlood flood-opacity="0" result="BackgroundImageFix"/>
<feColorMatrix in="SourceAlpha" type="matrix" values="0 0 0 0 0 0 0 0 0 0 0 0 0 0 0 0 0 0 127 0" result="hardAlpha"/>
<feOffset/>
<feGaussianBlur stdDeviation="4"/>
<feComposite in2="hardAlpha" operator="out"/>
<feColorMatrix type="matrix" values="0 0 0 0 1 0 0 0 0 1 0 0 0 0 1 0 0 0 0.5 0"/>
<feBlend mode="normal" in2="BackgroundImageFix" result="effect1_dropShadow_1134_199896"/>
<feBlend mode="normal" in="SourceGraphic" in2="effect1_dropShadow_1134_199896" result="shape"/>
</filter>
</defs>
</svg>
