<svg width="36" height="40" viewBox="0 0 36 40" fill="none" xmlns="http://www.w3.org/2000/svg">
<g filter="url(#filter0_d_1134_199903)">
<path fill-rule="evenodd" clip-rule="evenodd" d="M11.3407 19.6685C11.1289 19.2086 10.5821 19.003 10.1152 19.2093C9.64567 19.4167 9.43472 19.962 9.64401 20.4272L9.64935 20.4389C9.64636 20.4324 9.64401 20.4272 9.64401 20.4272L9.6451 20.4297L9.64636 20.4324L9.64935 20.4389L9.65733 20.4559C9.66353 20.4689 9.67153 20.4853 9.68139 20.5048C9.70111 20.5438 9.72834 20.5953 9.76362 20.6568C9.83403 20.7798 9.9374 20.9446 10.0781 21.1313C10.3584 21.5031 10.796 21.9737 11.4279 22.3677C12.0747 22.7711 12.7457 22.9559 13.2379 23.0427C13.4872 23.0867 13.6999 23.1071 13.8539 23.1166C13.9312 23.1213 13.9944 23.1233 14.041 23.1241C14.0643 23.1244 14.0834 23.1245 14.0982 23.1245L14.1169 23.1243L14.1238 23.1242L14.1265 23.1242L14.1283 23.1241C14.6422 23.1128 15.0501 22.6908 15.0387 22.1816C15.0274 21.6739 14.6042 21.2711 14.0925 21.2798L14.072 21.2796C14.0512 21.2793 14.0159 21.2783 13.9686 21.2754C13.8735 21.2695 13.7326 21.2563 13.5641 21.2266C13.2207 21.166 12.7994 21.0434 12.4193 20.8064C12.0243 20.5601 11.7472 20.263 11.5694 20.0272C11.4812 19.9101 11.4197 19.8112 11.3825 19.7463C11.364 19.714 11.3518 19.6905 11.3455 19.678L11.3407 19.6685ZM14.0925 21.2798L14.0895 21.2798L14.0881 21.2799" fill="#F7F7F8"/>
<path d="M15.2295 9.62161C16.1835 8.03979 18.2451 7.52736 19.8341 8.47708C20.6587 8.96993 21.194 9.75969 21.3849 10.6265L21.5795 10.728C23.6672 11.816 24.9512 13.0549 26.3154 15.1612C27.2707 16.636 27.5972 18.4326 27.6004 20.2136C27.6035 22.0017 27.2808 23.8519 26.8618 25.5048C26.4415 27.1622 25.9167 28.6509 25.4981 29.7235C25.4353 29.8844 25.3749 30.0361 25.3174 30.1778H26.6792C27.1847 30.1778 27.5945 30.5857 27.5945 31.0889C27.5945 31.5921 27.1847 32 26.6792 32H15.386C14.8805 32 14.4707 31.5921 14.4707 31.0889C14.4707 30.5857 14.8805 30.1778 15.386 30.1778H23.3345C23.4545 29.9004 23.6131 29.5218 23.7919 29.0636C24.1921 28.0382 24.6903 26.6233 25.0869 25.0589C25.4847 23.4899 25.7727 21.8 25.7699 20.2167C25.7671 18.6264 25.4712 17.2204 24.777 16.1487C23.6741 14.446 22.701 13.4616 21.2132 12.6062C21.1493 12.761 21.073 12.913 20.9838 13.0608L20.3704 14.078C21.4305 15.9489 21.5812 18.2821 20.6139 20.3439C19.9378 21.7849 18.1484 22.3478 16.7667 21.522L9.70898 17.3038C8.32729 16.478 7.9852 14.6411 8.94508 13.3697C10.3187 11.5503 12.4587 10.5859 14.6163 10.6382L15.2295 9.62161Z" fill="#F7F7F8"/>
</g>
<defs>
<filter id="filter0_d_1134_199903" x="0.400391" y="0" width="35.2002" height="40" filterUnits="userSpaceOnUse" color-interpolation-filters="sRGB">
<feFlood flood-opacity="0" result="BackgroundImageFix"/>
<feColorMatrix in="SourceAlpha" type="matrix" values="0 0 0 0 0 0 0 0 0 0 0 0 0 0 0 0 0 0 127 0" result="hardAlpha"/>
<feOffset/>
<feGaussianBlur stdDeviation="4"/>
<feComposite in2="hardAlpha" operator="out"/>
<feColorMatrix type="matrix" values="0 0 0 0 1 0 0 0 0 1 0 0 0 0 1 0 0 0 0.5 0"/>
<feBlend mode="normal" in2="BackgroundImageFix" result="effect1_dropShadow_1134_199903"/>
<feBlend mode="normal" in="SourceGraphic" in2="effect1_dropShadow_1134_199903" result="shape"/>
</filter>
</defs>
</svg>
