<svg width="44" height="44" viewBox="0 0 44 44" fill="none" xmlns="http://www.w3.org/2000/svg">
<g filter="url(#filter0_d_1134_199902)">
<path fill-rule="evenodd" clip-rule="evenodd" d="M15.3407 21.6685C15.1289 21.2086 14.5821 21.003 14.1152 21.2093C13.6457 21.4167 13.4347 21.962 13.644 22.4272L13.6494 22.4389C13.6464 22.4324 13.644 22.4272 13.644 22.4272L13.6451 22.4297L13.6464 22.4324L13.6494 22.4389L13.6573 22.4559C13.6635 22.4689 13.6715 22.4853 13.6814 22.5048C13.7011 22.5438 13.7283 22.5953 13.7636 22.6568C13.834 22.7798 13.9374 22.9446 14.0781 23.1313C14.3584 23.5031 14.796 23.9737 15.4279 24.3677C16.0747 24.7711 16.7457 24.9559 17.2379 25.0427C17.4872 25.0867 17.6999 25.1071 17.8539 25.1166C17.9312 25.1213 17.9944 25.1233 18.041 25.1241C18.0643 25.1244 18.0834 25.1245 18.0982 25.1245L18.1169 25.1243L18.1238 25.1242L18.1265 25.1242L18.1283 25.1241C18.6422 25.1128 19.0501 24.6908 19.0387 24.1816C19.0274 23.6739 18.6042 23.2711 18.0925 23.2798L18.072 23.2796C18.0512 23.2793 18.0159 23.2783 17.9686 23.2754C17.8735 23.2695 17.7326 23.2563 17.5641 23.2266C17.2207 23.166 16.7994 23.0434 16.4193 22.8064C16.0243 22.5601 15.7472 22.263 15.5694 22.0272C15.4812 21.9101 15.4197 21.8112 15.3825 21.7463C15.364 21.714 15.3518 21.6905 15.3455 21.678L15.3407 21.6685ZM18.0925 23.2798L18.0895 23.2798L18.0881 23.2799" fill="#F7F7F8"/>
<path d="M19.2295 11.6216C20.1835 10.0398 22.2451 9.52736 23.8341 10.4771C24.6587 10.9699 25.194 11.7597 25.3849 12.6265L25.5795 12.728C27.6672 13.816 28.9512 15.0549 30.3154 17.1612C31.2707 18.636 31.5972 20.4326 31.6004 22.2136C31.6035 24.0017 31.2808 25.8519 30.8618 27.5048C30.4415 29.1622 29.9167 30.6509 29.4981 31.7235C29.4353 31.8844 29.3749 32.0361 29.3174 32.1778H30.6792C31.1847 32.1778 31.5945 32.5857 31.5945 33.0889C31.5945 33.5921 31.1847 34 30.6792 34H19.386C18.8805 34 18.4707 33.5921 18.4707 33.0889C18.4707 32.5857 18.8805 32.1778 19.386 32.1778H27.3345C27.4545 31.9004 27.6131 31.5218 27.7919 31.0636C28.1921 30.0382 28.6903 28.6233 29.0869 27.0589C29.4847 25.4899 29.7727 23.8 29.7699 22.2167C29.7671 20.6264 29.4712 19.2204 28.777 18.1487C27.6741 16.446 26.701 15.4616 25.2132 14.6062C25.1493 14.761 25.073 14.913 24.9838 15.0608L24.3704 16.078C25.4305 17.9489 25.5812 20.2821 24.6139 22.3439C23.9378 23.7849 22.1484 24.3478 20.7667 23.522L13.709 19.3038C12.3273 18.478 11.9852 16.6411 12.9451 15.3697C14.3187 13.5503 16.4587 12.5859 18.6163 12.6382L19.2295 11.6216Z" fill="#F7F7F8"/>
</g>
<defs>
<filter id="filter0_d_1134_199902" x="4.40039" y="2" width="35.2002" height="40" filterUnits="userSpaceOnUse" color-interpolation-filters="sRGB">
<feFlood flood-opacity="0" result="BackgroundImageFix"/>
<feColorMatrix in="SourceAlpha" type="matrix" values="0 0 0 0 0 0 0 0 0 0 0 0 0 0 0 0 0 0 127 0" result="hardAlpha"/>
<feOffset/>
<feGaussianBlur stdDeviation="4"/>
<feComposite in2="hardAlpha" operator="out"/>
<feColorMatrix type="matrix" values="0 0 0 0 1 0 0 0 0 1 0 0 0 0 1 0 0 0 0.5 0"/>
<feBlend mode="normal" in2="BackgroundImageFix" result="effect1_dropShadow_1134_199902"/>
<feBlend mode="normal" in="SourceGraphic" in2="effect1_dropShadow_1134_199902" result="shape"/>
</filter>
</defs>
</svg>
