<svg width="44" height="44" viewBox="0 0 44 44" fill="none" xmlns="http://www.w3.org/2000/svg">
<path fill-rule="evenodd" clip-rule="evenodd" d="M16.4503 21.7237C16.2737 21.3405 15.8181 21.1692 15.429 21.3411C15.0377 21.5139 14.8619 21.9683 15.0364 22.356L15.0408 22.3658C15.0383 22.3603 15.0364 22.356 15.0364 22.356L15.0373 22.3581L15.0383 22.3603L15.0408 22.3658L15.0474 22.3799C15.0526 22.3908 15.0593 22.4044 15.0675 22.4207C15.0839 22.4531 15.1066 22.496 15.136 22.5474C15.1947 22.6498 15.2808 22.7871 15.3981 22.9427C15.6317 23.2525 15.9964 23.6447 16.5229 23.9731C17.062 24.3092 17.6211 24.4633 18.0313 24.5356C18.239 24.5723 18.4162 24.5893 18.5446 24.5971C18.609 24.6011 18.6617 24.6027 18.7005 24.6034C18.7199 24.6037 18.7359 24.6038 18.7482 24.6037L18.7638 24.6036L18.7695 24.6035L18.7718 24.6035L18.7733 24.6034C19.2015 24.594 19.5414 24.2424 19.5319 23.818C19.5225 23.3949 19.1698 23.0593 18.7434 23.0665L18.7263 23.0663C18.709 23.0661 18.6796 23.0652 18.6402 23.0628C18.5609 23.058 18.4435 23.0469 18.3031 23.0222C18.0169 22.9717 17.6658 22.8695 17.3491 22.672C17.0199 22.4667 16.789 22.2192 16.6409 22.0227C16.5673 21.9251 16.5161 21.8426 16.4851 21.7886C16.4697 21.7616 16.4595 21.7421 16.4542 21.7317L16.4503 21.7237ZM18.7434 23.0665L18.7409 23.0665L18.7398 23.0666" fill="url(#paint0_linear_1134_199941)"/>
<path d="M19.6909 13.3513C20.4859 12.0332 22.2039 11.6061 23.5281 12.3976C24.2153 12.8083 24.6613 13.4664 24.8204 14.1888L24.9826 14.2733C26.7224 15.18 27.7923 16.2124 28.9292 17.9677C29.7252 19.1967 29.9974 20.6938 30 22.178C30.0026 23.668 29.7337 25.2099 29.3845 26.5873C29.0343 27.9685 28.5969 29.2091 28.2481 30.1029C28.1958 30.237 28.1454 30.3634 28.0975 30.4815H29.2324C29.6536 30.4815 29.9951 30.8214 29.9951 31.2407C29.9951 31.6601 29.6536 32 29.2324 32H19.8213C19.4001 32 19.0586 31.6601 19.0586 31.2407C19.0586 30.8214 19.4001 30.4815 19.8213 30.4815H26.4451C26.5451 30.2504 26.6772 29.9348 26.8262 29.553C27.1597 28.6985 27.5749 27.5194 27.9054 26.2157C28.2369 24.9083 28.4769 23.5 28.4746 22.1806C28.4722 20.8553 28.2257 19.6837 27.6472 18.7906C26.7281 17.3716 25.9172 16.5514 24.6773 15.8385C24.6241 15.9675 24.5605 16.0942 24.4862 16.2174L23.975 17.065C24.8584 18.6241 24.984 20.5684 24.1779 22.2866C23.6145 23.4875 22.1233 23.9565 20.9719 23.2684L15.0905 19.7532C13.9391 19.065 13.654 17.5343 14.4539 16.4748C15.5986 14.9586 17.382 14.1549 19.18 14.1985L19.6909 13.3513Z" fill="url(#paint1_linear_1134_199941)"/>
<defs>
<linearGradient id="paint0_linear_1134_199941" x1="14" y1="22" x2="30" y2="22" gradientUnits="userSpaceOnUse">
<stop stop-color="#CE80FF"/>
<stop offset="0.504032" stop-color="#80F0FF"/>
<stop offset="1" stop-color="#B1FF80"/>
</linearGradient>
<linearGradient id="paint1_linear_1134_199941" x1="14" y1="22" x2="30" y2="22" gradientUnits="userSpaceOnUse">
<stop stop-color="#CE80FF"/>
<stop offset="0.504032" stop-color="#80F0FF"/>
<stop offset="1" stop-color="#B1FF80"/>
</linearGradient>
</defs>
</svg>
