<svg width="21" height="28" viewBox="0 0 21 28" fill="none" xmlns="http://www.w3.org/2000/svg">
<path d="M17.9826 9.68823H3.01702C2.75228 9.68823 2.49558 9.77896 2.28963 9.94526L1.7433 10.3865C0.75132 11.1876 0.174805 12.3943 0.174805 13.6693V26.8422C0.174805 27.4816 0.693133 27.9999 1.33254 27.9999H19.6671C20.3065 27.9999 20.8248 27.4816 20.8248 26.8422V13.6693C20.8248 12.3943 20.2483 11.1876 19.2563 10.3865L18.71 9.94532C18.504 9.77896 18.2473 9.68823 17.9826 9.68823Z" fill="url(#paint0_linear_118_3851)"/>
<path d="M4.97861 11.7426C5.92143 11.7426 6.68573 11.4413 6.68573 11.0696C6.68573 10.6979 5.92143 10.3966 4.97861 10.3966C4.03579 10.3966 3.27148 10.6979 3.27148 11.0696C3.27148 11.4413 4.03579 11.7426 4.97861 11.7426Z" fill="url(#paint1_linear_118_3851)"/>
<path d="M16.003 11.7427C16.9458 11.7427 17.7101 11.4414 17.7101 11.0697C17.7101 10.698 16.9458 10.3967 16.003 10.3967C15.0602 10.3967 14.2959 10.698 14.2959 11.0697C14.2959 11.4414 15.0602 11.7427 16.003 11.7427Z" fill="url(#paint2_linear_118_3851)"/>
<path d="M20.8248 26.8419V13.669C20.8248 12.394 20.2483 11.1873 19.2563 10.3862L18.71 9.94502C18.5041 9.77871 18.2474 9.68799 17.9826 9.68799H5.4938L3.91016 11.2716L20.3869 27.7484C20.6536 27.5362 20.8248 27.2092 20.8248 26.8419Z" fill="url(#paint3_linear_118_3851)"/>
<path d="M10.5002 25.5964C9.47461 25.5964 8.64018 24.7619 8.64018 23.7363V21.9424C8.64018 21.5535 8.47032 21.1909 8.17419 20.9474C7.28508 20.2165 6.79815 19.1373 6.83823 17.9867C6.87115 17.0404 7.26742 16.1532 7.95397 15.4884C8.64013 14.824 9.53947 14.4562 10.4863 14.4526H10.5002C12.5207 14.4526 14.1645 16.0964 14.1645 18.1169C14.1645 19.2165 13.6768 20.2481 12.8265 20.9473C12.5302 21.1909 12.3602 21.5536 12.3602 21.9425V23.7364C12.3602 24.7619 11.5258 25.5964 10.5002 25.5964Z" fill="url(#paint4_linear_118_3851)"/>
<path d="M10.5002 25.5964C9.47461 25.5964 8.64018 24.7619 8.64018 23.7363V21.9424C8.64018 21.5535 8.47032 21.1909 8.17419 20.9474C7.28508 20.2165 6.79815 19.1373 6.83823 17.9867C6.87115 17.0404 7.26742 16.1532 7.95397 15.4884C8.64013 14.824 9.53947 14.4562 10.4863 14.4526H10.5002C12.5207 14.4526 14.1645 16.0964 14.1645 18.1169C14.1645 19.2165 13.6768 20.2481 12.8265 20.9473C12.5302 21.1909 12.3602 21.5536 12.3602 21.9425V23.7364C12.3602 24.7619 11.5258 25.5964 10.5002 25.5964Z" fill="url(#paint5_linear_118_3851)"/>
<path d="M0.174805 14.4095V26.8421C0.174805 27.4816 0.693133 27.9999 1.33254 27.9999H19.6671C20.3065 27.9999 20.8248 27.4816 20.8248 26.8421V14.4095H0.174805Z" fill="url(#paint6_linear_118_3851)"/>
<path d="M19.256 10.3862L18.7097 9.94502C18.5037 9.77871 18.2469 9.68799 17.9823 9.68799H10.873V27.9997H19.6667C20.3061 27.9997 20.8244 27.4813 20.8244 26.8419V13.669C20.8244 12.394 20.2479 11.1873 19.256 10.3862Z" fill="url(#paint7_linear_118_3851)"/>
<path d="M19.2566 10.3862L18.7102 9.94502C18.5043 9.77871 18.2475 9.68799 17.9828 9.68799H16.4927L14.9297 11.2509L20.825 17.1462V13.6691C20.825 12.394 20.2485 11.1873 19.2566 10.3862Z" fill="url(#paint8_linear_118_3851)"/>
<path d="M17.206 6.70649V11.0694C17.206 11.3274 16.6756 11.5365 16.021 11.5365C15.3669 11.5365 14.836 11.3274 14.836 11.0694V6.70649C14.836 4.3149 12.8905 2.36994 10.4995 2.36994C8.10841 2.36994 6.16291 4.3149 6.16291 6.70649V11.0694C6.16291 11.3274 5.63205 11.5365 4.97794 11.5365C4.32327 11.5365 3.79297 11.3274 3.79297 11.0694V6.70649C3.79297 3.0083 6.80122 0 10.4995 0C14.1977 0 17.206 3.0083 17.206 6.70649Z" fill="url(#paint9_linear_118_3851)"/>
<path d="M10.4991 -0.000244141C10.4035 -0.000244141 10.3085 0.00227148 10.2139 0.00620898V2.38014C10.3083 2.37396 10.4032 2.36975 10.4991 2.36975C12.8902 2.36975 14.8357 4.31471 14.8357 6.7063V11.0692C14.8357 11.3272 15.3665 11.5363 16.0206 11.5363C16.6753 11.5363 17.2056 11.3272 17.2056 11.0692V6.7063C17.2056 3.00806 14.1974 -0.000244141 10.4991 -0.000244141Z" fill="url(#paint10_linear_118_3851)"/>
<path d="M4.97794 11.5364C5.63205 11.5364 6.16291 11.3273 6.16291 11.0693V6.7064C6.16291 6.51675 6.17647 6.33032 6.2002 6.147H3.81648C3.80117 6.33152 3.79297 6.518 3.79297 6.7064V11.0693C3.79297 11.3273 4.32333 11.5364 4.97794 11.5364Z" fill="url(#paint11_linear_118_3851)"/>
<path d="M14.8361 6.7064V11.0693C14.8361 11.3273 15.367 11.5364 16.0211 11.5364C16.6758 11.5364 17.2061 11.3273 17.2061 11.0693V6.7064C17.2061 6.518 17.1979 6.33152 17.1825 6.147H14.7988C14.8225 6.33032 14.8361 6.51675 14.8361 6.7064Z" fill="url(#paint12_linear_118_3851)"/>
<path d="M13.3745 18.1171C13.3745 16.5261 12.0817 15.2369 10.4892 15.2429C8.95601 15.2486 7.68114 16.4822 7.62777 18.0145C7.59517 18.9505 8.01047 19.7904 8.67591 20.3375C9.15541 20.7316 9.43021 21.322 9.43021 21.9427V23.7367C9.43021 24.3276 9.90927 24.8067 10.5002 24.8067C11.0912 24.8067 11.5702 24.3276 11.5702 23.7367V21.9427C11.5702 21.3219 11.8452 20.7315 12.3248 20.3373C12.9656 19.8104 13.3745 19.0117 13.3745 18.1171Z" fill="url(#paint13_linear_118_3851)"/>
<path d="M13.3745 18.1171C13.3745 16.5261 12.0817 15.2369 10.4892 15.2429C8.95601 15.2486 7.68114 16.4822 7.62777 18.0145C7.59517 18.9505 8.01047 19.7904 8.67591 20.3375C9.15541 20.7316 9.43021 21.322 9.43021 21.9427V23.7367C9.43021 24.3276 9.90927 24.8067 10.5002 24.8067C11.0912 24.8067 11.5702 24.3276 11.5702 23.7367V21.9427C11.5702 21.3219 11.8452 20.7315 12.3248 20.3373C12.9656 19.8104 13.3745 19.0117 13.3745 18.1171Z" fill="url(#paint14_linear_118_3851)"/>
<path d="M13.3745 18.1171C13.3745 16.5261 12.0817 15.2369 10.4892 15.2429C8.95601 15.2486 7.68114 16.4822 7.62777 18.0145C7.59517 18.9505 8.01047 19.7904 8.67591 20.3375C9.15541 20.7316 9.43021 21.322 9.43021 21.9427V23.7367C9.43021 24.3276 9.90927 24.8067 10.5002 24.8067C11.0912 24.8067 11.5702 24.3276 11.5702 23.7367V21.9427C11.5702 21.3219 11.8452 20.7315 12.3248 20.3373C12.9656 19.8104 13.3745 19.0117 13.3745 18.1171Z" fill="url(#paint15_linear_118_3851)"/>
<path d="M13.3745 18.1171C13.3745 16.5261 12.0817 15.2369 10.4892 15.2429C8.95601 15.2486 7.68114 16.4822 7.62777 18.0145C7.59517 18.9505 8.01047 19.7904 8.67591 20.3375C9.15541 20.7316 9.43021 21.322 9.43021 21.9427V23.7367C9.43021 24.3276 9.90927 24.8067 10.5002 24.8067C11.0912 24.8067 11.5702 24.3276 11.5702 23.7367V21.9427C11.5702 21.3219 11.8452 20.7315 12.3248 20.3373C12.9656 19.8104 13.3745 19.0117 13.3745 18.1171Z" fill="url(#paint16_linear_118_3851)"/>
<defs>
<linearGradient id="paint0_linear_118_3851" x1="10.4998" y1="10.9107" x2="10.4998" y2="15.5753" gradientUnits="userSpaceOnUse">
<stop stop-color="#FEF0AE"/>
<stop offset="1" stop-color="#FAC600"/>
</linearGradient>
<linearGradient id="paint1_linear_118_3851" x1="4.97861" y1="11.6038" x2="4.97861" y2="10.3383" gradientUnits="userSpaceOnUse">
<stop stop-color="#FEF0AE"/>
<stop offset="1" stop-color="#FAC600"/>
</linearGradient>
<linearGradient id="paint2_linear_118_3851" x1="16.003" y1="11.6039" x2="16.003" y2="10.3384" gradientUnits="userSpaceOnUse">
<stop stop-color="#FEF0AE"/>
<stop offset="1" stop-color="#FAC600"/>
</linearGradient>
<linearGradient id="paint3_linear_118_3851" x1="10.973" y1="9.83012" x2="8.42007" y2="6.22589" gradientUnits="userSpaceOnUse">
<stop stop-color="#FE9738" stop-opacity="0"/>
<stop offset="1" stop-color="#FE9738"/>
</linearGradient>
<linearGradient id="paint4_linear_118_3851" x1="19.5992" y1="28.7504" x2="8.78123" y2="17.9324" gradientUnits="userSpaceOnUse">
<stop stop-color="#FEF0AE"/>
<stop offset="1" stop-color="#FAC600"/>
</linearGradient>
<linearGradient id="paint5_linear_118_3851" x1="9.47559" y1="19.2784" x2="5.83379" y2="17.1383" gradientUnits="userSpaceOnUse">
<stop stop-color="#FE9738" stop-opacity="0"/>
<stop offset="1" stop-color="#FE9738"/>
</linearGradient>
<linearGradient id="paint6_linear_118_3851" x1="10.4998" y1="24.8815" x2="10.4998" y2="27.6598" gradientUnits="userSpaceOnUse">
<stop stop-color="#FE9738" stop-opacity="0"/>
<stop offset="1" stop-color="#FE9738"/>
</linearGradient>
<linearGradient id="paint7_linear_118_3851" x1="17.3295" y1="18.8438" x2="20.7461" y2="18.8438" gradientUnits="userSpaceOnUse">
<stop stop-color="#FE9738" stop-opacity="0"/>
<stop offset="1" stop-color="#FE9738"/>
</linearGradient>
<linearGradient id="paint8_linear_118_3851" x1="18.9003" y1="13.4235" x2="16.0657" y2="9.03081" gradientUnits="userSpaceOnUse">
<stop stop-color="#FE9738" stop-opacity="0"/>
<stop offset="1" stop-color="#FE9738"/>
</linearGradient>
<linearGradient id="paint9_linear_118_3851" x1="6.45866" y1="1.16993" x2="9.68746" y2="6.62637" gradientUnits="userSpaceOnUse">
<stop stop-color="#F5FBFF"/>
<stop offset="1" stop-color="#DBD5EF"/>
</linearGradient>
<linearGradient id="paint10_linear_118_3851" x1="13.5679" y1="5.76803" x2="17.1942" y2="5.76803" gradientUnits="userSpaceOnUse">
<stop stop-color="#DBD5EF" stop-opacity="0"/>
<stop offset="0.2853" stop-color="#D9D2EE" stop-opacity="0.285"/>
<stop offset="0.4739" stop-color="#D4C9E9" stop-opacity="0.474"/>
<stop offset="0.6346" stop-color="#CBBAE2" stop-opacity="0.635"/>
<stop offset="0.7795" stop-color="#BFA5D7" stop-opacity="0.78"/>
<stop offset="0.9126" stop-color="#AF8ACA" stop-opacity="0.913"/>
<stop offset="1" stop-color="#A274BF"/>
</linearGradient>
<linearGradient id="paint11_linear_118_3851" x1="4.99659" y1="8.92524" x2="4.99659" y2="11.6039" gradientUnits="userSpaceOnUse">
<stop stop-color="#DBD5EF" stop-opacity="0"/>
<stop offset="0.2853" stop-color="#D9D2EE" stop-opacity="0.285"/>
<stop offset="0.4739" stop-color="#D4C9E9" stop-opacity="0.474"/>
<stop offset="0.6346" stop-color="#CBBAE2" stop-opacity="0.635"/>
<stop offset="0.7795" stop-color="#BFA5D7" stop-opacity="0.78"/>
<stop offset="0.9126" stop-color="#AF8ACA" stop-opacity="0.913"/>
<stop offset="1" stop-color="#A274BF"/>
</linearGradient>
<linearGradient id="paint12_linear_118_3851" x1="16.0024" y1="8.92529" x2="16.0024" y2="11.6039" gradientUnits="userSpaceOnUse">
<stop stop-color="#DBD5EF" stop-opacity="0"/>
<stop offset="0.2853" stop-color="#D9D2EE" stop-opacity="0.285"/>
<stop offset="0.4739" stop-color="#D4C9E9" stop-opacity="0.474"/>
<stop offset="0.6346" stop-color="#CBBAE2" stop-opacity="0.635"/>
<stop offset="0.7795" stop-color="#BFA5D7" stop-opacity="0.78"/>
<stop offset="0.9126" stop-color="#AF8ACA" stop-opacity="0.913"/>
<stop offset="1" stop-color="#A274BF"/>
</linearGradient>
<linearGradient id="paint13_linear_118_3851" x1="8.67569" y1="20.0248" x2="12.1882" y2="20.0248" gradientUnits="userSpaceOnUse">
<stop stop-color="#5A5A5A"/>
<stop offset="1" stop-color="#444444"/>
</linearGradient>
<linearGradient id="paint14_linear_118_3851" x1="10.371" y1="20.0254" x2="8.19345" y2="20.6636" gradientUnits="userSpaceOnUse">
<stop stop-color="#433F43" stop-opacity="0"/>
<stop offset="1" stop-color="#1A1A1A"/>
</linearGradient>
<linearGradient id="paint15_linear_118_3851" x1="9.63141" y1="19.0571" x2="7.41629" y2="17.2549" gradientUnits="userSpaceOnUse">
<stop stop-color="#433F43" stop-opacity="0"/>
<stop offset="1" stop-color="#1A1A1A"/>
</linearGradient>
<linearGradient id="paint16_linear_118_3851" x1="10.5002" y1="17.4105" x2="10.5002" y2="14.9243" gradientUnits="userSpaceOnUse">
<stop stop-color="#433F43" stop-opacity="0"/>
<stop offset="1" stop-color="#1A1A1A"/>
</linearGradient>
</defs>
</svg>
