<svg width="33" height="25" viewBox="0 0 33 25" fill="none" xmlns="http://www.w3.org/2000/svg">
<path d="M0.75 23.9627V1.16065C0.75 1.00553 0.816478 0.916892 0.971594 0.916892C1.3483 0.916892 1.70285 0.916892 2.21252 0.894732C2.74434 0.872573 3.29833 0.872573 3.89663 0.850414C4.49494 0.828254 5.13756 0.828254 5.8245 0.806095C6.51144 0.783935 7.17622 0.783936 7.841 0.783936C9.65807 0.783936 11.1649 1.00553 12.4058 1.47088C13.5138 1.84759 14.5331 2.46805 15.3752 3.28795C16.0843 3.99705 16.6383 4.86126 16.9928 5.81412C17.3252 6.74481 17.5025 7.69766 17.5025 8.69484C17.5025 10.6005 17.0593 12.1739 16.1729 13.4148C15.2866 14.6557 14.0456 15.5864 12.6053 16.1182C11.0984 16.6722 9.43648 16.8717 7.61941 16.8717C7.08758 16.8717 6.73303 16.8716 6.51144 16.8495C6.28985 16.8273 5.97961 16.8273 5.55859 16.8273V23.9405C5.58074 24.0956 5.46995 24.2286 5.31483 24.2507C5.29267 24.2507 5.27051 24.2507 5.22619 24.2507H1.01591C0.838638 24.2507 0.75 24.1621 0.75 23.9627ZM5.58075 5.19365V12.6392C5.89098 12.6614 6.17905 12.6835 6.44496 12.6835H7.61941C8.48362 12.6835 9.34784 12.5506 10.1677 12.2847C10.8768 12.0852 11.4973 11.6642 11.9848 11.1102C12.4502 10.5562 12.6717 9.80281 12.6717 8.82779C12.6939 8.14085 12.5166 7.45391 12.1621 6.85561C11.7854 6.27946 11.2535 5.83627 10.6109 5.59252C9.79103 5.26013 8.90465 5.12717 7.99612 5.14933C7.41997 5.14933 6.91031 5.14934 6.48928 5.17149C6.04609 5.14934 5.73586 5.17149 5.58075 5.19365Z" fill="#F7F7F8"/>
<path d="M31.3298 11.2876C30.665 10.933 29.9559 10.6893 29.2025 10.5341C28.3826 10.3569 27.5627 10.2461 26.7207 10.2461C26.2775 10.2239 25.8121 10.2904 25.3911 10.4012C25.103 10.4677 24.8593 10.6228 24.7042 10.8444C24.5934 11.0216 24.5269 11.2432 24.5269 11.4427C24.5269 11.6421 24.6155 11.8415 24.7485 12.0188C24.9479 12.2626 25.2138 12.462 25.5019 12.6171C26.0116 12.883 26.5434 13.1268 27.0752 13.3484C28.2718 13.7473 29.4241 14.3012 30.4878 14.966C31.219 15.4314 31.8173 16.0518 32.2384 16.8052C32.5929 17.5143 32.7702 18.2899 32.748 19.0877C32.7702 20.1292 32.46 21.1706 31.8838 22.0349C31.2634 22.9212 30.3991 23.6082 29.402 24.007C28.3162 24.4724 26.9866 24.7161 25.3911 24.7161C24.3718 24.7161 23.3746 24.6275 22.3774 24.4281C21.6019 24.2951 20.8263 24.0514 20.1172 23.719C19.9621 23.6303 19.8513 23.4752 19.8734 23.2979V19.4422C19.8734 19.3757 19.8956 19.2871 19.9621 19.2428C20.0285 19.1985 20.095 19.2206 20.1615 19.2649C21.0257 19.7746 21.9343 20.1292 22.9093 20.3507C23.7513 20.5723 24.6377 20.6831 25.5241 20.6831C26.3661 20.6831 26.9644 20.5723 27.3633 20.3729C27.7179 20.2178 27.9616 19.8411 27.9616 19.4422C27.9616 19.132 27.7843 18.8439 27.4298 18.5558C27.0752 18.2678 26.344 17.9354 25.2582 17.5143C24.128 17.1155 23.0865 16.5837 22.1115 15.9189C21.4246 15.4314 20.8484 14.7887 20.4274 14.0353C20.0729 13.3262 19.8956 12.5506 19.9177 11.7751C19.9177 10.8222 20.1837 9.91368 20.6712 9.09378C21.2251 8.20741 22.045 7.49831 22.9979 7.05512C24.0394 6.52329 25.3468 6.27954 26.9201 6.27954C27.8286 6.27954 28.7593 6.34602 29.6679 6.47897C30.3327 6.56761 30.9753 6.74489 31.5736 6.98864C31.6622 7.0108 31.7509 7.09944 31.7952 7.18808C31.8173 7.27671 31.8395 7.36535 31.8395 7.45399V11.066C31.8395 11.1546 31.7952 11.2432 31.7287 11.2876C31.5293 11.3319 31.4185 11.3319 31.3298 11.2876Z" fill="#F7F7F8"/>
</svg>
