<svg width="24" height="25" viewBox="0 0 24 25" fill="none" xmlns="http://www.w3.org/2000/svg">
<g clip-path="url(#clip0_118_6215)">
<path d="M7.38683 12.9783C7.37164 12.9783 7.35644 12.9777 7.34106 12.9768L0.73351 12.5643C0.482106 12.5487 0.25652 12.405 0.136037 12.1839C0.0157366 11.9629 0.0172014 11.6954 0.140248 11.4757C0.174855 11.4138 1.00762 9.94548 2.5935 8.66484C4.73656 6.93449 7.2279 6.37328 9.79797 7.04198C10.0113 7.09746 10.1882 7.24614 10.2797 7.44664C10.3713 7.64714 10.3676 7.87822 10.2696 8.07561L8.0429 12.571C7.91876 12.8215 7.66369 12.9783 7.38683 12.9783Z" fill="#FF5B5B"/>
<path d="M12.7134 24.4997C12.5929 24.4997 12.4724 24.47 12.3631 24.4103C12.1421 24.2898 11.9984 24.0644 11.9826 23.813L11.5703 17.2055C11.552 16.9112 11.7118 16.6346 11.976 16.5036L16.4715 14.2767C16.669 14.1789 16.8999 14.1753 17.1004 14.2668C17.3011 14.3582 17.4496 14.5353 17.5051 14.7486C18.174 17.3187 17.6128 19.81 15.8822 21.9531C14.6018 23.5389 13.1333 24.3715 13.0714 24.4063C12.9602 24.4686 12.8368 24.4997 12.7134 24.4997Z" fill="#FF193D"/>
<path d="M22.8723 6.40875L18.1379 1.67437C17.9482 1.48468 17.6699 1.414 17.4126 1.48999C14.2432 2.42749 11.6415 3.89783 9.67913 5.85998C9.26989 6.26941 8.87676 6.71307 8.51092 7.17853C7.44708 8.53113 6.55846 10.1304 5.86999 11.9319C5.43145 13.0802 5.07439 14.3103 4.80871 15.588C4.34472 17.8199 4.31982 19.4195 4.3189 19.4865C4.31652 19.6837 4.39379 19.8738 4.53332 20.0133C4.67065 20.1506 4.85705 20.2277 5.05114 20.2277H5.06011C5.12731 20.227 6.72692 20.2021 8.95861 19.7381C10.2363 19.4724 11.4664 19.1154 12.6149 18.6766C14.4163 17.9882 16.0155 17.0997 17.3677 16.0361C17.8336 15.67 18.2772 15.2769 18.6866 14.8675C20.649 12.9052 22.1193 10.3034 23.0566 7.13403C23.1328 6.87677 23.0619 6.59845 22.8723 6.40875Z" fill="#E1F1FA"/>
<path d="M9.45905 18.6356L5.91193 15.0884C5.65009 14.8266 5.23389 14.8015 4.94239 15.03C4.71588 15.2076 4.50037 15.3984 4.30188 15.5969C1.8338 18.065 1.75745 21.8892 1.75543 22.0507C1.75287 22.2481 1.83014 22.4381 1.96985 22.5776C2.10718 22.7152 2.2934 22.7922 2.48749 22.7922C2.4906 22.7922 2.49371 22.7922 2.49683 22.7921C2.65833 22.79 6.48267 22.7137 8.95057 20.2456C9.14905 20.0471 9.33985 19.8316 9.51746 19.6051C9.74598 19.3136 9.72089 18.8974 9.45905 18.6356Z" fill="#FFF261"/>
<path d="M5.92645 11.7861L3.75024 13.9625C3.61292 14.0997 3.53564 14.2859 3.53564 14.4802C3.53564 14.6743 3.61292 14.8605 3.75024 14.9978L9.54938 20.7969C9.68653 20.9343 9.87274 21.0114 10.067 21.0114C10.2613 21.0114 10.4473 20.9343 10.5847 20.7969L12.7609 18.6207L5.92645 11.7861Z" fill="#1B3B6B"/>
<path d="M15.4265 11.3539C14.8299 11.3539 14.2689 11.1216 13.847 10.6997C12.9761 9.82886 12.9761 8.41199 13.847 7.54095C14.2689 7.11908 14.8299 6.88672 15.4265 6.88672C16.023 6.88672 16.584 7.11908 17.0059 7.54095C17.4278 7.96283 17.6602 8.52368 17.6602 9.12042C17.6602 9.71698 17.4278 10.2778 17.0059 10.6997C16.584 11.1216 16.023 11.3539 15.4265 11.3539Z" fill="#06CCAB"/>
<path d="M15.4267 12.0702C14.6387 12.0702 13.8981 11.7633 13.3411 11.2063C12.191 10.0562 12.191 8.18488 13.3411 7.03479C13.8981 6.47778 14.6389 6.1709 15.4267 6.1709C16.2146 6.1709 16.9552 6.47778 17.5124 7.03479C18.0696 7.59198 18.3763 8.33264 18.3763 9.12055C18.3763 9.90845 18.0696 10.6491 17.5124 11.2063C16.9552 11.7633 16.2146 12.0702 15.4267 12.0702ZM15.4267 7.63519C15.03 7.63519 14.6569 7.78973 14.3764 8.07025C13.7974 8.64942 13.7974 9.59168 14.3764 10.1708C14.6569 10.4514 15.03 10.6059 15.4267 10.6059C15.8234 10.6059 16.1964 10.4514 16.4769 10.1708C16.7575 9.89032 16.912 9.51734 16.912 9.12055C16.912 8.72376 16.7575 8.35077 16.4769 8.07025C16.1964 7.78973 15.8234 7.63519 15.4267 7.63519Z" fill="#1B3B6B"/>
<path d="M23.8325 0.714551C23.6928 0.574842 23.5016 0.49629 23.3053 0.500135C23.1967 0.501417 20.6085 0.544996 17.4126 1.49019L23.0566 7.13423C24.0018 3.93831 24.0454 1.35011 24.0467 1.24153C24.0493 1.04414 23.972 0.854078 23.8325 0.714551Z" fill="#FF5B5B"/>
<path d="M22.8721 6.40918L20.505 4.04199L4.5332 20.0137C4.67053 20.1511 4.85675 20.2282 5.05084 20.2282H5.06C5.12701 20.2274 6.72662 20.2025 8.9585 19.7385C10.2362 19.4728 11.4661 19.1158 12.6146 18.6771C14.4161 17.9886 16.0154 17.1002 17.3676 16.0365C17.8333 15.6705 18.2771 15.2773 18.6863 14.8679C20.6487 12.9056 22.119 10.3038 23.0563 7.13446C23.1327 6.8772 23.0618 6.59888 22.8721 6.40918Z" fill="#CDEBFC"/>
<path d="M9.45911 18.6349L7.68555 16.8613L1.96973 22.577V22.5772C2.10724 22.7145 2.29346 22.7916 2.48755 22.7916H2.4967C2.65839 22.7896 6.48255 22.713 8.95063 20.2449C9.14911 20.0464 9.33991 19.8309 9.51734 19.6044C9.74604 19.3129 9.72113 18.8967 9.45911 18.6349Z" fill="#FDBF00"/>
<path d="M9.34393 15.2031L6.6499 17.8972L9.54956 20.7968C9.68671 20.934 9.87293 21.0112 10.0672 21.0112C10.2615 21.0112 10.4475 20.934 10.5848 20.7968L12.7611 18.6204L9.34393 15.2031Z" fill="#001035"/>
<path d="M17.0061 7.54102C17.0059 7.54102 17.0059 7.54102 17.0059 7.54102L13.8472 10.6998H13.8474C14.269 11.1216 14.8301 11.354 15.4266 11.354C16.0232 11.354 16.5842 11.1216 17.0061 10.6998C17.428 10.2779 17.6603 9.71704 17.6603 9.12048C17.6602 8.52393 17.428 7.96289 17.0061 7.54102Z" fill="#1CADB5"/>
<path d="M17.5123 7.03467L16.4769 8.07013C16.7574 8.35065 16.9119 8.72363 16.9119 9.12042C16.9119 9.51721 16.7574 9.8902 16.4769 10.1707C16.1964 10.4512 15.8234 10.6058 15.4266 10.6058C15.0298 10.6058 14.6568 10.4512 14.3763 10.1707C14.3763 10.1707 14.3763 10.1707 14.3763 10.1705L13.3408 11.206V11.2062C13.898 11.7632 14.6387 12.0701 15.4266 12.0701C16.2145 12.0701 16.9551 11.7632 17.5123 11.2062C18.0693 10.649 18.3762 9.90833 18.3762 9.12042C18.3762 8.33252 18.0693 7.59186 17.5123 7.03467Z" fill="#001035"/>
<path d="M23.832 0.714844L20.2344 4.31268L23.0564 7.13471C24.0016 3.93878 24.0452 1.35059 24.0464 1.242C24.049 1.04462 23.9717 0.854553 23.832 0.714844Z" fill="#FF193D"/>
</g>
<defs>
<clipPath id="clip0_118_6215">
<rect width="24" height="24" fill="white" transform="translate(0 0.5)"/>
</clipPath>
</defs>
</svg>
