<svg width="60" height="61" viewBox="0 0 60 61" fill="none" xmlns="http://www.w3.org/2000/svg">
<g clip-path="url(#clip0_107_31417)">
<path d="M30 60.5C46.5685 60.5 60 47.0685 60 30.5C60 13.9315 46.5685 0.5 30 0.5C13.4315 0.5 0 13.9315 0 30.5C0 47.0685 13.4315 60.5 30 60.5Z" fill="url(#paint0_linear_107_31417)"/>
<path d="M45.1056 19.1726C44.6932 18.76 44.2035 18.4327 43.6645 18.2094C43.1255 17.986 42.5478 17.8711 41.9644 17.8711C41.381 17.8711 40.8033 17.986 40.2643 18.2094C39.7254 18.4327 39.2357 18.76 38.8232 19.1726L25.588 32.4066L21.1771 27.9957C20.7647 27.583 20.275 27.2557 19.736 27.0324C19.197 26.8091 18.6193 26.6941 18.0359 26.6941C17.4525 26.6941 16.8748 26.8091 16.3358 27.0324C15.7968 27.2557 15.3071 27.583 14.8947 27.9957C14.4822 28.4081 14.1551 28.8977 13.9319 29.4366C13.7086 29.9755 13.5937 30.553 13.5938 31.1363C13.5938 31.7196 13.7086 32.2971 13.9319 32.836C14.1551 33.3749 14.4822 33.8645 14.8947 34.2769L22.4474 41.8296C22.8599 42.2423 23.3496 42.5696 23.8885 42.7929C24.4275 43.0162 25.0052 43.1312 25.5886 43.1312C26.172 43.1312 26.7497 43.0162 27.2887 42.7929C27.8277 42.5696 28.3174 42.2423 28.7298 41.8296L45.1056 25.4539C45.5181 25.0414 45.8452 24.5518 46.0685 24.0129C46.2917 23.4741 46.4066 22.8965 46.4066 22.3132C46.4066 21.73 46.2917 21.1524 46.0685 20.6135C45.8452 20.0747 45.5181 19.585 45.1056 19.1726Z" fill="#FBFBFB"/>
</g>
<defs>
<linearGradient id="paint0_linear_107_31417" x1="60" y1="0.5" x2="0" y2="60.5" gradientUnits="userSpaceOnUse">
<stop stop-color="#F2D76F"/>
<stop offset="1" stop-color="#E97F96"/>
</linearGradient>
<clipPath id="clip0_107_31417">
<rect width="60" height="60" fill="white" transform="translate(0 0.5)"/>
</clipPath>
</defs>
</svg>
