<svg width="56" height="57" viewBox="0 0 56 57" fill="none" xmlns="http://www.w3.org/2000/svg">
<rect y="0.5" width="56" height="56" rx="8" fill="#15A959"/>
<path d="M25.7423 24.3184C24.7296 24.3184 23.9087 25.1478 23.9087 26.1708V28.0232H27.5766V26.1708C27.5758 25.1478 26.7549 24.3184 25.7423 24.3184Z" fill="white"/>
<path d="M28.4517 26.1722C28.4517 27.1953 29.2726 28.0239 30.2845 28.0239H32.1173V24.3198H30.2852C29.2726 24.3198 28.4517 25.1492 28.4517 26.1722Z" fill="white"/>
<path d="M28.4536 19.666V21.5177C28.4536 22.5407 29.2746 23.3693 30.2864 23.3693C31.2983 23.3693 32.1192 22.5399 32.1192 21.5177V19.666H28.4536Z" fill="white"/>
<path d="M25.7174 19.6685H23.8809V23.3725H25.7174C26.7278 23.3725 27.5472 22.5447 27.5472 21.5239V21.5171C27.5472 20.4963 26.7278 19.6685 25.7174 19.6685Z" fill="white"/>
<path d="M12.6272 33.5902V34.38H11.3022V35.894C11.3022 36.0754 11.3512 36.2187 11.4508 36.3239C11.5497 36.4291 11.6863 36.4817 11.8613 36.4817C12.0975 36.4817 12.3533 36.41 12.6279 36.2675V37.1045C12.2635 37.2577 11.9104 37.334 11.5685 37.334C11.1219 37.334 10.7748 37.2173 10.5288 36.9841C10.282 36.7508 10.159 36.4078 10.159 35.9565V34.38H9.63916V34.1544L11.1603 32.4346H11.3029V33.5902H12.6272Z" fill="white"/>
<path d="M14.3763 31.8274V34.1273H14.3922C14.7106 33.7172 15.0947 33.5121 15.5436 33.5121C15.9315 33.5121 16.2506 33.6364 16.5011 33.8841C16.7517 34.1326 16.8769 34.4772 16.8769 34.9186V37.2635H15.733V35.1633C15.733 34.6281 15.5368 34.3606 15.1437 34.3606C14.8841 34.3606 14.6291 34.5466 14.3771 34.9178V37.2635H13.2324V31.8274H14.3763Z" fill="white"/>
<path d="M20.3252 37.2639V36.7387C19.9887 37.1359 19.5971 37.3341 19.1504 37.3341C18.755 37.3341 18.4343 37.2106 18.1876 36.9643C17.9409 36.7181 17.8179 36.3766 17.8179 35.9413V33.5903H18.9618V35.8597C18.9618 36.3263 19.1527 36.5595 19.536 36.5595C19.7518 36.5595 19.9359 36.4749 20.0891 36.3049C20.2415 36.1349 20.3185 36.0099 20.3185 35.9299V33.5903H21.4699V37.2639H20.3252Z" fill="white"/>
<path d="M24.2908 33.512C24.8605 33.512 25.3441 33.6804 25.741 34.0181C26.1379 34.3558 26.3364 34.8262 26.3364 35.4284C26.3364 36.0337 26.1349 36.5025 25.7312 36.8349C25.3283 37.1673 24.8477 37.3334 24.2908 37.3334C23.6872 37.3334 23.1937 37.1558 22.8096 36.8014C22.4255 36.4469 22.2339 35.9864 22.2339 35.4208C22.2339 34.8445 22.4293 34.3818 22.8209 34.0341C23.2125 33.6858 23.7022 33.512 24.2908 33.512ZM24.2908 36.6481C24.8378 36.6481 25.111 36.2311 25.111 35.3972C25.111 34.5998 24.8378 34.2003 24.2908 34.2003C24.029 34.2003 23.8237 34.3055 23.6766 34.5159C23.5287 34.7263 23.4548 35.0274 23.4548 35.42C23.4548 36.2395 23.7332 36.6481 24.2908 36.6481Z" fill="white"/>
<path d="M30.2815 36.2591V37.0877C29.8348 37.2508 29.425 37.3332 29.0523 37.3332C28.4132 37.3332 27.9016 37.1601 27.519 36.8133C27.1365 36.4664 26.9448 36.0075 26.9448 35.4365C26.9448 34.8785 27.138 34.4181 27.5243 34.056C27.9107 33.6939 28.4034 33.5125 29.0017 33.5125C29.3866 33.5125 29.7955 33.5933 30.2264 33.7533V34.6132C29.911 34.4501 29.6001 34.3678 29.2945 34.3678C28.9527 34.3678 28.6795 34.4638 28.4743 34.6567C28.2691 34.8488 28.1664 35.1065 28.1664 35.4281C28.1664 35.7529 28.2668 36.0151 28.4668 36.2133C28.6675 36.4123 28.9301 36.5114 29.2568 36.5114C29.4975 36.5122 29.8393 36.4275 30.2815 36.2591Z" fill="white"/>
<path d="M33.5471 33.7841V34.6051C33.1102 34.3353 32.7058 34.2003 32.3338 34.2003C32.0592 34.2003 31.9218 34.2949 31.9218 34.4847C31.9218 34.5342 31.9505 34.583 32.0086 34.6303C32.0667 34.6783 32.2878 34.7797 32.6734 34.9344C33.0582 35.0892 33.3306 35.2683 33.4898 35.4711C33.649 35.6739 33.7282 35.8957 33.7282 36.1374C33.7282 36.5193 33.6 36.8135 33.3427 37.0217C33.0861 37.2298 32.7201 37.3334 32.2448 37.3334C31.7566 37.3334 31.3227 37.2443 30.9432 37.0651V36.2517C31.4102 36.4591 31.8019 36.5627 32.118 36.5627C32.4877 36.5627 32.6726 36.472 32.6726 36.2914C32.6726 36.2212 32.6379 36.1557 32.57 36.0932C32.5013 36.0314 32.2727 35.9232 31.8826 35.7692C31.4925 35.6152 31.2261 35.446 31.082 35.2615C30.9379 35.077 30.8662 34.8719 30.8662 34.6455C30.8662 34.3109 31.0043 34.038 31.2805 33.8276C31.5566 33.6172 31.9203 33.512 32.3723 33.512C32.8062 33.512 33.1978 33.6027 33.5471 33.7841Z" fill="white"/>
<path d="M34.3735 32.3954C34.3735 32.2193 34.4354 32.0683 34.5584 31.9441C34.6814 31.8198 34.8293 31.7573 35.0013 31.7573C35.1756 31.7573 35.325 31.8198 35.448 31.9441C35.571 32.0683 35.6329 32.2193 35.6329 32.3954C35.6329 32.5692 35.571 32.7194 35.448 32.8451C35.325 32.9709 35.1756 33.0342 35.0013 33.0342C34.8293 33.0342 34.6814 32.9717 34.5584 32.8451C34.4354 32.7186 34.3735 32.5692 34.3735 32.3954ZM35.5793 37.2635H34.4354V33.5899H35.5793V37.2635Z" fill="white"/>
<path d="M36.4556 36.6409C36.4556 36.4519 36.5227 36.2888 36.6578 36.1523C36.7929 36.0158 36.9536 35.948 37.1415 35.948C37.3316 35.948 37.4938 36.0158 37.6289 36.1523C37.764 36.2888 37.8311 36.4511 37.8311 36.6409C37.8311 36.833 37.764 36.9962 37.6289 37.1311C37.4938 37.266 37.3316 37.3331 37.1415 37.3331C36.9543 37.3331 36.7929 37.2653 36.6578 37.1311C36.5235 36.9962 36.4556 36.833 36.4556 36.6409Z" fill="white"/>
<path d="M39.9111 37.3341L38.23 33.5903H39.4561L40.2265 35.6135L41.0113 33.5903H42.2238L40.5502 37.3341H39.9111Z" fill="white"/>
<path d="M43.8534 33.5897V34.1111C44.1899 33.7117 44.5838 33.512 45.0358 33.512C45.413 33.512 45.7284 33.6339 45.9812 33.8779C46.234 34.1218 46.3607 34.471 46.3607 34.9261V37.2633H45.2168V35.0229C45.2168 34.5319 45.0282 34.2865 44.6509 34.2865C44.3816 34.2865 44.1152 34.4893 43.8534 34.8933V37.2633H42.7095V33.5897H43.8534Z" fill="white"/>
</svg>
