<svg width="56" height="57" viewBox="0 0 56 57" fill="none" xmlns="http://www.w3.org/2000/svg">
<rect y="0.5" width="56" height="56" rx="8" fill="#1E3768"/>
<g clip-path="url(#clip0_1256_30531)">
<path d="M22.7037 32.8781V32.8825C23.4221 32.8825 24.1363 32.8868 24.8547 32.8825C25.13 32.8825 25.2677 32.7104 25.2074 32.448C25.1558 32.2243 24.9837 32.1984 24.7901 32.2027C23.4092 32.207 22.024 32.207 20.6431 32.207C20.5872 32.207 20.5269 32.2027 20.471 32.2156C20.2946 32.2587 20.2 32.3705 20.2 32.5512C20.2043 32.7233 20.3032 32.8308 20.471 32.8652C20.5398 32.8825 20.613 32.8738 20.6861 32.8738C21.3572 32.8781 22.0326 32.8781 22.7037 32.8781Z" fill="#F8901F"/>
<path d="M18.3415 32.8738C18.7072 32.8738 19.0729 32.8781 19.4385 32.8738C19.6579 32.8695 19.7827 32.7534 19.787 32.5555C19.7913 32.3705 19.6536 32.2156 19.4514 32.2113C18.7201 32.207 17.9888 32.207 17.2574 32.2113C17.0424 32.2113 16.9176 32.3619 16.9262 32.577C16.9348 32.7749 17.0381 32.8695 17.2661 32.8738C17.6231 32.8781 17.9845 32.8738 18.3415 32.8738Z" fill="#F8901F"/>
<path d="M15.4506 32.8738C15.6958 32.8738 15.9368 32.8781 16.182 32.8738C16.3842 32.8695 16.5046 32.7448 16.5132 32.5555C16.5175 32.3576 16.3928 32.2156 16.182 32.2156C15.7001 32.2113 15.2226 32.2113 14.7408 32.2156C14.5257 32.22 14.401 32.349 14.401 32.5469C14.401 32.7448 14.5257 32.8695 14.7451 32.8738C14.9774 32.8781 15.214 32.8738 15.4506 32.8738Z" fill="#F8901F"/>
<path d="M13.2652 32.8695C13.3986 32.8695 13.5363 32.8781 13.6696 32.8695C13.8503 32.8566 13.9794 32.719 13.9708 32.5469C13.9622 32.3619 13.8718 32.2243 13.6782 32.2113C13.4072 32.1984 13.1362 32.1984 12.8652 32.2156C12.6888 32.2243 12.5769 32.3791 12.5855 32.5598C12.5984 32.7405 12.6931 32.8523 12.8738 32.8695C13.0071 32.8781 13.1362 32.8695 13.2652 32.8695Z" fill="#F8901F"/>
<path d="M11.6219 32.8738C11.6778 32.8738 11.7338 32.8781 11.794 32.8738C12.0091 32.8652 12.1338 32.7448 12.1338 32.5469C12.1338 32.3447 12.0177 32.2243 11.8026 32.2113C11.6907 32.207 11.5746 32.207 11.4627 32.2113C11.2519 32.2243 11.1272 32.3533 11.1272 32.5469C11.1272 32.7405 11.2519 32.8566 11.4713 32.8695C11.523 32.8738 11.5703 32.8738 11.6219 32.8738Z" fill="#F8901F"/>
<path d="M10.3657 32.8781C10.5722 32.8781 10.7056 32.7491 10.7056 32.5512C10.7056 32.349 10.5765 32.2156 10.3786 32.2113C10.1808 32.207 10.0044 32.3576 10.0001 32.5383C9.99577 32.7061 10.1765 32.8781 10.3657 32.8781Z" fill="#F8901F"/>
<path d="M22.7037 32.8781C22.0283 32.8781 21.3572 32.8781 20.6818 32.8781C20.6087 32.8781 20.5355 32.8825 20.4667 32.8695C20.3032 32.8351 20.2 32.7276 20.1957 32.5555C20.1914 32.3748 20.2903 32.2587 20.4667 32.22C20.5226 32.207 20.5829 32.2113 20.6388 32.2113C22.0197 32.2113 23.4049 32.207 24.7858 32.207C24.9794 32.207 25.1515 32.2329 25.2031 32.4523C25.2634 32.7147 25.1257 32.8868 24.8504 32.8868C24.132 32.8911 23.4178 32.8868 22.6994 32.8868C22.7037 32.8825 22.7037 32.8781 22.7037 32.8781Z" fill="#F8901F"/>
<path d="M18.3415 32.8738C17.9845 32.8738 17.6231 32.8781 17.2661 32.8738C17.0381 32.8695 16.9348 32.7749 16.9262 32.577C16.9176 32.3662 17.0424 32.2156 17.2574 32.2113C17.9888 32.2027 18.7201 32.2027 19.4514 32.2113C19.6536 32.2113 19.7913 32.3705 19.787 32.5555C19.7827 32.7534 19.6579 32.8738 19.4385 32.8738C19.0729 32.8781 18.7072 32.8738 18.3415 32.8738Z" fill="#F8901F"/>
<path d="M15.4506 32.8738C15.214 32.8738 14.9774 32.8781 14.7408 32.8738C14.5257 32.8695 14.3967 32.7448 14.3967 32.5469C14.3967 32.349 14.5257 32.2156 14.7365 32.2156C15.2183 32.2113 15.6958 32.2113 16.1777 32.2156C16.3885 32.22 16.5132 32.3576 16.5089 32.5555C16.5046 32.7448 16.3842 32.8695 16.1777 32.8738C15.9411 32.8781 15.6958 32.8738 15.4506 32.8738Z" fill="#F8901F"/>
<path d="M13.2652 32.8695C13.1362 32.8695 13.0071 32.8781 12.8824 32.8695C12.6974 32.8523 12.6027 32.7405 12.5941 32.5598C12.5812 32.3791 12.6974 32.2286 12.8738 32.2156C13.1448 32.2027 13.4158 32.1984 13.6868 32.2113C13.8804 32.22 13.9708 32.3576 13.9794 32.5469C13.988 32.719 13.8589 32.8566 13.6782 32.8695C13.5363 32.8781 13.4029 32.8738 13.2652 32.8695Z" fill="#F8901F"/>
<path d="M11.6219 32.8738C11.5703 32.8738 11.523 32.8738 11.4713 32.8738C11.2519 32.8609 11.1272 32.7448 11.1272 32.5512C11.1272 32.3576 11.2519 32.2243 11.4627 32.2156C11.5746 32.2113 11.6907 32.2113 11.8026 32.2156C12.0177 32.2243 12.1338 32.349 12.1338 32.5512C12.1338 32.7491 12.0091 32.8652 11.794 32.8781C11.7338 32.8738 11.6778 32.8738 11.6219 32.8738Z" fill="#F8901F"/>
<path d="M10.3657 32.8781C10.1765 32.8781 9.99577 32.7061 10.0001 32.534C10.0044 32.3576 10.1808 32.207 10.3786 32.207C10.5765 32.2113 10.7056 32.3404 10.7056 32.5469C10.7099 32.7448 10.5722 32.8781 10.3657 32.8781Z" fill="#F8901F"/>
<path d="M18.5004 30.6757C18.2767 30.3058 18.0272 29.9573 17.8422 29.5745C17.1324 28.1204 17.0679 26.6276 17.7174 25.1478C18.3627 23.6808 20.1911 22.9753 21.6322 23.9475C22.4238 24.481 22.7163 25.2639 22.6604 26.1974C22.6002 27.174 22.1011 27.858 21.2579 28.3097C20.8278 28.5377 20.4019 28.77 19.9631 28.9851C19.2661 29.3292 18.7542 29.824 18.5778 30.6069C18.5692 30.6241 18.552 30.6327 18.5004 30.6757ZM21.4515 26.0253C21.4515 25.3155 20.8665 24.7047 20.1911 24.7133C19.4425 24.7219 18.8489 25.3069 18.8489 26.0253C18.8489 26.7352 19.4468 27.3159 20.1782 27.3245C20.8622 27.3374 21.4472 26.7352 21.4515 26.0253Z" fill="#F8901F"/>
<path d="M19.6619 30.5295C19.5544 29.8455 20.1782 29.0324 20.789 29.0195C21.2622 29.0109 21.6107 29.3292 21.5849 29.7551C21.5548 30.2111 21.1762 30.5166 20.7073 30.452C20.3588 30.4047 20.0147 30.3402 19.6619 30.5295Z" fill="#F8901F"/>
<path d="M11.8801 28.4858C12.1382 27.8491 12.392 27.2168 12.6501 26.5801C12.8523 26.081 13.0502 25.582 13.2524 25.0873C13.4288 24.6571 13.8504 24.4807 14.3451 24.6227C14.7064 24.7259 14.9043 25.0787 14.8527 25.5089C14.7409 26.4338 14.6333 27.3587 14.5301 28.2836C14.5215 28.3439 14.5258 28.4084 14.5516 28.4772C14.6247 28.2879 14.6978 28.0944 14.771 27.9051C15.1151 26.9888 15.4593 26.0681 15.8077 25.1561C15.9626 24.7517 16.2723 24.5453 16.6208 24.5969C17.1413 24.67 17.4253 25.1604 17.2145 25.6552C16.9004 26.3994 16.5735 27.1393 16.2551 27.8836C15.9325 28.6235 15.6185 29.372 15.2915 30.1077C15.0162 30.7228 14.3322 30.9508 13.7901 30.6067C13.4503 30.3916 13.2653 30.0732 13.3083 29.6646C13.3771 28.9504 13.4675 28.2406 13.5449 27.5308C13.5664 27.3501 13.5836 27.1651 13.5664 26.9758C13.4116 27.3587 13.2567 27.7416 13.1018 28.1245C12.8265 28.7999 12.5641 29.4796 12.2758 30.1507C12.0737 30.6239 11.5746 30.8562 11.0885 30.7357C10.6024 30.6067 10.2668 30.1507 10.3013 29.6517C10.3228 29.3032 10.3572 28.9504 10.3873 28.602C10.4819 27.5265 10.5809 26.4467 10.6712 25.3712C10.7228 24.769 11.2305 24.4291 11.8026 24.6399C12.1425 24.7646 12.3146 25.1045 12.2586 25.5175C12.1253 26.4467 11.9919 27.3759 11.8586 28.3008C11.85 28.3568 11.85 28.4127 11.8456 28.4729C11.8543 28.4772 11.8672 28.4815 11.8801 28.4858Z" fill="#FAFAFA"/>
<path d="M29.5395 26.8511C29.7718 26.8511 29.9869 26.864 30.202 26.8468C30.3913 26.8296 30.4989 26.6962 30.5505 26.5112C30.6796 26.0208 30.8086 25.5304 30.942 25.04C31.0495 24.6442 31.1829 24.5366 31.5959 24.5323C31.7808 24.5323 31.9701 24.5237 32.1551 24.5366C32.5423 24.5582 32.7359 24.8163 32.6412 25.1948C32.1981 26.9199 31.755 28.645 31.3119 30.3658C31.2388 30.654 31.0882 30.7702 30.7914 30.7831C30.5763 30.7917 30.3612 30.7874 30.1461 30.7874C29.7374 30.7788 29.5309 30.5077 29.6299 30.1163C29.7675 29.5742 29.9095 29.0365 30.0515 28.4987C30.0687 28.4342 30.0773 28.3654 30.0945 28.2707C29.8837 28.2707 29.6987 28.2578 29.5137 28.275C29.29 28.2922 29.1524 28.4213 29.0964 28.645C28.9631 29.1784 28.8211 29.7119 28.6834 30.2453C28.5716 30.6884 28.4597 30.7831 28.0037 30.796C27.8317 30.8003 27.6596 30.8046 27.4875 30.796C27.0573 30.7831 26.8594 30.5293 26.967 30.112C27.2638 28.9547 27.5649 27.8018 27.8618 26.6446C27.9994 26.1026 28.1414 25.5648 28.2834 25.0228C28.378 24.6614 28.5329 24.5409 28.9072 24.5409C29.1007 24.5409 29.2943 24.5323 29.4879 24.5453C29.8622 24.5668 30.0558 24.7991 29.9783 25.1647C29.8751 25.6465 29.7374 26.1198 29.6127 26.5973C29.5826 26.6747 29.5653 26.7564 29.5395 26.8511Z" fill="#FAFAFA"/>
<path d="M35.915 30.8906C35.7214 30.8648 35.4461 30.8433 35.1837 30.7831C34.5169 30.6239 34.1727 30.1206 34.2674 29.4409C34.3233 29.058 34.4136 28.6837 34.5083 28.3094C34.775 27.2641 35.046 26.2187 35.3256 25.1733C35.4418 24.7345 35.8075 24.4893 36.242 24.5323C36.6162 24.5668 36.9475 24.8937 36.9776 25.2852C36.9862 25.4013 36.969 25.5304 36.9389 25.6465C36.6463 26.7909 36.3495 27.9309 36.0527 29.0752C36.0355 29.1354 36.0226 29.2 36.014 29.2645C35.9795 29.4538 35.9451 29.6431 36.1559 29.7549C36.3323 29.8452 36.6549 29.7635 36.7754 29.5828C36.8485 29.471 36.9088 29.3419 36.9432 29.2129C37.283 27.9266 37.6186 26.6403 37.9412 25.3497C38.0789 24.812 38.3542 24.5323 38.8102 24.528C39.3437 24.5237 39.7437 24.9668 39.6405 25.4874C39.5502 25.9649 39.4082 26.4338 39.2877 26.9027C39.12 27.5695 38.9565 28.2363 38.7715 28.8945C38.6898 29.1827 38.5736 29.4624 38.4273 29.7248C38.0574 30.3959 37.4637 30.7443 36.7109 30.8261C36.4786 30.8519 36.2377 30.8648 35.915 30.8906Z" fill="#FAFAFA"/>
<path d="M42.4884 24.5151C42.9014 24.5323 43.323 24.5237 43.7316 24.5754C44.3898 24.6571 44.7039 25.0099 44.7469 25.6767C44.8243 26.8812 44.1274 28.3138 42.3034 28.3783C42.1098 28.3869 41.9162 28.3955 41.7226 28.374C41.5204 28.3525 41.4516 28.4428 41.4086 28.6235C41.2709 29.2086 41.1161 29.7893 40.9698 30.3701C40.8838 30.7099 40.8063 30.7659 40.4665 30.7702C40.1997 30.7702 39.9373 30.7745 39.6706 30.7702C39.3006 30.7659 39.1716 30.6024 39.2619 30.2496C39.6749 28.6364 40.0879 27.0189 40.5052 25.4056C40.6644 24.7905 41.0128 24.5323 41.6495 24.5323C41.9291 24.5323 42.2088 24.5323 42.4884 24.5323C42.4884 24.5237 42.4884 24.5194 42.4884 24.5151ZM41.8087 27.1436C42.5658 27.3114 42.9487 26.7392 42.9659 26.1929C42.9702 26.038 42.9659 25.8401 42.7809 25.7971C42.5916 25.7498 42.3894 25.767 42.1915 25.7627C42.1743 25.7627 42.1442 25.8143 42.1356 25.8487C42.0324 26.2746 41.9205 26.7048 41.8087 27.1436Z" fill="#FAFAFA"/>
<path d="M23.9384 28.8386C23.9255 29.0236 23.8997 29.1956 23.8997 29.3634C23.904 29.6086 24.0072 29.7033 24.2438 29.699C24.6869 29.6947 25.0569 29.2516 24.9494 28.8171C24.9192 28.7052 24.8031 28.5891 24.6955 28.5245C24.4374 28.374 24.1621 28.2492 23.8868 28.1288C22.9016 27.7072 22.8414 27.0533 23.121 26.2187C23.4566 25.2121 24.2051 24.6958 25.229 24.584C25.6119 24.5409 26.0205 24.5539 26.3991 24.627C27.0143 24.7474 27.3283 25.2508 27.2509 25.8746C27.2165 26.1542 27.0272 26.3951 26.7519 26.4166C26.3776 26.4467 25.999 26.4252 25.6119 26.4252C25.6291 26.2617 25.6549 26.1155 25.6549 25.9692C25.6549 25.7498 25.5473 25.6595 25.3279 25.6681C25.0483 25.6767 24.8461 25.8616 24.7515 26.1886C24.6826 26.4338 24.73 26.5672 25.0096 26.7306C25.3064 26.907 25.6205 27.049 25.9173 27.2168C26.7218 27.6685 26.9067 27.918 26.6529 28.959C26.3991 29.9958 25.6205 30.6239 24.5149 30.7487C24.0287 30.8046 23.5426 30.8175 23.0651 30.6755C22.4241 30.4862 22.1273 29.9915 22.252 29.3419C22.2994 29.0924 22.5059 28.8644 22.7554 28.8515C23.1512 28.8214 23.5426 28.8386 23.9384 28.8386Z" fill="#FAFAFA"/>
<path d="M33.5016 26.9371C33.6221 26.9371 33.7468 26.9328 33.8673 26.9371C34.0867 26.9457 34.2071 27.0748 34.1684 27.2856C34.1168 27.5652 34.0523 27.8448 33.9748 28.1202C33.9619 28.1761 33.8759 28.2449 33.82 28.2449C33.5619 28.2578 33.3037 28.2578 33.0456 28.2492C32.8219 28.2406 32.7144 28.0987 32.7617 27.875C32.8133 27.6297 32.8778 27.3888 32.9209 27.1436C32.9467 26.9845 33.0198 26.9199 33.179 26.9371C33.2865 26.9457 33.3941 26.9371 33.5016 26.9371Z" fill="#FAFAFA"/>
<path d="M26.3604 32.8695L26.597 31.7338H26.9024C26.9884 31.7338 27.0401 31.7338 27.0659 31.7381C27.1132 31.7424 27.1562 31.751 27.1906 31.7682C27.225 31.7854 27.2595 31.8026 27.2896 31.8285C27.3197 31.8543 27.3455 31.8844 27.367 31.9231C27.3885 31.9618 27.4057 32.0005 27.4186 32.0479C27.4315 32.0952 27.4358 32.1468 27.4358 32.2027C27.4358 32.3232 27.4143 32.435 27.367 32.5297C27.3197 32.6243 27.2595 32.6974 27.1906 32.7534C27.1347 32.7964 27.0659 32.8308 26.9798 32.848C26.9325 32.8609 26.8551 32.8652 26.7561 32.8652H26.3604V32.8695ZM26.6314 32.6845H26.7518C26.8379 32.6845 26.8981 32.6802 26.9368 32.6673C26.9755 32.6544 27.0099 32.6372 27.0444 32.6071C27.0917 32.5641 27.1304 32.5082 27.1605 32.4393C27.1906 32.3705 27.2078 32.2888 27.2078 32.1941C27.2078 32.1124 27.1949 32.0522 27.1691 32.0134C27.1433 31.9747 27.1089 31.9446 27.0745 31.9317C27.0487 31.9231 27.0013 31.9188 26.9325 31.9188H26.7992L26.6314 32.6845Z" fill="#FAFAFA"/>
<path d="M27.4616 32.9599H27.681L27.638 33.175H27.4186L27.4616 32.9599ZM27.6552 32.0479H27.8789L27.7069 32.8695H27.4832L27.6552 32.0479ZM27.7198 31.7338H27.9435L27.9004 31.936H27.6767L27.7198 31.7338Z" fill="#FAFAFA"/>
<path d="M28.464 32.5598L28.6791 32.5942C28.6447 32.6888 28.5888 32.762 28.5199 32.8136C28.4511 32.8652 28.3694 32.8867 28.279 32.8867C28.1758 32.8867 28.0897 32.8566 28.0295 32.7921C27.9693 32.7276 27.9392 32.6458 27.9392 32.534C27.9392 32.4436 27.9564 32.3619 27.9951 32.2802C28.0338 32.2027 28.0897 32.1382 28.1629 32.0909C28.236 32.0436 28.3177 32.022 28.4081 32.022C28.507 32.022 28.5845 32.0479 28.6404 32.0995C28.6963 32.1511 28.7307 32.2156 28.7393 32.2974L28.5285 32.3189C28.5242 32.2716 28.5113 32.2371 28.4855 32.2156C28.464 32.1941 28.4339 32.1812 28.3952 32.1812C28.3522 32.1812 28.3134 32.1984 28.2747 32.2285C28.236 32.2586 28.2102 32.3103 28.1887 32.3705C28.1672 32.4307 28.1586 32.4953 28.1586 32.5512C28.1586 32.5985 28.1715 32.6372 28.193 32.663C28.2188 32.6888 28.2446 32.7017 28.2833 32.7017C28.3177 32.7017 28.3522 32.6888 28.3866 32.663C28.421 32.6372 28.4468 32.6114 28.464 32.5598Z" fill="#FAFAFA"/>
<path d="M28.9974 32.8695H28.7737L29.0103 31.7338H29.234L29.148 32.1382C29.1996 32.0995 29.247 32.0694 29.29 32.0522C29.333 32.0349 29.3803 32.0263 29.4276 32.0263C29.4922 32.0263 29.5481 32.0436 29.5868 32.0823C29.6255 32.121 29.6427 32.1726 29.6427 32.2328C29.6427 32.2673 29.6341 32.3189 29.6212 32.3877L29.5223 32.8695H29.2986L29.4018 32.3791C29.4147 32.3275 29.419 32.2931 29.419 32.2759C29.419 32.25 29.4104 32.2285 29.3932 32.2113C29.376 32.1941 29.3545 32.1855 29.3244 32.1855C29.2857 32.1855 29.2513 32.1984 29.2168 32.2242C29.1738 32.2586 29.1394 32.3017 29.1136 32.349C29.1007 32.3748 29.0835 32.4393 29.062 32.5426L28.9974 32.8695Z" fill="#FAFAFA"/>
<path d="M30.5633 32.8695H30.3741L30.2106 32.0479H30.43L30.4859 32.4049C30.5031 32.5039 30.5117 32.5684 30.516 32.5985C30.5203 32.5899 30.5375 32.5555 30.572 32.4996C30.6021 32.4436 30.6236 32.4049 30.6322 32.3963L30.8387 32.0479H31.0796L30.5633 32.8695Z" fill="#FAFAFA"/>
<path d="M31.1871 32.0479H31.4108L31.3076 32.534C31.2947 32.5942 31.2904 32.6286 31.2904 32.6415C31.2904 32.6673 31.299 32.6845 31.3162 32.7017C31.3334 32.719 31.3549 32.7276 31.385 32.7276C31.4065 32.7276 31.4237 32.7233 31.4409 32.7147C31.4582 32.706 31.4797 32.6974 31.5012 32.6802C31.5227 32.663 31.5399 32.6458 31.5571 32.6286C31.5743 32.6114 31.5872 32.5813 31.6001 32.5512C31.6087 32.5254 31.6216 32.4867 31.6302 32.435L31.712 32.0436H31.9357L31.7636 32.8652H31.5571L31.5786 32.7534C31.4883 32.8394 31.3893 32.8824 31.2818 32.8824C31.2129 32.8824 31.1613 32.8609 31.1226 32.8265C31.0839 32.7878 31.0667 32.7362 31.0667 32.6716C31.0667 32.6415 31.0753 32.5856 31.0925 32.5039L31.1871 32.0479ZM31.2258 32.9599H31.4452L31.4022 33.175H31.1828L31.2258 32.9599Z" fill="#FAFAFA"/>
<path d="M32.5551 32.0479H32.7616L32.7272 32.207C32.8047 32.0866 32.8864 32.0263 32.9767 32.0263C33.0068 32.0263 33.0413 32.0349 33.08 32.0522L32.9939 32.2328C32.9724 32.2242 32.9509 32.2199 32.9294 32.2199C32.8907 32.2199 32.852 32.2328 32.8133 32.2629C32.7745 32.2931 32.7444 32.3318 32.7186 32.3791C32.6971 32.4264 32.6756 32.5039 32.6541 32.6071L32.5982 32.8652H32.3745L32.5551 32.0479Z" fill="#FAFAFA"/>
<path d="M33.9791 32.0479H34.2028L34.1641 32.2242C34.1426 32.3275 34.1081 32.4006 34.0651 32.4393C34.0178 32.4823 33.9361 32.5039 33.8156 32.5039L33.7382 32.8652H33.5317L33.5532 32.7534C33.4629 32.8394 33.3639 32.8824 33.2564 32.8824C33.1875 32.8824 33.1359 32.8652 33.0972 32.8265C33.0585 32.7878 33.037 32.7362 33.037 32.6716C33.037 32.6415 33.0456 32.5856 33.0628 32.5039L33.1574 32.0436H33.3811L33.2779 32.5297C33.265 32.5899 33.2607 32.6243 33.2607 32.6372C33.2607 32.663 33.2693 32.6802 33.2865 32.6974C33.3037 32.7147 33.3252 32.7233 33.3553 32.7233C33.394 32.7233 33.4327 32.706 33.4715 32.6759C33.5145 32.6415 33.5489 32.5985 33.5704 32.5469C33.579 32.5254 33.5919 32.4867 33.6005 32.4307L33.6823 32.0392H33.906L33.8328 32.3963C33.906 32.3963 33.9576 32.3834 33.9834 32.3533C34.0049 32.3318 34.0178 32.2974 34.0264 32.2543H33.9232L33.9791 32.0479ZM33.5833 31.8414C33.6134 31.8328 33.6306 31.8155 33.6349 31.7983C33.6392 31.7854 33.6306 31.7768 33.6177 31.7682C33.5962 31.7553 33.5661 31.751 33.5188 31.751C33.5016 31.751 33.4801 31.751 33.4456 31.7553L33.4543 31.6779C33.4758 31.6736 33.5102 31.6736 33.5661 31.6736C33.6306 31.6736 33.678 31.6865 33.721 31.708C33.7554 31.7252 33.7683 31.751 33.7683 31.7811C33.7683 31.8112 33.7554 31.8371 33.7296 31.8629C33.6995 31.8887 33.6564 31.9059 33.6048 31.9145L33.5962 31.9532H33.5102L33.5274 31.8586C33.5532 31.8457 33.5747 31.8457 33.5833 31.8414Z" fill="#FAFAFA"/>
<path d="M34.4222 32.2802L34.2071 32.2629C34.2329 32.1898 34.2759 32.1339 34.3362 32.0909C34.3964 32.0479 34.4781 32.0306 34.5814 32.0306C34.6889 32.0306 34.7663 32.0522 34.818 32.0952C34.8696 32.1382 34.8954 32.1898 34.8954 32.25C34.8954 32.2759 34.8911 32.3017 34.8868 32.3275C34.8825 32.3533 34.8653 32.4307 34.8395 32.5469C34.818 32.6458 34.8051 32.7147 34.8051 32.7534C34.8051 32.7878 34.8094 32.8265 34.8223 32.8695H34.6072C34.5986 32.8394 34.5943 32.8093 34.59 32.7749C34.5555 32.8093 34.5211 32.8394 34.4781 32.8566C34.4351 32.8738 34.3921 32.8867 34.3491 32.8867C34.2802 32.8867 34.2243 32.8652 34.1813 32.8179C34.1383 32.7749 34.1168 32.7147 34.1168 32.6458C34.1168 32.5684 34.1426 32.5039 34.1899 32.4565C34.2372 32.4092 34.3275 32.3791 34.4523 32.3705C34.5599 32.3619 34.6287 32.3533 34.6631 32.3404C34.6717 32.3103 34.676 32.2845 34.676 32.2673C34.676 32.2414 34.6674 32.2242 34.6459 32.207C34.6287 32.1898 34.5986 32.1812 34.5599 32.1812C34.5211 32.1812 34.4867 32.1898 34.4652 32.207C34.448 32.2242 34.4308 32.25 34.4222 32.2802ZM34.6373 32.4867C34.6244 32.491 34.6072 32.4953 34.5857 32.4953C34.4738 32.5082 34.4007 32.5297 34.3663 32.5555C34.3405 32.5727 34.3318 32.5985 34.3318 32.6286C34.3318 32.6544 34.3405 32.6759 34.3577 32.6931C34.3749 32.7104 34.4007 32.719 34.4308 32.719C34.4652 32.719 34.4953 32.7104 34.5254 32.6931C34.5555 32.6759 34.5771 32.6544 34.59 32.6286C34.6029 32.6028 34.6158 32.5641 34.6287 32.5082L34.6373 32.4867Z" fill="#FAFAFA"/>
<path d="M35.7816 32.6372L35.5751 32.8695H35.3041L35.6827 32.4479L35.4719 32.0479H35.7085L35.8289 32.2845L36.0354 32.0479H36.3064L35.9236 32.4737L36.1301 32.8695H35.8978L35.7816 32.6372Z" fill="#FAFAFA"/>
<path d="M37.0679 32.5254H36.5086C36.5086 32.534 36.5086 32.5426 36.5086 32.5469C36.5086 32.6028 36.5258 32.6458 36.556 32.6802C36.5861 32.7147 36.6248 32.7319 36.6721 32.7319C36.7452 32.7319 36.8055 32.6931 36.8442 32.6157L37.0421 32.6501C37.0034 32.7319 36.9517 32.7921 36.8872 32.8308C36.8227 32.8695 36.7495 32.891 36.6678 32.891C36.556 32.891 36.4656 32.8566 36.3968 32.7878C36.3279 32.719 36.2935 32.6243 36.2935 32.5082C36.2935 32.3963 36.3236 32.2974 36.3882 32.207C36.4742 32.0866 36.5947 32.0306 36.7538 32.0306C36.8528 32.0306 36.9345 32.0608 36.9948 32.1253C37.055 32.1898 37.0851 32.2759 37.0851 32.3877C37.0808 32.435 37.0765 32.4823 37.0679 32.5254ZM36.8786 32.392C36.8786 32.3834 36.8786 32.3748 36.8786 32.3705C36.8786 32.3103 36.8657 32.2629 36.8356 32.2328C36.8098 32.2027 36.771 32.1855 36.7237 32.1855C36.6764 32.1855 36.6377 32.2027 36.599 32.2371C36.5646 32.2716 36.5387 32.3232 36.5258 32.392H36.8786Z" fill="#FAFAFA"/>
<path d="M38.1133 32.5598L38.3284 32.5942C38.2939 32.6888 38.238 32.762 38.1692 32.8136C38.1003 32.8652 38.0186 32.8867 37.9283 32.8867C37.825 32.8867 37.739 32.8566 37.6788 32.7921C37.6185 32.7276 37.5884 32.6458 37.5884 32.534C37.5884 32.4436 37.6056 32.3619 37.6443 32.2802C37.6831 32.2027 37.739 32.1382 37.8121 32.0909C37.8853 32.0436 37.967 32.022 38.0573 32.022C38.1563 32.022 38.2337 32.0479 38.2896 32.0995C38.3456 32.1511 38.38 32.2156 38.3886 32.2974L38.1778 32.3189C38.1735 32.2716 38.1606 32.2371 38.1348 32.2156C38.1133 32.1941 38.0831 32.1812 38.0444 32.1812C38.0014 32.1812 37.9627 32.1984 37.924 32.2285C37.8853 32.2586 37.8594 32.3103 37.8379 32.3705C37.8164 32.4307 37.8078 32.4953 37.8078 32.5512C37.8078 32.5985 37.8207 32.6372 37.8422 32.663C37.868 32.6888 37.8939 32.7017 37.9326 32.7017C37.967 32.7017 38.0014 32.6888 38.0358 32.663C38.0702 32.6372 38.096 32.6114 38.1133 32.5598Z" fill="#FAFAFA"/>
<path d="M38.4574 32.5254C38.4574 32.3748 38.5004 32.25 38.5865 32.1597C38.6725 32.0694 38.7844 32.022 38.9263 32.022C39.0468 32.022 39.1414 32.0565 39.2102 32.121C39.2791 32.1898 39.3135 32.2759 39.3135 32.392C39.3135 32.5254 39.2705 32.6415 39.1844 32.7362C39.0984 32.8351 38.9866 32.8824 38.8403 32.8824C38.7628 32.8824 38.694 32.8652 38.6338 32.8351C38.5736 32.805 38.5305 32.762 38.5004 32.7017C38.4703 32.6415 38.4574 32.5942 38.4574 32.5254ZM39.0898 32.3705C39.0898 32.3189 39.0726 32.2759 39.0425 32.2457C39.0124 32.2156 38.9736 32.1984 38.922 32.1984C38.8747 32.1984 38.8317 32.2113 38.793 32.2414C38.7542 32.2716 38.7284 32.3146 38.7069 32.3705C38.6854 32.4264 38.6768 32.478 38.6768 32.5254C38.6768 32.5856 38.694 32.6329 38.7241 32.6673C38.7542 32.7017 38.7973 32.719 38.8446 32.719C38.9048 32.719 38.9564 32.6931 38.9995 32.6415C39.0597 32.5641 39.0898 32.4737 39.0898 32.3705ZM39.0081 31.8026L38.8704 31.9403H38.6897L38.9177 31.708H39.1242L39.2189 31.9403H39.064L39.0081 31.8026Z" fill="#FAFAFA"/>
<path d="M39.5501 32.0479H39.7609L39.7394 32.1554C39.791 32.1081 39.8426 32.078 39.8857 32.0565C39.933 32.0349 39.9803 32.0263 40.0319 32.0263C40.1008 32.0263 40.1524 32.0436 40.1911 32.0823C40.2298 32.121 40.2513 32.1726 40.2513 32.2371C40.2513 32.2673 40.2427 32.3189 40.2255 32.4006L40.1309 32.8652H39.9072L40.0061 32.4006C40.019 32.3318 40.0276 32.2888 40.0276 32.2759C40.0276 32.2457 40.019 32.2242 40.0018 32.207C39.9846 32.1898 39.9631 32.1812 39.933 32.1812C39.8986 32.1812 39.8641 32.1941 39.8254 32.2242C39.7867 32.2543 39.7566 32.2888 39.7308 32.3318C39.7136 32.3619 39.6964 32.4307 39.6749 32.5297L39.606 32.8652H39.3823L39.5501 32.0479Z" fill="#FAFAFA"/>
<path d="M40.3158 32.9125L40.5525 32.947C40.5525 32.9728 40.5568 32.99 40.5654 33.0029C40.574 33.0158 40.5869 33.0244 40.6041 33.033C40.6213 33.0416 40.6471 33.0459 40.6729 33.0459C40.7202 33.0459 40.7589 33.0373 40.7848 33.0201C40.8063 33.0072 40.8235 32.9814 40.8364 32.9513C40.845 32.9298 40.8536 32.8867 40.8665 32.8179L40.8751 32.7792C40.7977 32.8437 40.7202 32.8738 40.6385 32.8738C40.5568 32.8738 40.4922 32.8437 40.4406 32.7878C40.389 32.7319 40.3632 32.6458 40.3632 32.5383C40.3632 32.4436 40.3804 32.3533 40.4148 32.2716C40.4492 32.1898 40.5008 32.1296 40.5611 32.0909C40.6213 32.0522 40.6901 32.0306 40.7546 32.0306C40.8106 32.0306 40.8579 32.0436 40.9052 32.0737C40.9525 32.1038 40.987 32.1425 41.0128 32.1941L41.0429 32.0479H41.2494L41.1074 32.7319C41.0859 32.8437 41.0644 32.9211 41.0472 32.9685C41.03 33.0158 41.0128 33.0545 40.9913 33.0803C40.9697 33.1061 40.9439 33.1319 40.9138 33.1491C40.8837 33.1664 40.845 33.1836 40.802 33.1879C40.7589 33.1965 40.7116 33.2008 40.6643 33.2008C40.5482 33.2008 40.4621 33.1793 40.4019 33.1405C40.3417 33.1018 40.3115 33.033 40.3115 32.9427C40.3158 32.9341 40.3158 32.9254 40.3158 32.9125ZM40.5783 32.5168C40.5783 32.5813 40.5912 32.6286 40.6213 32.6587C40.6514 32.6931 40.6858 32.706 40.7288 32.706C40.7676 32.706 40.8063 32.6931 40.8407 32.663C40.8751 32.6329 40.9052 32.5899 40.9224 32.5383C40.9439 32.4823 40.9525 32.4307 40.9525 32.3791C40.9525 32.3189 40.9353 32.2759 40.9052 32.2371C40.8751 32.2027 40.8364 32.1855 40.7977 32.1855C40.7589 32.1855 40.7202 32.2027 40.6901 32.2328C40.66 32.2629 40.6299 32.3146 40.6084 32.3791C40.5869 32.4307 40.5783 32.4737 40.5783 32.5168Z" fill="#FAFAFA"/>
<path d="M41.8818 32.0479H42.0926L42.071 32.1554C42.1227 32.1081 42.1743 32.078 42.2173 32.0565C42.2646 32.0349 42.3119 32.0263 42.3636 32.0263C42.4324 32.0263 42.484 32.0436 42.5227 32.0823C42.5615 32.121 42.583 32.1726 42.583 32.2371C42.583 32.2673 42.5744 32.3189 42.5572 32.4006L42.4625 32.8652H42.2388L42.3378 32.4006C42.3507 32.3318 42.3593 32.2888 42.3593 32.2759C42.3593 32.2457 42.3507 32.2242 42.3335 32.207C42.3162 32.1898 42.2947 32.1812 42.2646 32.1812C42.2302 32.1812 42.1958 32.1941 42.1571 32.2242C42.1184 32.2543 42.0882 32.2888 42.0624 32.3318C42.0452 32.3619 42.028 32.4307 42.0065 32.5297L41.9377 32.8652H41.714L41.8818 32.0479Z" fill="#FAFAFA"/>
<path d="M42.6475 32.9125L42.8841 32.947C42.8841 32.9728 42.8884 32.99 42.897 33.0029C42.9056 33.0158 42.9185 33.0244 42.9357 33.033C42.9529 33.0416 42.9788 33.0459 43.0046 33.0459C43.0519 33.0459 43.0906 33.0373 43.1164 33.0201C43.1379 33.0072 43.1551 32.9814 43.168 32.9513C43.1766 32.9298 43.1852 32.8867 43.1982 32.8179L43.2068 32.7792C43.1293 32.8437 43.0519 32.8738 42.9701 32.8738C42.8884 32.8738 42.8239 32.8437 42.7723 32.7878C42.7206 32.7319 42.6948 32.6458 42.6948 32.5383C42.6948 32.4436 42.712 32.3533 42.7464 32.2716C42.7809 32.1898 42.8325 32.1296 42.8927 32.0909C42.9529 32.0522 43.0218 32.0306 43.0863 32.0306C43.1422 32.0306 43.1895 32.0436 43.2369 32.0737C43.2842 32.1038 43.3186 32.1425 43.3444 32.1941L43.3745 32.0479H43.581L43.4391 32.7319C43.4175 32.8437 43.396 32.9211 43.3788 32.9685C43.3616 33.0158 43.3444 33.0545 43.3229 33.0803C43.3014 33.1061 43.2756 33.1319 43.2455 33.1491C43.2154 33.1664 43.1766 33.1836 43.1336 33.1879C43.0906 33.1965 43.0433 33.2008 42.996 33.2008C42.8798 33.2008 42.7938 33.1793 42.7335 33.1405C42.6733 33.1018 42.6432 33.033 42.6432 32.9427C42.6432 32.9341 42.6432 32.9254 42.6475 32.9125ZM42.9056 32.5168C42.9056 32.5813 42.9185 32.6286 42.9486 32.6587C42.9788 32.6931 43.0132 32.706 43.0562 32.706C43.0949 32.706 43.1336 32.6931 43.168 32.663C43.2025 32.6329 43.2326 32.5899 43.2498 32.5383C43.2713 32.4823 43.2799 32.4307 43.2799 32.3791C43.2799 32.3189 43.2627 32.2759 43.2326 32.2371C43.2025 32.2027 43.1637 32.1855 43.125 32.1855C43.0863 32.1855 43.0476 32.2027 43.0175 32.2328C42.9874 32.2629 42.9572 32.3146 42.9357 32.3791C42.9142 32.4307 42.9056 32.4737 42.9056 32.5168Z" fill="#FAFAFA"/>
<path d="M43.8348 32.8695H43.6111L43.8477 31.7338H44.0714L43.9854 32.1382C44.037 32.0995 44.0843 32.0694 44.1274 32.0522C44.1704 32.0349 44.2177 32.0263 44.265 32.0263C44.3296 32.0263 44.3855 32.0436 44.4242 32.0823C44.4629 32.121 44.4801 32.1726 44.4801 32.2328C44.4801 32.2673 44.4715 32.3189 44.4586 32.3877L44.3597 32.8695H44.136L44.2392 32.3791C44.2521 32.3275 44.2564 32.2931 44.2564 32.2759C44.2564 32.25 44.2478 32.2285 44.2306 32.2113C44.2134 32.1941 44.1919 32.1855 44.1618 32.1855C44.1231 32.1855 44.0886 32.1984 44.0542 32.2242C44.0112 32.2586 43.9768 32.3017 43.951 32.349C43.9381 32.3748 43.9209 32.4393 43.8994 32.5426L43.8348 32.8695Z" fill="#FAFAFA"/>
<path d="M45.362 32.5254H44.8028C44.8028 32.534 44.8028 32.5426 44.8028 32.5469C44.8028 32.6028 44.82 32.6458 44.8501 32.6802C44.8802 32.7147 44.9189 32.7319 44.9662 32.7319C45.0394 32.7319 45.0996 32.6931 45.1383 32.6157L45.3362 32.6501C45.2975 32.7319 45.2459 32.7921 45.1813 32.8308C45.1168 32.8695 45.0437 32.891 44.9619 32.891C44.8501 32.891 44.7598 32.8566 44.6909 32.7878C44.6221 32.719 44.5877 32.6243 44.5877 32.5082C44.5877 32.3963 44.6178 32.2974 44.6823 32.207C44.7684 32.0866 44.8888 32.0306 45.048 32.0306C45.1469 32.0306 45.2287 32.0608 45.2889 32.1253C45.3491 32.1898 45.3792 32.2759 45.3792 32.3877C45.3792 32.435 45.3749 32.4823 45.362 32.5254ZM44.8329 32.9599H45.0523L45.0093 33.175H44.7899L44.8329 32.9599ZM45.1125 31.8026L44.9749 31.9403H44.7942L45.0222 31.708H45.2287L45.3233 31.9403H45.1684L45.1125 31.8026ZM45.177 32.392C45.177 32.3834 45.177 32.3748 45.177 32.3705C45.177 32.3103 45.1641 32.2629 45.134 32.2328C45.1082 32.2027 45.0695 32.1855 45.0222 32.1855C44.9748 32.1855 44.9361 32.2027 44.8974 32.2371C44.863 32.2716 44.8372 32.3232 44.8243 32.392H45.177Z" fill="#FAFAFA"/>
</g>
<defs>
<clipPath id="clip0_1256_30531">
<rect width="35.3792" height="9.70088" fill="white" transform="translate(10 23.5)"/>
</clipPath>
</defs>
</svg>
