<svg width="56" height="56" viewBox="0 0 56 56" fill="none" xmlns="http://www.w3.org/2000/svg">
<rect width="56" height="56" rx="8" fill="#1E8AE7"/>
<path fill-rule="evenodd" clip-rule="evenodd" d="M16.5714 13.7144C14.0466 13.7144 12 15.761 12 18.2858C12 20.8104 14.0466 22.8572 16.5714 22.8572H26.468L15.2571 34.3161C13.4588 36.154 13.4911 39.1018 15.3291 40.9C15.9582 41.5156 16.7174 41.9166 17.5161 42.1042C17.9184 42.2223 18.3442 42.2856 18.7847 42.2856H39.4286C41.9534 42.2856 44 40.2388 44 37.7142C44 35.1894 41.9534 33.1427 39.4286 33.1427H29.4321L39.9313 22.4114C40.3959 21.9365 40.7384 21.3875 40.959 20.8034C41.4363 20.0814 41.7142 19.216 41.7142 18.2858C41.7142 15.761 39.6674 13.7144 37.1428 13.7144H16.5714Z" fill="#F0F0F0"/>
<path d="M43.9996 37.7142C43.9996 35.1895 41.953 33.1428 39.4282 33.1428H30.6663C25.7851 33.1428 23.7136 39.3569 27.6188 42.2856H39.4282C41.953 42.2856 43.9996 40.239 43.9996 37.7142Z" fill="url(#paint0_linear_1256_30554)"/>
<path d="M12 18.2858C12 15.761 14.0466 13.7144 16.5714 13.7144H23.2006C28.0313 13.7144 30.2356 19.74 26.5453 22.8572H16.5714C14.0466 22.8572 12 20.8104 12 18.2858Z" fill="url(#paint1_linear_1256_30554)"/>
<defs>
<linearGradient id="paint0_linear_1256_30554" x1="43.9996" y1="38.2857" x2="25.337" y2="38.2857" gradientUnits="userSpaceOnUse">
<stop stop-color="white"/>
<stop offset="1" stop-color="#E0E0E0"/>
</linearGradient>
<linearGradient id="paint1_linear_1256_30554" x1="12" y1="18.8572" x2="28.5714" y2="18.8572" gradientUnits="userSpaceOnUse">
<stop stop-color="white"/>
<stop offset="1" stop-color="#E1E1E1"/>
</linearGradient>
</defs>
</svg>
