<svg width="32" height="32" viewBox="0 0 32 32" fill="none" xmlns="http://www.w3.org/2000/svg">
<g clip-path="url(#clip0_983_71861)">
<path d="M29.6449 27.3017C29.2672 24.9529 28.4895 21.9273 26.9298 20.8521C25.8647 20.1178 22.1485 18.1322 20.5617 17.2846L20.5342 17.2699C20.3528 17.173 20.1313 17.1924 19.9695 17.3195C19.1383 17.9721 18.2276 18.4119 17.263 18.6267C17.0926 18.6646 16.9528 18.7857 16.8908 18.949L16 21.2969L15.1093 18.949C15.0473 18.7858 14.9075 18.6647 14.7371 18.6267C13.7725 18.4118 12.8618 17.9721 12.0306 17.3195C11.8688 17.1924 11.6473 17.173 11.4659 17.2699L11.4384 17.2846C9.85158 18.1323 6.13543 20.1178 5.07032 20.8521C3.51056 21.9273 2.73291 24.9529 2.35521 27.3017C2.34139 27.3875 2.34945 27.4753 2.37837 27.5573C2.44243 27.7382 4.08301 31.9781 16 31.9998C27.9171 31.9781 29.5577 27.7382 29.6217 27.5573C29.6507 27.4754 29.6587 27.3875 29.6449 27.3017ZM23.7487 25.5939H19.0507V24.6045H23.7487V25.5939Z" fill="url(#paint0_linear_983_71861)"/>
<path d="M15.9999 18.0451C18.021 18.0451 23.3074 15.3034 23.3074 9.0227C23.3074 8.13469 23.2857 7.27687 23.2126 6.46619C23.0924 4.87064 22.7656 3.45666 21.9518 2.37298C20.9187 0.913152 19.1175 0.0169004 15.9999 -0.000488281C12.8824 0.0169004 11.0812 0.913152 10.048 2.37307C9.23418 3.45675 8.90736 4.87073 8.7872 6.46628C8.71407 7.27687 8.69238 8.13469 8.69238 9.02279C8.69247 15.3034 13.9789 18.0451 15.9999 18.0451ZM20.692 9.02105C20.7837 9.16154 20.8483 9.47051 20.8489 9.66004C20.8509 10.0897 20.7672 10.8526 20.1858 11.1345C19.9107 11.2677 19.4956 11.3472 19.0754 11.3472C18.276 11.3472 17.6406 11.0813 17.3757 10.6356C16.8042 9.6756 16.9952 9.11916 16.9968 9.11468C17.0117 9.07789 17.1863 8.75308 18.726 8.66339C18.9922 8.64793 19.2171 8.64042 19.4138 8.64042C20.2712 8.64051 20.5385 8.78621 20.692 9.02105ZM15.9999 2.91139C16.7421 2.92137 17.4877 3.0516 18.3236 3.30465C18.1081 3.84928 18.0001 4.12164 17.7846 4.66619C17.1245 4.47967 16.5599 4.38275 15.9999 4.37314C15.44 4.38275 14.8754 4.47967 14.2153 4.66619C13.9997 4.12164 13.8918 3.84928 13.6763 3.30465C14.5122 3.05169 15.2578 2.92146 15.9999 2.91139ZM15.9999 6.32626C18.3646 6.3571 19.6146 7.42257 20.3737 8.08865C20.0539 8.05845 19.7177 8.04307 19.3671 8.04307C19.0709 8.04307 18.7648 8.05424 18.4578 8.0763L18.404 8.08014C17.7781 8.12434 17.4332 8.14878 17.0142 8.33649C16.9293 8.37447 16.8352 8.42014 16.7338 8.47212C16.5899 8.54634 16.3758 8.62926 16.2664 8.65333C16.2194 8.66367 16.1229 8.68902 15.9999 8.68902C15.8769 8.68902 15.7803 8.66376 15.7333 8.65333C15.6239 8.62917 15.4098 8.54625 15.2659 8.47212C15.1646 8.42014 15.0704 8.37447 14.9856 8.33649C14.5666 8.14878 14.2217 8.12444 13.5958 8.08014L13.542 8.0763C13.235 8.05424 12.929 8.04307 12.6327 8.04307C12.2821 8.04307 11.946 8.05845 11.6261 8.08865C12.3853 7.42248 13.6353 6.3571 15.9999 6.32626ZM11.308 9.02105C11.4615 8.78621 11.7288 8.64051 12.5863 8.64051C12.7829 8.64051 13.0078 8.64802 13.274 8.66349C14.8137 8.75308 14.9883 9.07789 15.0033 9.11477C15.0049 9.11925 15.1959 9.67569 14.6244 10.6357C14.3594 11.0813 13.724 11.3473 12.9247 11.3473C12.5044 11.3473 12.0894 11.2678 11.8143 11.1346C11.2329 10.8527 11.1492 10.0898 11.1511 9.66013C11.1517 9.4705 11.2163 9.16154 11.308 9.02105ZM9.79327 7.64194C9.85532 7.77758 10.0646 8.19491 10.3906 8.43762C10.3374 8.50937 10.2988 8.60025 10.2921 8.71492C10.2887 8.77642 10.2908 8.88387 10.2931 8.97978L10.2933 8.99286C10.2946 9.04759 10.2956 9.09656 10.2951 9.12493C10.2896 9.35061 10.3797 9.4479 10.4394 9.51224C10.4549 9.52926 10.466 9.54143 10.4724 9.55232C10.4929 9.58673 10.5076 9.63048 10.5162 9.68246C10.7431 11.0597 10.7985 11.2975 11.4227 11.6262C11.7121 11.7786 12.2992 11.8809 12.8837 11.8809C13.3394 11.8809 13.9984 11.8206 14.5497 11.5329C15.3682 11.1054 15.6664 9.66087 15.6788 9.59964C15.6852 9.55443 15.7489 9.48734 15.9526 9.48734H16.0474C16.2512 9.48734 16.3148 9.55434 16.3212 9.59964C16.3335 9.66087 16.6318 11.1054 17.4503 11.5329C18.0016 11.8206 18.6606 11.8809 19.1163 11.8809C19.7008 11.8809 20.2879 11.7786 20.5773 11.6262C21.2015 11.2975 21.2569 11.0597 21.4838 9.68246C21.4924 9.63057 21.507 9.58673 21.5275 9.55232C21.5339 9.54152 21.5451 9.52926 21.5606 9.51224C21.6203 9.4479 21.7104 9.35052 21.7049 9.12493C21.7043 9.09647 21.7054 9.0475 21.7066 8.99286L21.7069 8.97978C21.7091 8.88387 21.7113 8.77642 21.7078 8.71492C21.7012 8.60025 21.6626 8.50937 21.6094 8.43762C21.9354 8.19491 22.1448 7.77758 22.2067 7.64194C22.2241 8.0989 22.2304 8.56144 22.2304 9.0227C22.2304 12.1348 20.8562 14.0631 19.7034 15.1327C18.3073 16.428 16.5605 16.966 15.9999 16.966C15.4394 16.966 13.6926 16.428 12.2965 15.1327C11.1437 14.0631 9.76948 12.1348 9.76948 9.0227C9.76957 8.56144 9.77588 8.0989 9.79327 7.64194Z" fill="url(#paint1_linear_983_71861)"/>
</g>
<defs>
<linearGradient id="paint0_linear_983_71861" x1="2.34863" y1="24.6043" x2="29.6515" y2="24.6043" gradientUnits="userSpaceOnUse">
<stop stop-color="#CE80FF"/>
<stop offset="0.504032" stop-color="#80F0FF"/>
<stop offset="1" stop-color="#B1FF80"/>
</linearGradient>
<linearGradient id="paint1_linear_983_71861" x1="8.69238" y1="9.02229" x2="23.3074" y2="9.02229" gradientUnits="userSpaceOnUse">
<stop stop-color="#CE80FF"/>
<stop offset="0.504032" stop-color="#80F0FF"/>
<stop offset="1" stop-color="#B1FF80"/>
</linearGradient>
<clipPath id="clip0_983_71861">
<rect width="32" height="32" fill="white"/>
</clipPath>
</defs>
</svg>
