<svg width="32" height="32" viewBox="0 0 32 32" fill="none" xmlns="http://www.w3.org/2000/svg">
<path fill-rule="evenodd" clip-rule="evenodd" d="M18.3561 0.844525C18.7625 0.894943 19.1836 1.0113 19.5805 1.31221C19.9724 1.60935 20.2107 1.98453 20.3858 2.37178C20.5394 2.71143 20.6722 3.12753 20.8099 3.55918L20.8265 3.61126C20.8713 3.75164 20.9175 3.89783 20.9649 4.04938C21.1278 4.57017 21.5273 5.04486 22.0898 5.37471C22.6227 5.68715 23.174 5.79267 23.6634 5.68236C23.864 5.63713 24.0564 5.59461 24.2393 5.55485L24.2902 5.54378C24.7307 5.44797 25.1501 5.35673 25.5154 5.32392C25.9291 5.28674 26.361 5.31349 26.8078 5.51694C27.2608 5.72326 27.5774 6.04512 27.8348 6.39341C28.063 6.70215 28.2887 7.09531 28.5266 7.50993L29.5246 9.24831C29.7623 9.66213 29.9883 10.0558 30.1407 10.4103C30.312 10.8088 30.439 11.263 30.3872 11.7913C30.3358 12.315 30.1295 12.727 29.8844 13.0779C29.6699 13.3848 29.3783 13.7083 29.0775 14.0419L29.0402 14.0832C28.9172 14.2198 28.7875 14.3628 28.6515 14.5114C28.3341 14.8583 28.1491 15.385 28.1491 16.0002C28.1491 16.6144 28.3339 17.1401 28.6506 17.4864C28.7872 17.6356 28.9175 17.7792 29.041 17.9163L29.0785 17.9578C29.3791 18.2913 29.6707 18.6147 29.8851 18.9215C30.1302 19.2723 30.3365 19.6843 30.3879 20.2079C30.4397 20.7362 30.3128 21.1903 30.1415 21.5888C29.9892 21.9433 29.7632 22.3369 29.5257 22.7506L28.5278 24.4891C28.2898 24.9039 28.0642 25.2971 27.836 25.6059C27.5786 25.9543 27.262 26.2762 26.8089 26.4826C26.3621 26.686 25.9302 26.7128 25.5164 26.6756C25.1512 26.6428 24.7317 26.5516 24.2911 26.4558L24.2175 26.4397C24.0417 26.4015 23.8573 26.3607 23.6653 26.3174C23.1754 26.207 22.6236 26.3127 22.0903 26.6254C21.5273 26.9556 21.1275 27.4306 20.9645 27.9519C20.9172 28.103 20.8711 28.2488 20.8264 28.3889L20.8098 28.4409C20.6721 28.8725 20.5394 29.2886 20.3858 29.6282C20.2107 30.0154 19.9724 30.3906 19.5806 30.6877C19.1838 30.9886 18.7627 31.105 18.3564 31.1554C17.9961 31.2002 17.5697 31.2001 17.1218 31.2H14.8767C14.4288 31.2001 14.0025 31.2002 13.6422 31.1554C13.2359 31.105 12.8149 30.9886 12.4181 30.6877C12.0262 30.3906 11.7879 30.0154 11.6128 29.6282C11.4592 29.2886 11.3265 28.8725 11.1888 28.441L11.1722 28.3889C11.1275 28.2486 11.0813 28.1026 11.034 27.9512C10.8711 27.4304 10.4715 26.9557 9.90895 26.6258C9.37608 26.3134 8.82476 26.2079 8.33532 26.3182C8.13452 26.3635 7.94204 26.406 7.75896 26.4458L7.70808 26.4569C7.26751 26.5527 6.84802 26.644 6.48276 26.6768C6.06897 26.714 5.63699 26.6872 5.19021 26.4837C4.73714 26.2774 4.42052 25.9554 4.1631 25.6071C3.93491 25.2983 3.70931 24.9051 3.47137 24.4904L2.47354 22.7518C2.23597 22.338 2.01 21.9444 1.85768 21.5899C1.68645 21.1914 1.55948 20.7373 1.61133 20.209C1.66273 19.6854 1.86901 19.2734 2.11416 18.9226C2.32859 18.6158 2.62023 18.2922 2.92097 17.9587L2.95819 17.9174C3.08126 17.7808 3.21107 17.6377 3.34711 17.489C3.66446 17.1421 3.84946 16.6155 3.84946 16.0002C3.84946 15.3843 3.66428 14.8569 3.34652 14.5096C3.21091 14.3613 3.0815 14.2187 2.95879 14.0825L2.92154 14.0412C2.62086 13.7077 2.32927 13.3842 2.11487 13.0774C1.86975 12.7266 1.66348 12.3147 1.61207 11.7912C1.56019 11.2629 1.68711 10.8089 1.85829 10.4104C2.01056 10.0559 2.23647 9.66235 2.47397 9.24859L3.47163 7.50993C3.70957 7.09514 3.93515 6.70189 4.16334 6.39303C4.42076 6.0446 4.73739 5.7226 5.19049 5.51619C5.63731 5.31264 6.06932 5.28588 6.48316 5.32305C6.84846 5.35587 7.268 5.44712 7.70862 5.54297L7.75952 5.55404C7.77896 5.55826 7.78602 5.55792 7.78602 5.55792C7.78935 5.55776 7.79041 5.55771 7.81317 5.56572C7.98031 5.60217 8.15504 5.64087 8.33656 5.68179C8.82573 5.79206 9.37675 5.68663 9.90935 5.37437C10.4717 5.04467 10.8711 4.57017 11.0339 4.0496C11.0813 3.89804 11.1275 3.75184 11.1723 3.61145L11.1889 3.55938C11.3266 3.12785 11.4593 2.71185 11.6129 2.37227C11.788 1.98511 12.0262 1.61001 12.418 1.31289C12.8147 1.012 13.2357 0.895585 13.642 0.845087C14.0022 0.800314 14.4285 0.800326 14.8764 0.800337L17.1215 0.800061C17.5694 0.79994 17.9958 0.799824 18.3561 0.844525ZM15.9996 21.2C18.8715 21.2 21.1996 18.8719 21.1996 16C21.1996 13.1282 18.8715 10.8 15.9996 10.8C13.1277 10.8 10.7996 13.1282 10.7996 16C10.7996 18.8719 13.1277 21.2 15.9996 21.2Z" fill="url(#paint0_linear_983_71887)"/>
<defs>
<linearGradient id="paint0_linear_983_71887" x1="1.59961" y1="16.0001" x2="30.3996" y2="16.0001" gradientUnits="userSpaceOnUse">
<stop stop-color="#CE80FF"/>
<stop offset="0.504032" stop-color="#80F0FF"/>
<stop offset="1" stop-color="#B1FF80"/>
</linearGradient>
</defs>
</svg>
