<svg width="32" height="32" viewBox="0 0 32 32" fill="none" xmlns="http://www.w3.org/2000/svg">
<path fill-rule="evenodd" clip-rule="evenodd" d="M19.6892 7.89282e-07H12.3113C11.9979 -1.30213e-05 11.7098 -2.5712e-05 11.468 0.0167585C11.2081 0.0347983 10.9224 0.0758964 10.632 0.198275C10.0047 0.462631 9.50637 0.96969 9.24655 1.6079C9.15918 1.8225 9.11397 2.03462 9.08896 2.23596C8.35086 2.24587 7.7775 2.28332 7.26615 2.42273C5.37309 2.93882 3.89443 4.44328 3.38719 6.36937C3.19957 7.0818 3.19984 7.91254 3.20023 9.12997L3.20027 22.0352C3.20024 24.0706 3.20021 25.7113 3.37072 27.0017C3.54775 28.3414 3.92647 29.4694 4.80699 30.3652C5.6875 31.2611 6.79616 31.6465 8.11288 31.8266C9.3811 32.0001 10.9937 32 12.9942 32H19.0063C21.0068 32 22.6193 32.0001 23.8875 31.8266C25.2042 31.6465 26.3129 31.2611 27.1934 30.3652C28.0739 29.4694 28.4526 28.3414 28.6297 27.0017C28.8002 25.7113 28.8001 24.0706 28.8001 22.0352L28.8002 9.12992C28.8006 7.91251 28.8008 7.08179 28.6132 6.36937C28.106 4.44328 26.6273 2.93882 24.7342 2.42273C24.2229 2.28332 23.6496 2.24587 22.9115 2.23596C22.8865 2.03462 22.8412 1.8225 22.7539 1.6079C22.4941 0.96969 21.9957 0.462631 21.3684 0.198275C21.078 0.0758964 20.7923 0.0347983 20.5324 0.0167585C20.2906 -2.5712e-05 20.0025 -1.30213e-05 19.6892 7.89282e-07ZM11.2758 2.45777C11.3128 2.3702 11.3814 2.3004 11.4674 2.26278C11.4782 2.26 11.5198 2.25092 11.6175 2.24413C11.7755 2.23316 11.9874 2.23256 12.3432 2.23256H19.6575C20.0133 2.23256 20.2252 2.23316 20.3832 2.24413C20.481 2.25092 20.5225 2.26 20.5333 2.26278C20.6193 2.3004 20.6879 2.3702 20.7249 2.45776C20.7277 2.46871 20.7366 2.51098 20.7432 2.61045C20.754 2.77121 20.7546 2.98682 20.7546 3.34884C20.7546 3.71086 20.754 3.92647 20.7432 4.08722C20.7366 4.18669 20.7277 4.22896 20.7249 4.23991C20.6879 4.32748 20.6193 4.39728 20.5333 4.4349C20.5225 4.43768 20.481 4.44676 20.3832 4.45355C20.2252 4.46451 20.0133 4.46512 19.6575 4.46512H12.3432C11.9874 4.46512 11.7755 4.46451 11.6175 4.45355C11.5198 4.44676 11.4782 4.43768 11.4674 4.4349C11.3814 4.39728 11.3128 4.32748 11.2758 4.23991C11.2731 4.22897 11.2641 4.18669 11.2575 4.08722C11.2467 3.92647 11.2461 3.71086 11.2461 3.34884C11.2461 2.98682 11.2467 2.77121 11.2575 2.61045C11.2641 2.51099 11.2731 2.46871 11.2758 2.45777ZM9.72588 14.522C9.72588 13.8502 10.2607 13.3022 10.9245 13.3022H21.0756C21.7394 13.3022 22.2743 13.8502 22.2743 14.522C22.2743 15.1938 21.7394 15.7417 21.0756 15.7417H10.9245C10.2607 15.7417 9.72588 15.1938 9.72588 14.522ZM9.72588 20.4341C9.72588 19.7623 10.2607 19.2144 10.9245 19.2144H21.0756C21.7394 19.2144 22.2743 19.7623 22.2743 20.4341C22.2743 21.1059 21.7394 21.6538 21.0756 21.6538H10.9245C10.2607 21.6538 9.72588 21.1059 9.72588 20.4341Z" fill="url(#paint0_linear_983_71881)"/>
<defs>
<linearGradient id="paint0_linear_983_71881" x1="3.2002" y1="16" x2="28.8002" y2="16" gradientUnits="userSpaceOnUse">
<stop stop-color="#CE80FF"/>
<stop offset="0.504032" stop-color="#80F0FF"/>
<stop offset="1" stop-color="#B1FF80"/>
</linearGradient>
</defs>
</svg>
