<svg width="32" height="32" viewBox="0 0 32 32" fill="none" xmlns="http://www.w3.org/2000/svg">
<path fill-rule="evenodd" clip-rule="evenodd" d="M16.6788 0.000110198C17.0939 -0.000294284 17.4739 -0.000664516 17.8286 0.020045L17.8286 4.17058C17.8285 5.50785 17.8285 6.62297 17.9454 7.50822C18.0689 8.44261 18.3405 9.28622 19.0068 9.96412C19.6731 10.642 20.5022 10.9184 21.4206 11.044C22.2907 11.163 23.3867 11.163 24.701 11.1629L28.7805 11.1629C28.8008 11.5238 28.8005 11.9104 28.8001 12.3328L28.8 19.0609C28.8 21.7961 28.8 23.9626 28.576 25.6581C28.3454 27.4031 27.8595 28.8155 26.7648 29.9293C25.6701 31.0432 24.2819 31.5375 22.5668 31.7721C20.9004 32 18.771 32 16.0827 32H15.9175C13.2292 32 11.0998 32 9.43335 31.7721C7.71827 31.5375 6.33011 31.0432 5.23537 29.9293C4.14063 28.8155 3.6548 27.4031 3.42421 25.6581C3.20016 23.9626 3.20017 21.796 3.2002 19.0608V12.9394C3.20017 10.2042 3.20016 8.03765 3.42421 6.3421C3.6548 4.59711 4.14063 3.18473 5.23537 2.0709C6.33011 0.957062 7.71827 0.462751 9.43335 0.228144C11.0998 0.000181437 13.2292 0.000200242 15.9176 0.00022384L16.6788 0.000110198ZM16.8803 16.4801C16.8803 15.8173 16.343 15.2801 15.6803 15.2801C15.0175 15.2801 14.4803 15.8173 14.4803 16.4801V21.583L13.3288 20.4315C12.8602 19.9629 12.1004 19.9629 11.6317 20.4315C11.1631 20.9002 11.1631 21.66 11.6317 22.1286L14.8317 25.3286C15.3004 25.7972 16.0602 25.7972 16.5288 25.3286L19.7288 22.1286C20.1974 21.66 20.1974 20.9002 19.7288 20.4315C19.2602 19.9629 18.5004 19.9629 18.0317 20.4315L16.8803 21.583V16.4801Z" fill="url(#paint0_linear_983_71876)"/>
<path d="M21.2905 1.94363C20.835 1.47936 20.4395 1.07618 20.0228 0.763077L20.0228 4.0932C20.0228 5.528 20.0251 6.49181 20.1201 7.21075C20.2109 7.89757 20.3677 8.19152 20.5584 8.38548C20.749 8.57944 21.0379 8.73903 21.713 8.83137C22.4196 8.92803 23.3669 8.9304 24.7771 8.9304H28.0502C27.7424 8.50648 27.3462 8.10408 26.8899 7.64073L21.2905 1.94363Z" fill="url(#paint1_linear_983_71876)"/>
<defs>
<linearGradient id="paint0_linear_983_71876" x1="3.2002" y1="16" x2="28.8002" y2="16" gradientUnits="userSpaceOnUse">
<stop stop-color="#CE80FF"/>
<stop offset="0.504032" stop-color="#80F0FF"/>
<stop offset="1" stop-color="#B1FF80"/>
</linearGradient>
<linearGradient id="paint1_linear_983_71876" x1="3.2002" y1="16" x2="28.8002" y2="16" gradientUnits="userSpaceOnUse">
<stop stop-color="#CE80FF"/>
<stop offset="0.504032" stop-color="#80F0FF"/>
<stop offset="1" stop-color="#B1FF80"/>
</linearGradient>
</defs>
</svg>
