<svg width="32" height="32" viewBox="0 0 32 32" fill="none" xmlns="http://www.w3.org/2000/svg">
<path d="M9.45927 32C8.46175 30.3503 7.34914 28.7964 6.52427 27.0891C3.35906 20.6053 3.07131 13.9487 5.96796 7.34978C8.84541 0.808356 16.9982 -2.33767 23.4245 1.9977C26.9542 4.3764 28.2587 7.86772 28.0093 12.0304C27.7407 16.385 25.5155 19.4351 21.7556 21.4493C19.8373 22.466 17.9382 23.5019 15.9815 24.4611C12.8739 25.9957 10.5911 28.2018 9.80457 31.6931C9.7662 31.7698 9.68947 31.8082 9.45927 32ZM22.6188 11.2631C22.6188 8.09792 20.01 5.37392 16.9982 5.41229C13.6604 5.45065 11.0131 8.05955 11.0131 11.2631C11.0131 14.4283 13.6795 17.018 16.9407 17.0564C19.9908 17.114 22.5997 14.4283 22.6188 11.2631Z" fill="url(#paint0_linear_983_71855)"/>
<path d="M14.6387 31.3478C14.1591 28.2977 16.9407 24.6721 19.6647 24.6145C21.7748 24.5762 23.3286 25.9957 23.2135 27.8948C23.0792 29.9282 21.3911 31.2902 19.3002 31.0025C17.7463 30.7915 16.2117 30.5037 14.6387 31.3478Z" fill="url(#paint1_linear_983_71855)"/>
<defs>
<linearGradient id="paint0_linear_983_71855" x1="3.96191" y1="16" x2="28.039" y2="16" gradientUnits="userSpaceOnUse">
<stop stop-color="#CE80FF"/>
<stop offset="0.504032" stop-color="#80F0FF"/>
<stop offset="1" stop-color="#B1FF80"/>
</linearGradient>
<linearGradient id="paint1_linear_983_71855" x1="3.96191" y1="16" x2="28.039" y2="16" gradientUnits="userSpaceOnUse">
<stop stop-color="#CE80FF"/>
<stop offset="0.504032" stop-color="#80F0FF"/>
<stop offset="1" stop-color="#B1FF80"/>
</linearGradient>
</defs>
</svg>
