<svg width="16" height="16" viewBox="0 0 16 16" fill="none" xmlns="http://www.w3.org/2000/svg">
<path fill-rule="evenodd" clip-rule="evenodd" d="M7.1911 0.80007C6.77908 0.799874 6.47543 0.799729 6.21115 0.864132C5.39365 1.06335 4.75537 1.70164 4.55615 2.51913C4.5178 2.67651 4.50234 2.84785 4.49614 3.04772C4.33563 3.05708 4.18381 3.06914 4.04013 3.0847C3.38464 3.15569 2.83741 3.30424 2.35873 3.64473C1.97572 3.91715 1.64687 4.26722 1.39096 4.67493C1.07111 5.1845 0.931557 5.76704 0.864876 6.46482C0.836801 6.7586 0.820838 7.08436 0.811762 7.44623L7.44596 7.44623V7.26154C7.44596 6.95566 7.69392 6.7077 7.9998 6.7077C8.30569 6.7077 8.55365 6.95566 8.55365 7.26154V7.44623L15.1878 7.44623C15.1788 7.08436 15.1628 6.7586 15.1347 6.46482C15.0681 5.76704 14.9285 5.1845 14.6087 4.67493C14.3527 4.26722 14.0239 3.91715 13.6409 3.64473C13.1622 3.30424 12.615 3.15569 11.9595 3.0847C11.8158 3.06914 11.664 3.05708 11.5035 3.04772C11.4973 2.84785 11.4818 2.67651 11.4435 2.51913C11.2442 1.70164 10.606 1.06335 9.78845 0.864132C9.52417 0.799729 9.22052 0.799874 8.80851 0.80007H7.1911ZM10.3939 3.01753C10.3892 2.90506 10.3812 2.83845 10.3673 2.7814C10.266 2.36595 9.94164 2.04157 9.52619 1.94033C9.40893 1.91175 9.25132 1.90778 8.73826 1.90778H7.26134C6.74828 1.90778 6.59067 1.91175 6.47341 1.94033C6.05796 2.04157 5.73359 2.36595 5.63235 2.7814C5.61844 2.83845 5.61036 2.90506 5.60573 3.01753C5.88176 3.01543 6.17675 3.01543 6.49217 3.01543H9.50744C9.82285 3.01543 10.1178 3.01543 10.3939 3.01753Z" fill="#92929E"/>
<path d="M0.799805 9.07164C0.799805 8.89298 0.799805 8.72049 0.800106 8.55393H7.44596V8.73847C7.44596 9.04435 7.69392 9.29231 7.9998 9.29231C8.30569 9.29231 8.55365 9.04435 8.55365 8.73847V8.55393H15.1995C15.1998 8.72072 15.1998 8.89346 15.1998 9.07238V9.14041C15.1998 10.2168 15.1998 11.0696 15.1347 11.7507C15.0681 12.4484 14.9285 13.031 14.6087 13.5406C14.3527 13.9483 14.0239 14.2983 13.6409 14.5708C13.1622 14.9112 12.615 15.0598 11.9595 15.1308C11.3197 15.2001 10.5186 15.2001 9.5075 15.2001H6.49216C5.48108 15.2001 4.67989 15.2001 4.04013 15.1308C3.38464 15.0598 2.83741 14.9112 2.35873 14.5708C1.97572 14.2983 1.64687 13.9483 1.39096 13.5406C1.07111 13.031 0.931557 12.4484 0.864876 11.7507C0.799794 11.0696 0.799799 10.2168 0.799805 9.14043V9.07164Z" fill="#92929E"/>
</svg>
