<svg width="20" height="20" viewBox="0 0 20 20" fill="none" xmlns="http://www.w3.org/2000/svg">
<path d="M1.33354 6.47583C1 7.33717 1 8.31138 1 10.2598C1 13.6243 1 15.3066 1.78613 16.5297C2.17705 17.1379 2.6966 17.6541 3.30866 18.0426C4.03994 18.5067 4.93434 18.695 6.25 18.7715V14.6374C6.25 12.5664 7.92893 10.8874 10 10.8874C12.0711 10.8874 13.75 12.5664 13.75 14.6374V18.7715C15.0657 18.695 15.9601 18.5067 16.6913 18.0426C17.3034 17.6541 17.823 17.1379 18.2139 16.5297C19 15.3066 19 13.6243 19 10.2598C19 8.31138 19 7.33717 18.6665 6.47583C18.4983 6.04157 18.2696 5.63293 17.987 5.2619C17.4265 4.52598 16.5936 4.01208 14.9278 2.98429L14.7475 2.87305C12.7009 1.61029 11.6775 0.978904 10.5545 0.854379C10.186 0.813514 9.81402 0.813514 9.44549 0.854379C8.32248 0.978904 7.29915 1.61029 5.25249 2.87305L5.0722 2.98429C3.40637 4.01208 2.57345 4.52598 2.01299 5.2619C1.73042 5.63293 1.5017 6.04157 1.33354 6.47583Z" fill="#92929E"/>
<path d="M12.25 18.8171V14.6374C12.25 13.3948 11.2426 12.3874 10 12.3874C8.75736 12.3874 7.75 13.3948 7.75 14.6374V18.8171C8.30953 18.8237 8.92887 18.8237 9.61843 18.8237H10.3816C11.0711 18.8237 11.6905 18.8237 12.25 18.8171Z" fill="#92929E"/>
</svg>
