<svg width="32" height="32" viewBox="0 0 32 32" fill="none" xmlns="http://www.w3.org/2000/svg">
<path fill-rule="evenodd" clip-rule="evenodd" d="M3.78599 14.1032C3.2002 15.3787 3.2002 17.0088 3.2002 20.269C3.2002 23.5292 3.2002 25.1593 3.78599 26.4349C4.48461 27.9561 5.75442 29.171 7.34428 29.8395C8.67739 30.4 10.3811 30.4 13.7884 30.4H21.412C24.8193 30.4 26.523 30.4 27.8561 29.8395C29.446 29.171 30.7158 27.9561 31.4144 26.4349C32.0002 25.1593 32.0002 23.5292 32.0002 20.269C32.0002 17.0088 32.0002 15.3787 31.4144 14.1032C30.7158 12.582 29.446 11.3671 27.8561 10.6986C26.523 10.1381 24.8193 10.1381 21.412 10.1381H13.7884C10.3811 10.1381 8.67739 10.1381 7.34428 10.6986C5.75442 11.3671 4.48461 12.582 3.78599 14.1032ZM17.6002 23.2558C19.5148 23.2558 21.0669 21.7707 21.0669 19.9388C21.0669 18.1069 19.5148 16.6219 17.6002 16.6219C15.6856 16.6219 14.1335 18.1069 14.1335 19.9388C14.1335 21.7707 15.6856 23.2558 17.6002 23.2558Z" fill="url(#paint0_linear_1014_135948)"/>
<path fill-rule="evenodd" clip-rule="evenodd" d="M17.6002 4.08768C13.8999 4.08768 10.9002 6.95782 10.9002 10.4983H8.3002C8.3002 5.5839 12.4639 1.59998 17.6002 1.59998C19.5495 1.59998 21.3622 2.17515 22.8583 3.15788C23.4502 3.54669 23.6007 4.32099 23.1943 4.88734C22.7879 5.45368 21.9787 5.5976 21.3868 5.2088C20.31 4.50149 19.0076 4.08768 17.6002 4.08768Z" fill="url(#paint1_linear_1014_135948)"/>
<defs>
<linearGradient id="paint0_linear_1014_135948" x1="3.2002" y1="16" x2="32.0002" y2="16" gradientUnits="userSpaceOnUse">
<stop stop-color="#CE80FF"/>
<stop offset="0.504032" stop-color="#80F0FF"/>
<stop offset="1" stop-color="#B1FF80"/>
</linearGradient>
<linearGradient id="paint1_linear_1014_135948" x1="3.2002" y1="16" x2="32.0002" y2="16" gradientUnits="userSpaceOnUse">
<stop stop-color="#CE80FF"/>
<stop offset="0.504032" stop-color="#80F0FF"/>
<stop offset="1" stop-color="#B1FF80"/>
</linearGradient>
</defs>
</svg>
