<svg width="32" height="32" viewBox="0 0 32 32" fill="none" xmlns="http://www.w3.org/2000/svg">
<path fill-rule="evenodd" clip-rule="evenodd" d="M17.108 3.99552C13.4077 3.99552 10.408 6.86566 10.408 10.4062H7.80801C7.80801 5.49173 11.9718 1.50781 17.108 1.50781C22.2443 1.50781 26.408 5.49173 26.408 10.4062H23.808C23.808 6.86566 20.8083 3.99552 17.108 3.99552Z" fill="#92929E"/>
<path fill-rule="evenodd" clip-rule="evenodd" d="M3.2938 14.0111C2.70801 15.2866 2.70801 16.9167 2.70801 20.1769C2.70801 23.4371 2.70801 25.0672 3.2938 26.3427C3.99242 27.8639 5.26223 29.0789 6.8521 29.7473C8.1852 30.3078 9.88888 30.3078 13.2962 30.3078H20.9198C24.3271 30.3078 26.0308 30.3078 27.3639 29.7473C28.9538 29.0789 30.2236 27.8639 30.9222 26.3427C31.508 25.0672 31.508 23.4371 31.508 20.1769C31.508 16.9167 31.508 15.2866 30.9222 14.0111C30.2236 12.4899 28.9538 11.2749 27.3639 10.6064C26.0308 10.0459 24.3271 10.0459 20.9198 10.0459H13.2962C9.88888 10.0459 8.1852 10.0459 6.8521 10.6064C5.26223 11.2749 3.99242 12.4899 3.2938 14.0111ZM17.108 23.1636C19.0226 23.1636 20.5747 21.6786 20.5747 19.8467C20.5747 18.0148 19.0226 16.5297 17.108 16.5297C15.1934 16.5297 13.6413 18.0148 13.6413 19.8467C13.6413 21.6786 15.1934 23.1636 17.108 23.1636Z" fill="#92929E"/>
</svg>
