<svg width="250" height="100" viewBox="0 0 250 100" fill="none" xmlns="http://www.w3.org/2000/svg">
<g clip-path="url(#clip0_983_73097)">
<path d="M96.8146 75.5959V75.6202C100.876 75.6202 104.913 75.6445 108.974 75.6202C110.531 75.6202 111.309 74.6474 110.968 73.164C110.676 71.8994 109.704 71.7535 108.609 71.7778C100.803 71.8021 92.9722 71.8021 85.1658 71.8021C84.8496 71.8021 84.5092 71.7778 84.193 71.8507C83.1959 72.0939 82.6609 72.7262 82.6609 73.7476C82.6853 74.7204 83.2446 75.3284 84.193 75.5229C84.5821 75.6202 84.9956 75.5716 85.409 75.5716C89.2028 75.5959 93.0209 75.5959 96.8146 75.5959Z" fill="#F8901F"/>
<path d="M72.1551 75.5716C74.2222 75.5716 76.2893 75.5959 78.3565 75.5716C79.5967 75.5472 80.302 74.8906 80.3263 73.7719C80.3506 72.7262 79.5724 71.8507 78.4294 71.8264C74.2952 71.8021 70.1609 71.8021 66.0267 71.8264C64.8107 71.8264 64.1055 72.6776 64.1541 73.8935C64.2028 75.0122 64.7864 75.5472 66.0753 75.5716C68.0938 75.5959 70.1366 75.5716 72.1551 75.5716Z" fill="#F8901F"/>
<path d="M55.8127 75.5716C57.1989 75.5716 58.5607 75.5959 59.9469 75.5716C61.0899 75.5472 61.7709 74.842 61.8195 73.7719C61.8438 72.6533 61.1386 71.8507 59.9469 71.8507C57.2232 71.8264 54.5238 71.8264 51.8 71.8507C50.5841 71.8751 49.8788 72.6046 49.8788 73.7233C49.8788 74.842 50.5841 75.5472 51.8244 75.5716C53.1376 75.5959 54.4751 75.5716 55.8127 75.5716Z" fill="#F8901F"/>
<path d="M43.4586 75.5472C44.2125 75.5472 44.9907 75.5959 45.7446 75.5472C46.766 75.4743 47.4956 74.6961 47.4469 73.7233C47.3983 72.6776 46.8876 71.8994 45.7932 71.8264C44.2611 71.7535 42.729 71.7535 41.1969 71.8507C40.1998 71.8994 39.5675 72.7749 39.6162 73.7963C39.6891 74.8177 40.2242 75.45 41.2456 75.5472C41.9995 75.5959 42.729 75.5472 43.4586 75.5472Z" fill="#F8901F"/>
<path d="M34.1687 75.5716C34.4849 75.5716 34.801 75.5959 35.1415 75.5716C36.3574 75.5229 37.0627 74.842 37.0627 73.7233C37.0627 72.5803 36.4061 71.8994 35.1901 71.8264C34.5578 71.8021 33.9012 71.8021 33.2689 71.8264C32.0773 71.8994 31.372 72.6289 31.372 73.7233C31.372 74.8177 32.0773 75.4743 33.3175 75.5472C33.6094 75.5716 33.8769 75.5716 34.1687 75.5716Z" fill="#F8901F"/>
<path d="M27.0675 75.5959C28.2349 75.5959 28.9888 74.8663 28.9888 73.7476C28.9888 72.6046 28.2592 71.8507 27.1405 71.8264C26.0218 71.8021 25.0247 72.6533 25.0004 73.6747C24.9761 74.6231 25.9975 75.5959 27.0675 75.5959Z" fill="#F8901F"/>
<path d="M96.8146 75.5959C92.9965 75.5959 89.2028 75.5959 85.3847 75.5959C84.9712 75.5959 84.5578 75.6202 84.1687 75.5472C83.2446 75.3527 82.6609 74.7447 82.6366 73.7719C82.6123 72.7505 83.1716 72.0939 84.1687 71.8751C84.4849 71.8021 84.8253 71.8264 85.1415 71.8264C92.9479 71.8264 100.779 71.8021 108.585 71.8021C109.679 71.8021 110.652 71.948 110.944 73.1883C111.284 74.6718 110.506 75.6445 108.95 75.6445C104.889 75.6688 100.852 75.6445 96.7903 75.6445C96.8146 75.6202 96.8146 75.5959 96.8146 75.5959Z" fill="#F8901F"/>
<path d="M72.1551 75.5716C70.1366 75.5716 68.0938 75.5959 66.0753 75.5716C64.7864 75.5472 64.2028 75.0122 64.1541 73.8935C64.1055 72.7019 64.8107 71.8507 66.0267 71.8264C70.1609 71.7778 74.2952 71.7778 78.4294 71.8264C79.5724 71.8264 80.3506 72.7262 80.3263 73.7719C80.302 74.8906 79.5967 75.5716 78.3565 75.5716C76.2893 75.5959 74.2222 75.5716 72.1551 75.5716Z" fill="#F8901F"/>
<path d="M55.8127 75.5716C54.4751 75.5716 53.1376 75.5959 51.8 75.5716C50.5841 75.5472 49.8545 74.842 49.8545 73.7233C49.8545 72.6046 50.5841 71.8507 51.7757 71.8507C54.4995 71.8264 57.1989 71.8264 59.9226 71.8507C61.1142 71.8751 61.8195 72.6533 61.7952 73.7719C61.7709 74.842 61.0899 75.5472 59.9226 75.5716C58.5851 75.5959 57.1989 75.5716 55.8127 75.5716Z" fill="#F8901F"/>
<path d="M43.4586 75.5472C42.729 75.5472 41.9995 75.5959 41.2942 75.5472C40.2485 75.45 39.7135 74.8177 39.6648 73.7963C39.5919 72.7749 40.2485 71.9237 41.2456 71.8507C42.7777 71.7778 44.3098 71.7535 45.8419 71.8264C46.9362 71.8751 47.4469 72.6533 47.4956 73.7233C47.5442 74.6961 46.8146 75.4743 45.7932 75.5472C44.9907 75.5959 44.2368 75.5716 43.4586 75.5472Z" fill="#F8901F"/>
<path d="M34.1687 75.5716C33.8769 75.5716 33.6094 75.5716 33.3175 75.5716C32.0773 75.4986 31.372 74.842 31.372 73.7476C31.372 72.6533 32.0773 71.8994 33.2689 71.8507C33.9012 71.8264 34.5578 71.8264 35.1901 71.8507C36.4061 71.8994 37.0627 72.6046 37.0627 73.7476C37.0627 74.8663 36.3574 75.5229 35.1415 75.5959C34.801 75.5716 34.4849 75.5716 34.1687 75.5716Z" fill="#F8901F"/>
<path d="M27.0675 75.5959C25.9975 75.5959 24.9761 74.6231 25.0004 73.6504C25.0247 72.6533 26.0218 71.8021 27.1405 71.8021C28.2592 71.8264 28.9888 72.556 28.9888 73.7233C29.0131 74.842 28.2349 75.5959 27.0675 75.5959Z" fill="#F8901F"/>
<path d="M73.0542 63.1445C71.7896 61.0531 70.3791 59.0832 69.3333 56.9188C65.3207 48.699 64.9559 40.2603 68.6281 31.8945C72.276 23.6017 82.6116 19.6134 90.7584 25.1095C95.2332 28.125 96.8869 32.5511 96.5707 37.8283C96.2302 43.3488 93.4092 47.2155 88.6427 49.769C86.2108 51.0579 83.8032 52.3711 81.3227 53.5871C77.383 55.5326 74.489 58.3293 73.4919 62.7554C73.4433 62.8527 73.346 62.9013 73.0542 63.1445ZM89.7371 36.8556C89.7371 32.8429 86.4297 29.3896 82.6116 29.4383C78.38 29.4869 75.024 32.7943 75.024 36.8556C75.024 40.8682 78.4044 44.1513 82.5386 44.1999C86.4053 44.2729 89.7127 40.8682 89.7371 36.8556Z" fill="#F8901F"/>
<path d="M79.6203 62.3176C79.0123 58.4509 82.5386 53.8546 85.9919 53.7817C88.667 53.733 90.6369 55.5326 90.4909 57.9402C90.3207 60.518 88.1806 62.2447 85.5298 61.8799C83.56 61.6124 81.6145 61.2476 79.6203 62.3176Z" fill="#F8901F"/>
<path d="M35.6273 50.7661C37.0864 47.1669 38.5212 43.592 39.9804 39.9927C41.1234 37.1717 42.2421 34.3507 43.3851 31.554C44.3821 29.1221 46.7654 28.125 49.5621 28.9276C51.6049 29.5112 52.7236 31.5054 52.4318 33.9373C51.7995 39.1659 51.1915 44.3945 50.6078 49.6231C50.5592 49.9636 50.5835 50.3283 50.7294 50.7174C51.1428 49.6474 51.5563 48.553 51.9697 47.483C53.9152 42.303 55.8607 37.0988 57.8306 31.9431C58.7061 29.6571 60.457 28.4898 62.4269 28.7816C65.3695 29.1951 66.9746 31.9674 65.7829 34.7641C64.0076 38.9713 62.1594 43.1542 60.3598 47.3614C58.5358 51.5443 56.7605 55.7758 54.9123 59.9344C53.3559 63.412 49.4891 64.7009 46.4249 62.7554C44.5037 61.5394 43.458 59.7398 43.7012 57.4295C44.0903 53.3925 44.601 49.3799 45.0388 45.3672C45.1603 44.3458 45.2576 43.3001 45.1603 42.2301C44.2849 44.3945 43.4094 46.5589 42.5339 48.7233C40.9775 52.5414 39.494 56.3838 37.8646 60.1776C36.7216 62.8527 33.9006 64.1659 31.1526 63.485C28.4045 62.7554 26.5076 60.1776 26.7022 57.3566C26.8238 55.3867 27.0183 53.3925 27.1886 51.4227C27.7236 45.3429 28.2829 39.2388 28.7936 33.1591C29.0854 29.7544 31.9551 27.8332 35.1895 29.0248C37.1107 29.7301 38.0835 31.6513 37.7674 33.9859C37.0135 39.2388 36.2596 44.4918 35.5057 49.7204C35.457 50.0365 35.457 50.3527 35.4327 50.6931C35.4814 50.7174 35.5543 50.7418 35.6273 50.7661Z" fill="#FAFAFA"/>
<path d="M135.457 41.5248C136.77 41.5248 137.986 41.5978 139.202 41.5005C140.272 41.4032 140.88 40.6494 141.172 39.6036C141.902 36.8313 142.631 34.0589 143.385 31.2865C143.993 29.0492 144.747 28.4412 147.082 28.4169C148.127 28.4169 149.197 28.3682 150.243 28.4412C152.432 28.5628 153.526 30.0219 152.991 32.162C150.486 41.9139 147.981 51.6659 145.477 61.3935C145.063 63.0229 144.212 63.6795 142.534 63.7525C141.318 63.8011 140.102 63.7768 138.886 63.7768C136.576 63.7281 135.408 62.196 135.968 59.983C136.746 56.9188 137.548 53.8789 138.351 50.839C138.448 50.4743 138.497 50.0851 138.594 49.5501C137.403 49.5501 136.357 49.4772 135.311 49.5744C134.047 49.6717 133.268 50.4013 132.952 51.6659C132.198 54.6815 131.396 57.697 130.618 60.7126C129.985 63.2175 129.353 63.7525 126.775 63.8254C125.802 63.8497 124.83 63.8741 123.857 63.8254C121.425 63.7525 120.306 62.3176 120.914 59.9587C122.592 53.4169 124.295 46.8994 125.973 40.3575C126.751 37.2933 127.553 34.2534 128.356 31.1892C128.891 29.1464 129.766 28.4655 131.882 28.4655C132.977 28.4655 134.071 28.4169 135.165 28.4898C137.281 28.6114 138.375 29.9246 137.938 31.9918C137.354 34.7155 136.576 37.3906 135.87 40.09C135.7 40.5278 135.603 40.9898 135.457 41.5248Z" fill="#FAFAFA"/>
<path d="M171.498 64.3604C170.404 64.2145 168.847 64.0929 167.364 63.7525C163.594 62.8527 161.649 60.0073 162.184 56.1649C162.5 54.0005 163.011 51.8848 163.546 49.769C165.053 43.8595 166.585 37.9499 168.166 32.0404C168.823 29.5599 170.89 28.1737 173.346 28.4169C175.462 28.6114 177.334 30.4597 177.505 32.6727C177.553 33.3293 177.456 34.0589 177.286 34.7155C175.632 41.1844 173.954 47.6289 172.276 54.0978C172.179 54.4383 172.106 54.803 172.057 55.1678C171.863 56.2379 171.668 57.3079 172.86 57.9402C173.857 58.4509 175.681 57.9888 176.362 56.9674C176.775 56.3351 177.116 55.6056 177.31 54.876C179.231 47.6046 181.128 40.3332 182.952 33.0375C183.73 29.9976 185.287 28.4169 187.865 28.3925C190.88 28.3682 193.142 30.8731 192.558 33.8157C192.048 36.5151 191.245 39.1659 190.564 41.8167C189.616 45.5861 188.691 49.3556 187.646 53.0764C187.184 54.7058 186.527 56.2865 185.7 57.77C183.609 61.5638 180.253 63.5336 175.997 63.9957C174.684 64.1416 173.322 64.2145 171.498 64.3604Z" fill="#FAFAFA"/>
<path d="M208.657 28.3196C210.992 28.4169 213.375 28.3682 215.686 28.66C219.406 29.1221 221.182 31.1163 221.425 34.8857C221.863 41.6951 217.923 49.7933 207.612 50.1581C206.517 50.2067 205.423 50.2554 204.329 50.1338C203.186 50.0122 202.797 50.5229 202.553 51.5443C201.775 54.8517 200.9 58.1348 200.073 61.4178C199.586 63.339 199.149 63.6552 197.227 63.6795C195.72 63.6795 194.236 63.7038 192.728 63.6795C190.637 63.6552 189.907 62.7311 190.418 60.7369C192.753 51.6172 195.087 42.4733 197.446 33.3536C198.346 29.876 200.316 28.4169 203.915 28.4169C205.496 28.4169 207.077 28.4169 208.657 28.4169C208.657 28.3682 208.657 28.3439 208.657 28.3196ZM204.815 43.1785C209.095 44.127 211.26 40.8925 211.357 37.804C211.381 36.9285 211.357 35.8099 210.311 35.5667C209.241 35.2992 208.098 35.3964 206.979 35.3721C206.882 35.3721 206.712 35.6639 206.663 35.8585C206.08 38.2661 205.447 40.698 204.815 43.1785Z" fill="#FAFAFA"/>
<path d="M103.794 52.7602C103.721 53.806 103.575 54.7787 103.575 55.7272C103.599 57.1134 104.183 57.6484 105.52 57.6241C108.025 57.5997 110.117 55.0949 109.509 52.6387C109.338 52.0064 108.682 51.3497 108.074 50.985C106.615 50.1338 105.058 49.4285 103.502 48.7476C97.9327 46.3643 97.5923 42.6678 99.173 37.9499C101.07 32.2593 105.301 29.341 111.089 28.7087C113.254 28.4655 115.564 28.5385 117.704 28.9519C121.182 29.6328 122.957 32.4781 122.519 36.0044C122.325 37.5851 121.255 38.947 119.698 39.0686C117.583 39.2388 115.442 39.1172 113.254 39.1172C113.351 38.1931 113.497 37.3663 113.497 36.5394C113.497 35.2992 112.889 34.7885 111.649 34.8371C110.068 34.8857 108.925 35.9314 108.39 37.7797C108.001 39.1659 108.268 39.9198 109.849 40.8439C111.527 41.841 113.302 42.6435 114.98 43.592C119.528 46.1455 120.574 47.556 119.139 53.4412C117.704 59.3021 113.302 62.8527 107.052 63.5579C104.304 63.8741 101.556 63.947 98.8568 63.1445C95.2333 62.0745 93.5553 59.2778 94.2605 55.6056C94.5281 54.1951 95.6954 52.9062 97.1059 52.8332C99.3432 52.663 101.556 52.7602 103.794 52.7602Z" fill="#FAFAFA"/>
<path d="M157.855 42.0112C158.536 42.0112 159.241 41.9869 159.922 42.0112C161.162 42.0599 161.843 42.7894 161.624 43.9811C161.333 45.5618 160.968 47.1425 160.53 48.699C160.457 49.0151 159.971 49.4042 159.655 49.4042C158.195 49.4772 156.736 49.4772 155.277 49.4285C154.012 49.3799 153.405 48.5774 153.672 47.3128C153.964 45.9266 154.329 44.5647 154.572 43.1785C154.718 42.2787 155.131 41.9139 156.031 42.0112C156.639 42.0599 157.247 42.0112 157.855 42.0112Z" fill="#FAFAFA"/>
<path d="M117.485 75.5473L118.823 69.1271H120.55C121.036 69.1271 121.328 69.1271 121.474 69.1514C121.741 69.1757 121.984 69.2244 122.179 69.3216C122.373 69.4189 122.568 69.5162 122.738 69.6621C122.909 69.808 123.054 69.9783 123.176 70.1971C123.298 70.416 123.395 70.6349 123.468 70.9024C123.541 71.1699 123.565 71.4617 123.565 71.7779C123.565 72.4588 123.444 73.0911 123.176 73.6261C122.909 74.1611 122.568 74.5746 122.179 74.8907C121.863 75.1339 121.474 75.3284 120.987 75.4257C120.72 75.4987 120.282 75.523 119.723 75.523H117.485V75.5473ZM119.017 74.5016H119.698C120.185 74.5016 120.525 74.4773 120.744 74.4043C120.963 74.3314 121.158 74.2341 121.352 74.0639C121.62 73.8207 121.838 73.5045 122.009 73.1154C122.179 72.7263 122.276 72.2642 122.276 71.7292C122.276 71.2672 122.203 70.9267 122.057 70.7078C121.911 70.489 121.717 70.3187 121.522 70.2458C121.376 70.1971 121.109 70.1728 120.72 70.1728H119.966L119.017 74.5016Z" fill="#FAFAFA"/>
<path d="M123.711 76.058H124.951L124.708 77.274H123.468L123.711 76.058ZM124.805 70.9024H126.07L125.097 75.5473H123.833L124.805 70.9024ZM125.17 69.1271H126.435L126.192 70.2701H124.927L125.17 69.1271Z" fill="#FAFAFA"/>
<path d="M129.377 73.7963L130.593 73.9909C130.399 74.5259 130.083 74.9393 129.694 75.2312C129.304 75.523 128.842 75.6446 128.332 75.6446C127.748 75.6446 127.262 75.4744 126.921 75.1096C126.581 74.7448 126.41 74.2827 126.41 73.6504C126.41 73.1397 126.508 72.6777 126.727 72.2156C126.945 71.7779 127.262 71.4131 127.675 71.1456C128.088 70.8781 128.551 70.7565 129.061 70.7565C129.621 70.7565 130.058 70.9024 130.374 71.1942C130.691 71.486 130.885 71.8508 130.934 72.3129L129.742 72.4345C129.718 72.167 129.645 71.9724 129.499 71.8508C129.377 71.7292 129.207 71.6563 128.988 71.6563C128.745 71.6563 128.526 71.7535 128.307 71.9238C128.088 72.094 127.943 72.3858 127.821 72.7263C127.699 73.0668 127.651 73.4316 127.651 73.7477C127.651 74.0152 127.724 74.2341 127.845 74.38C127.991 74.5259 128.137 74.5989 128.356 74.5989C128.551 74.5989 128.745 74.5259 128.94 74.38C129.134 74.2341 129.28 74.0882 129.377 73.7963Z" fill="#FAFAFA"/>
<path d="M132.393 75.5473H131.128L132.466 69.1271H133.73L133.244 71.4131C133.536 71.1942 133.803 71.024 134.047 70.9267C134.29 70.8294 134.557 70.7808 134.825 70.7808C135.19 70.7808 135.506 70.8781 135.725 71.0969C135.944 71.3158 136.041 71.6076 136.041 71.9481C136.041 72.1427 135.992 72.4345 135.919 72.8236L135.36 75.5473H134.095L134.679 72.7749C134.752 72.4831 134.776 72.2886 134.776 72.1913C134.776 72.0454 134.728 71.9238 134.63 71.8265C134.533 71.7292 134.411 71.6806 134.241 71.6806C134.022 71.6806 133.828 71.7535 133.633 71.8995C133.39 72.094 133.195 72.3372 133.05 72.6047C132.977 72.7506 132.879 73.1154 132.758 73.6991L132.393 75.5473Z" fill="#FAFAFA"/>
<path d="M141.245 75.5473H140.175L139.251 70.9024H140.491L140.807 72.9209C140.905 73.4802 140.953 73.845 140.978 74.0152C141.002 73.9666 141.099 73.772 141.294 73.4559C141.464 73.1397 141.586 72.9209 141.634 72.8722L142.801 70.9024H144.163L141.245 75.5473Z" fill="#FAFAFA"/>
<path d="M144.771 70.9024H146.036L145.452 73.6504C145.379 73.9909 145.355 74.1855 145.355 74.2584C145.355 74.4043 145.404 74.5016 145.501 74.5989C145.598 74.6962 145.72 74.7448 145.89 74.7448C146.012 74.7448 146.109 74.7205 146.206 74.6718C146.303 74.6232 146.425 74.5746 146.547 74.4773C146.668 74.38 146.766 74.2827 146.863 74.1855C146.96 74.0882 147.033 73.9179 147.106 73.7477C147.155 73.6018 147.228 73.3829 147.276 73.0911L147.738 70.8781H149.003L148.03 75.523H146.863L146.984 74.8907C146.474 75.3771 145.914 75.6203 145.306 75.6203C144.917 75.6203 144.625 75.4987 144.407 75.3041C144.188 75.0853 144.09 74.7934 144.09 74.4286C144.09 74.2584 144.139 73.9423 144.236 73.4802L144.771 70.9024ZM144.99 76.058H146.23L145.987 77.274H144.747L144.99 76.058Z" fill="#FAFAFA"/>
<path d="M152.505 70.9024H153.672L153.478 71.8022C153.915 71.1212 154.377 70.7808 154.888 70.7808C155.058 70.7808 155.253 70.8294 155.472 70.9267L154.985 71.9481C154.864 71.8995 154.742 71.8751 154.621 71.8751C154.402 71.8751 154.183 71.9481 153.964 72.1183C153.745 72.2886 153.575 72.5074 153.429 72.7749C153.307 73.0425 153.186 73.4802 153.064 74.0639L152.748 75.523H151.483L152.505 70.9024Z" fill="#FAFAFA"/>
<path d="M160.554 70.9024H161.819L161.6 71.8995C161.479 72.4831 161.284 72.8965 161.041 73.1154C160.773 73.3586 160.311 73.4802 159.63 73.4802L159.193 75.523H158.025L158.147 74.8907C157.636 75.3771 157.077 75.6203 156.469 75.6203C156.08 75.6203 155.788 75.523 155.569 75.3041C155.35 75.0853 155.229 74.7934 155.229 74.4286C155.229 74.2584 155.277 73.9423 155.374 73.4802L155.909 70.8781H157.174L156.59 73.6261C156.517 73.9666 156.493 74.1611 156.493 74.2341C156.493 74.38 156.542 74.4773 156.639 74.5746C156.736 74.6718 156.858 74.7205 157.028 74.7205C157.247 74.7205 157.466 74.6232 157.685 74.453C157.928 74.2584 158.123 74.0152 158.244 73.7234C158.293 73.6018 158.366 73.3829 158.414 73.0668L158.876 70.8537H160.141L159.728 72.8722C160.141 72.8722 160.433 72.7993 160.579 72.629C160.7 72.5074 160.773 72.3129 160.822 72.0697H160.238L160.554 70.9024ZM158.317 69.7351C158.487 69.6864 158.585 69.5891 158.609 69.4919C158.633 69.4189 158.585 69.3703 158.512 69.3216C158.39 69.2487 158.22 69.2244 157.952 69.2244C157.855 69.2244 157.733 69.2244 157.539 69.2487L157.587 68.8109C157.709 68.7866 157.904 68.7866 158.22 68.7866C158.585 68.7866 158.852 68.8596 159.095 68.9812C159.29 69.0785 159.363 69.2244 159.363 69.3946C159.363 69.5648 159.29 69.7107 159.144 69.8567C158.974 70.0026 158.73 70.0999 158.439 70.1485L158.39 70.3674H157.904L158.001 69.8323C158.147 69.7594 158.268 69.7594 158.317 69.7351Z" fill="#FAFAFA"/>
<path d="M163.059 72.2156L161.843 72.1183C161.989 71.7049 162.232 71.3888 162.573 71.1456C162.913 70.9024 163.375 70.8051 163.959 70.8051C164.567 70.8051 165.005 70.9267 165.297 71.1699C165.588 71.4131 165.734 71.7049 165.734 72.0454C165.734 72.1913 165.71 72.3372 165.686 72.4831C165.661 72.629 165.564 73.0668 165.418 73.7234C165.297 74.2827 165.224 74.6718 165.224 74.8907C165.224 75.0853 165.248 75.3041 165.321 75.5473H164.105C164.056 75.3771 164.032 75.2069 164.008 75.0123C163.813 75.2069 163.619 75.3771 163.375 75.4744C163.132 75.5716 162.889 75.6446 162.646 75.6446C162.257 75.6446 161.941 75.523 161.697 75.2555C161.454 75.0123 161.333 74.6718 161.333 74.2827C161.333 73.845 161.479 73.4802 161.746 73.2127C162.014 72.9452 162.524 72.7749 163.23 72.7263C163.837 72.6777 164.227 72.629 164.421 72.5561C164.47 72.3858 164.494 72.2399 164.494 72.1427C164.494 71.9967 164.445 71.8995 164.324 71.8022C164.227 71.7049 164.056 71.6563 163.837 71.6563C163.619 71.6563 163.424 71.7049 163.302 71.8022C163.205 71.8995 163.108 72.0454 163.059 72.2156ZM164.275 73.3829C164.202 73.4072 164.105 73.4316 163.983 73.4316C163.351 73.5045 162.938 73.6261 162.743 73.772C162.597 73.8693 162.549 74.0152 162.549 74.1855C162.549 74.3314 162.597 74.453 162.694 74.5502C162.792 74.6475 162.938 74.6962 163.108 74.6962C163.302 74.6962 163.473 74.6475 163.643 74.5502C163.813 74.453 163.935 74.3314 164.008 74.1855C164.081 74.0395 164.154 73.8207 164.227 73.5045L164.275 73.3829Z" fill="#FAFAFA"/>
<path d="M170.744 74.2341L169.577 75.5473H168.045L170.185 73.1641L168.993 70.9024H170.331L171.012 72.2399L172.179 70.9024H173.711L171.547 73.31L172.714 75.5473H171.401L170.744 74.2341Z" fill="#FAFAFA"/>
<path d="M178.016 73.6018H174.854C174.854 73.6504 174.854 73.6991 174.854 73.7234C174.854 74.0395 174.951 74.2827 175.122 74.4773C175.292 74.6718 175.511 74.7691 175.778 74.7691C176.192 74.7691 176.532 74.5502 176.751 74.1125L177.87 74.307C177.651 74.7691 177.359 75.1096 176.994 75.3284C176.629 75.5473 176.216 75.6689 175.754 75.6689C175.122 75.6689 174.611 75.4744 174.222 75.0853C173.833 74.6962 173.638 74.1611 173.638 73.5045C173.638 72.8722 173.808 72.3129 174.173 71.8022C174.659 71.1212 175.34 70.8051 176.24 70.8051C176.8 70.8051 177.262 70.9753 177.602 71.3401C177.943 71.7049 178.113 72.1913 178.113 72.8236C178.088 73.0911 178.064 73.3586 178.016 73.6018ZM176.945 72.8479C176.945 72.7993 176.945 72.7506 176.945 72.7263C176.945 72.3858 176.873 72.1183 176.702 71.9481C176.556 71.7779 176.337 71.6806 176.07 71.6806C175.802 71.6806 175.584 71.7779 175.365 71.9724C175.17 72.167 175.024 72.4588 174.951 72.8479H176.945Z" fill="#FAFAFA"/>
<path d="M183.925 73.7963L185.141 73.9909C184.946 74.5259 184.63 74.9393 184.241 75.2312C183.852 75.523 183.39 75.6446 182.879 75.6446C182.296 75.6446 181.809 75.4744 181.469 75.1096C181.128 74.7448 180.958 74.2827 180.958 73.6504C180.958 73.1397 181.055 72.6777 181.274 72.2156C181.493 71.7779 181.809 71.4131 182.223 71.1456C182.636 70.8781 183.098 70.7565 183.609 70.7565C184.168 70.7565 184.606 70.9024 184.922 71.1942C185.238 71.486 185.433 71.8508 185.481 72.3129L184.29 72.4345C184.266 72.167 184.193 71.9724 184.047 71.8508C183.925 71.7292 183.755 71.6563 183.536 71.6563C183.293 71.6563 183.074 71.7535 182.855 71.9238C182.636 72.094 182.49 72.3858 182.369 72.7263C182.247 73.0668 182.198 73.4316 182.198 73.7477C182.198 74.0152 182.271 74.2341 182.393 74.38C182.539 74.5259 182.685 74.5989 182.904 74.5989C183.098 74.5989 183.293 74.5259 183.487 74.38C183.682 74.2341 183.828 74.0882 183.925 73.7963Z" fill="#FAFAFA"/>
<path d="M185.871 73.6018C185.871 72.7506 186.114 72.0454 186.6 71.5347C187.087 71.024 187.719 70.7565 188.521 70.7565C189.202 70.7565 189.737 70.951 190.126 71.3158C190.516 71.7049 190.71 72.1913 190.71 72.8479C190.71 73.6018 190.467 74.2584 189.98 74.7934C189.494 75.3528 188.862 75.6203 188.035 75.6203C187.597 75.6203 187.208 75.523 186.868 75.3528C186.527 75.1825 186.284 74.9393 186.114 74.5989C185.944 74.2584 185.871 73.9909 185.871 73.6018ZM189.445 72.7263C189.445 72.4345 189.348 72.1913 189.178 72.0211C189.008 71.8508 188.789 71.7535 188.497 71.7535C188.23 71.7535 187.986 71.8265 187.767 71.9967C187.549 72.167 187.403 72.4102 187.281 72.7263C187.159 73.0425 187.111 73.3343 187.111 73.6018C187.111 73.9423 187.208 74.2098 187.378 74.4043C187.549 74.5989 187.792 74.6962 188.059 74.6962C188.4 74.6962 188.692 74.5502 188.935 74.2584C189.275 73.8207 189.445 73.31 189.445 72.7263ZM188.983 69.5162L188.205 70.2944H187.184L188.473 68.9812H189.64L190.175 70.2944H189.3L188.983 69.5162Z" fill="#FAFAFA"/>
<path d="M192.048 70.9024H193.239L193.118 71.5104C193.409 71.2428 193.701 71.0726 193.944 70.951C194.212 70.8294 194.48 70.7808 194.771 70.7808C195.16 70.7808 195.452 70.8781 195.671 71.0969C195.89 71.3158 196.012 71.6076 196.012 71.9724C196.012 72.1427 195.963 72.4345 195.866 72.8965L195.331 75.523H194.066L194.625 72.8965C194.698 72.5074 194.747 72.2642 194.747 72.1913C194.747 72.0211 194.698 71.8995 194.601 71.8022C194.504 71.7049 194.382 71.6563 194.212 71.6563C194.017 71.6563 193.823 71.7292 193.604 71.8995C193.385 72.0697 193.215 72.2642 193.069 72.5074C192.972 72.6777 192.874 73.0668 192.753 73.6261L192.364 75.523H191.099L192.048 70.9024Z" fill="#FAFAFA"/>
<path d="M196.376 75.7905L197.714 75.9851C197.714 76.131 197.738 76.2283 197.787 76.3012C197.836 76.3742 197.909 76.4228 198.006 76.4714C198.103 76.5201 198.249 76.5444 198.395 76.5444C198.662 76.5444 198.881 76.4958 199.027 76.3985C199.149 76.3255 199.246 76.1796 199.319 76.0094C199.368 75.8878 199.416 75.6446 199.489 75.2555L199.538 75.0366C199.1 75.4014 198.662 75.5716 198.2 75.5716C197.738 75.5716 197.373 75.4014 197.082 75.0853C196.79 74.7691 196.644 74.2827 196.644 73.6748C196.644 73.1397 196.741 72.629 196.936 72.167C197.13 71.7049 197.422 71.3644 197.763 71.1456C198.103 70.9267 198.492 70.8051 198.857 70.8051C199.173 70.8051 199.441 70.8781 199.708 71.0483C199.976 71.2185 200.17 71.4374 200.316 71.7292L200.486 70.9024H201.654L200.851 74.7691C200.73 75.4014 200.608 75.8391 200.511 76.1067C200.413 76.3742 200.316 76.593 200.194 76.739C200.073 76.8849 199.927 77.0308 199.757 77.1281C199.587 77.2253 199.368 77.3226 199.124 77.3469C198.881 77.3956 198.614 77.4199 198.346 77.4199C197.69 77.4199 197.203 77.2983 196.863 77.0794C196.522 76.8605 196.352 76.4714 196.352 75.9607C196.376 75.9121 196.376 75.8635 196.376 75.7905ZM197.86 73.5532C197.86 73.9179 197.933 74.1855 198.103 74.3557C198.273 74.5502 198.468 74.6232 198.711 74.6232C198.93 74.6232 199.149 74.5502 199.343 74.38C199.538 74.2098 199.708 73.9666 199.805 73.6748C199.927 73.3586 199.976 73.0668 199.976 72.7749C199.976 72.4345 199.878 72.1913 199.708 71.9724C199.538 71.7779 199.319 71.6806 199.1 71.6806C198.881 71.6806 198.662 71.7779 198.492 71.9481C198.322 72.1183 198.152 72.4102 198.03 72.7749C197.909 73.0668 197.86 73.31 197.86 73.5532Z" fill="#FAFAFA"/>
<path d="M205.229 70.9024H206.42L206.299 71.5104C206.59 71.2428 206.882 71.0726 207.125 70.951C207.393 70.8294 207.66 70.7808 207.952 70.7808C208.341 70.7808 208.633 70.8781 208.852 71.0969C209.071 71.3158 209.193 71.6076 209.193 71.9724C209.193 72.1427 209.144 72.4345 209.047 72.8965L208.512 75.523H207.247L207.806 72.8965C207.879 72.5074 207.928 72.2642 207.928 72.1913C207.928 72.0211 207.879 71.8995 207.782 71.8022C207.685 71.7049 207.563 71.6563 207.393 71.6563C207.198 71.6563 207.004 71.7292 206.785 71.8995C206.566 72.0697 206.396 72.2642 206.25 72.5074C206.153 72.6777 206.055 73.0668 205.934 73.6261L205.545 75.523H204.28L205.229 70.9024Z" fill="#FAFAFA"/>
<path d="M209.557 75.7905L210.895 75.9851C210.895 76.131 210.919 76.2283 210.968 76.3012C211.016 76.3742 211.089 76.4228 211.187 76.4714C211.284 76.5201 211.43 76.5444 211.576 76.5444C211.843 76.5444 212.062 76.4958 212.208 76.3985C212.33 76.3255 212.427 76.1796 212.5 76.0094C212.549 75.8878 212.597 75.6446 212.67 75.2555L212.719 75.0366C212.281 75.4014 211.843 75.5716 211.381 75.5716C210.919 75.5716 210.554 75.4014 210.263 75.0853C209.971 74.7691 209.825 74.2827 209.825 73.6748C209.825 73.1397 209.922 72.629 210.117 72.167C210.311 71.7049 210.603 71.3644 210.944 71.1456C211.284 70.9267 211.673 70.8051 212.038 70.8051C212.354 70.8051 212.622 70.8781 212.889 71.0483C213.157 71.2185 213.351 71.4374 213.497 71.7292L213.667 70.9024H214.835L214.032 74.7691C213.91 75.4014 213.789 75.8391 213.692 76.1067C213.594 76.3742 213.497 76.593 213.375 76.739C213.254 76.8849 213.108 77.0308 212.938 77.1281C212.767 77.2253 212.549 77.3226 212.305 77.3469C212.062 77.3956 211.795 77.4199 211.527 77.4199C210.871 77.4199 210.384 77.2983 210.044 77.0794C209.703 76.8605 209.533 76.4714 209.533 75.9607C209.533 75.9121 209.533 75.8635 209.557 75.7905ZM211.016 73.5532C211.016 73.9179 211.089 74.1855 211.26 74.3557C211.43 74.5502 211.624 74.6232 211.868 74.6232C212.087 74.6232 212.305 74.5502 212.5 74.38C212.694 74.2098 212.865 73.9666 212.962 73.6748C213.084 73.3586 213.132 73.0668 213.132 72.7749C213.132 72.4345 213.035 72.1913 212.865 71.9724C212.694 71.7779 212.476 71.6806 212.257 71.6806C212.038 71.6806 211.819 71.7779 211.649 71.9481C211.479 72.1183 211.308 72.4102 211.187 72.7749C211.065 73.0668 211.016 73.31 211.016 73.5532Z" fill="#FAFAFA"/>
<path d="M216.269 75.5473H215.005L216.342 69.1271H217.607L217.121 71.4131C217.412 71.1942 217.68 71.024 217.923 70.9267C218.166 70.8294 218.434 70.7808 218.701 70.7808C219.066 70.7808 219.382 70.8781 219.601 71.0969C219.82 71.3158 219.917 71.6076 219.917 71.9481C219.917 72.1427 219.869 72.4345 219.796 72.8236L219.236 75.5473H217.972L218.555 72.7749C218.628 72.4831 218.653 72.2886 218.653 72.1913C218.653 72.0454 218.604 71.9238 218.507 71.8265C218.409 71.7292 218.288 71.6806 218.118 71.6806C217.899 71.6806 217.704 71.7535 217.51 71.8995C217.266 72.094 217.072 72.3372 216.926 72.6047C216.853 72.7506 216.756 73.1154 216.634 73.6991L216.269 75.5473Z" fill="#FAFAFA"/>
<path d="M224.903 73.6018H221.741C221.741 73.6504 221.741 73.6991 221.741 73.7234C221.741 74.0395 221.838 74.2827 222.009 74.4773C222.179 74.6718 222.398 74.7691 222.665 74.7691C223.079 74.7691 223.419 74.5502 223.638 74.1125L224.757 74.307C224.538 74.7691 224.246 75.1096 223.881 75.3284C223.516 75.5473 223.103 75.6689 222.641 75.6689C222.009 75.6689 221.498 75.4744 221.109 75.0853C220.72 74.6962 220.525 74.1611 220.525 73.5045C220.525 72.8722 220.695 72.3129 221.06 71.8022C221.547 71.1212 222.228 70.8051 223.127 70.8051C223.687 70.8051 224.149 70.9753 224.489 71.3401C224.83 71.7049 225 72.1913 225 72.8236C225 73.0911 224.976 73.3586 224.903 73.6018ZM221.911 76.058H223.152L222.908 77.274H221.668L221.911 76.058ZM223.492 69.5162L222.714 70.2944H221.693L222.981 68.9812H224.149L224.684 70.2944H223.808L223.492 69.5162ZM223.857 72.8479C223.857 72.7993 223.857 72.7506 223.857 72.7263C223.857 72.3858 223.784 72.1183 223.614 71.9481C223.468 71.7779 223.249 71.6806 222.981 71.6806C222.714 71.6806 222.495 71.7779 222.276 71.9724C222.082 72.167 221.936 72.4588 221.863 72.8479H223.857Z" fill="#FAFAFA"/>
</g>
<defs>
<clipPath id="clip0_983_73097">
<rect width="200" height="54.8395" fill="white" transform="translate(25 22.5803)"/>
</clipPath>
</defs>
</svg>
