<svg width="24" height="25" viewBox="0 0 24 25" fill="none" xmlns="http://www.w3.org/2000/svg">
<path d="M5.05749 4.43994C5.05695 4.43994 5.05635 4.43994 5.05581 4.43994C4.86665 4.43994 4.68873 4.51368 4.55439 4.64769C4.41856 4.78317 4.34375 4.96358 4.34375 5.15563V15.8873C4.34375 16.2809 4.66517 16.6018 5.06032 16.6028C6.72618 16.6068 9.51717 16.954 11.4426 18.9689V7.73787C11.4426 7.60446 11.4085 7.47914 11.3442 7.37544C9.7639 4.83052 6.72712 4.44385 5.05749 4.43994Z" fill="#F7F7F8"/>
<path d="M19.6525 15.8871V5.15539C19.6525 4.96334 19.5776 4.78293 19.4418 4.64744C19.3075 4.51343 19.1294 4.4397 18.9405 4.4397C18.9399 4.4397 18.9393 4.4397 18.9387 4.4397C17.2691 4.44367 14.2324 4.83034 12.652 7.37526C12.5877 7.47897 12.5537 7.60429 12.5537 7.73769V18.9686C14.4791 16.9537 17.2701 16.6065 18.936 16.6026C19.331 16.6016 19.6525 16.2806 19.6525 15.8871Z" fill="#F7F7F8"/>
<path d="M21.2827 6.91455H20.7638V15.887C20.7638 16.8918 19.9451 17.7112 18.9388 17.7136C17.5258 17.717 15.1959 17.9933 13.5459 19.555C16.3996 18.8563 19.408 19.3105 21.1225 19.7012C21.3366 19.7499 21.5578 19.6996 21.7293 19.5629C21.9002 19.4265 21.9983 19.2227 21.9983 19.0039V7.63011C21.9983 7.23556 21.6772 6.91455 21.2827 6.91455Z" fill="#F7F7F8"/>
<path d="M3.23253 15.887V6.91455H2.7136C2.31913 6.91455 1.99805 7.23556 1.99805 7.63011V19.0037C1.99805 19.2225 2.09609 19.4263 2.267 19.5627C2.43839 19.6993 2.6594 19.7499 2.87381 19.701C4.58829 19.3102 7.59672 18.8561 10.4503 19.5548C8.80036 17.9932 6.47052 17.7169 5.05752 17.7136C4.05125 17.7112 3.23253 16.8918 3.23253 15.887Z" fill="#F7F7F8"/>
</svg>
