<svg width="24" height="25" viewBox="0 0 24 25" fill="none" xmlns="http://www.w3.org/2000/svg">
<path d="M20.5822 15.1949C20.73 15.0863 20.8465 14.9406 20.9199 14.7725C20.9934 14.6044 21.0212 14.42 21.0006 14.2377C20.98 14.0554 20.9117 13.8818 20.8025 13.7344C20.6934 13.587 20.5473 13.471 20.379 13.3981V11.9648L19.5411 12.3209V13.3981C19.3727 13.471 19.2266 13.587 19.1174 13.7344C19.0082 13.8819 18.9398 14.0556 18.9192 14.2379C18.8986 14.4202 18.9264 14.6047 19 14.7729C19.0735 14.941 19.1901 15.0867 19.3379 15.1954C19.2064 15.292 19.0994 15.4181 19.0256 15.5637C18.9517 15.7092 18.913 15.87 18.9127 16.0332V17.0802C18.9127 17.1913 18.9569 17.2979 19.0354 17.3764C19.114 17.455 19.2205 17.4991 19.3317 17.4991H20.5885C20.6996 17.4991 20.8062 17.455 20.8847 17.3764C20.9633 17.2979 21.0075 17.1913 21.0075 17.0802V16.0328C21.0071 15.8696 20.9685 15.7088 20.8946 15.5632C20.8207 15.4177 20.7137 15.2916 20.5822 15.1949Z" fill="#F7F7F8"/>
<path d="M18.2842 12.853V15.9532C18.2864 16.3136 18.1949 16.6684 18.0187 16.9828C17.8424 17.2972 17.5874 17.5603 17.2787 17.7463C15.6768 18.6819 13.855 19.1749 12 19.1749C10.1449 19.1749 8.32311 18.6819 6.72121 17.7463C6.41253 17.5603 6.15754 17.2972 5.98126 16.9828C5.80498 16.6684 5.71348 16.3136 5.71574 15.9532V12.853L10.8562 15.0274C11.2184 15.1795 11.6072 15.2578 12 15.2578C12.3927 15.2578 12.7816 15.1795 13.1437 15.0274L18.2842 12.853Z" fill="#F7F7F8"/>
<path d="M21.2319 8.38165L12.8161 4.8206C12.5575 4.7118 12.2797 4.65576 11.9991 4.65576C11.7186 4.65576 11.4408 4.7118 11.1822 4.8206L2.76637 8.38165C2.5389 8.47787 2.34482 8.63897 2.20837 8.84484C2.07192 9.05071 1.99915 9.29222 1.99915 9.53921C1.99915 9.78619 2.07192 10.0277 2.20837 10.2336C2.34482 10.4394 2.5389 10.6005 2.76637 10.6968L11.1822 14.2578C11.4408 14.3667 11.7186 14.4228 11.9991 14.4228C12.2797 14.4228 12.5575 14.3667 12.8161 14.2578L21.2319 10.6968C21.4594 10.6005 21.6535 10.4394 21.7899 10.2336C21.9264 10.0277 21.9991 9.78619 21.9991 9.53921C21.9991 9.29222 21.9264 9.05071 21.7899 8.84484C21.6535 8.63897 21.4594 8.47787 21.2319 8.38165Z" fill="#F7F7F8"/>
</svg>
