<svg width="55" height="67" viewBox="0 0 55 67" fill="none" xmlns="http://www.w3.org/2000/svg">
<circle cx="25.1471" cy="17.6471" r="17.4118" stroke="#1E3768" stroke-width="0.470588"/>
<circle cx="29.8529" cy="22.3529" r="17.6471" fill="#1E3768"/>
<path d="M6.67614 64L8.10795 55.2727H8.96023L7.52841 64H6.67614ZM2.70455 61.5795L2.84091 60.7273H9.35227L9.21591 61.5795H2.70455ZM3.60795 64L5.03977 55.2727H5.89205L4.46023 64H3.60795ZM3.21591 58.5455L3.35227 57.6932H9.86364L9.72727 58.5455H3.21591ZM14.0419 55.2727V64H12.9851V56.3807H12.9339L10.8033 57.7955V56.7216L12.9851 55.2727H14.0419ZM16.7053 64V55.2727H21.9723V56.2102H17.7621V59.1591H21.6996V60.0966H17.7621V63.0625H22.0405V64H16.7053ZM26.6726 64.1193C26.1101 64.1193 25.6087 64.0227 25.1683 63.8295C24.7308 63.6364 24.3828 63.3679 24.1243 63.0241C23.8686 62.6776 23.7294 62.2756 23.7067 61.8182H24.7805C24.8033 62.0994 24.8999 62.3423 25.0703 62.5469C25.2408 62.7486 25.4638 62.9048 25.7393 63.0156C26.0149 63.1264 26.3203 63.1818 26.6555 63.1818C27.0305 63.1818 27.3629 63.1165 27.6527 62.9858C27.9425 62.8551 28.1697 62.6733 28.3345 62.4403C28.4993 62.2074 28.5817 61.9375 28.5817 61.6307C28.5817 61.3097 28.5021 61.027 28.343 60.7827C28.1839 60.5355 27.951 60.3423 27.6442 60.2031C27.3374 60.0639 26.9624 59.9943 26.5192 59.9943H25.8203V59.0568H26.5192C26.8658 59.0568 27.1697 58.9943 27.4311 58.8693C27.6953 58.7443 27.9013 58.5682 28.049 58.3409C28.1996 58.1136 28.2749 57.8466 28.2749 57.5398C28.2749 57.2443 28.2095 56.9872 28.0788 56.7685C27.9482 56.5497 27.7635 56.3793 27.5249 56.2571C27.2891 56.1349 27.0107 56.0739 26.6896 56.0739C26.3885 56.0739 26.1044 56.1293 25.8374 56.2401C25.5732 56.348 25.3572 56.5057 25.1896 56.7131C25.022 56.9176 24.9311 57.1648 24.9169 57.4545H23.8942C23.9112 56.9972 24.049 56.5966 24.3075 56.2528C24.5661 55.9062 24.9041 55.6364 25.3217 55.4432C25.7422 55.25 26.2038 55.1534 26.7067 55.1534C27.2464 55.1534 27.7095 55.2628 28.0959 55.4815C28.4822 55.6974 28.7791 55.983 28.9865 56.3381C29.1939 56.6932 29.2976 57.0767 29.2976 57.4886C29.2976 57.9801 29.1683 58.3991 28.9098 58.7457C28.6541 59.0923 28.3061 59.3324 27.8658 59.4659V59.5341C28.4169 59.625 28.8473 59.8594 29.157 60.2372C29.4666 60.6122 29.6214 61.0767 29.6214 61.6307C29.6214 62.1051 29.4922 62.5312 29.2337 62.9091C28.978 63.2841 28.6286 63.5795 28.1854 63.7955C27.7422 64.0114 27.2379 64.1193 26.6726 64.1193ZM31.6371 64L35.5405 56.2784V56.2102H31.0405V55.2727H36.6314V56.2614L32.745 64H31.6371ZM40.93 64.1193C40.5721 64.1136 40.2141 64.0455 39.8562 63.9148C39.4982 63.7841 39.1715 63.5639 38.8761 63.2543C38.5806 62.9418 38.3434 62.5199 38.1644 61.9886C37.9854 61.4545 37.896 60.7841 37.896 59.9773C37.896 59.2045 37.9684 58.5199 38.1133 57.9233C38.2582 57.3239 38.4684 56.8196 38.744 56.4105C39.0195 55.9986 39.3519 55.6861 39.7411 55.473C40.1332 55.2599 40.5749 55.1534 41.0664 55.1534C41.555 55.1534 41.9897 55.2514 42.3704 55.4474C42.7539 55.6406 43.0664 55.9105 43.3079 56.2571C43.5494 56.6037 43.7056 57.0028 43.7766 57.4545H42.7369C42.6403 57.0625 42.4528 56.7372 42.1744 56.4787C41.896 56.2202 41.5266 56.0909 41.0664 56.0909C40.3903 56.0909 39.8576 56.3849 39.4684 56.973C39.082 57.5611 38.8874 58.3864 38.8846 59.4489H38.9528C39.1119 59.2074 39.3008 59.0014 39.5195 58.831C39.7411 58.6577 39.9854 58.5241 40.2525 58.4304C40.5195 58.3366 40.8022 58.2898 41.1005 58.2898C41.6005 58.2898 42.0579 58.4148 42.4727 58.6648C42.8874 58.9119 43.2198 59.2543 43.4698 59.6918C43.7198 60.1264 43.8448 60.625 43.8448 61.1875C43.8448 61.7273 43.7241 62.2216 43.4826 62.6705C43.2411 63.1165 42.9016 63.4716 42.4641 63.7358C42.0295 63.9972 41.5181 64.125 40.93 64.1193ZM40.93 63.1818C41.288 63.1818 41.609 63.0923 41.8931 62.9134C42.18 62.7344 42.4059 62.4943 42.5707 62.1932C42.7383 61.892 42.8221 61.5568 42.8221 61.1875C42.8221 60.8267 42.7411 60.4986 42.5792 60.2031C42.4201 59.9048 42.1999 59.6676 41.9187 59.4915C41.6403 59.3153 41.3221 59.2273 40.9641 59.2273C40.6942 59.2273 40.4428 59.2812 40.2099 59.3892C39.9769 59.4943 39.7724 59.6392 39.5962 59.8239C39.4229 60.0085 39.2866 60.2202 39.1871 60.4588C39.0877 60.6946 39.038 60.9432 39.038 61.2045C39.038 61.5511 39.119 61.875 39.2809 62.1761C39.4457 62.4773 39.6701 62.7202 39.9542 62.9048C40.2411 63.0895 40.5664 63.1818 40.93 63.1818ZM48.3161 64.1193C47.7308 64.1193 47.2138 64.0156 46.7649 63.8082C46.3189 63.598 45.9709 63.3097 45.7209 62.9432C45.4709 62.5739 45.3473 62.1534 45.3501 61.6818C45.3473 61.3125 45.4197 60.9716 45.5675 60.6591C45.7152 60.3437 45.9169 60.081 46.1726 59.8707C46.4311 59.6577 46.7195 59.5227 47.0376 59.4659V59.4148C46.62 59.3068 46.2876 59.0724 46.0405 58.7116C45.7933 58.348 45.6712 57.9347 45.674 57.4716C45.6712 57.0284 45.7834 56.6321 46.0107 56.2827C46.2379 55.9332 46.5504 55.6577 46.9482 55.456C47.3487 55.2543 47.8047 55.1534 48.3161 55.1534C48.8217 55.1534 49.2734 55.2543 49.6712 55.456C50.0689 55.6577 50.3814 55.9332 50.6087 56.2827C50.8388 56.6321 50.9553 57.0284 50.9581 57.4716C50.9553 57.9347 50.8288 58.348 50.5788 58.7116C50.3317 59.0724 50.0036 59.3068 49.5945 59.4148V59.4659C49.9098 59.5227 50.1939 59.6577 50.4467 59.8707C50.6996 60.081 50.9013 60.3437 51.0518 60.6591C51.2024 60.9716 51.2791 61.3125 51.282 61.6818C51.2791 62.1534 51.1513 62.5739 50.8984 62.9432C50.6484 63.3097 50.3004 63.598 49.8544 63.8082C49.4112 64.0156 48.8984 64.1193 48.3161 64.1193ZM48.3161 63.1818C48.7109 63.1818 49.0518 63.1179 49.3388 62.9901C49.6257 62.8622 49.8473 62.6818 50.0036 62.4489C50.1598 62.2159 50.2393 61.9432 50.2422 61.6307C50.2393 61.3011 50.1541 61.0099 49.9865 60.7571C49.8189 60.5043 49.5902 60.3054 49.3004 60.1605C49.0135 60.0156 48.6854 59.9432 48.3161 59.9432C47.9439 59.9432 47.6115 60.0156 47.3189 60.1605C47.0291 60.3054 46.8004 60.5043 46.6328 60.7571C46.468 61.0099 46.3871 61.3011 46.3899 61.6307C46.3871 61.9432 46.4624 62.2159 46.6158 62.4489C46.772 62.6818 46.995 62.8622 47.2848 62.9901C47.5746 63.1179 47.9183 63.1818 48.3161 63.1818ZM48.3161 59.0398C48.6286 59.0398 48.9055 58.9773 49.147 58.8523C49.3913 58.7273 49.5831 58.5526 49.7223 58.3281C49.8615 58.1037 49.9325 57.8409 49.9354 57.5398C49.9325 57.2443 49.8629 56.9872 49.7266 56.7685C49.5902 56.5469 49.4013 56.3764 49.1598 56.2571C48.9183 56.1349 48.6371 56.0739 48.3161 56.0739C47.9893 56.0739 47.7038 56.1349 47.4595 56.2571C47.2152 56.3764 47.0263 56.5469 46.8928 56.7685C46.7592 56.9872 46.6939 57.2443 46.6967 57.5398C46.6939 57.8409 46.7607 58.1037 46.897 58.3281C47.0362 58.5526 47.228 58.7273 47.4723 58.8523C47.7166 58.9773 47.9979 59.0398 48.3161 59.0398Z" fill="#F2F2F2"/>
</svg>
