<svg width="55" height="67" viewBox="0 0 55 67" fill="none" xmlns="http://www.w3.org/2000/svg">
<circle cx="25.1471" cy="17.6471" r="17.4118" stroke="#262626" stroke-width="0.470588"/>
<circle cx="29.853" cy="22.3529" r="17.6471" fill="#262626"/>
<path d="M5.67614 64L7.10795 55.2727H7.96023L6.52841 64H5.67614ZM1.70455 61.5795L1.84091 60.7273H8.35227L8.21591 61.5795H1.70455ZM2.60795 64L4.03977 55.2727H4.89205L3.46023 64H2.60795ZM2.21591 58.5455L2.35227 57.6932H8.86364L8.72727 58.5455H2.21591ZM9.97372 64V63.233L12.8544 60.0795C13.1925 59.7102 13.4709 59.3892 13.6896 59.1165C13.9084 58.8409 14.0703 58.5824 14.1754 58.3409C14.2834 58.0966 14.3374 57.8409 14.3374 57.5739C14.3374 57.267 14.2635 57.0014 14.1158 56.777C13.9709 56.5526 13.772 56.3793 13.5192 56.2571C13.2663 56.1349 12.9822 56.0739 12.6669 56.0739C12.3317 56.0739 12.0391 56.1435 11.7891 56.2827C11.5419 56.419 11.3501 56.6108 11.2138 56.858C11.0803 57.1051 11.0135 57.3949 11.0135 57.7273H10.0078C10.0078 57.2159 10.1257 56.767 10.3615 56.3807C10.5973 55.9943 10.9183 55.6932 11.3246 55.4773C11.7337 55.2614 12.1925 55.1534 12.701 55.1534C13.2124 55.1534 13.6655 55.2614 14.0604 55.4773C14.4553 55.6932 14.7649 55.9844 14.9893 56.3509C15.2138 56.7173 15.326 57.125 15.326 57.5739C15.326 57.8949 15.2678 58.2088 15.1513 58.5156C15.0376 58.8196 14.8388 59.1591 14.5547 59.5341C14.2734 59.9062 13.8828 60.3608 13.3828 60.8977L11.4226 62.9943V63.0625H15.4794V64H9.97372ZM20.1371 64.1193C19.7791 64.1136 19.4212 64.0455 19.0632 63.9148C18.7053 63.7841 18.3786 63.5639 18.0831 63.2543C17.7876 62.9418 17.5504 62.5199 17.3714 61.9886C17.1925 61.4545 17.103 60.7841 17.103 59.9773C17.103 59.2045 17.1754 58.5199 17.3203 57.9233C17.4652 57.3239 17.6754 56.8196 17.951 56.4105C18.2266 55.9986 18.5589 55.6861 18.9482 55.473C19.3402 55.2599 19.782 55.1534 20.2734 55.1534C20.7621 55.1534 21.1967 55.2514 21.5774 55.4474C21.9609 55.6406 22.2734 55.9105 22.5149 56.2571C22.7564 56.6037 22.9126 57.0028 22.9837 57.4545H21.9439C21.8473 57.0625 21.6598 56.7372 21.3814 56.4787C21.103 56.2202 20.7337 56.0909 20.2734 56.0909C19.5973 56.0909 19.0646 56.3849 18.6754 56.973C18.2891 57.5611 18.0945 58.3864 18.0916 59.4489H18.1598C18.3189 59.2074 18.5078 59.0014 18.7266 58.831C18.9482 58.6577 19.1925 58.5241 19.4595 58.4304C19.7266 58.3366 20.0092 58.2898 20.3075 58.2898C20.8075 58.2898 21.2649 58.4148 21.6797 58.6648C22.0945 58.9119 22.4268 59.2543 22.6768 59.6918C22.9268 60.1264 23.0518 60.625 23.0518 61.1875C23.0518 61.7273 22.9311 62.2216 22.6896 62.6705C22.4482 63.1165 22.1087 63.4716 21.6712 63.7358C21.2365 63.9972 20.7251 64.125 20.1371 64.1193ZM20.1371 63.1818C20.495 63.1818 20.8161 63.0923 21.1001 62.9134C21.3871 62.7344 21.6129 62.4943 21.7777 62.1932C21.9453 61.892 22.0291 61.5568 22.0291 61.1875C22.0291 60.8267 21.9482 60.4986 21.7862 60.2031C21.6271 59.9048 21.407 59.6676 21.1257 59.4915C20.8473 59.3153 20.5291 59.2273 20.1712 59.2273C19.9013 59.2273 19.6499 59.2812 19.4169 59.3892C19.1839 59.4943 18.9794 59.6392 18.8033 59.8239C18.63 60.0085 18.4936 60.2202 18.3942 60.4588C18.2947 60.6946 18.245 60.9432 18.245 61.2045C18.245 61.5511 18.326 61.875 18.4879 62.1761C18.6527 62.4773 18.8771 62.7202 19.1612 62.9048C19.4482 63.0895 19.7734 63.1818 20.1371 63.1818ZM24.7276 64V63.233L27.6083 60.0795C27.9464 59.7102 28.2248 59.3892 28.4435 59.1165C28.6623 58.8409 28.8242 58.5824 28.9293 58.3409C29.0373 58.0966 29.0913 57.8409 29.0913 57.5739C29.0913 57.267 29.0174 57.0014 28.8697 56.777C28.7248 56.5526 28.5259 56.3793 28.2731 56.2571C28.0202 56.1349 27.7362 56.0739 27.4208 56.0739C27.0856 56.0739 26.793 56.1435 26.543 56.2827C26.2958 56.419 26.104 56.6108 25.9677 56.858C25.8342 57.1051 25.7674 57.3949 25.7674 57.7273H24.7617C24.7617 57.2159 24.8796 56.767 25.1154 56.3807C25.3512 55.9943 25.6722 55.6932 26.0785 55.4773C26.4876 55.2614 26.9464 55.1534 27.4549 55.1534C27.9663 55.1534 28.4194 55.2614 28.8143 55.4773C29.2092 55.6932 29.5188 55.9844 29.7433 56.3509C29.9677 56.7173 30.0799 57.125 30.0799 57.5739C30.0799 57.8949 30.0217 58.2088 29.9052 58.5156C29.7915 58.8196 29.5927 59.1591 29.3086 59.5341C29.0273 59.9062 28.6367 60.3608 28.1367 60.8977L26.1765 62.9943V63.0625H30.2333V64H24.7276ZM34.891 64.1193C34.533 64.1136 34.1751 64.0455 33.8171 63.9148C33.4592 63.7841 33.1325 63.5639 32.837 63.2543C32.5415 62.9418 32.3043 62.5199 32.1254 61.9886C31.9464 61.4545 31.8569 60.7841 31.8569 59.9773C31.8569 59.2045 31.9293 58.5199 32.0742 57.9233C32.2191 57.3239 32.4293 56.8196 32.7049 56.4105C32.9805 55.9986 33.3129 55.6861 33.7021 55.473C34.0941 55.2599 34.5359 55.1534 35.0273 55.1534C35.516 55.1534 35.9506 55.2514 36.3313 55.4474C36.7148 55.6406 37.0273 55.9105 37.2688 56.2571C37.5103 56.6037 37.6665 57.0028 37.7376 57.4545H36.6978C36.6012 57.0625 36.4137 56.7372 36.1353 56.4787C35.8569 56.2202 35.4876 56.0909 35.0273 56.0909C34.3512 56.0909 33.8185 56.3849 33.4293 56.973C33.043 57.5611 32.8484 58.3864 32.8455 59.4489H32.9137C33.0728 59.2074 33.2617 59.0014 33.4805 58.831C33.7021 58.6577 33.9464 58.5241 34.2134 58.4304C34.4805 58.3366 34.7631 58.2898 35.0614 58.2898C35.5614 58.2898 36.0188 58.4148 36.4336 58.6648C36.8484 58.9119 37.1808 59.2543 37.4308 59.6918C37.6808 60.1264 37.8058 60.625 37.8058 61.1875C37.8058 61.7273 37.685 62.2216 37.4435 62.6705C37.2021 63.1165 36.8626 63.4716 36.4251 63.7358C35.9904 63.9972 35.479 64.125 34.891 64.1193ZM34.891 63.1818C35.2489 63.1818 35.57 63.0923 35.854 62.9134C36.141 62.7344 36.3668 62.4943 36.5316 62.1932C36.6992 61.892 36.783 61.5568 36.783 61.1875C36.783 60.8267 36.7021 60.4986 36.5401 60.2031C36.381 59.9048 36.1609 59.6676 35.8796 59.4915C35.6012 59.3153 35.283 59.2273 34.9251 59.2273C34.6552 59.2273 34.4038 59.2812 34.1708 59.3892C33.9379 59.4943 33.7333 59.6392 33.5572 59.8239C33.3839 60.0085 33.2475 60.2202 33.1481 60.4588C33.0487 60.6946 32.9989 60.9432 32.9989 61.2045C32.9989 61.5511 33.0799 61.875 33.2418 62.1761C33.4066 62.4773 33.631 62.7202 33.9151 62.9048C34.2021 63.0895 34.5273 63.1818 34.891 63.1818ZM39.4815 64V63.233L42.3622 60.0795C42.7003 59.7102 42.9787 59.3892 43.1974 59.1165C43.4162 58.8409 43.5781 58.5824 43.6832 58.3409C43.7912 58.0966 43.8452 57.8409 43.8452 57.5739C43.8452 57.267 43.7713 57.0014 43.6236 56.777C43.4787 56.5526 43.2798 56.3793 43.027 56.2571C42.7741 56.1349 42.4901 56.0739 42.1747 56.0739C41.8395 56.0739 41.5469 56.1435 41.2969 56.2827C41.0497 56.419 40.858 56.6108 40.7216 56.858C40.5881 57.1051 40.5213 57.3949 40.5213 57.7273H39.5156C39.5156 57.2159 39.6335 56.767 39.8693 56.3807C40.1051 55.9943 40.4261 55.6932 40.8324 55.4773C41.2415 55.2614 41.7003 55.1534 42.2088 55.1534C42.7202 55.1534 43.1733 55.2614 43.5682 55.4773C43.9631 55.6932 44.2727 55.9844 44.4972 56.3509C44.7216 56.7173 44.8338 57.125 44.8338 57.5739C44.8338 57.8949 44.7756 58.2088 44.6591 58.5156C44.5455 58.8196 44.3466 59.1591 44.0625 59.5341C43.7812 59.9062 43.3906 60.3608 42.8906 60.8977L40.9304 62.9943V63.0625H44.9872V64H39.4815ZM49.6449 64.1193C49.2869 64.1136 48.929 64.0455 48.571 63.9148C48.2131 63.7841 47.8864 63.5639 47.5909 63.2543C47.2955 62.9418 47.0582 62.5199 46.8793 61.9886C46.7003 61.4545 46.6108 60.7841 46.6108 59.9773C46.6108 59.2045 46.6832 58.5199 46.8281 57.9233C46.973 57.3239 47.1832 56.8196 47.4588 56.4105C47.7344 55.9986 48.0668 55.6861 48.456 55.473C48.848 55.2599 49.2898 55.1534 49.7812 55.1534C50.2699 55.1534 50.7045 55.2514 51.0852 55.4474C51.4688 55.6406 51.7813 55.9105 52.0227 56.2571C52.2642 56.6037 52.4205 57.0028 52.4915 57.4545H51.4517C51.3551 57.0625 51.1676 56.7372 50.8892 56.4787C50.6108 56.2202 50.2415 56.0909 49.7812 56.0909C49.1051 56.0909 48.5724 56.3849 48.1832 56.973C47.7969 57.5611 47.6023 58.3864 47.5994 59.4489H47.6676C47.8267 59.2074 48.0156 59.0014 48.2344 58.831C48.456 58.6577 48.7003 58.5241 48.9673 58.4304C49.2344 58.3366 49.517 58.2898 49.8153 58.2898C50.3153 58.2898 50.7727 58.4148 51.1875 58.6648C51.6023 58.9119 51.9347 59.2543 52.1847 59.6918C52.4347 60.1264 52.5597 60.625 52.5597 61.1875C52.5597 61.7273 52.4389 62.2216 52.1974 62.6705C51.956 63.1165 51.6165 63.4716 51.179 63.7358C50.7443 63.9972 50.233 64.125 49.6449 64.1193ZM49.6449 63.1818C50.0028 63.1818 50.3239 63.0923 50.608 62.9134C50.8949 62.7344 51.1207 62.4943 51.2855 62.1932C51.4531 61.892 51.5369 61.5568 51.5369 61.1875C51.5369 60.8267 51.456 60.4986 51.294 60.2031C51.1349 59.9048 50.9148 59.6676 50.6335 59.4915C50.3551 59.3153 50.0369 59.2273 49.679 59.2273C49.4091 59.2273 49.1577 59.2812 48.9247 59.3892C48.6918 59.4943 48.4872 59.6392 48.3111 59.8239C48.1378 60.0085 48.0014 60.2202 47.902 60.4588C47.8026 60.6946 47.7528 60.9432 47.7528 61.2045C47.7528 61.5511 47.8338 61.875 47.9957 62.1761C48.1605 62.4773 48.3849 62.7202 48.669 62.9048C48.956 63.0895 49.2812 63.1818 49.6449 63.1818Z" fill="#F2F2F2"/>
</svg>
