<svg width="56" height="67" viewBox="0 0 56 67" fill="none" xmlns="http://www.w3.org/2000/svg">
<circle cx="25.3971" cy="17.6471" r="17.4118" stroke="#999999" stroke-width="0.470588"/>
<circle cx="30.103" cy="22.3529" r="17.6471" fill="#999999"/>
<path d="M5.42614 64L6.85795 55.2727H7.71023L6.27841 64H5.42614ZM1.45455 61.5795L1.59091 60.7273H8.10227L7.96591 61.5795H1.45455ZM2.35795 64L3.78977 55.2727H4.64205L3.21023 64H2.35795ZM1.96591 58.5455L2.10227 57.6932H8.61364L8.47727 58.5455H1.96591ZM12.5021 55.1534C12.8601 55.1562 13.218 55.2244 13.576 55.358C13.9339 55.4915 14.2607 55.7131 14.5561 56.0227C14.8516 56.3295 15.0888 56.7486 15.2678 57.2798C15.4467 57.8111 15.5362 58.4773 15.5362 59.2784C15.5362 60.054 15.4624 60.7429 15.3146 61.3452C15.1697 61.9446 14.9595 62.4503 14.6839 62.8622C14.4112 63.2741 14.0788 63.5866 13.6868 63.7997C13.2976 64.0128 12.8572 64.1193 12.3658 64.1193C11.8771 64.1193 11.4411 64.0227 11.0575 63.8295C10.6768 63.6335 10.3643 63.3622 10.12 63.0156C9.87855 62.6662 9.72372 62.2614 9.65554 61.8011H10.6953C10.7891 62.2017 10.9751 62.5327 11.2536 62.794C11.5348 63.0526 11.9055 63.1818 12.3658 63.1818C13.0391 63.1818 13.5703 62.8878 13.9595 62.2997C14.3516 61.7116 14.5476 60.8807 14.5476 59.8068H14.4794C14.3203 60.0455 14.1314 60.2514 13.9126 60.4247C13.6939 60.598 13.451 60.7315 13.1839 60.8253C12.9169 60.919 12.6328 60.9659 12.3317 60.9659C11.8317 60.9659 11.3729 60.8423 10.9553 60.5952C10.5405 60.3452 10.2081 60.0028 9.9581 59.5682C9.71094 59.1307 9.58736 58.6307 9.58736 58.0682C9.58736 57.5341 9.70668 57.0455 9.94531 56.6023C10.1868 56.1562 10.5249 55.8011 10.9595 55.5369C11.397 55.2727 11.9112 55.1449 12.5021 55.1534ZM12.5021 56.0909C12.1442 56.0909 11.8217 56.1804 11.5348 56.3594C11.2507 56.5355 11.0249 56.7741 10.8572 57.0753C10.6925 57.3736 10.6101 57.7045 10.6101 58.0682C10.6101 58.4318 10.6896 58.7628 10.8487 59.0611C11.0107 59.3565 11.2308 59.5923 11.5092 59.7685C11.7905 59.9418 12.1101 60.0284 12.468 60.0284C12.7379 60.0284 12.9893 59.9759 13.2223 59.8707C13.4553 59.7628 13.6584 59.6165 13.8317 59.4318C14.0078 59.2443 14.1456 59.0327 14.245 58.7969C14.3445 58.5582 14.3942 58.3097 14.3942 58.0511C14.3942 57.7102 14.3118 57.3906 14.147 57.0923C13.9851 56.794 13.7607 56.5526 13.4737 56.3679C13.1896 56.1832 12.8658 56.0909 12.5021 56.0909ZM19.9904 55.1534C20.3484 55.1562 20.7063 55.2244 21.0643 55.358C21.4222 55.4915 21.7489 55.7131 22.0444 56.0227C22.3398 56.3295 22.5771 56.7486 22.756 57.2798C22.935 57.8111 23.0245 58.4773 23.0245 59.2784C23.0245 60.054 22.9506 60.7429 22.8029 61.3452C22.658 61.9446 22.4478 62.4503 22.1722 62.8622C21.8995 63.2741 21.5671 63.5866 21.1751 63.7997C20.7859 64.0128 20.3455 64.1193 19.854 64.1193C19.3654 64.1193 18.9293 64.0227 18.5458 63.8295C18.1651 63.6335 17.8526 63.3622 17.6083 63.0156C17.3668 62.6662 17.212 62.2614 17.1438 61.8011H18.1836C18.2773 62.2017 18.4634 62.5327 18.7418 62.794C19.0231 63.0526 19.3938 63.1818 19.854 63.1818C20.5273 63.1818 21.0586 62.8878 21.4478 62.2997C21.8398 61.7116 22.0359 60.8807 22.0359 59.8068H21.9677C21.8086 60.0455 21.6197 60.2514 21.4009 60.4247C21.1822 60.598 20.9393 60.7315 20.6722 60.8253C20.4052 60.919 20.1211 60.9659 19.82 60.9659C19.32 60.9659 18.8612 60.8423 18.4435 60.5952C18.0288 60.3452 17.6964 60.0028 17.4464 59.5682C17.1992 59.1307 17.0756 58.6307 17.0756 58.0682C17.0756 57.5341 17.195 57.0455 17.4336 56.6023C17.6751 56.1562 18.0131 55.8011 18.4478 55.5369C18.8853 55.2727 19.3995 55.1449 19.9904 55.1534ZM19.9904 56.0909C19.6325 56.0909 19.31 56.1804 19.0231 56.3594C18.739 56.5355 18.5131 56.7741 18.3455 57.0753C18.1808 57.3736 18.0984 57.7045 18.0984 58.0682C18.0984 58.4318 18.1779 58.7628 18.337 59.0611C18.4989 59.3565 18.7191 59.5923 18.9975 59.7685C19.2788 59.9418 19.5984 60.0284 19.9563 60.0284C20.2262 60.0284 20.4776 59.9759 20.7106 59.8707C20.9435 59.7628 21.1467 59.6165 21.32 59.4318C21.4961 59.2443 21.6339 59.0327 21.7333 58.7969C21.8327 58.5582 21.8825 58.3097 21.8825 58.0511C21.8825 57.7102 21.8001 57.3906 21.6353 57.0923C21.4734 56.794 21.2489 56.5526 20.962 56.3679C20.6779 56.1832 20.354 56.0909 19.9904 56.0909ZM27.4787 55.1534C27.8366 55.1562 28.1946 55.2244 28.5526 55.358C28.9105 55.4915 29.2372 55.7131 29.5327 56.0227C29.8281 56.3295 30.0653 56.7486 30.2443 57.2798C30.4233 57.8111 30.5128 58.4773 30.5128 59.2784C30.5128 60.054 30.4389 60.7429 30.2912 61.3452C30.1463 61.9446 29.9361 62.4503 29.6605 62.8622C29.3878 63.2741 29.0554 63.5866 28.6634 63.7997C28.2741 64.0128 27.8338 64.1193 27.3423 64.1193C26.8537 64.1193 26.4176 64.0227 26.0341 63.8295C25.6534 63.6335 25.3409 63.3622 25.0966 63.0156C24.8551 62.6662 24.7003 62.2614 24.6321 61.8011H25.6719C25.7656 62.2017 25.9517 62.5327 26.2301 62.794C26.5114 63.0526 26.8821 63.1818 27.3423 63.1818C28.0156 63.1818 28.5469 62.8878 28.9361 62.2997C29.3281 61.7116 29.5241 60.8807 29.5241 59.8068H29.456C29.2969 60.0455 29.108 60.2514 28.8892 60.4247C28.6705 60.598 28.4276 60.7315 28.1605 60.8253C27.8935 60.919 27.6094 60.9659 27.3082 60.9659C26.8082 60.9659 26.3494 60.8423 25.9318 60.5952C25.517 60.3452 25.1847 60.0028 24.9347 59.5682C24.6875 59.1307 24.5639 58.6307 24.5639 58.0682C24.5639 57.5341 24.6832 57.0455 24.9219 56.6023C25.1634 56.1562 25.5014 55.8011 25.9361 55.5369C26.3736 55.2727 26.8878 55.1449 27.4787 55.1534ZM27.4787 56.0909C27.1207 56.0909 26.7983 56.1804 26.5114 56.3594C26.2273 56.5355 26.0014 56.7741 25.8338 57.0753C25.669 57.3736 25.5866 57.7045 25.5866 58.0682C25.5866 58.4318 25.6662 58.7628 25.8253 59.0611C25.9872 59.3565 26.2074 59.5923 26.4858 59.7685C26.767 59.9418 27.0866 60.0284 27.4446 60.0284C27.7145 60.0284 27.9659 59.9759 28.1989 59.8707C28.4318 59.7628 28.6349 59.6165 28.8082 59.4318C28.9844 59.2443 29.1222 59.0327 29.2216 58.7969C29.321 58.5582 29.3707 58.3097 29.3707 58.0511C29.3707 57.7102 29.2884 57.3906 29.1236 57.0923C28.9616 56.794 28.7372 56.5526 28.4503 56.3679C28.1662 56.1832 27.8423 56.0909 27.4787 56.0909ZM34.967 55.1534C35.3249 55.1562 35.6829 55.2244 36.0408 55.358C36.3988 55.4915 36.7255 55.7131 37.021 56.0227C37.3164 56.3295 37.5536 56.7486 37.7326 57.2798C37.9116 57.8111 38.0011 58.4773 38.0011 59.2784C38.0011 60.054 37.9272 60.7429 37.7795 61.3452C37.6346 61.9446 37.4244 62.4503 37.1488 62.8622C36.8761 63.2741 36.5437 63.5866 36.1516 63.7997C35.7624 64.0128 35.3221 64.1193 34.8306 64.1193C34.342 64.1193 33.9059 64.0227 33.5224 63.8295C33.1417 63.6335 32.8292 63.3622 32.5849 63.0156C32.3434 62.6662 32.1886 62.2614 32.1204 61.8011H33.1602C33.2539 62.2017 33.44 62.5327 33.7184 62.794C33.9996 63.0526 34.3704 63.1818 34.8306 63.1818C35.5039 63.1818 36.0352 62.8878 36.4244 62.2997C36.8164 61.7116 37.0124 60.8807 37.0124 59.8068H36.9442C36.7852 60.0455 36.5962 60.2514 36.3775 60.4247C36.1587 60.598 35.9158 60.7315 35.6488 60.8253C35.3817 60.919 35.0977 60.9659 34.7965 60.9659C34.2965 60.9659 33.8377 60.8423 33.4201 60.5952C33.0053 60.3452 32.6729 60.0028 32.4229 59.5682C32.1758 59.1307 32.0522 58.6307 32.0522 58.0682C32.0522 57.5341 32.1715 57.0455 32.4102 56.6023C32.6516 56.1562 32.9897 55.8011 33.4244 55.5369C33.8619 55.2727 34.3761 55.1449 34.967 55.1534ZM34.967 56.0909C34.609 56.0909 34.2866 56.1804 33.9996 56.3594C33.7156 56.5355 33.4897 56.7741 33.3221 57.0753C33.1573 57.3736 33.0749 57.7045 33.0749 58.0682C33.0749 58.4318 33.1545 58.7628 33.3136 59.0611C33.4755 59.3565 33.6957 59.5923 33.9741 59.7685C34.2553 59.9418 34.5749 60.0284 34.9329 60.0284C35.2028 60.0284 35.4542 59.9759 35.6871 59.8707C35.9201 59.7628 36.1232 59.6165 36.2965 59.4318C36.4727 59.2443 36.6104 59.0327 36.7099 58.7969C36.8093 58.5582 36.859 58.3097 36.859 58.0511C36.859 57.7102 36.7766 57.3906 36.6119 57.0923C36.4499 56.794 36.2255 56.5526 35.9386 56.3679C35.6545 56.1832 35.3306 56.0909 34.967 56.0909ZM42.4553 55.1534C42.8132 55.1562 43.1712 55.2244 43.5291 55.358C43.8871 55.4915 44.2138 55.7131 44.5092 56.0227C44.8047 56.3295 45.0419 56.7486 45.2209 57.2798C45.3999 57.8111 45.4893 58.4773 45.4893 59.2784C45.4893 60.054 45.4155 60.7429 45.2678 61.3452C45.1229 61.9446 44.9126 62.4503 44.6371 62.8622C44.3643 63.2741 44.032 63.5866 43.6399 63.7997C43.2507 64.0128 42.8104 64.1193 42.3189 64.1193C41.8303 64.1193 41.3942 64.0227 41.0107 63.8295C40.63 63.6335 40.3175 63.3622 40.0732 63.0156C39.8317 62.6662 39.6768 62.2614 39.6087 61.8011H40.6484C40.7422 62.2017 40.9283 62.5327 41.2067 62.794C41.4879 63.0526 41.8587 63.1818 42.3189 63.1818C42.9922 63.1818 43.5234 62.8878 43.9126 62.2997C44.3047 61.7116 44.5007 60.8807 44.5007 59.8068H44.4325C44.2734 60.0455 44.0845 60.2514 43.8658 60.4247C43.647 60.598 43.4041 60.7315 43.1371 60.8253C42.87 60.919 42.5859 60.9659 42.2848 60.9659C41.7848 60.9659 41.326 60.8423 40.9084 60.5952C40.4936 60.3452 40.1612 60.0028 39.9112 59.5682C39.6641 59.1307 39.5405 58.6307 39.5405 58.0682C39.5405 57.5341 39.6598 57.0455 39.8984 56.6023C40.1399 56.1562 40.478 55.8011 40.9126 55.5369C41.3501 55.2727 41.8643 55.1449 42.4553 55.1534ZM42.4553 56.0909C42.0973 56.0909 41.7749 56.1804 41.4879 56.3594C41.2038 56.5355 40.978 56.7741 40.8104 57.0753C40.6456 57.3736 40.5632 57.7045 40.5632 58.0682C40.5632 58.4318 40.6428 58.7628 40.8018 59.0611C40.9638 59.3565 41.1839 59.5923 41.4624 59.7685C41.7436 59.9418 42.0632 60.0284 42.4212 60.0284C42.6911 60.0284 42.9425 59.9759 43.1754 59.8707C43.4084 59.7628 43.6115 59.6165 43.7848 59.4318C43.9609 59.2443 44.0987 59.0327 44.1982 58.7969C44.2976 58.5582 44.3473 58.3097 44.3473 58.0511C44.3473 57.7102 44.2649 57.3906 44.1001 57.0923C43.9382 56.794 43.7138 56.5526 43.4268 56.3679C43.1428 56.1832 42.8189 56.0909 42.4553 56.0909ZM49.9435 55.1534C50.3015 55.1562 50.6594 55.2244 51.0174 55.358C51.3754 55.4915 51.7021 55.7131 51.9975 56.0227C52.293 56.3295 52.5302 56.7486 52.7092 57.2798C52.8881 57.8111 52.9776 58.4773 52.9776 59.2784C52.9776 60.054 52.9038 60.7429 52.756 61.3452C52.6112 61.9446 52.4009 62.4503 52.1254 62.8622C51.8526 63.2741 51.5202 63.5866 51.1282 63.7997C50.739 64.0128 50.2987 64.1193 49.8072 64.1193C49.3185 64.1193 48.8825 64.0227 48.4989 63.8295C48.1183 63.6335 47.8058 63.3622 47.5614 63.0156C47.32 62.6662 47.1651 62.2614 47.0969 61.8011H48.1367C48.2305 62.2017 48.4165 62.5327 48.695 62.794C48.9762 63.0526 49.3469 63.1818 49.8072 63.1818C50.4805 63.1818 51.0117 62.8878 51.4009 62.2997C51.793 61.7116 51.989 60.8807 51.989 59.8068H51.9208C51.7617 60.0455 51.5728 60.2514 51.354 60.4247C51.1353 60.598 50.8924 60.7315 50.6254 60.8253C50.3583 60.919 50.0742 60.9659 49.7731 60.9659C49.2731 60.9659 48.8143 60.8423 48.3967 60.5952C47.9819 60.3452 47.6495 60.0028 47.3995 59.5682C47.1523 59.1307 47.0288 58.6307 47.0288 58.0682C47.0288 57.5341 47.1481 57.0455 47.3867 56.6023C47.6282 56.1562 47.9663 55.8011 48.4009 55.5369C48.8384 55.2727 49.3526 55.1449 49.9435 55.1534ZM49.9435 56.0909C49.5856 56.0909 49.2631 56.1804 48.9762 56.3594C48.6921 56.5355 48.4663 56.7741 48.2987 57.0753C48.1339 57.3736 48.0515 57.7045 48.0515 58.0682C48.0515 58.4318 48.131 58.7628 48.2901 59.0611C48.4521 59.3565 48.6722 59.5923 48.9506 59.7685C49.2319 59.9418 49.5515 60.0284 49.9094 60.0284C50.1793 60.0284 50.4308 59.9759 50.6637 59.8707C50.8967 59.7628 51.0998 59.6165 51.2731 59.4318C51.4492 59.2443 51.587 59.0327 51.6864 58.7969C51.7859 58.5582 51.8356 58.3097 51.8356 58.0511C51.8356 57.7102 51.7532 57.3906 51.5884 57.0923C51.4265 56.794 51.2021 56.5526 50.9151 56.3679C50.631 56.1832 50.3072 56.0909 49.9435 56.0909Z" fill="#F2F2F2"/>
</svg>
