<svg width="32" height="33" viewBox="0 0 32 33" fill="none" xmlns="http://www.w3.org/2000/svg">
<path d="M17.3207 17.9087H14.6793C14.5021 17.9087 14.3579 18.0529 14.3579 18.2301V20.8834C14.3579 21.0606 14.5021 21.2048 14.6793 21.2048H17.3207C17.498 21.2048 17.6422 21.0606 17.6422 20.8834V18.2301C17.6422 18.0529 17.498 17.9087 17.3207 17.9087Z" fill="url(#paint0_linear_983_69180)"/>
<path d="M27.0633 7.06127H21.6155V4.78171C21.6155 3.59052 20.6371 2.62146 19.4345 2.62146H12.5655C11.3629 2.62146 10.3845 3.59052 10.3845 4.78171V7.06134H4.93669C2.21462 7.06127 0 9.2759 0 11.998V14.9568C0.18325 15.8491 0.8275 16.5836 1.71906 16.8689L12.4772 19.4981V18.2302C12.4772 17.016 13.4651 16.0281 14.6793 16.0281H17.3207C18.5349 16.0281 19.5228 17.016 19.5228 18.2302V19.4981L30.2809 16.8689C31.1725 16.5836 31.8167 15.8491 32 14.9568V11.998C32 9.2759 29.7854 7.06127 27.0633 7.06127ZM19.7348 7.06134H12.2653V4.78171C12.2653 4.62234 12.3943 4.50215 12.5655 4.50215H19.4345C19.6057 4.50215 19.7348 4.62234 19.7348 4.78171V7.06134Z" fill="url(#paint1_linear_983_69180)"/>
<path d="M30.8113 18.6736C30.7933 18.6792 30.7752 18.6842 30.7569 18.6886L19.4479 21.4525C19.1964 22.3917 18.3382 23.0855 17.3207 23.0855H14.6793C13.6618 23.0855 12.8036 22.3917 12.5521 21.4525L1.24306 18.6886C1.22481 18.6841 1.20669 18.6791 1.18869 18.6736C0.756875 18.5402 0.358375 18.3458 0 18.1027V26.096C0 28.3195 1.80894 30.1285 4.0325 30.1285H27.9675C30.191 30.1285 32 28.3195 32 26.096V18.1027C31.6416 18.3458 31.2431 18.5402 30.8113 18.6736Z" fill="url(#paint2_linear_983_69180)"/>
<defs>
<linearGradient id="paint0_linear_983_69180" x1="14.3579" y1="19.5568" x2="17.6422" y2="19.5568" gradientUnits="userSpaceOnUse">
<stop stop-color="#CE80FF"/>
<stop offset="0.504032" stop-color="#80F0FF"/>
<stop offset="1" stop-color="#B1FF80"/>
</linearGradient>
<linearGradient id="paint1_linear_983_69180" x1="0" y1="11.0598" x2="32" y2="11.0598" gradientUnits="userSpaceOnUse">
<stop stop-color="#CE80FF"/>
<stop offset="0.504032" stop-color="#80F0FF"/>
<stop offset="1" stop-color="#B1FF80"/>
</linearGradient>
<linearGradient id="paint2_linear_983_69180" x1="0" y1="24.1156" x2="32" y2="24.1156" gradientUnits="userSpaceOnUse">
<stop stop-color="#CE80FF"/>
<stop offset="0.504032" stop-color="#80F0FF"/>
<stop offset="1" stop-color="#B1FF80"/>
</linearGradient>
</defs>
</svg>
