<svg width="32" height="33" viewBox="0 0 32 33" fill="none" xmlns="http://www.w3.org/2000/svg">
<path fill-rule="evenodd" clip-rule="evenodd" d="M15.9089 0.375001H16.091C18.3602 0.374969 20.1893 0.374943 21.6278 0.566221C23.1213 0.764812 24.3788 1.18966 25.3775 2.17742C26.3763 3.16518 26.8059 4.40888 27.0067 5.88598C27.2001 7.30869 27.2 9.11763 27.2 11.3619V21.3881C27.2 23.6324 27.2001 25.4413 27.0067 26.864C26.8059 28.3411 26.3763 29.5848 25.3775 30.5726C24.3788 31.5603 23.1213 31.9852 21.6278 32.1838C20.1893 32.3751 18.3602 32.375 16.091 32.375H15.9089C13.6398 32.375 11.8107 32.3751 10.3722 32.1838C8.87868 31.9852 7.62117 31.5603 6.62244 30.5726C5.6237 29.5848 5.19413 28.3411 4.99333 26.864C4.79993 25.4413 4.79996 23.6324 4.79999 21.3882V11.3618C4.79996 9.11762 4.79993 7.30868 4.99333 5.88598C5.19413 4.40887 5.6237 3.16518 6.62244 2.17742C7.62117 1.18966 8.87868 0.764812 10.3722 0.566221C11.8107 0.374943 13.6398 0.374969 15.9089 0.375001ZM12.6815 24.9904C11.9942 24.9904 11.437 25.5276 11.437 26.1904C11.437 26.8531 11.9942 27.3904 12.6815 27.3904H19.3185C20.0058 27.3904 20.563 26.8531 20.563 26.1904C20.563 25.5276 20.0058 24.9904 19.3185 24.9904H12.6815Z" fill="url(#paint0_linear_983_69224)"/>
<defs>
<linearGradient id="paint0_linear_983_69224" x1="4.79999" y1="16.375" x2="27.2" y2="16.375" gradientUnits="userSpaceOnUse">
<stop stop-color="#CE80FF"/>
<stop offset="0.504032" stop-color="#80F0FF"/>
<stop offset="1" stop-color="#B1FF80"/>
</linearGradient>
</defs>
</svg>
