<svg width="32" height="33" viewBox="0 0 32 33" fill="none" xmlns="http://www.w3.org/2000/svg">
<path d="M23.8563 8.7125C26.1586 8.7125 28.025 6.84609 28.025 4.54375C28.025 2.24141 26.1586 0.375 23.8563 0.375C21.5539 0.375 19.6875 2.24141 19.6875 4.54375C19.6875 6.84609 21.5539 8.7125 23.8563 8.7125Z" fill="url(#paint0_linear_983_69196)"/>
<path d="M21.9688 24.5812L20.2125 17.6937C19.9 16.4687 18.7938 15.6062 17.525 15.6062H14.475C13.2063 15.6062 12.1 16.4687 11.7875 17.6937L10.0313 24.5812C9.76876 25.6062 10.5438 26.6 11.6 26.6H12.9188V30.9875C12.9188 31.75 13.5375 32.375 14.3063 32.375H17.7C18.4625 32.375 19.0875 31.7562 19.0875 30.9875V26.6H20.4063C21.4563 26.6 22.2313 25.6062 21.9688 24.5812Z" fill="url(#paint1_linear_983_69196)"/>
<path d="M16 14.8813C17.7017 14.8813 19.0813 13.5017 19.0813 11.8C19.0813 10.0983 17.7017 8.71875 16 8.71875C14.2983 8.71875 12.9188 10.0983 12.9188 11.8C12.9188 13.5017 14.2983 14.8813 16 14.8813Z" fill="url(#paint2_linear_983_69196)"/>
<path d="M31.9313 21.8375L29.5563 12.5187C29.1313 10.8562 27.6375 9.69373 25.925 9.69373H21.8C21.1563 9.69373 20.55 9.85622 20.0125 10.15C20.225 10.6562 20.3375 11.2125 20.3375 11.8C20.3375 12.925 19.9063 13.95 19.2 14.725C20.2813 15.2187 21.1188 16.1812 21.425 17.3875L22.7875 22.7312L23.1813 24.275C23.2063 24.3687 23.225 24.4687 23.2375 24.5625C23.3563 25.3375 23.15 26.1125 22.6625 26.7375C22.1188 27.4437 21.2875 27.8437 20.4 27.8437H20.3313V30.9812C20.3313 31.2625 20.2875 31.5312 20.2063 31.7875C20.5438 32.1437 21.0313 32.3687 21.5625 32.3687H26.1563C27.1938 32.3687 28.0313 31.5312 28.0313 30.4937V24.5562H29.8125C31.2375 24.5625 32.2813 23.2187 31.9313 21.8375Z" fill="url(#paint3_linear_983_69196)"/>
<path d="M8.81875 24.275L9.2125 22.7312L10.575 17.3875C10.8812 16.175 11.7187 15.2187 12.8 14.725C12.0937 13.9562 11.6625 12.925 11.6625 11.8C11.6625 11.2187 11.775 10.6625 11.9875 10.15C11.45 9.85622 10.8437 9.69373 10.2 9.69373H6.075C4.3625 9.69373 2.8625 10.8562 2.44375 12.5187L0.0687461 21.8375C-0.281254 23.2187 0.762496 24.5625 2.1875 24.5625H3.96875V30.5C3.96875 31.5375 4.80625 32.375 5.84375 32.375H10.4375C10.9687 32.375 11.45 32.15 11.7937 31.7937C11.7125 31.5375 11.6687 31.2687 11.6687 30.9875V27.85H11.6C10.7062 27.85 9.88125 27.4437 9.3375 26.7437C8.85 26.1187 8.65 25.3375 8.7625 24.5687C8.775 24.4687 8.79375 24.3687 8.81875 24.275Z" fill="url(#paint4_linear_983_69196)"/>
<path d="M12.3094 4.55215C12.314 2.24981 10.4513 0.379666 8.14899 0.375062C5.84665 0.370457 3.9765 2.23314 3.9719 4.53547C3.96729 6.83781 5.82997 8.70796 8.13231 8.71256C10.4346 8.71717 12.3048 6.85449 12.3094 4.55215Z" fill="url(#paint5_linear_983_69196)"/>
<defs>
<linearGradient id="paint0_linear_983_69196" x1="19.6875" y1="4.54375" x2="28.025" y2="4.54375" gradientUnits="userSpaceOnUse">
<stop stop-color="#CE80FF"/>
<stop offset="0.504032" stop-color="#80F0FF"/>
<stop offset="1" stop-color="#B1FF80"/>
</linearGradient>
<linearGradient id="paint1_linear_983_69196" x1="9.9798" y1="23.9906" x2="22.0202" y2="23.9906" gradientUnits="userSpaceOnUse">
<stop stop-color="#CE80FF"/>
<stop offset="0.504032" stop-color="#80F0FF"/>
<stop offset="1" stop-color="#B1FF80"/>
</linearGradient>
<linearGradient id="paint2_linear_983_69196" x1="12.9188" y1="11.8" x2="19.0813" y2="11.8" gradientUnits="userSpaceOnUse">
<stop stop-color="#CE80FF"/>
<stop offset="0.504032" stop-color="#80F0FF"/>
<stop offset="1" stop-color="#B1FF80"/>
</linearGradient>
<linearGradient id="paint3_linear_983_69196" x1="19.2" y1="21.0312" x2="31.9993" y2="21.0312" gradientUnits="userSpaceOnUse">
<stop stop-color="#CE80FF"/>
<stop offset="0.504032" stop-color="#80F0FF"/>
<stop offset="1" stop-color="#B1FF80"/>
</linearGradient>
<linearGradient id="paint4_linear_983_69196" x1="0.000671387" y1="21.0344" x2="12.8" y2="21.0344" gradientUnits="userSpaceOnUse">
<stop stop-color="#CE80FF"/>
<stop offset="0.504032" stop-color="#80F0FF"/>
<stop offset="1" stop-color="#B1FF80"/>
</linearGradient>
<linearGradient id="paint5_linear_983_69196" x1="8.13231" y1="8.71256" x2="8.14899" y2="0.375062" gradientUnits="userSpaceOnUse">
<stop stop-color="#CE80FF"/>
<stop offset="0.504032" stop-color="#80F0FF"/>
<stop offset="1" stop-color="#B1FF80"/>
</linearGradient>
</defs>
</svg>
