<svg width="56" height="67" viewBox="0 0 56 67" fill="none" xmlns="http://www.w3.org/2000/svg">
<circle cx="25.8971" cy="17.6471" r="17.4118" stroke="#F8901F" stroke-width="0.470588"/>
<circle cx="30.603" cy="22.3529" r="17.6471" fill="#F8901F"/>
<path d="M7.42614 64L8.85795 55.2727H9.71023L8.27841 64H7.42614ZM3.45455 61.5795L3.59091 60.7273H10.1023L9.96591 61.5795H3.45455ZM4.35795 64L5.78977 55.2727H6.64205L5.21023 64H4.35795ZM3.96591 58.5455L4.10227 57.6932H10.6136L10.4773 58.5455H3.96591ZM11.8771 64V55.2727H17.1101V56.2102H12.9339V59.1591H16.718V60.0966H12.9339V64H11.8771ZM21.5621 64.1193C20.9769 64.1193 20.4599 64.0156 20.011 63.8082C19.565 63.598 19.217 63.3097 18.967 62.9432C18.717 62.5739 18.5934 62.1534 18.5962 61.6818C18.5934 61.3125 18.6658 60.9716 18.8136 60.6591C18.9613 60.3437 19.163 60.081 19.4187 59.8707C19.6772 59.6577 19.9656 59.5227 20.2837 59.4659V59.4148C19.8661 59.3068 19.5337 59.0724 19.2866 58.7116C19.0394 58.348 18.9173 57.9347 18.9201 57.4716C18.9173 57.0284 19.0295 56.6321 19.2567 56.2827C19.484 55.9332 19.7965 55.6577 20.1942 55.456C20.5948 55.2543 21.0508 55.1534 21.5621 55.1534C22.0678 55.1534 22.5195 55.2543 22.9173 55.456C23.315 55.6577 23.6275 55.9332 23.8548 56.2827C24.0849 56.6321 24.2013 57.0284 24.2042 57.4716C24.2013 57.9347 24.0749 58.348 23.8249 58.7116C23.5778 59.0724 23.2496 59.3068 22.8406 59.4148V59.4659C23.1559 59.5227 23.44 59.6577 23.6928 59.8707C23.9457 60.081 24.1474 60.3437 24.2979 60.6591C24.4485 60.9716 24.5252 61.3125 24.5281 61.6818C24.5252 62.1534 24.3974 62.5739 24.1445 62.9432C23.8945 63.3097 23.5465 63.598 23.1005 63.8082C22.6573 64.0156 22.1445 64.1193 21.5621 64.1193ZM21.5621 63.1818C21.957 63.1818 22.2979 63.1179 22.5849 62.9901C22.8718 62.8622 23.0934 62.6818 23.2496 62.4489C23.4059 62.2159 23.4854 61.9432 23.4883 61.6307C23.4854 61.3011 23.4002 61.0099 23.2326 60.7571C23.065 60.5043 22.8363 60.3054 22.5465 60.1605C22.2596 60.0156 21.9315 59.9432 21.5621 59.9432C21.19 59.9432 20.8576 60.0156 20.565 60.1605C20.2752 60.3054 20.0465 60.5043 19.8789 60.7571C19.7141 61.0099 19.6332 61.3011 19.636 61.6307C19.6332 61.9432 19.7085 62.2159 19.8619 62.4489C20.0181 62.6818 20.2411 62.8622 20.5309 62.9901C20.8207 63.1179 21.1644 63.1818 21.5621 63.1818ZM21.5621 59.0398C21.8746 59.0398 22.1516 58.9773 22.3931 58.8523C22.6374 58.7273 22.8292 58.5526 22.9684 58.3281C23.1076 58.1037 23.1786 57.8409 23.1815 57.5398C23.1786 57.2443 23.109 56.9872 22.9727 56.7685C22.8363 56.5469 22.6474 56.3764 22.4059 56.2571C22.1644 56.1349 21.8832 56.0739 21.5621 56.0739C21.2354 56.0739 20.9499 56.1349 20.7056 56.2571C20.4613 56.3764 20.2724 56.5469 20.1388 56.7685C20.0053 56.9872 19.94 57.2443 19.9428 57.5398C19.94 57.8409 20.0067 58.1037 20.1431 58.3281C20.2823 58.5526 20.4741 58.7273 20.7184 58.8523C20.9627 58.9773 21.244 59.0398 21.5621 59.0398ZM28.9396 55.1534C29.2976 55.1562 29.6555 55.2244 30.0135 55.358C30.3714 55.4915 30.6982 55.7131 30.9936 56.0227C31.2891 56.3295 31.5263 56.7486 31.7053 57.2798C31.8842 57.8111 31.9737 58.4773 31.9737 59.2784C31.9737 60.054 31.8999 60.7429 31.7521 61.3452C31.6072 61.9446 31.397 62.4503 31.1214 62.8622C30.8487 63.2741 30.5163 63.5866 30.1243 63.7997C29.7351 64.0128 29.2947 64.1193 28.8033 64.1193C28.3146 64.1193 27.8786 64.0227 27.495 63.8295C27.1143 63.6335 26.8018 63.3622 26.5575 63.0156C26.3161 62.6662 26.1612 62.2614 26.093 61.8011H27.1328C27.2266 62.2017 27.4126 62.5327 27.6911 62.794C27.9723 63.0526 28.343 63.1818 28.8033 63.1818C29.4766 63.1818 30.0078 62.8878 30.397 62.2997C30.7891 61.7116 30.9851 60.8807 30.9851 59.8068H30.9169C30.7578 60.0455 30.5689 60.2514 30.3501 60.4247C30.1314 60.598 29.8885 60.7315 29.6214 60.8253C29.3544 60.919 29.0703 60.9659 28.7692 60.9659C28.2692 60.9659 27.8104 60.8423 27.3928 60.5952C26.978 60.3452 26.6456 60.0028 26.3956 59.5682C26.1484 59.1307 26.0249 58.6307 26.0249 58.0682C26.0249 57.5341 26.1442 57.0455 26.3828 56.6023C26.6243 56.1562 26.9624 55.8011 27.397 55.5369C27.8345 55.2727 28.3487 55.1449 28.9396 55.1534ZM28.9396 56.0909C28.5817 56.0909 28.2592 56.1804 27.9723 56.3594C27.6882 56.5355 27.4624 56.7741 27.2947 57.0753C27.13 57.3736 27.0476 57.7045 27.0476 58.0682C27.0476 58.4318 27.1271 58.7628 27.2862 59.0611C27.4482 59.3565 27.6683 59.5923 27.9467 59.7685C28.228 59.9418 28.5476 60.0284 28.9055 60.0284C29.1754 60.0284 29.4268 59.9759 29.6598 59.8707C29.8928 59.7628 30.0959 59.6165 30.2692 59.4318C30.4453 59.2443 30.5831 59.0327 30.6825 58.7969C30.782 58.5582 30.8317 58.3097 30.8317 58.0511C30.8317 57.7102 30.7493 57.3906 30.5845 57.0923C30.4226 56.794 30.1982 56.5526 29.9112 56.3679C29.6271 56.1832 29.3033 56.0909 28.9396 56.0909ZM36.4961 64.1193C35.854 64.1193 35.3072 63.9446 34.8555 63.5952C34.4038 63.2429 34.0586 62.733 33.82 62.0653C33.5813 61.3949 33.462 60.5852 33.462 59.6364C33.462 58.6932 33.5813 57.8878 33.82 57.2202C34.0614 56.5497 34.408 56.0384 34.8597 55.6861C35.3143 55.331 35.8597 55.1534 36.4961 55.1534C37.1325 55.1534 37.6765 55.331 38.1282 55.6861C38.5827 56.0384 38.9293 56.5497 39.168 57.2202C39.4094 57.8878 39.5302 58.6932 39.5302 59.6364C39.5302 60.5852 39.4109 61.3949 39.1722 62.0653C38.9336 62.733 38.5884 63.2429 38.1367 63.5952C37.685 63.9446 37.1381 64.1193 36.4961 64.1193ZM36.4961 63.1818C37.1325 63.1818 37.6268 62.875 37.979 62.2614C38.3313 61.6477 38.5075 60.7727 38.5075 59.6364C38.5075 58.8807 38.4265 58.2372 38.2646 57.706C38.1055 57.1747 37.8754 56.7699 37.5742 56.4915C37.2759 56.2131 36.9165 56.0739 36.4961 56.0739C35.8654 56.0739 35.3725 56.3849 35.0174 57.0071C34.6623 57.6264 34.4847 58.5028 34.4847 59.6364C34.4847 60.392 34.5643 61.0341 34.7234 61.5625C34.8825 62.0909 35.1112 62.4929 35.4094 62.7685C35.7106 63.044 36.0728 63.1818 36.4961 63.1818ZM44.2177 55.2727V64H43.1609V56.3807H43.1097L40.979 57.7955V56.7216L43.1609 55.2727H44.2177ZM46.881 64V55.2727H52.114V56.2102H47.9379V59.1591H51.7219V60.0966H47.9379V64H46.881Z" fill="#F2F2F2"/>
</svg>
