<svg width="56" height="67" viewBox="0 0 56 67" fill="none" xmlns="http://www.w3.org/2000/svg">
<circle cx="25.6471" cy="17.6471" r="17.4118" stroke="#FAFAFA" stroke-width="0.470588"/>
<circle cx="30.353" cy="22.3529" r="17.6471" fill="#FAFAFA"/>
<path d="M7.17614 64L8.60795 55.2727H9.46023L8.02841 64H7.17614ZM3.20455 61.5795L3.34091 60.7273H9.85227L9.71591 61.5795H3.20455ZM4.10795 64L5.53977 55.2727H6.39205L4.96023 64H4.10795ZM3.71591 58.5455L3.85227 57.6932H10.3636L10.2273 58.5455H3.71591ZM11.6271 64V55.2727H16.8601V56.2102H12.6839V59.1591H16.468V60.0966H12.6839V64H11.6271ZM17.9382 64H16.8303L20.0348 55.2727H21.1257L24.3303 64H23.2223L20.6143 56.6534H20.5462L17.9382 64ZM18.3473 60.5909H22.8132V61.5284H18.3473V60.5909ZM25.6896 64V55.2727H30.9226V56.2102H26.7464V59.1591H30.5305V60.0966H26.7464V64H25.6896ZM32.0007 64H30.8928L34.0973 55.2727H35.1882L38.3928 64H37.2848L34.6768 56.6534H34.6087L32.0007 64ZM32.4098 60.5909H36.8757V61.5284H32.4098V60.5909ZM39.7521 64V55.2727H44.9851V56.2102H40.8089V59.1591H44.593V60.0966H40.8089V64H39.7521ZM46.0632 64H44.9553L48.1598 55.2727H49.2507L52.4553 64H51.3473L48.7393 56.6534H48.6712L46.0632 64ZM46.4723 60.5909H50.9382V61.5284H46.4723V60.5909Z" fill="#F2F2F2"/>
</svg>
