<svg width="32" height="33" viewBox="0 0 32 33" fill="none" xmlns="http://www.w3.org/2000/svg">
<g clip-path="url(#clip0_983_69208)">
<path d="M20.125 2.81262C20.125 2.5025 20.3774 2.25012 20.6875 2.25012H23.9375C24.2477 2.25012 24.5 2.5025 24.5 2.81262V6.16356H26.375V2.81262C26.375 1.46856 25.2816 0.375122 23.9375 0.375122H20.6875C19.3434 0.375122 18.25 1.46856 18.25 2.81262V6.16356H20.125V2.81262Z" fill="url(#paint0_linear_983_69208)"/>
<path d="M11.3961 30.5001C10.9865 29.8636 10.75 29.1101 10.75 28.3126V14.2573H2.1875C0.981313 14.2573 0 15.2386 0 16.4448V28.3126C0 29.4127 0.816313 30.3253 1.875 30.4774V31.4374C1.875 31.9551 2.29475 32.3749 2.8125 32.3749C3.33025 32.3749 3.75 31.9551 3.75 31.4374V30.5001H11.3961V30.5001ZM3.75 17.6948C3.75 17.1771 4.16975 16.7573 4.6875 16.7573C5.20525 16.7573 5.625 17.1771 5.625 17.6948V27.0626C5.625 27.5804 5.20525 28.0001 4.6875 28.0001C4.16975 28.0001 3.75 27.5804 3.75 27.0626V17.6948Z" fill="url(#paint1_linear_983_69208)"/>
<path d="M8.75 10.9064C8.75 10.5962 9.00238 10.3439 9.3125 10.3439H10.75V10.2261C10.75 9.597 10.8937 9.00093 11.1501 8.46887H9.3125C7.96844 8.46887 6.875 9.56231 6.875 10.9064V12.3823H8.75V10.9064Z" fill="url(#paint2_linear_983_69208)"/>
<path d="M29.8125 8.03857H14.8125C13.6063 8.03857 12.625 9.01989 12.625 10.2261V28.3126C12.625 29.4127 13.4413 30.3253 14.5 30.4774V31.4374C14.5 31.9551 14.9197 32.3749 15.4375 32.3749C15.9553 32.3749 16.375 31.9551 16.375 31.4374V30.5001H28.25V31.4374C28.25 31.9551 28.6698 32.3749 29.1875 32.3749C29.7052 32.3749 30.125 31.9551 30.125 31.4374V30.4774C31.1836 30.3253 32 29.4127 32 28.3126V10.2261C32 9.01982 31.0187 8.03857 29.8125 8.03857ZM18.25 27.0626C18.25 27.5804 17.8302 28.0001 17.3125 28.0001C16.7948 28.0001 16.375 27.5804 16.375 27.0626V11.4761C16.375 10.9583 16.7948 10.5386 17.3125 10.5386C17.8302 10.5386 18.25 10.9583 18.25 11.4761V27.0626ZM27.3125 28.0001C26.7948 28.0001 26.375 27.5804 26.375 27.0626V11.4761C26.375 10.9583 26.7948 10.5386 27.3125 10.5386C27.8302 10.5386 28.25 10.9583 28.25 11.4761V27.0626C28.25 27.5804 27.8302 28.0001 27.3125 28.0001Z" fill="url(#paint3_linear_983_69208)"/>
</g>
<defs>
<linearGradient id="paint0_linear_983_69208" x1="18.25" y1="3.26934" x2="26.375" y2="3.26934" gradientUnits="userSpaceOnUse">
<stop stop-color="#CE80FF"/>
<stop offset="0.504032" stop-color="#80F0FF"/>
<stop offset="1" stop-color="#B1FF80"/>
</linearGradient>
<linearGradient id="paint1_linear_983_69208" x1="0" y1="23.3161" x2="11.3961" y2="23.3161" gradientUnits="userSpaceOnUse">
<stop stop-color="#CE80FF"/>
<stop offset="0.504032" stop-color="#80F0FF"/>
<stop offset="1" stop-color="#B1FF80"/>
</linearGradient>
<linearGradient id="paint2_linear_983_69208" x1="6.875" y1="10.4256" x2="11.1501" y2="10.4256" gradientUnits="userSpaceOnUse">
<stop stop-color="#CE80FF"/>
<stop offset="0.504032" stop-color="#80F0FF"/>
<stop offset="1" stop-color="#B1FF80"/>
</linearGradient>
<linearGradient id="paint3_linear_983_69208" x1="12.625" y1="20.2067" x2="32" y2="20.2067" gradientUnits="userSpaceOnUse">
<stop stop-color="#CE80FF"/>
<stop offset="0.504032" stop-color="#80F0FF"/>
<stop offset="1" stop-color="#B1FF80"/>
</linearGradient>
<clipPath id="clip0_983_69208">
<rect width="32" height="32" fill="white" transform="translate(0 0.375)"/>
</clipPath>
</defs>
</svg>
