<svg width="32" height="33" viewBox="0 0 32 33" fill="none" xmlns="http://www.w3.org/2000/svg">
<path d="M15.2774 2.05181C15.7537 1.94936 16.2462 1.94936 16.7225 2.05181C17.7821 2.27972 18.4668 3.11565 19.0038 3.99851C19.5471 4.89178 20.1186 6.14807 20.8207 7.69136L20.8208 7.6915L20.8544 7.76534C21.3282 8.80681 21.4409 8.99757 21.5809 9.12197C21.6355 9.17044 21.6945 9.21359 21.7571 9.25086C21.9179 9.34653 22.1329 9.3955 23.263 9.52744L23.5396 9.55973C25.1293 9.74529 26.4237 9.89639 27.3893 10.124C28.3423 10.3486 29.3004 10.7139 29.8539 11.5826C30.1747 12.0861 30.3613 12.6643 30.3957 13.2616C30.455 14.2919 29.8931 15.1546 29.2533 15.9003C28.6049 16.6559 27.6459 17.5443 26.4681 18.6353L26.4118 18.6874C25.5322 19.5023 25.379 19.679 25.3049 19.8586C25.2679 19.9484 25.2422 20.0425 25.2285 20.1387C25.201 20.3312 25.2429 20.5619 25.5852 21.7151L25.6557 21.9527C26.2019 23.7925 26.6449 25.2845 26.8322 26.4356C27.0167 27.5694 27.0289 28.7761 26.2166 29.683C26.0113 29.9123 25.7766 30.1131 25.5186 30.28C24.4985 30.9405 23.3179 30.7332 22.2365 30.3666C21.1387 29.9943 19.7481 29.313 18.0333 28.4727L17.5079 28.2153C16.4336 27.6889 16.2188 27.6132 16.019 27.6116L15.9921 27.6117C15.7924 27.6149 15.5782 27.6923 14.5081 28.2273L14.0352 28.4638L14.0351 28.4638C12.3031 29.3298 10.8994 30.0317 9.79119 30.4166C8.70062 30.7955 7.50744 31.013 6.47648 30.3432C6.23226 30.1845 6.00887 29.9954 5.81161 29.7805C4.97887 28.8731 4.98641 27.6522 5.16937 26.5052C5.35528 25.3398 5.80036 23.8266 6.34953 21.9596L6.34954 21.9596L6.42167 21.7143C6.76067 20.5617 6.80195 20.3313 6.77406 20.139C6.76021 20.0435 6.73459 19.9501 6.69778 19.861C6.62367 19.6815 6.47075 19.5051 5.59217 18.6912L5.53583 18.639C4.35631 17.5464 3.39589 16.6568 2.74675 15.9C2.10612 15.1531 1.54374 14.2891 1.60448 13.2572C1.63945 12.663 1.82508 12.0877 2.14363 11.5863C2.69686 10.7155 3.65623 10.3493 4.61047 10.1243C5.5774 9.89625 6.87373 9.74493 8.46579 9.55909L8.73688 9.52744C9.86699 9.3955 10.082 9.34653 10.2428 9.25086C10.3054 9.21359 10.3644 9.17044 10.4189 9.12197C10.559 8.99757 10.6717 8.80681 11.1455 7.76534L11.1791 7.69153L11.1791 7.69148C11.8813 6.14813 12.4528 4.89181 12.9961 3.99851C13.5331 3.11565 14.2178 2.27972 15.2774 2.05181Z" fill="url(#paint0_linear_983_69240)"/>
<defs>
<linearGradient id="paint0_linear_983_69240" x1="1.59998" y1="16.375" x2="30.4" y2="16.375" gradientUnits="userSpaceOnUse">
<stop stop-color="#CE80FF"/>
<stop offset="0.504032" stop-color="#80F0FF"/>
<stop offset="1" stop-color="#B1FF80"/>
</linearGradient>
</defs>
</svg>
