<svg width="32" height="33" viewBox="0 0 32 33" fill="none" xmlns="http://www.w3.org/2000/svg">
<path fill-rule="evenodd" clip-rule="evenodd" d="M24.5201 3.95482C23.9552 3.69961 23.3789 3.61016 22.7644 3.58396C22.1842 3.55923 21.4869 3.58951 20.6634 3.62526L20.6113 3.62752C16.9769 3.78524 12.0438 4.13123 7.99728 4.89852C5.98539 5.28 4.10623 5.78091 2.70107 6.45827C1.3866 7.09191 0 8.12446 0 9.75751L2.17144e-05 18.5363C-6.55344e-06 20.7093 -2.94416e-05 22.4608 0.191255 23.8384C0.389855 25.2687 0.814722 26.473 1.80246 27.4295C2.79022 28.386 4.0339 28.7975 5.511 28.9898C6.93371 29.175 8.74264 29.175 10.9869 29.175H21.4405C23.4808 29.175 25.1256 29.175 26.4293 29.0198C27.7797 28.859 28.9302 28.5161 29.8847 27.7121C30.1001 27.5307 30.3021 27.3351 30.4894 27.1265C31.2595 26.2691 31.6199 25.2483 31.8006 24.0612H25.0452C22.0997 24.0612 19.7119 21.7489 19.7119 18.8965C19.7119 16.0441 22.0997 13.7317 25.0452 13.7317H31.9518C31.624 11.2121 29.6587 9.18613 27.1207 8.68496C27.1152 8.2842 27.1026 7.92373 27.0739 7.60207C27.0201 6.9976 26.9036 6.43218 26.6125 5.89226C26.1631 5.05891 25.3999 4.35228 24.5201 3.95482ZM20.7215 6.00886C21.611 5.97027 22.1983 5.94587 22.6562 5.96539C23.0919 5.98396 23.3145 6.04054 23.4795 6.11505C23.8693 6.29118 24.2314 6.62643 24.4305 6.99571C24.5122 7.14713 24.5821 7.3644 24.6215 7.80683C24.6408 8.02397 24.6513 8.27118 24.6569 8.56564H3.85371C4.95992 8.04316 6.56051 7.59995 8.47028 7.23783C12.3317 6.50565 17.1164 6.16531 20.7215 6.00886Z" fill="url(#paint0_linear_983_69235)"/>
<path fill-rule="evenodd" clip-rule="evenodd" d="M32 16.1155H25.0452C23.4592 16.1155 22.1734 17.3606 22.1734 18.8965C22.1734 20.4324 23.4592 21.6775 25.0452 21.6775H31.9788C32 20.8628 32 19.9557 32 18.9493V16.1155ZM25.8469 20.4856C26.7532 20.4856 27.4879 19.7742 27.4879 18.8965C27.4879 18.0188 26.7532 17.3073 25.8469 17.3073C24.9406 17.3073 24.2059 18.0188 24.2059 18.8965C24.2059 19.7742 24.9406 20.4856 25.8469 20.4856Z" fill="url(#paint1_linear_983_69235)"/>
<defs>
<linearGradient id="paint0_linear_983_69235" x1="0" y1="16.375" x2="32" y2="16.375" gradientUnits="userSpaceOnUse">
<stop stop-color="#CE80FF"/>
<stop offset="0.504032" stop-color="#80F0FF"/>
<stop offset="1" stop-color="#B1FF80"/>
</linearGradient>
<linearGradient id="paint1_linear_983_69235" x1="0" y1="16.375" x2="32" y2="16.375" gradientUnits="userSpaceOnUse">
<stop stop-color="#CE80FF"/>
<stop offset="0.504032" stop-color="#80F0FF"/>
<stop offset="1" stop-color="#B1FF80"/>
</linearGradient>
</defs>
</svg>
