<svg width="32" height="33" viewBox="0 0 32 33" fill="none" xmlns="http://www.w3.org/2000/svg">
<g clip-path="url(#clip0_983_69170)">
<path d="M16 0.375C10.3137 0.375 5.6875 5.06369 5.6875 10.75C5.6875 16.5298 7.58081 20.4457 7.66138 20.6068C7.82069 20.9245 8.14475 21.125 8.5 21.125H11.092C9.51706 19.7492 8.5 17.6881 8.5 15.4375V14.4624C8.5 12.9902 9.65081 11.7571 11.1202 11.6564C13.5134 11.4952 16.4349 10.8012 17.4694 9.33737C18.7775 7.48331 21.6577 7.85581 22.4215 10.0295C23.0001 11.6875 23.5 13.1176 23.5 15.215C23.5 17.5899 22.4874 19.7193 20.899 21.125H23.5C23.8552 21.125 24.1793 20.9245 24.3386 20.6068C24.4192 20.4457 26.3125 16.5298 26.3125 10.75C26.3125 5.06369 21.6863 0.375 16 0.375Z" fill="url(#paint0_linear_983_69170)"/>
<path d="M6.94751 25.8383C12.9074 27.0552 19.0737 27.0483 25.0389 25.8317C24.3023 25.4661 23.5233 25.2288 22.7896 25.0097C21.2999 24.565 19.6043 24.1266 18.6414 22.4978C17.8203 22.8081 16.9383 23.0001 16 23.0001C15.0778 23.0001 14.2039 22.8102 13.3872 22.5043C12.4372 24.1131 10.7209 24.5593 9.20951 25.0106C8.47176 25.2307 7.68795 25.4689 6.94751 25.8383Z" fill="url(#paint1_linear_983_69170)"/>
<path d="M4.78102 32.375L27.219 32.3749C27.7488 32.3749 28.1914 31.9316 28.1583 31.4031C28.0413 29.5306 27.5797 28.2609 26.9291 27.3681C23.3461 28.223 19.6769 28.6516 16.0083 28.6516C12.3395 28.6516 8.67983 28.1842 5.10046 27.3328C4.43489 28.2275 3.96052 29.5036 3.84171 31.4031C3.80864 31.9316 4.25127 32.375 4.78102 32.375Z" fill="url(#paint2_linear_983_69170)"/>
<path d="M21.625 15.215C21.625 13.4361 21.1956 12.2066 20.6518 10.6502C20.4045 9.94539 19.4497 9.78332 19.0011 10.4186C17.2707 12.8685 13.0035 13.4087 11.2494 13.5268C10.7568 13.5606 10.3751 13.9689 10.3751 14.4624V15.4375C10.3751 18.5393 12.8982 21.125 16.0001 21.125C19.3146 21.125 21.625 18.3124 21.625 15.215Z" fill="url(#paint3_linear_983_69170)"/>
</g>
<defs>
<linearGradient id="paint0_linear_983_69170" x1="5.6875" y1="10.75" x2="26.3125" y2="10.75" gradientUnits="userSpaceOnUse">
<stop stop-color="#CE80FF"/>
<stop offset="0.504032" stop-color="#80F0FF"/>
<stop offset="1" stop-color="#B1FF80"/>
</linearGradient>
<linearGradient id="paint1_linear_983_69170" x1="6.94751" y1="24.6227" x2="25.0389" y2="24.6227" gradientUnits="userSpaceOnUse">
<stop stop-color="#CE80FF"/>
<stop offset="0.504032" stop-color="#80F0FF"/>
<stop offset="1" stop-color="#B1FF80"/>
</linearGradient>
<linearGradient id="paint2_linear_983_69170" x1="3.83997" y1="29.8539" x2="28.1601" y2="29.8539" gradientUnits="userSpaceOnUse">
<stop stop-color="#CE80FF"/>
<stop offset="0.504032" stop-color="#80F0FF"/>
<stop offset="1" stop-color="#B1FF80"/>
</linearGradient>
<linearGradient id="paint3_linear_983_69170" x1="10.3751" y1="15.5731" x2="21.625" y2="15.5731" gradientUnits="userSpaceOnUse">
<stop stop-color="#CE80FF"/>
<stop offset="0.504032" stop-color="#80F0FF"/>
<stop offset="1" stop-color="#B1FF80"/>
</linearGradient>
<clipPath id="clip0_983_69170">
<rect width="32" height="32" fill="white" transform="translate(0 0.375)"/>
</clipPath>
</defs>
</svg>
